<?xml version="1.0" encoding="utf-8"?>
<!-- Generator: Adobe Illustrator 27.3.1, SVG Export Plug-In . SVG Version: 6.00 Build 0)  -->
<svg version="1.1" id="Capa_1" xmlns="http://www.w3.org/2000/svg" xmlns:xlink="http://www.w3.org/1999/xlink" x="0px" y="0px"
	 viewBox="0 0 573.82 644.45" style="enable-background:new 0 0 573.82 644.45;" xml:space="preserve">
<style type="text/css">
	.st0{fill:#FFFFFF;}
	.st1{fill:#266392;}
	.st2{opacity:0.15;}
	.st3{fill:#404041;}
	.st4{fill:#C1C1C1;}
	.st5{fill:#4D4D4D;}
</style>
<g>
	<path class="st0" d="M528.74,54.53H36.85c-3.35,0-6.06,2.07-6.06,4.62v461.64c0,2.55,2.71,4.62,6.06,4.62h491.89
		c3.35,0,6.06-2.07,6.06-4.62V59.15C534.8,56.6,532.09,54.53,528.74,54.53z"/>
</g>
<g>
	<path class="st1" d="M534.8,132.9V30.39c0-3.56-2.71-6.45-6.07-6.45H36.22c-3.35,0-6.07,2.88-6.07,6.45V132.9H534.8L534.8,132.9z"
		/>
</g>
<g>
	<path class="st0" d="M140.32,71.35c-0.96-0.31-1.81-0.46-2.54-0.46c-0.82,0-1.47,0.15-1.94,0.46s-0.72,0.73-0.72,1.28
		c0,0.49,0.17,0.91,0.5,1.24c0.33,0.33,0.75,0.6,1.25,0.82c0.5,0.21,1.19,0.45,2.06,0.7c1.21,0.36,2.2,0.72,2.98,1.07
		c0.78,0.36,1.44,0.89,1.98,1.58c0.55,0.7,0.82,1.62,0.82,2.76c0,1.09-0.29,2.04-0.88,2.85c-0.59,0.81-1.4,1.43-2.43,1.85
		c-1.03,0.43-2.21,0.64-3.54,0.64c-1.4,0-2.76-0.26-4.09-0.78c-1.33-0.52-2.49-1.21-3.48-2.08l1.43-2.91
		c0.9,0.84,1.92,1.49,3.04,1.97c1.12,0.48,2.17,0.72,3.14,0.72c0.95,0,1.7-0.18,2.25-0.55c0.55-0.37,0.82-0.86,0.82-1.5
		c0-0.51-0.17-0.93-0.5-1.27c-0.33-0.33-0.75-0.6-1.27-0.81c-0.51-0.2-1.21-0.43-2.1-0.69c-1.21-0.36-2.2-0.71-2.97-1.05
		c-0.77-0.34-1.42-0.86-1.97-1.55s-0.82-1.6-0.82-2.72c0-1.04,0.28-1.95,0.83-2.72c0.55-0.78,1.34-1.38,2.35-1.8
		c1.01-0.43,2.19-0.64,3.52-0.64c1.16,0,2.3,0.17,3.44,0.51c1.13,0.34,2.14,0.8,3.03,1.38l-1.38,2.99
		C142.22,72.09,141.28,71.65,140.32,71.35z"/>
	<path class="st0" d="M147.95,68.05h13.11v2.99h-9.69v4.42h8.69v2.99h-8.69v4.5h10v2.99h-13.42V68.05z"/>
	<path class="st0" d="M164.84,68.05h3.43v14.8h7.72v3.09h-11.15V68.05z"/>
	<path class="st0" d="M178.67,68.05h13.11v2.99h-9.69v4.42h8.69v2.99h-8.69v4.5h10v2.99h-13.42V68.05z"/>
	<path class="st0" d="M206.3,71.5c-0.86-0.41-1.73-0.61-2.62-0.61c-1.11,0-2.12,0.26-3.04,0.79s-1.65,1.26-2.17,2.19
		c-0.53,0.93-0.79,1.95-0.79,3.06s0.26,2.13,0.79,3.05c0.53,0.93,1.25,1.66,2.17,2.2c0.92,0.54,1.93,0.81,3.04,0.81
		c0.85,0,1.71-0.19,2.57-0.56c0.86-0.37,1.62-0.9,2.29-1.56l2.02,2.25c-0.94,0.95-2.03,1.71-3.27,2.26
		c-1.24,0.55-2.5,0.83-3.78,0.83c-1.72,0-3.3-0.41-4.73-1.23c-1.43-0.82-2.56-1.93-3.37-3.34c-0.82-1.41-1.23-2.96-1.23-4.67
		c0-1.7,0.42-3.25,1.25-4.65s1.97-2.5,3.41-3.3c1.44-0.8,3.04-1.2,4.79-1.2c1.28,0,2.53,0.26,3.76,0.77s2.27,1.22,3.14,2.12
		l-1.99,2.51C207.9,72.48,207.16,71.91,206.3,71.5z"/>
	<path class="st0" d="M211.37,68.05h14.6v3.04h-5.57v14.85h-3.45V71.09h-5.57V68.05z"/>
	<path class="st0" d="M246.9,69.18c1.41,0.76,2.52,1.82,3.32,3.18c0.8,1.36,1.2,2.91,1.2,4.63s-0.41,3.26-1.21,4.61
		c-0.81,1.35-1.93,2.42-3.36,3.18s-3.06,1.15-4.88,1.15h-7.31v-17.9h7.44C243.89,68.05,245.49,68.43,246.9,69.18z M245.13,82.17
		c0.88-0.5,1.56-1.2,2.06-2.1c0.49-0.89,0.74-1.91,0.74-3.05c0-1.14-0.26-2.17-0.77-3.08c-0.51-0.91-1.21-1.62-2.11-2.12
		c-0.89-0.5-1.9-0.75-3-0.75h-3.96v11.86h4.09C243.27,82.93,244.25,82.67,245.13,82.17z"/>
	<path class="st0" d="M267.2,85.94l-1.58-3.78h-8.74l-1.58,3.78h-3.55l7.85-17.9h3.55l7.75,17.9H267.2z M258.1,79.22h6.29
		l-3.12-7.52L258.1,79.22z"/>
	<path class="st0" d="M269.25,68.05h14.6v3.04h-5.57v14.85h-3.45V71.09h-5.57V68.05z"/>
	<path class="st0" d="M286.27,68.05h13.11v2.99h-9.69v4.42h8.69v2.99h-8.69v4.5h10v2.99h-13.42V68.05z"/>
	<path class="st0" d="M322.68,85.94l-1.58-3.78h-8.74l-1.58,3.78h-3.55l7.85-17.9h3.55l7.75,17.9H322.68z M313.58,79.22h6.29
		l-3.12-7.52L313.58,79.22z"/>
	<path class="st0" d="M341.01,68.05h3.32v17.9h-3.25l-9.2-12.32v12.32h-3.35v-17.9h3.25l9.23,12.35V68.05z"/>
	<path class="st0" d="M360.97,69.18c1.42,0.76,2.52,1.82,3.32,3.18c0.8,1.36,1.2,2.91,1.2,4.63s-0.41,3.26-1.21,4.61
		s-1.93,2.42-3.36,3.18s-3.06,1.15-4.88,1.15h-7.31v-17.9h7.44C357.95,68.05,359.56,68.43,360.97,69.18z M359.19,82.17
		c0.88-0.5,1.56-1.2,2.06-2.1c0.49-0.89,0.74-1.91,0.74-3.05c0-1.14-0.26-2.17-0.77-3.08c-0.51-0.91-1.21-1.62-2.11-2.12
		c-0.9-0.5-1.9-0.75-3-0.75h-3.96v11.86h4.09C357.33,82.93,358.32,82.67,359.19,82.17z"/>
	<path class="st0" d="M372.76,68.05h14.6v3.04h-5.57v14.85h-3.45V71.09h-5.57V68.05z"/>
	<path class="st0" d="M389.78,68.05h3.43v17.9h-3.43V68.05z"/>
	<path class="st0" d="M397.6,68.05h3.91l5.93,11.53l5.88-11.53h3.91v17.9h-3.14V73.11l-5.57,10.99h-2.2l-5.6-10.99v12.83h-3.12
		V68.05z"/>
	<path class="st0" d="M421.63,68.05h13.11v2.99h-9.69v4.42h8.69v2.99h-8.69v4.5h10v2.99h-13.42V68.05z"/>
</g>
<g>
	<path d="M334.69,159.46l7.37,7.37l7.37-7.37h-14.75H334.69z"/>
</g>
<g>
	<path d="M383.35,163.15l2.08,2.08l8.24-8.23v17.95h2.95V157l8.23,8.24l2.09-2.09l-11.8-11.8l-11.8,11.8H383.35z"/>
</g>
<g>
	<path d="M477.72,163.15l-2.08-2.08l-8.24,8.23v-17.95h-2.95v17.95l-8.23-8.24l-2.09,2.09l11.8,11.8l11.8-11.8H477.72z"/>
</g>
<g>
	<path d="M91.63,262.24h1.2c0.76-0.01,1.35-0.21,1.78-0.6c0.44-0.39,0.64-0.91,0.64-1.56c0-1.47-0.74-2.21-2.21-2.21
		c-0.69,0-1.24,0.2-1.66,0.6c-0.41,0.39-0.61,0.92-0.61,1.56h-1.6c0-1,0.37-1.83,1.09-2.48c0.74-0.67,1.66-0.99,2.78-0.99
		c1.18,0,2.11,0.31,2.79,0.94c0.68,0.63,1.01,1.51,1.01,2.62c0,0.55-0.18,1.08-0.54,1.59c-0.36,0.52-0.83,0.9-1.44,1.15
		c0.69,0.22,1.22,0.59,1.6,1.09c0.38,0.51,0.57,1.13,0.57,1.86c0,1.13-0.37,2.02-1.1,2.69c-0.74,0.67-1.7,0.99-2.87,0.99
		c-1.17,0-2.14-0.32-2.89-0.95c-0.74-0.64-1.1-1.48-1.1-2.53h1.61c0,0.67,0.22,1.2,0.64,1.59c0.44,0.4,1.01,0.6,1.74,0.6
		c0.77,0,1.36-0.2,1.77-0.61c0.41-0.4,0.61-0.98,0.61-1.74c0-0.76-0.23-1.29-0.68-1.69c-0.45-0.39-1.09-0.6-1.94-0.61h-1.2v-1.31
		H91.63z M107.13,263.94c0,1.87-0.32,3.26-0.95,4.17c-0.64,0.91-1.64,1.37-3,1.37c-1.36,0-2.33-0.45-2.98-1.33
		c-0.64-0.9-0.98-2.22-1-3.99v-2.14c0-1.85,0.32-3.22,0.95-4.12c0.64-0.9,1.64-1.35,3.01-1.35c1.37,0,2.34,0.44,2.99,1.3
		c0.64,0.86,0.97,2.2,0.99,4.01v2.07H107.13z M105.53,261.75c0-1.36-0.2-2.33-0.57-2.95c-0.38-0.62-0.98-0.93-1.81-0.93
		c-0.83,0-1.41,0.31-1.79,0.92c-0.38,0.62-0.56,1.56-0.57,2.84v2.55c0,1.36,0.2,2.37,0.59,3.01c0.4,0.64,1,0.97,1.79,0.97
		c0.79,0,1.37-0.31,1.76-0.92c0.39-0.61,0.59-1.57,0.61-2.89v-2.62V261.75z"/>
</g>
<g>
	<path d="M101.28,303.9v1.36h-0.3c-1.24,0.02-2.23,0.39-2.98,1.1c-0.74,0.71-1.16,1.72-1.28,3.01c0.67-0.76,1.56-1.14,2.71-1.14
		c1.15,0,1.97,0.39,2.62,1.16c0.66,0.77,0.99,1.77,0.99,2.99c0,1.3-0.36,2.33-1.06,3.1c-0.7,0.78-1.64,1.16-2.83,1.16
		c-1.18,0-2.18-0.46-2.93-1.38c-0.75-0.93-1.13-2.12-1.13-3.58v-0.61c0-2.31,0.49-4.08,1.47-5.3c0.99-1.23,2.46-1.85,4.41-1.89
		H101.28L101.28,303.9z M99.17,309.56c-0.55,0-1.05,0.16-1.52,0.49c-0.46,0.32-0.78,0.74-0.95,1.23v0.59c0,1.03,0.23,1.87,0.7,2.51
		c0.47,0.63,1.05,0.95,1.75,0.95c0.7,0,1.29-0.26,1.69-0.79c0.41-0.53,0.62-1.22,0.62-2.08c0-0.86-0.21-1.56-0.63-2.09
		C100.42,309.83,99.86,309.56,99.17,309.56z"/>
</g>
<g>
	<path d="M94.55,363.67h-1.61v-10.66l-3.22,1.18v-1.45l4.58-1.72h0.25v12.63V363.67z M101.55,356.6h1.2
		c0.76-0.01,1.34-0.21,1.78-0.6c0.44-0.39,0.64-0.91,0.64-1.56c0-1.47-0.74-2.21-2.21-2.21c-0.69,0-1.24,0.2-1.66,0.6
		c-0.41,0.39-0.61,0.92-0.61,1.56h-1.6c0-1,0.37-1.83,1.09-2.48c0.74-0.67,1.66-0.99,2.78-0.99c1.18,0,2.12,0.31,2.79,0.94
		c0.68,0.63,1.01,1.51,1.01,2.62c0,0.55-0.18,1.08-0.54,1.59c-0.36,0.52-0.83,0.9-1.44,1.15c0.69,0.22,1.22,0.59,1.6,1.09
		c0.38,0.51,0.57,1.13,0.57,1.86c0,1.13-0.37,2.02-1.1,2.69c-0.74,0.67-1.7,0.99-2.87,0.99c-1.17,0-2.14-0.32-2.89-0.95
		c-0.74-0.64-1.1-1.48-1.1-2.53h1.61c0,0.67,0.22,1.2,0.64,1.59c0.44,0.4,1.01,0.6,1.74,0.6c0.77,0,1.36-0.2,1.77-0.61
		c0.41-0.4,0.61-0.98,0.61-1.74c0-0.76-0.23-1.29-0.68-1.69c-0.45-0.4-1.09-0.6-1.94-0.61h-1.2v-1.31H101.55z"/>
</g>
<g>
	<path d="M97.54,410.85H89.3v-1.15l4.36-4.84c0.64-0.74,1.09-1.32,1.33-1.78c0.25-0.46,0.37-0.93,0.37-1.43c0-0.66-0.2-1.2-0.6-1.62
		c-0.4-0.42-0.93-0.63-1.59-0.63c-0.79,0-1.41,0.23-1.86,0.68c-0.44,0.45-0.65,1.08-0.65,1.88h-1.6c0-1.16,0.37-2.09,1.12-2.8
		c0.75-0.71,1.75-1.07,3-1.07c1.17,0,2.09,0.31,2.77,0.92c0.68,0.61,1.02,1.43,1.02,2.45c0,1.24-0.79,2.71-2.37,4.43l-3.37,3.66
		h6.31V410.85L97.54,410.85z M107.12,405.48c0,1.87-0.32,3.27-0.95,4.17c-0.64,0.91-1.64,1.37-3,1.37c-1.36,0-2.33-0.45-2.98-1.33
		c-0.64-0.9-0.98-2.22-1-3.99v-2.14c0-1.85,0.32-3.22,0.95-4.12c0.64-0.9,1.64-1.35,3.01-1.35c1.37,0,2.35,0.44,2.99,1.3
		c0.64,0.86,0.97,2.2,0.99,4.01v2.07H107.12z M105.52,403.29c0-1.36-0.2-2.33-0.57-2.95c-0.38-0.62-0.98-0.93-1.8-0.93
		c-0.83,0-1.41,0.31-1.79,0.92c-0.38,0.61-0.56,1.56-0.57,2.84v2.55c0,1.36,0.2,2.37,0.59,3.01c0.4,0.64,1,0.97,1.79,0.97
		c0.79,0,1.37-0.31,1.76-0.92c0.39-0.61,0.59-1.57,0.61-2.89v-2.62V403.29z"/>
</g>
<g>
	<path d="M97.54,458.04H89.3v-1.15l4.36-4.84c0.64-0.74,1.09-1.32,1.33-1.78c0.25-0.46,0.37-0.93,0.37-1.43c0-0.65-0.2-1.2-0.6-1.62
		c-0.4-0.43-0.93-0.63-1.59-0.63c-0.79,0-1.41,0.23-1.86,0.68c-0.44,0.45-0.65,1.08-0.65,1.89h-1.6c0-1.16,0.37-2.09,1.12-2.81
		c0.75-0.71,1.75-1.07,3-1.07c1.17,0,2.09,0.31,2.77,0.92c0.68,0.61,1.02,1.43,1.02,2.45c0,1.24-0.79,2.71-2.37,4.43l-3.37,3.66
		h6.31V458.04L97.54,458.04z M107.36,446.36l-5.21,11.68h-1.68l5.2-11.27h-6.81v-1.31h8.5V446.36z"/>
</g>
<g>
	<path d="M101.76,500.99h1.75v1.31h-1.75v2.92h-1.61v-2.92h-5.73v-0.94l5.63-8.71h1.7V501V500.99z M96.24,500.99h3.91v-6.17
		l-0.2,0.34l-3.72,5.82L96.24,500.99z"/>
</g>
<g>
	<path d="M156.31,262.24h1.2c0.76-0.01,1.35-0.21,1.78-0.6c0.44-0.39,0.64-0.91,0.64-1.56c0-1.47-0.74-2.21-2.21-2.21
		c-0.69,0-1.24,0.2-1.66,0.6c-0.41,0.39-0.61,0.92-0.61,1.56h-1.6c0-1,0.37-1.83,1.09-2.48c0.74-0.67,1.66-0.99,2.78-0.99
		c1.18,0,2.11,0.31,2.79,0.94c0.68,0.63,1.01,1.51,1.01,2.62c0,0.55-0.18,1.08-0.54,1.59c-0.36,0.52-0.83,0.9-1.45,1.15
		c0.69,0.22,1.22,0.59,1.6,1.09c0.38,0.51,0.57,1.13,0.57,1.86c0,1.13-0.37,2.02-1.1,2.69c-0.74,0.67-1.7,0.99-2.87,0.99
		c-1.17,0-2.14-0.32-2.89-0.95c-0.74-0.64-1.1-1.48-1.1-2.53h1.61c0,0.67,0.22,1.2,0.64,1.59c0.44,0.4,1.01,0.6,1.74,0.6
		c0.77,0,1.36-0.2,1.77-0.61c0.41-0.4,0.61-0.98,0.61-1.74c0-0.76-0.23-1.29-0.68-1.69c-0.45-0.39-1.09-0.6-1.94-0.61h-1.2V262.24
		L156.31,262.24z M169.17,269.31h-1.61v-10.66l-3.22,1.18v-1.45l4.58-1.72h0.25v12.63V269.31z"/>
</g>
<g>
	<path d="M167.81,304.81l-5.21,11.68h-1.68l5.2-11.27h-6.81v-1.31h8.51v0.9H167.81z"/>
</g>
<g>
	<path d="M159.24,363.67h-1.61v-10.66l-3.22,1.18v-1.45l4.58-1.72h0.25v12.63V363.67z M170.67,359.45h1.75v1.31h-1.75v2.92h-1.61
		v-2.92h-5.73v-0.94l5.63-8.71h1.7v8.36V359.45z M165.15,359.45h3.91v-6.17l-0.2,0.34l-3.72,5.82L165.15,359.45z"/>
</g>
<g>
	<path d="M162.23,410.85h-8.24v-1.15l4.36-4.84c0.64-0.74,1.09-1.32,1.33-1.78c0.25-0.46,0.37-0.93,0.37-1.43
		c0-0.66-0.2-1.2-0.6-1.62c-0.4-0.42-0.93-0.63-1.59-0.63c-0.79,0-1.41,0.23-1.86,0.68c-0.44,0.45-0.65,1.08-0.65,1.88h-1.6
		c0-1.16,0.37-2.09,1.12-2.8c0.75-0.71,1.75-1.07,3-1.07c1.17,0,2.09,0.31,2.77,0.92c0.68,0.61,1.02,1.43,1.02,2.45
		c0,1.24-0.79,2.71-2.37,4.43l-3.37,3.66h6.31V410.85L162.23,410.85z M169.17,410.85h-1.61v-10.66l-3.22,1.18v-1.45l4.58-1.72h0.25
		v12.63V410.85z"/>
</g>
<g>
	<path d="M162.23,458.04h-8.24v-1.15l4.36-4.84c0.64-0.74,1.09-1.32,1.33-1.78c0.25-0.46,0.37-0.93,0.37-1.43
		c0-0.65-0.2-1.2-0.6-1.62c-0.4-0.43-0.93-0.63-1.59-0.63c-0.79,0-1.41,0.23-1.86,0.68c-0.44,0.45-0.65,1.08-0.65,1.89h-1.6
		c0-1.16,0.37-2.09,1.12-2.81c0.75-0.71,1.75-1.07,3-1.07c1.17,0,2.09,0.31,2.77,0.92c0.68,0.61,1.02,1.43,1.02,2.45
		c0,1.24-0.79,2.71-2.37,4.43l-3.37,3.66h6.31V458.04L162.23,458.04z M171.55,448.74c0,0.63-0.16,1.18-0.51,1.68
		c-0.33,0.49-0.77,0.87-1.33,1.15c0.65,0.29,1.17,0.69,1.55,1.23c0.39,0.54,0.57,1.15,0.57,1.84c0,1.09-0.37,1.96-1.1,2.6
		c-0.74,0.64-1.69,0.97-2.9,0.97c-1.21,0-2.18-0.32-2.91-0.97c-0.72-0.66-1.09-1.52-1.09-2.6c0-0.68,0.18-1.29,0.55-1.84
		c0.38-0.55,0.89-0.97,1.55-1.24c-0.56-0.28-1-0.66-1.32-1.15c-0.32-0.49-0.48-1.05-0.48-1.67c0-1.06,0.34-1.9,1.02-2.52
		c0.68-0.62,1.58-0.93,2.69-0.93s2,0.31,2.68,0.93C171.22,446.84,171.55,447.68,171.55,448.74L171.55,448.74z M170.24,454.6
		c0-0.7-0.22-1.28-0.68-1.72c-0.45-0.45-1.02-0.67-1.75-0.67c-0.72,0-1.3,0.22-1.74,0.66c-0.44,0.44-0.64,1.01-0.64,1.72
		c0,0.71,0.21,1.28,0.63,1.68c0.43,0.41,1.01,0.61,1.77,0.61c0.76,0,1.33-0.21,1.76-0.61c0.43-0.41,0.64-0.98,0.64-1.68V454.6z
		 M167.84,446.59c-0.63,0-1.14,0.2-1.53,0.59c-0.39,0.38-0.57,0.91-0.57,1.57c0,0.67,0.2,1.16,0.57,1.55
		c0.39,0.39,0.9,0.59,1.54,0.59s1.15-0.2,1.53-0.59c0.39-0.4,0.57-0.92,0.57-1.55c0-0.63-0.2-1.16-0.6-1.56
		c-0.4-0.4-0.9-0.61-1.52-0.61V446.59z"/>
</g>
<g>
	<path d="M160.43,498.91l0.64-6.28h6.45v1.48h-5.09l-0.38,3.43c0.62-0.37,1.31-0.54,2.1-0.54c1.15,0,2.06,0.38,2.74,1.14
		c0.68,0.76,1.01,1.78,1.01,3.07c0,1.29-0.36,2.32-1.06,3.07c-0.7,0.75-1.68,1.12-2.93,1.12c-1.12,0-2.02-0.31-2.72-0.92
		c-0.7-0.62-1.1-1.47-1.21-2.55h1.52c0.09,0.72,0.36,1.26,0.77,1.63c0.41,0.37,0.97,0.54,1.64,0.54c0.75,0,1.32-0.25,1.75-0.76
		c0.43-0.51,0.64-1.21,0.64-2.1c0-0.84-0.23-1.52-0.69-2.02c-0.46-0.52-1.06-0.77-1.83-0.77c-0.7,0-1.24,0.15-1.64,0.46l-0.43,0.35
		l-1.28-0.32L160.43,498.91z"/>
</g>
<g>
	<path d="M227.87,269.31h-1.61v-10.66l-3.22,1.18v-1.45l4.58-1.72h0.25v12.63V269.31z"/>
</g>
<g>
	<path d="M230.25,307.19c0,0.63-0.17,1.18-0.51,1.68c-0.33,0.49-0.77,0.87-1.33,1.15c0.66,0.29,1.17,0.69,1.55,1.23
		c0.39,0.54,0.57,1.15,0.57,1.84c0,1.09-0.37,1.95-1.1,2.6c-0.74,0.64-1.7,0.97-2.9,0.97c-1.2,0-2.18-0.32-2.91-0.97
		c-0.72-0.66-1.09-1.52-1.09-2.6c0-0.68,0.18-1.29,0.55-1.84c0.38-0.55,0.89-0.97,1.55-1.24c-0.56-0.28-1-0.66-1.32-1.15
		s-0.48-1.05-0.48-1.67c0-1.06,0.35-1.9,1.02-2.52c0.68-0.62,1.58-0.93,2.69-0.93s2,0.31,2.68,0.93c0.69,0.62,1.04,1.46,1.04,2.52
		H230.25z M228.94,313.05c0-0.7-0.22-1.28-0.68-1.72c-0.45-0.45-1.02-0.67-1.75-0.67s-1.3,0.22-1.74,0.65
		c-0.44,0.44-0.64,1.01-0.64,1.72c0,0.71,0.21,1.28,0.63,1.68c0.43,0.41,1.01,0.61,1.77,0.61c0.76,0,1.33-0.21,1.76-0.61
		c0.43-0.41,0.64-0.98,0.64-1.68V313.05z M226.54,305.03c-0.63,0-1.14,0.2-1.53,0.59c-0.39,0.38-0.57,0.91-0.57,1.57
		c0,0.67,0.2,1.16,0.57,1.55c0.39,0.39,0.9,0.59,1.54,0.59s1.15-0.2,1.53-0.59c0.39-0.4,0.57-0.92,0.57-1.55
		c0-0.63-0.2-1.16-0.6-1.56c-0.4-0.4-0.9-0.61-1.51-0.61L226.54,305.03z"/>
</g>
<g>
	<path d="M222.17,363.67h-1.61v-10.66l-3.22,1.18v-1.45l4.58-1.72h0.25v12.63V363.67z M227.58,357.35l0.64-6.28h6.45v1.48h-5.09
		l-0.38,3.43c0.62-0.37,1.31-0.54,2.1-0.54c1.15,0,2.06,0.38,2.72,1.14c0.68,0.76,1.01,1.78,1.01,3.07s-0.36,2.32-1.06,3.07
		c-0.7,0.75-1.68,1.12-2.93,1.12c-1.12,0-2.02-0.31-2.72-0.92c-0.7-0.62-1.1-1.47-1.21-2.55h1.52c0.09,0.72,0.36,1.26,0.77,1.63
		c0.41,0.37,0.97,0.54,1.64,0.54c0.75,0,1.32-0.25,1.75-0.76c0.43-0.51,0.64-1.21,0.64-2.1c0-0.84-0.23-1.52-0.69-2.02
		c-0.46-0.52-1.06-0.77-1.83-0.77c-0.7,0-1.24,0.15-1.64,0.46l-0.43,0.34l-1.28-0.32V357.35z"/>
</g>
<g>
	<path d="M225.16,410.85h-8.24v-1.15l4.36-4.84c0.64-0.74,1.09-1.32,1.33-1.78c0.25-0.46,0.37-0.93,0.37-1.43
		c0-0.66-0.2-1.2-0.6-1.62c-0.4-0.42-0.93-0.63-1.59-0.63c-0.79,0-1.41,0.23-1.86,0.68c-0.44,0.45-0.65,1.08-0.65,1.88h-1.6
		c0-1.16,0.37-2.09,1.12-2.8c0.75-0.71,1.75-1.07,3-1.07c1.17,0,2.09,0.31,2.77,0.92c0.68,0.61,1.02,1.43,1.02,2.45
		c0,1.24-0.79,2.71-2.37,4.43l-3.37,3.66h6.31V410.85L225.16,410.85z M235.09,410.85h-8.24v-1.15l4.36-4.84
		c0.64-0.74,1.09-1.32,1.33-1.78c0.25-0.46,0.37-0.93,0.37-1.43c0-0.66-0.2-1.2-0.6-1.62c-0.4-0.42-0.93-0.63-1.59-0.63
		c-0.79,0-1.41,0.23-1.86,0.68c-0.44,0.45-0.65,1.08-0.65,1.88h-1.6c0-1.16,0.37-2.09,1.12-2.8c0.75-0.71,1.75-1.07,3-1.07
		c1.17,0,2.09,0.31,2.77,0.92c0.68,0.61,1.02,1.43,1.02,2.45c0,1.24-0.79,2.71-2.37,4.43l-3.37,3.66h6.31V410.85L235.09,410.85z"/>
</g>
<g>
	<path d="M225.16,458.04h-8.24v-1.15l4.36-4.84c0.64-0.74,1.09-1.32,1.33-1.78c0.25-0.46,0.37-0.93,0.37-1.43
		c0-0.65-0.2-1.2-0.6-1.62c-0.4-0.43-0.93-0.63-1.59-0.63c-0.79,0-1.41,0.23-1.86,0.68c-0.44,0.45-0.65,1.08-0.65,1.89h-1.6
		c0-1.16,0.37-2.09,1.12-2.81c0.75-0.71,1.75-1.07,3-1.07c1.17,0,2.09,0.31,2.77,0.92c0.68,0.61,1.02,1.43,1.02,2.45
		c0,1.24-0.79,2.71-2.37,4.43l-3.37,3.66h6.31V458.04L225.16,458.04z M232.97,452.51c-0.33,0.4-0.74,0.71-1.2,0.95
		c-0.46,0.24-0.97,0.37-1.52,0.37c-0.72,0-1.36-0.18-1.9-0.54c-0.54-0.36-0.95-0.86-1.24-1.51c-0.3-0.66-0.44-1.37-0.44-2.15
		c0-0.84,0.16-1.6,0.47-2.28c0.32-0.68,0.78-1.2,1.37-1.55c0.59-0.36,1.28-0.54,2.06-0.54c1.24,0,2.22,0.47,2.93,1.4
		c0.72,0.93,1.08,2.2,1.08,3.8v0.47c0,2.45-0.48,4.23-1.45,5.37c-0.97,1.13-2.43,1.7-4.38,1.72h-0.31v-1.35h0.33
		c1.32-0.02,2.33-0.37,3.04-1.02c0.71-0.67,1.09-1.72,1.16-3.16H232.97z M230.51,452.51c0.54,0,1.04-0.16,1.48-0.49
		c0.46-0.33,0.78-0.74,0.99-1.22v-0.64c0-1.05-0.23-1.9-0.68-2.55c-0.46-0.65-1.03-0.99-1.72-0.99s-1.26,0.28-1.69,0.82
		c-0.43,0.54-0.64,1.24-0.64,2.13c0,0.88,0.21,1.56,0.61,2.13C229.27,452.23,229.82,452.51,230.51,452.51z"/>
</g>
<g>
	<path d="M228.89,492.63v1.36h-0.3c-1.24,0.02-2.23,0.39-2.98,1.1c-0.74,0.71-1.16,1.72-1.28,3.01c0.67-0.76,1.56-1.14,2.71-1.14
		c1.15,0,1.97,0.39,2.62,1.16c0.66,0.77,0.99,1.77,0.99,2.99c0,1.3-0.36,2.33-1.06,3.1c-0.7,0.78-1.64,1.16-2.84,1.16
		c-1.2,0-2.18-0.46-2.93-1.38c-0.75-0.93-1.13-2.11-1.13-3.57v-0.61c0-2.31,0.49-4.08,1.48-5.3c0.99-1.23,2.46-1.85,4.41-1.89
		H228.89L228.89,492.63z M226.79,498.3c-0.55,0-1.05,0.16-1.51,0.49c-0.46,0.32-0.78,0.74-0.95,1.23v0.59c0,1.04,0.23,1.87,0.7,2.51
		c0.47,0.63,1.05,0.95,1.75,0.95c0.7,0,1.29-0.26,1.69-0.79c0.41-0.53,0.62-1.22,0.62-2.08c0-0.86-0.21-1.56-0.63-2.09
		c-0.41-0.54-0.97-0.8-1.66-0.8H226.79z"/>
</g>
<g>
	<path d="M292.04,269.3h-8.24v-1.15l4.36-4.84c0.64-0.74,1.09-1.32,1.33-1.78c0.25-0.46,0.37-0.93,0.37-1.43
		c0-0.66-0.2-1.2-0.6-1.62c-0.4-0.43-0.93-0.63-1.59-0.63c-0.79,0-1.41,0.23-1.86,0.68c-0.44,0.45-0.65,1.08-0.65,1.89h-1.6
		c0-1.16,0.37-2.09,1.12-2.81c0.75-0.71,1.75-1.07,3-1.07c1.17,0,2.09,0.31,2.77,0.92c0.68,0.61,1.02,1.43,1.02,2.45
		c0,1.24-0.79,2.71-2.37,4.43l-3.37,3.66h6.31V269.3L292.04,269.3z"/>
</g>
<g>
	<path d="M289.92,310.96c-0.33,0.4-0.74,0.71-1.2,0.95c-0.46,0.24-0.97,0.37-1.52,0.37c-0.72,0-1.36-0.18-1.9-0.54
		c-0.54-0.36-0.95-0.86-1.24-1.51c-0.3-0.66-0.44-1.37-0.44-2.15c0-0.84,0.16-1.6,0.47-2.28c0.32-0.68,0.78-1.2,1.37-1.55
		c0.59-0.36,1.28-0.54,2.06-0.54c1.24,0,2.22,0.47,2.94,1.4c0.72,0.93,1.08,2.2,1.08,3.8v0.47c0,2.45-0.48,4.23-1.45,5.37
		c-0.97,1.13-2.43,1.7-4.38,1.72h-0.31v-1.35h0.33c1.32-0.02,2.33-0.37,3.05-1.02c0.71-0.67,1.09-1.72,1.16-3.16H289.92z
		 M287.46,310.96c0.54,0,1.02-0.16,1.48-0.49c0.46-0.33,0.78-0.74,0.99-1.22v-0.64c0-1.05-0.23-1.9-0.68-2.55
		c-0.46-0.65-1.03-0.99-1.72-0.99c-0.69,0-1.26,0.28-1.69,0.82c-0.43,0.54-0.64,1.24-0.64,2.13c0,0.88,0.21,1.56,0.61,2.13
		C286.22,310.68,286.77,310.96,287.46,310.96z"/>
</g>
<g>
	<path d="M283.35,363.67h-1.61v-10.66l-3.22,1.18v-1.45l4.58-1.72h0.25v12.63V363.67z M294.3,351.08v1.36H294
		c-1.24,0.02-2.23,0.39-2.98,1.1c-0.74,0.71-1.16,1.72-1.28,3.01c0.67-0.76,1.56-1.14,2.71-1.14c1.15,0,1.97,0.39,2.62,1.16
		c0.65,0.77,0.99,1.77,0.99,2.99c0,1.3-0.36,2.33-1.06,3.1c-0.7,0.78-1.64,1.16-2.84,1.16c-1.2,0-2.18-0.46-2.93-1.38
		c-0.75-0.93-1.13-2.12-1.13-3.58v-0.61c0-2.31,0.49-4.08,1.48-5.3c0.99-1.23,2.46-1.85,4.41-1.89H294.3L294.3,351.08z
		 M292.2,356.74c-0.55,0-1.05,0.16-1.51,0.49c-0.46,0.32-0.78,0.74-0.95,1.23v0.59c0,1.03,0.23,1.87,0.7,2.51
		c0.47,0.63,1.05,0.95,1.75,0.95c0.7,0,1.29-0.26,1.69-0.79c0.41-0.53,0.62-1.22,0.62-2.08c0-0.86-0.21-1.56-0.63-2.09
		c-0.41-0.54-0.97-0.81-1.66-0.81H292.2z"/>
</g>
<g>
	<path d="M286.34,410.85h-8.24v-1.15l4.36-4.84c0.64-0.74,1.09-1.32,1.33-1.78c0.25-0.46,0.37-0.93,0.37-1.43
		c0-0.66-0.2-1.2-0.6-1.62c-0.4-0.42-0.93-0.63-1.59-0.63c-0.79,0-1.41,0.23-1.86,0.68c-0.44,0.45-0.66,1.08-0.66,1.88h-1.6
		c0-1.16,0.37-2.09,1.12-2.8c0.75-0.71,1.75-1.07,3-1.07c1.17,0,2.09,0.31,2.77,0.92c0.68,0.61,1.02,1.43,1.02,2.45
		c0,1.24-0.79,2.71-2.37,4.43l-3.37,3.66h6.31V410.85L286.34,410.85z M290.35,403.78h1.21c0.76-0.01,1.35-0.21,1.78-0.6
		c0.44-0.39,0.64-0.91,0.64-1.56c0-1.47-0.74-2.21-2.21-2.21c-0.69,0-1.24,0.2-1.66,0.6c-0.41,0.39-0.61,0.92-0.61,1.56h-1.6
		c0-1,0.37-1.83,1.09-2.48c0.74-0.67,1.66-0.99,2.78-0.99c1.18,0,2.11,0.31,2.79,0.94c0.68,0.63,1.01,1.51,1.01,2.62
		c0,0.55-0.18,1.08-0.54,1.59c-0.36,0.52-0.83,0.9-1.45,1.15c0.69,0.22,1.22,0.59,1.6,1.09c0.38,0.51,0.57,1.13,0.57,1.86
		c0,1.13-0.37,2.02-1.1,2.69c-0.74,0.67-1.69,0.99-2.87,0.99c-1.18,0-2.14-0.32-2.89-0.95c-0.74-0.64-1.1-1.48-1.1-2.53h1.61
		c0,0.67,0.22,1.2,0.64,1.59c0.44,0.4,1.01,0.6,1.74,0.6c0.77,0,1.37-0.2,1.77-0.61c0.41-0.4,0.61-0.98,0.61-1.74
		c0-0.76-0.22-1.29-0.68-1.69c-0.45-0.39-1.09-0.6-1.94-0.61h-1.21V403.78L290.35,403.78z"/>
</g>
<g>
	<path d="M280.41,450.97h1.2c0.76-0.01,1.35-0.21,1.78-0.6c0.44-0.39,0.64-0.91,0.64-1.56c0-1.47-0.74-2.21-2.21-2.21
		c-0.69,0-1.24,0.2-1.66,0.6c-0.41,0.39-0.61,0.92-0.61,1.56h-1.6c0-1,0.37-1.83,1.09-2.48c0.74-0.67,1.66-0.99,2.78-0.99
		c1.18,0,2.12,0.31,2.79,0.94c0.68,0.63,1.01,1.51,1.01,2.62c0,0.55-0.18,1.08-0.54,1.59c-0.36,0.52-0.83,0.9-1.45,1.15
		c0.69,0.22,1.22,0.59,1.6,1.09c0.38,0.51,0.57,1.13,0.57,1.86c0,1.13-0.37,2.02-1.1,2.69c-0.74,0.67-1.7,0.99-2.87,0.99
		c-1.17,0-2.14-0.32-2.89-0.95c-0.74-0.64-1.1-1.48-1.1-2.53h1.61c0,0.67,0.22,1.2,0.64,1.59c0.44,0.4,1.01,0.6,1.74,0.6
		c0.77,0,1.36-0.2,1.77-0.61c0.41-0.4,0.61-0.98,0.61-1.74c0-0.76-0.23-1.29-0.68-1.69c-0.45-0.39-1.09-0.6-1.94-0.61h-1.2V450.97
		L280.41,450.97z M295.91,452.67c0,1.87-0.32,3.26-0.95,4.17c-0.64,0.91-1.63,1.37-3,1.37c-1.37,0-2.33-0.45-2.98-1.33
		c-0.64-0.9-0.98-2.22-1-3.99v-2.14c0-1.85,0.32-3.22,0.95-4.11c0.64-0.9,1.64-1.35,3.01-1.35s2.35,0.44,2.99,1.3
		c0.64,0.86,0.97,2.2,0.99,4.01v2.07H295.91z M294.31,450.48c0-1.36-0.2-2.33-0.57-2.95c-0.38-0.62-0.98-0.93-1.8-0.93
		c-0.83,0-1.41,0.31-1.79,0.92c-0.38,0.62-0.56,1.56-0.57,2.84v2.55c0,1.36,0.2,2.37,0.59,3.01c0.4,0.64,1,0.97,1.79,0.97
		c0.79,0,1.38-0.31,1.75-0.92c0.39-0.61,0.59-1.58,0.61-2.89v-2.62L294.31,450.48z"/>
</g>
<g>
	<path d="M291.92,493.54l-5.21,11.68h-1.68l5.2-11.27h-6.81v-1.31h8.51v0.9H291.92z"/>
</g>
<g>
	<path d="M349.93,262.24h1.2c0.76-0.01,1.35-0.21,1.78-0.6c0.43-0.39,0.64-0.91,0.64-1.56c0-1.47-0.74-2.21-2.21-2.21
		c-0.69,0-1.24,0.2-1.66,0.6c-0.41,0.39-0.61,0.92-0.61,1.56h-1.6c0-1,0.37-1.83,1.09-2.48c0.74-0.67,1.66-0.99,2.78-0.99
		c1.18,0,2.12,0.31,2.79,0.94c0.68,0.63,1.01,1.51,1.01,2.62c0,0.55-0.18,1.08-0.54,1.59c-0.36,0.52-0.83,0.9-1.45,1.15
		c0.69,0.22,1.22,0.59,1.6,1.09c0.38,0.51,0.57,1.13,0.57,1.86c0,1.13-0.37,2.02-1.1,2.69c-0.74,0.67-1.7,0.99-2.87,0.99
		c-1.17,0-2.14-0.32-2.89-0.95c-0.74-0.64-1.1-1.48-1.1-2.53h1.61c0,0.67,0.22,1.2,0.64,1.59c0.44,0.4,1.01,0.6,1.74,0.6
		c0.77,0,1.36-0.2,1.77-0.61c0.41-0.4,0.61-0.98,0.61-1.74c0-0.76-0.22-1.29-0.68-1.69c-0.45-0.39-1.09-0.6-1.94-0.61h-1.2V262.24
		L349.93,262.24z"/>
</g>
<g>
	<path d="M347.15,316.49h-1.61v-10.66l-3.22,1.18v-1.45l4.58-1.72h0.25v12.63V316.49z M359.72,311.12c0,1.87-0.32,3.26-0.95,4.17
		c-0.64,0.91-1.63,1.37-3,1.37s-2.33-0.45-2.98-1.33c-0.64-0.9-0.98-2.22-1-3.99v-2.14c0-1.85,0.32-3.22,0.95-4.11
		c0.64-0.9,1.64-1.35,3.01-1.35c1.37,0,2.34,0.44,2.99,1.3c0.64,0.86,0.97,2.2,0.99,4.01v2.07H359.72z M358.13,308.93
		c0-1.36-0.2-2.33-0.57-2.95c-0.38-0.62-0.98-0.93-1.8-0.93c-0.83,0-1.41,0.31-1.79,0.92c-0.38,0.62-0.56,1.56-0.57,2.84v2.55
		c0,1.36,0.2,2.37,0.59,3.01c0.4,0.64,1,0.97,1.79,0.97s1.38-0.31,1.75-0.92c0.39-0.61,0.59-1.58,0.61-2.89v-2.62L358.13,308.93z"/>
</g>
<g>
	<path class="st1" d="M350.72,329.55c15.46,0,28,12.53,28,28c0,15.46-12.53,27.99-28,27.99c-15.46,0-27.99-12.53-27.99-27.99
		C322.73,342.08,335.26,329.55,350.72,329.55z"/>
</g>
<g>
	<path class="st0" d="M344.62,367.16h-2.63v-16.96l-5.27,1.88v-2.31l7.49-2.74h0.41v20.1V367.16z M365.58,348.58l-8.52,18.58h-2.75
		l8.5-17.93h-11.13v-2.09h13.92v1.43H365.58z"/>
</g>
<g>
	<path d="M350.14,410.85h-8.24v-1.15l4.36-4.84c0.64-0.74,1.09-1.32,1.33-1.78c0.25-0.46,0.37-0.93,0.37-1.43
		c0-0.66-0.2-1.2-0.6-1.62c-0.4-0.42-0.93-0.63-1.59-0.63c-0.79,0-1.41,0.23-1.86,0.68c-0.44,0.45-0.66,1.08-0.66,1.88h-1.6
		c0-1.16,0.37-2.09,1.12-2.8c0.75-0.71,1.75-1.07,3-1.07c1.17,0,2.09,0.31,2.77,0.92c0.68,0.61,1.02,1.43,1.02,2.45
		c0,1.24-0.79,2.71-2.37,4.43l-3.37,3.66h6.31V410.85L350.14,410.85z M358.58,406.63h1.75v1.31h-1.75v2.92h-1.61v-2.92h-5.73v-0.94
		l5.63-8.71h1.7v8.36V406.63z M353.06,406.63h3.91v-6.17l-0.2,0.34l-3.73,5.82L353.06,406.63z"/>
</g>
<g>
	<path d="M352.85,458.04h-1.61v-10.66l-3.22,1.18v-1.45l4.58-1.72h0.25v12.63V458.04z"/>
</g>
<g>
	<path d="M355.23,495.92c0,0.63-0.17,1.18-0.51,1.68c-0.33,0.49-0.77,0.87-1.33,1.15c0.66,0.29,1.17,0.69,1.55,1.23
		c0.39,0.54,0.57,1.15,0.57,1.84c0,1.09-0.37,1.95-1.1,2.6c-0.74,0.64-1.7,0.97-2.9,0.97c-1.2,0-2.18-0.32-2.91-0.97
		c-0.72-0.66-1.09-1.52-1.09-2.6c0-0.68,0.18-1.29,0.55-1.84c0.38-0.55,0.88-0.97,1.55-1.24c-0.56-0.28-1-0.65-1.32-1.15
		c-0.32-0.49-0.48-1.05-0.48-1.67c0-1.06,0.34-1.9,1.02-2.52c0.68-0.62,1.57-0.93,2.69-0.93s2,0.31,2.68,0.93
		c0.69,0.62,1.03,1.46,1.03,2.52H355.23z M353.92,501.78c0-0.7-0.22-1.28-0.68-1.72c-0.45-0.45-1.02-0.67-1.75-0.67
		c-0.72,0-1.3,0.22-1.74,0.65c-0.44,0.44-0.64,1.01-0.64,1.72c0,0.71,0.21,1.28,0.63,1.68c0.43,0.41,1.01,0.61,1.77,0.61
		c0.76,0,1.33-0.21,1.76-0.61c0.43-0.41,0.64-0.98,0.64-1.68V501.78z M351.52,493.77c-0.63,0-1.14,0.2-1.53,0.59
		c-0.39,0.38-0.57,0.91-0.57,1.57c0,0.67,0.2,1.16,0.57,1.55c0.39,0.39,0.9,0.59,1.54,0.59s1.15-0.2,1.53-0.59
		c0.39-0.4,0.57-0.92,0.57-1.55c0-0.63-0.2-1.16-0.6-1.56c-0.4-0.4-0.9-0.61-1.51-0.61L351.52,493.77z"/>
</g>
<g>
	<path d="M412.02,265.07h1.75v1.31h-1.75v2.92h-1.61v-2.92h-5.73v-0.94l5.63-8.71h1.7v8.36V265.07z M406.5,265.07h3.91v-6.17
		l-0.2,0.34l-3.72,5.82L406.5,265.07z"/>
</g>
<g>
	<path d="M404.83,316.49h-1.61v-10.66l-3.22,1.18v-1.45l4.58-1.72h0.25v12.63V316.49z M414.76,316.49h-1.61v-10.66l-3.22,1.18v-1.45
		l4.58-1.72h0.25v12.63V316.49z"/>
</g>
<g>
	<path d="M404.83,363.67h-1.61v-10.66l-3.22,1.18v-1.45l4.58-1.72h0.25v12.63V363.67z M417.14,354.37c0,0.63-0.16,1.18-0.51,1.68
		c-0.33,0.49-0.77,0.87-1.33,1.15c0.65,0.29,1.17,0.69,1.55,1.23c0.39,0.54,0.57,1.15,0.57,1.84c0,1.09-0.37,1.95-1.1,2.6
		c-0.74,0.64-1.69,0.97-2.9,0.97c-1.21,0-2.18-0.32-2.91-0.97c-0.72-0.65-1.09-1.52-1.09-2.6c0-0.68,0.18-1.29,0.55-1.84
		c0.38-0.55,0.89-0.97,1.55-1.24c-0.56-0.28-1-0.65-1.32-1.15c-0.32-0.49-0.48-1.05-0.48-1.67c0-1.06,0.34-1.9,1.02-2.52
		c0.68-0.62,1.57-0.93,2.69-0.93c1.12,0,2,0.31,2.68,0.93C416.81,352.47,417.14,353.31,417.14,354.37L417.14,354.37z M415.83,360.23
		c0-0.7-0.22-1.28-0.68-1.72c-0.45-0.45-1.02-0.67-1.75-0.67c-0.72,0-1.3,0.22-1.74,0.65c-0.44,0.44-0.64,1.01-0.64,1.72
		c0,0.71,0.21,1.28,0.63,1.68c0.43,0.41,1.01,0.61,1.77,0.61c0.76,0,1.33-0.21,1.76-0.61c0.42-0.41,0.64-0.98,0.64-1.68V360.23z
		 M413.43,352.22c-0.63,0-1.14,0.2-1.53,0.59c-0.39,0.38-0.57,0.91-0.57,1.58c0,0.67,0.2,1.16,0.57,1.55
		c0.39,0.39,0.9,0.59,1.54,0.59s1.15-0.2,1.53-0.59c0.39-0.4,0.57-0.92,0.57-1.55c0-0.63-0.2-1.16-0.6-1.56
		c-0.4-0.4-0.9-0.61-1.52-0.61V352.22z"/>
</g>
<g>
	<path d="M407.82,410.85h-8.24v-1.15l4.36-4.84c0.64-0.74,1.09-1.32,1.33-1.78c0.25-0.46,0.37-0.93,0.37-1.43
		c0-0.66-0.2-1.2-0.6-1.62c-0.4-0.42-0.93-0.63-1.59-0.63c-0.79,0-1.41,0.23-1.86,0.68c-0.44,0.45-0.65,1.08-0.65,1.88h-1.6
		c0-1.16,0.37-2.09,1.12-2.8c0.75-0.71,1.75-1.07,3-1.07c1.17,0,2.09,0.31,2.77,0.92c0.68,0.61,1.02,1.43,1.02,2.45
		c0,1.24-0.79,2.71-2.37,4.43l-3.37,3.66h6.31V410.85L407.82,410.85z M410.24,404.53l0.64-6.28h6.45v1.48h-5.09l-0.38,3.43
		c0.62-0.37,1.31-0.54,2.1-0.54c1.15,0,2.06,0.38,2.72,1.14c0.68,0.76,1.01,1.78,1.01,3.07s-0.36,2.32-1.06,3.07
		c-0.7,0.75-1.68,1.12-2.93,1.12c-1.12,0-2.02-0.31-2.72-0.92c-0.7-0.62-1.1-1.47-1.21-2.55h1.52c0.09,0.72,0.36,1.26,0.77,1.63
		c0.41,0.37,0.97,0.54,1.64,0.54c0.75,0,1.32-0.25,1.75-0.76c0.43-0.51,0.64-1.21,0.64-2.1c0-0.84-0.23-1.52-0.69-2.02
		c-0.46-0.52-1.06-0.77-1.83-0.77c-0.7,0-1.24,0.15-1.64,0.46l-0.42,0.34l-1.28-0.32V404.53z"/>
</g>
<g>
	<path d="M413.52,458.04h-8.24v-1.15l4.36-4.84c0.64-0.74,1.09-1.32,1.33-1.78c0.25-0.46,0.37-0.93,0.37-1.43
		c0-0.65-0.2-1.2-0.6-1.62c-0.4-0.43-0.93-0.63-1.59-0.63c-0.79,0-1.41,0.23-1.86,0.68c-0.44,0.45-0.65,1.08-0.65,1.89h-1.6
		c0-1.16,0.37-2.09,1.12-2.81c0.75-0.71,1.75-1.07,3-1.07c1.17,0,2.09,0.31,2.77,0.92c0.68,0.61,1.02,1.43,1.02,2.45
		c0,1.24-0.79,2.71-2.37,4.43l-3.37,3.66h6.31V458.04L413.52,458.04z"/>
</g>
<g>
	<path d="M411.4,499.69c-0.33,0.4-0.74,0.71-1.2,0.95c-0.46,0.24-0.97,0.37-1.52,0.37c-0.72,0-1.36-0.18-1.9-0.54
		c-0.54-0.36-0.95-0.86-1.24-1.51c-0.3-0.66-0.44-1.37-0.44-2.15c0-0.84,0.16-1.6,0.47-2.28c0.32-0.68,0.78-1.2,1.37-1.55
		s1.28-0.54,2.06-0.54c1.24,0,2.22,0.47,2.94,1.4c0.72,0.93,1.08,2.2,1.08,3.81v0.47c0,2.45-0.48,4.23-1.45,5.37
		c-0.97,1.13-2.43,1.7-4.38,1.72h-0.31v-1.34h0.33c1.32-0.02,2.33-0.37,3.05-1.02c0.71-0.67,1.09-1.72,1.16-3.16H411.4z
		 M408.94,499.69c0.54,0,1.02-0.16,1.48-0.5c0.46-0.33,0.78-0.74,0.99-1.22v-0.64c0-1.05-0.23-1.9-0.68-2.55
		c-0.46-0.66-1.03-0.99-1.72-0.99c-0.69,0-1.26,0.28-1.69,0.82c-0.43,0.54-0.64,1.24-0.64,2.13c0,0.89,0.21,1.56,0.61,2.13
		C407.7,499.41,408.25,499.69,408.94,499.69L408.94,499.69z"/>
</g>
<g>
	<path d="M456.7,262.99l0.64-6.28h6.45v1.48h-5.09l-0.38,3.43c0.62-0.37,1.31-0.54,2.1-0.54c1.15,0,2.06,0.38,2.74,1.14
		c0.68,0.76,1.01,1.78,1.01,3.07s-0.36,2.32-1.06,3.07c-0.7,0.75-1.68,1.12-2.93,1.12c-1.12,0-2.02-0.31-2.72-0.92
		c-0.7-0.62-1.1-1.47-1.21-2.55h1.52c0.09,0.72,0.36,1.26,0.77,1.63s0.97,0.54,1.64,0.54c0.75,0,1.32-0.25,1.75-0.76
		c0.43-0.51,0.64-1.21,0.64-2.1c0-0.84-0.23-1.52-0.69-2.02c-0.46-0.52-1.06-0.77-1.83-0.77c-0.7,0-1.24,0.15-1.64,0.46l-0.43,0.34
		l-1.28-0.32L456.7,262.99z"/>
</g>
<g>
	<path d="M455.51,316.49h-1.61v-10.66l-3.22,1.18v-1.45l4.58-1.72h0.25v12.63V316.49z M468.43,316.49h-8.24v-1.15l4.36-4.84
		c0.64-0.74,1.09-1.32,1.33-1.78c0.25-0.46,0.37-0.93,0.37-1.43c0-0.66-0.2-1.2-0.6-1.62c-0.39-0.42-0.93-0.63-1.59-0.63
		c-0.79,0-1.41,0.23-1.86,0.68c-0.44,0.45-0.66,1.08-0.66,1.88h-1.6c0-1.16,0.37-2.09,1.12-2.8c0.75-0.71,1.75-1.07,3-1.07
		c1.17,0,2.09,0.31,2.77,0.92c0.68,0.61,1.02,1.43,1.02,2.45c0,1.24-0.79,2.71-2.37,4.43l-3.37,3.66h6.31V316.49L468.43,316.49z"/>
</g>
<g>
	<path d="M455.51,363.67h-1.61v-10.66l-3.22,1.18v-1.45l4.58-1.72h0.25v12.63V363.67z M466.31,358.14c-0.33,0.4-0.74,0.71-1.2,0.95
		c-0.46,0.24-0.97,0.37-1.52,0.37c-0.72,0-1.36-0.18-1.9-0.54c-0.54-0.36-0.95-0.86-1.24-1.51c-0.3-0.66-0.44-1.37-0.44-2.15
		c0-0.84,0.16-1.6,0.47-2.28c0.32-0.68,0.78-1.2,1.37-1.55c0.59-0.36,1.28-0.54,2.06-0.54c1.24,0,2.22,0.47,2.93,1.4
		c0.72,0.93,1.08,2.2,1.08,3.81v0.47c0,2.45-0.48,4.23-1.45,5.37c-0.97,1.13-2.43,1.7-4.38,1.72h-0.31v-1.34h0.33
		c1.32-0.02,2.33-0.37,3.03-1.02c0.71-0.67,1.09-1.72,1.16-3.16H466.31z M463.85,358.14c0.54,0,1.03-0.16,1.48-0.49
		c0.46-0.33,0.78-0.74,0.99-1.22v-0.64c0-1.05-0.23-1.9-0.68-2.55c-0.46-0.66-1.04-0.99-1.72-0.99s-1.26,0.28-1.69,0.82
		c-0.42,0.54-0.64,1.24-0.64,2.13c0,0.89,0.21,1.56,0.61,2.13C462.61,357.86,463.16,358.14,463.85,358.14z"/>
</g>
<g>
	<path d="M458.49,410.85h-8.24v-1.15l4.36-4.84c0.64-0.74,1.09-1.32,1.33-1.78c0.25-0.46,0.37-0.93,0.37-1.43
		c0-0.66-0.2-1.2-0.6-1.62c-0.4-0.42-0.93-0.63-1.59-0.63c-0.79,0-1.41,0.23-1.86,0.68c-0.44,0.45-0.65,1.08-0.65,1.88h-1.6
		c0-1.16,0.37-2.09,1.12-2.8c0.75-0.71,1.75-1.07,3-1.07c1.17,0,2.09,0.31,2.77,0.92c0.68,0.61,1.02,1.43,1.02,2.45
		c0,1.24-0.79,2.71-2.37,4.43l-3.37,3.66h6.31V410.85L458.49,410.85z M466.46,398.26v1.36h-0.3c-1.24,0.02-2.23,0.39-2.98,1.1
		c-0.74,0.71-1.16,1.72-1.28,3.01c0.67-0.76,1.56-1.14,2.71-1.14c1.15,0,1.97,0.39,2.62,1.16c0.65,0.77,0.99,1.77,0.99,2.99
		c0,1.3-0.36,2.33-1.06,3.1c-0.7,0.78-1.64,1.16-2.84,1.16c-1.2,0-2.18-0.46-2.93-1.38c-0.75-0.93-1.13-2.12-1.13-3.58v-0.61
		c0-2.31,0.49-4.08,1.48-5.3c0.99-1.23,2.46-1.85,4.41-1.89H466.46L466.46,398.26z M464.36,403.93c-0.55,0-1.05,0.16-1.51,0.49
		c-0.46,0.32-0.78,0.74-0.95,1.23v0.59c0,1.03,0.23,1.87,0.7,2.51c0.47,0.63,1.05,0.95,1.75,0.95c0.7,0,1.29-0.26,1.69-0.79
		c0.41-0.53,0.62-1.22,0.62-2.08c0-0.86-0.21-1.56-0.63-2.09c-0.41-0.54-0.97-0.81-1.66-0.81H464.36z"/>
</g>
<g>
	<path d="M458.29,450.97h1.2c0.76-0.01,1.35-0.21,1.78-0.6c0.43-0.39,0.64-0.91,0.64-1.56c0-1.47-0.74-2.21-2.21-2.21
		c-0.69,0-1.24,0.2-1.66,0.6c-0.41,0.39-0.61,0.92-0.61,1.56h-1.6c0-1,0.37-1.83,1.09-2.48c0.74-0.67,1.66-0.99,2.78-0.99
		c1.18,0,2.12,0.31,2.79,0.94c0.68,0.63,1.01,1.51,1.01,2.62c0,0.55-0.18,1.08-0.54,1.59c-0.36,0.52-0.83,0.9-1.45,1.15
		c0.69,0.22,1.22,0.59,1.6,1.09c0.38,0.51,0.57,1.13,0.57,1.86c0,1.13-0.37,2.02-1.1,2.69c-0.74,0.67-1.7,0.99-2.87,0.99
		c-1.17,0-2.14-0.32-2.89-0.95c-0.74-0.64-1.1-1.48-1.1-2.53h1.61c0,0.67,0.22,1.2,0.64,1.59c0.44,0.4,1.01,0.6,1.74,0.6
		c0.77,0,1.36-0.2,1.77-0.61c0.41-0.4,0.61-0.98,0.61-1.74c0-0.76-0.22-1.29-0.68-1.69c-0.45-0.39-1.09-0.6-1.94-0.61h-1.2V450.97
		L458.29,450.97z"/>
</g>
<g>
	<path d="M455.51,505.22h-1.61v-10.66l-3.22,1.18v-1.45l4.58-1.72h0.25v12.63V505.22z M468.08,499.85c0,1.87-0.32,3.26-0.95,4.17
		c-0.64,0.91-1.63,1.37-3,1.37s-2.33-0.45-2.98-1.33c-0.64-0.9-0.98-2.22-1-3.99v-2.14c0-1.85,0.32-3.22,0.95-4.12
		c0.64-0.9,1.64-1.35,3.01-1.35c1.37,0,2.35,0.44,2.99,1.3c0.64,0.86,0.97,2.2,0.99,4.01v2.07H468.08z M466.49,497.66
		c0-1.36-0.2-2.33-0.57-2.95s-0.98-0.93-1.8-0.93c-0.83,0-1.41,0.31-1.79,0.92c-0.38,0.61-0.56,1.56-0.57,2.84v2.55
		c0,1.36,0.2,2.37,0.59,3.01c0.4,0.64,1,0.97,1.79,0.97c0.79,0,1.38-0.31,1.75-0.92c0.39-0.61,0.59-1.57,0.61-2.89v-2.62
		L466.49,497.66z"/>
</g>
<g>
	<g>
		<path class="st0" d="M282.51,429.43h270.56c3.78,0,6.84,3.06,6.84,6.84v177.39c0,3.78-3.06,6.84-6.84,6.84H282.51
			c-3.78,0-6.84-3.06-6.84-6.84V436.27C275.67,432.49,278.73,429.43,282.51,429.43z"/>
	</g>
	<g class="st2">
		<path class="st3" d="M277.81,429.43h270.56c3.78,0,6.84,3.06,6.84,6.84v177.39c0,3.78-3.06,6.84-6.84,6.84H277.81
			c-3.78,0-6.84-3.06-6.84-6.84V436.27C270.97,432.49,274.03,429.43,277.81,429.43z"/>
	</g>
	<g>
		<path class="st0" d="M282.51,429.43h270.56c3.78,0,6.84,3.06,6.84,6.84v177.39c0,3.78-3.06,6.84-6.84,6.84H282.51
			c-3.78,0-6.84-3.06-6.84-6.84V436.27C275.67,432.49,278.73,429.43,282.51,429.43z"/>
	</g>
	<g>
		<g>
			<path class="st1" d="M357.13,477.69h-47.8c-7.18,0-13.02-5.84-13.02-13.02c0-7.18,5.84-13.02,13.02-13.02h47.8
				c7.18,0,13.02,5.84,13.02,13.02C370.15,471.85,364.31,477.69,357.13,477.69z M309.33,452.49c-6.72,0-12.18,5.46-12.18,12.18
				s5.47,12.18,12.18,12.18h47.8c6.72,0,12.18-5.47,12.18-12.18s-5.47-12.18-12.18-12.18H309.33z"/>
		</g>
	</g>
	<g>
		<g>
			<path class="st1" d="M315.64,464.29c0-0.94,0.16-1.67,0.47-2.2c0.32-0.53,0.87-0.8,1.64-0.8c0.78,0,1.32,0.27,1.64,0.8
				c0.32,0.53,0.48,1.26,0.48,2.2c0,0.95-0.16,1.69-0.48,2.23c-0.31,0.53-0.86,0.8-1.64,0.8c-0.78,0-1.32-0.27-1.64-0.8
				C315.79,465.98,315.64,465.24,315.64,464.29z M318.96,464.29c0-0.44-0.03-0.81-0.09-1.12c-0.05-0.3-0.17-0.55-0.34-0.74
				c-0.17-0.2-0.43-0.29-0.77-0.29c-0.34,0-0.6,0.1-0.77,0.29c-0.17,0.19-0.29,0.44-0.35,0.74c-0.05,0.3-0.08,0.68-0.08,1.12
				c0,0.46,0.03,0.84,0.08,1.15c0.05,0.31,0.17,0.56,0.34,0.75c0.18,0.19,0.44,0.29,0.78,0.29c0.34,0,0.6-0.1,0.77-0.29
				c0.18-0.19,0.3-0.44,0.35-0.75C318.93,465.12,318.96,464.74,318.96,464.29z M324.62,462.11l-2.26,5.22h-0.94l2.29-5.12h-3.01
				v-0.79h3.93V462.11z M325.91,467.39c-0.17,0-0.31-0.06-0.42-0.17c-0.11-0.11-0.17-0.26-0.17-0.42s0.06-0.31,0.17-0.42
				c0.11-0.11,0.26-0.17,0.42-0.17c0.16,0,0.3,0.06,0.42,0.17c0.11,0.11,0.17,0.26,0.17,0.42s-0.06,0.31-0.17,0.42
				C326.21,467.33,326.07,467.39,325.91,467.39z M325.91,463.97c-0.17,0-0.31-0.06-0.42-0.17c-0.11-0.11-0.17-0.26-0.17-0.42
				c0-0.17,0.06-0.31,0.17-0.42c0.11-0.11,0.26-0.17,0.42-0.17c0.16,0,0.3,0.06,0.42,0.17c0.11,0.11,0.17,0.26,0.17,0.42
				c0,0.17-0.06,0.31-0.17,0.42C326.21,463.91,326.07,463.97,325.91,463.97z M327.41,464.29c0-0.94,0.16-1.67,0.47-2.2
				c0.32-0.53,0.87-0.8,1.64-0.8c0.78,0,1.32,0.27,1.64,0.8c0.32,0.53,0.48,1.26,0.48,2.2c0,0.95-0.16,1.69-0.48,2.23
				c-0.31,0.53-0.86,0.8-1.64,0.8c-0.78,0-1.32-0.27-1.64-0.8C327.56,465.98,327.41,465.24,327.41,464.29z M330.73,464.29
				c0-0.44-0.03-0.81-0.09-1.12c-0.05-0.3-0.17-0.55-0.34-0.74c-0.17-0.2-0.43-0.29-0.77-0.29c-0.34,0-0.6,0.1-0.77,0.29
				c-0.17,0.19-0.29,0.44-0.35,0.74c-0.05,0.3-0.08,0.68-0.08,1.12c0,0.46,0.03,0.84,0.08,1.15c0.05,0.31,0.17,0.56,0.34,0.75
				c0.18,0.19,0.44,0.29,0.78,0.29c0.34,0,0.6-0.1,0.77-0.29c0.18-0.19,0.3-0.44,0.35-0.75
				C330.7,465.12,330.73,464.74,330.73,464.29z M332.62,464.29c0-0.94,0.16-1.67,0.47-2.2c0.32-0.53,0.87-0.8,1.64-0.8
				s1.32,0.27,1.64,0.8c0.32,0.53,0.48,1.26,0.48,2.2c0,0.95-0.16,1.69-0.48,2.23c-0.31,0.53-0.86,0.8-1.64,0.8s-1.32-0.27-1.64-0.8
				C332.78,465.98,332.62,465.24,332.62,464.29z M335.95,464.29c0-0.44-0.03-0.81-0.09-1.12c-0.05-0.3-0.17-0.55-0.34-0.74
				c-0.17-0.2-0.43-0.29-0.77-0.29c-0.34,0-0.6,0.1-0.77,0.29c-0.17,0.19-0.29,0.44-0.35,0.74c-0.05,0.3-0.08,0.68-0.08,1.12
				c0,0.46,0.03,0.84,0.08,1.15c0.05,0.31,0.17,0.56,0.34,0.75c0.18,0.19,0.44,0.29,0.78,0.29c0.34,0,0.6-0.1,0.77-0.29
				c0.18-0.19,0.3-0.44,0.35-0.75C335.92,465.12,335.95,464.74,335.95,464.29z M343.49,466.17h-2.37l-0.41,1.16h-0.97l2.03-5.67
				h1.07l2.03,5.67h-0.98L343.49,466.17z M343.23,465.42l-0.92-2.63l-0.93,2.63H343.23z M351.72,461.67v5.66h-0.93v-3.88l-1.73,3.88
				h-0.64l-1.73-3.88v3.88h-0.93v-5.66h1l1.99,4.44l1.98-4.44H351.72z"/>
		</g>
	</g>
	<g>
		<g>
			<path class="st1" d="M441.87,477.69h-47.8c-7.18,0-13.02-5.84-13.02-13.02c0-7.18,5.84-13.02,13.02-13.02h47.8
				c7.18,0,13.02,5.84,13.02,13.02C454.89,471.85,449.05,477.69,441.87,477.69z M394.07,452.49c-6.72,0-12.18,5.46-12.18,12.18
				s5.47,12.18,12.18,12.18h47.8c6.72,0,12.18-5.47,12.18-12.18s-5.47-12.18-12.18-12.18H394.07z"/>
		</g>
	</g>
	<g>
		<g>
			<path class="st1" d="M400.47,463.77c0-0.94,0.16-1.67,0.47-2.2c0.32-0.53,0.87-0.8,1.64-0.8s1.32,0.27,1.64,0.8
				c0.32,0.53,0.48,1.26,0.48,2.2c0,0.95-0.16,1.69-0.48,2.23c-0.32,0.53-0.86,0.8-1.64,0.8s-1.32-0.27-1.64-0.8
				C400.63,465.47,400.47,464.72,400.47,463.77z M403.79,463.77c0-0.44-0.03-0.81-0.09-1.12c-0.05-0.3-0.17-0.55-0.34-0.74
				c-0.17-0.2-0.43-0.29-0.77-0.29c-0.34,0-0.6,0.1-0.77,0.29c-0.17,0.19-0.29,0.44-0.35,0.74c-0.05,0.3-0.08,0.68-0.08,1.12
				c0,0.46,0.03,0.84,0.08,1.15c0.05,0.31,0.17,0.56,0.34,0.75c0.18,0.19,0.44,0.29,0.78,0.29c0.34,0,0.6-0.1,0.77-0.29
				c0.18-0.19,0.3-0.44,0.35-0.75C403.76,464.61,403.79,464.23,403.79,463.77z M406.69,463.72c-0.56-0.28-0.85-0.73-0.85-1.34
				c0-0.29,0.07-0.56,0.22-0.81c0.15-0.24,0.37-0.44,0.66-0.58c0.29-0.15,0.65-0.22,1.07-0.22c0.42,0,0.77,0.07,1.07,0.22
				c0.3,0.14,0.52,0.33,0.67,0.58c0.15,0.24,0.22,0.51,0.22,0.81c0,0.3-0.08,0.57-0.24,0.81c-0.15,0.23-0.36,0.4-0.61,0.53
				c0.31,0.11,0.55,0.3,0.73,0.56c0.18,0.26,0.27,0.56,0.27,0.9c0,0.35-0.09,0.67-0.27,0.94c-0.18,0.27-0.43,0.48-0.75,0.63
				c-0.32,0.15-0.68,0.22-1.09,0.22c-0.41,0-0.77-0.07-1.09-0.22c-0.31-0.15-0.56-0.36-0.74-0.63c-0.18-0.27-0.27-0.58-0.27-0.94
				c0-0.35,0.09-0.66,0.27-0.91C406.14,464.01,406.38,463.83,406.69,463.72z M408.86,462.49c0-0.3-0.1-0.54-0.29-0.7
				c-0.19-0.16-0.45-0.24-0.78-0.24c-0.33,0-0.58,0.08-0.77,0.24c-0.19,0.16-0.28,0.4-0.28,0.71c0,0.27,0.1,0.49,0.29,0.67
				c0.2,0.17,0.46,0.25,0.77,0.25s0.56-0.09,0.77-0.26C408.76,462.99,408.86,462.77,408.86,462.49z M407.8,464.12
				c-0.36,0-0.65,0.09-0.88,0.27c-0.22,0.17-0.33,0.43-0.33,0.76c0,0.31,0.11,0.56,0.33,0.76c0.22,0.19,0.51,0.29,0.89,0.29
				c0.37,0,0.66-0.1,0.87-0.29c0.22-0.2,0.33-0.45,0.33-0.75c0-0.33-0.11-0.58-0.33-0.76C408.44,464.21,408.15,464.12,407.8,464.12z
				 M411.38,466.88c-0.17,0-0.31-0.06-0.42-0.17c-0.11-0.11-0.17-0.26-0.17-0.42s0.06-0.31,0.17-0.42c0.11-0.11,0.25-0.17,0.42-0.17
				c0.16,0,0.3,0.06,0.42,0.17c0.11,0.11,0.17,0.26,0.17,0.42s-0.06,0.31-0.17,0.42C411.68,466.82,411.54,466.88,411.38,466.88z
				 M411.38,463.46c-0.17,0-0.31-0.06-0.42-0.17c-0.11-0.11-0.17-0.26-0.17-0.42c0-0.17,0.06-0.31,0.17-0.42
				c0.11-0.11,0.25-0.17,0.42-0.17c0.16,0,0.3,0.06,0.42,0.17c0.11,0.11,0.17,0.26,0.17,0.42c0,0.17-0.06,0.31-0.17,0.42
				C411.68,463.4,411.54,463.46,411.38,463.46z M412.87,463.77c0-0.94,0.16-1.67,0.47-2.2c0.32-0.53,0.87-0.8,1.64-0.8
				c0.78,0,1.32,0.27,1.64,0.8c0.32,0.53,0.48,1.26,0.48,2.2c0,0.95-0.16,1.69-0.48,2.23c-0.31,0.53-0.86,0.8-1.64,0.8
				c-0.78,0-1.32-0.27-1.64-0.8C413.03,465.47,412.87,464.72,412.87,463.77z M416.2,463.77c0-0.44-0.03-0.81-0.09-1.12
				c-0.05-0.3-0.17-0.55-0.34-0.74c-0.17-0.2-0.43-0.29-0.77-0.29c-0.34,0-0.6,0.1-0.77,0.29c-0.17,0.19-0.29,0.44-0.35,0.74
				c-0.05,0.3-0.08,0.68-0.08,1.12c0,0.46,0.03,0.84,0.08,1.15c0.05,0.31,0.17,0.56,0.34,0.75c0.18,0.19,0.44,0.29,0.78,0.29
				c0.34,0,0.6-0.1,0.77-0.29c0.18-0.19,0.3-0.44,0.35-0.75C416.17,464.61,416.2,464.23,416.2,463.77z M418.09,463.77
				c0-0.94,0.16-1.67,0.47-2.2c0.32-0.53,0.87-0.8,1.64-0.8s1.32,0.27,1.64,0.8c0.32,0.53,0.48,1.26,0.48,2.2
				c0,0.95-0.16,1.69-0.48,2.23c-0.32,0.53-0.86,0.8-1.64,0.8s-1.32-0.27-1.64-0.8C418.25,465.47,418.09,464.72,418.09,463.77z
				 M421.41,463.77c0-0.44-0.03-0.81-0.09-1.12c-0.05-0.3-0.17-0.55-0.34-0.74c-0.17-0.2-0.43-0.29-0.77-0.29
				c-0.34,0-0.6,0.1-0.77,0.29c-0.17,0.19-0.29,0.44-0.35,0.74c-0.05,0.3-0.08,0.68-0.08,1.12c0,0.46,0.03,0.84,0.08,1.15
				c0.05,0.31,0.17,0.56,0.34,0.75c0.18,0.19,0.44,0.29,0.78,0.29c0.34,0,0.6-0.1,0.77-0.29c0.18-0.19,0.3-0.44,0.35-0.75
				C421.39,464.61,421.41,464.23,421.41,463.77z M428.96,465.66h-2.37l-0.41,1.16h-0.97l2.03-5.67h1.07l2.03,5.67h-0.98
				L428.96,465.66z M428.7,464.91l-0.92-2.63l-0.93,2.63H428.7z M437.18,461.16v5.66h-0.93v-3.88l-1.73,3.88h-0.64l-1.73-3.88v3.88
				h-0.93v-5.66h1l1.99,4.44l1.98-4.44H437.18z"/>
		</g>
	</g>
	<g>
		<g>
			<path class="st1" d="M526.61,477.69h-47.8c-7.18,0-13.02-5.84-13.02-13.02c0-7.18,5.84-13.02,13.02-13.02h47.8
				c7.18,0,13.02,5.84,13.02,13.02C539.64,471.85,533.79,477.69,526.61,477.69z M478.81,452.49c-6.72,0-12.18,5.46-12.18,12.18
				s5.46,12.18,12.18,12.18h47.8c6.72,0,12.18-5.47,12.18-12.18s-5.47-12.18-12.18-12.18H478.81z"/>
		</g>
	</g>
	<g>
		<g>
			<path class="st1" d="M484.18,464.3c0-0.94,0.16-1.67,0.47-2.2c0.32-0.53,0.87-0.8,1.64-0.8c0.78,0,1.32,0.27,1.64,0.8
				c0.32,0.53,0.48,1.26,0.48,2.2c0,0.95-0.16,1.69-0.48,2.23c-0.31,0.53-0.86,0.8-1.64,0.8c-0.78,0-1.32-0.27-1.64-0.8
				C484.34,465.99,484.18,465.25,484.18,464.3z M487.5,464.3c0-0.44-0.03-0.81-0.09-1.12c-0.05-0.3-0.17-0.55-0.34-0.74
				c-0.17-0.2-0.43-0.29-0.77-0.29c-0.34,0-0.6,0.1-0.77,0.29c-0.17,0.19-0.29,0.44-0.35,0.74c-0.05,0.3-0.08,0.68-0.08,1.12
				c0,0.46,0.03,0.84,0.08,1.15c0.05,0.31,0.17,0.56,0.34,0.75c0.18,0.19,0.44,0.28,0.78,0.28c0.34,0,0.6-0.1,0.77-0.28
				c0.18-0.19,0.3-0.44,0.35-0.75C487.48,465.14,487.5,464.76,487.5,464.3z M490.55,465.73c0.05,0.27,0.17,0.48,0.35,0.62
				c0.18,0.14,0.42,0.21,0.72,0.21c0.39,0,0.67-0.15,0.85-0.46c0.18-0.3,0.27-0.82,0.27-1.56c-0.13,0.18-0.31,0.33-0.55,0.43
				c-0.23,0.1-0.49,0.15-0.77,0.15c-0.35,0-0.67-0.07-0.96-0.21c-0.29-0.15-0.52-0.36-0.68-0.64c-0.16-0.29-0.24-0.64-0.24-1.04
				c0-0.6,0.17-1.07,0.52-1.43c0.35-0.36,0.84-0.54,1.45-0.54c0.74,0,1.26,0.25,1.57,0.74c0.31,0.49,0.47,1.24,0.47,2.26
				c0,0.7-0.06,1.27-0.18,1.72c-0.11,0.45-0.31,0.78-0.6,1.01c-0.29,0.23-0.69,0.34-1.2,0.34c-0.58,0-1.03-0.15-1.34-0.46
				c-0.31-0.3-0.49-0.69-0.53-1.15H490.55z M491.59,464.35c0.33,0,0.58-0.1,0.77-0.3c0.19-0.21,0.28-0.48,0.28-0.81
				c0-0.37-0.1-0.67-0.3-0.87c-0.2-0.21-0.46-0.32-0.81-0.32c-0.34,0-0.61,0.11-0.81,0.33c-0.2,0.21-0.29,0.49-0.29,0.84
				c0,0.33,0.1,0.61,0.29,0.82C490.91,464.24,491.2,464.35,491.59,464.35z M495.06,467.4c-0.17,0-0.31-0.06-0.42-0.17
				c-0.11-0.11-0.17-0.26-0.17-0.42c0-0.17,0.06-0.31,0.17-0.42c0.11-0.11,0.26-0.17,0.42-0.17c0.16,0,0.3,0.06,0.42,0.17
				c0.11,0.11,0.17,0.26,0.17,0.42c0,0.17-0.06,0.31-0.17,0.42C495.37,467.35,495.23,467.4,495.06,467.4z M495.06,463.98
				c-0.17,0-0.31-0.06-0.42-0.17c-0.11-0.11-0.17-0.26-0.17-0.42s0.06-0.31,0.17-0.42c0.11-0.11,0.26-0.17,0.42-0.17
				c0.16,0,0.3,0.06,0.42,0.17c0.11,0.11,0.17,0.26,0.17,0.42s-0.06,0.31-0.17,0.42C495.37,463.93,495.23,463.98,495.06,463.98z
				 M496.56,464.3c0-0.94,0.16-1.67,0.47-2.2c0.32-0.53,0.87-0.8,1.64-0.8s1.32,0.27,1.64,0.8c0.32,0.53,0.48,1.26,0.48,2.2
				c0,0.95-0.16,1.69-0.48,2.23c-0.32,0.53-0.86,0.8-1.64,0.8s-1.32-0.27-1.64-0.8C496.72,465.99,496.56,465.25,496.56,464.3z
				 M499.89,464.3c0-0.44-0.03-0.81-0.09-1.12c-0.05-0.3-0.17-0.55-0.34-0.74c-0.17-0.2-0.43-0.29-0.77-0.29
				c-0.34,0-0.6,0.1-0.77,0.29c-0.17,0.19-0.29,0.44-0.35,0.74c-0.05,0.3-0.08,0.68-0.08,1.12c0,0.46,0.03,0.84,0.08,1.15
				c0.05,0.31,0.17,0.56,0.34,0.75c0.18,0.19,0.44,0.28,0.78,0.28c0.34,0,0.6-0.1,0.77-0.28c0.18-0.19,0.3-0.44,0.35-0.75
				C499.86,465.14,499.89,464.76,499.89,464.3z M501.78,464.3c0-0.94,0.16-1.67,0.47-2.2c0.32-0.53,0.87-0.8,1.64-0.8
				c0.78,0,1.32,0.27,1.64,0.8c0.32,0.53,0.48,1.26,0.48,2.2c0,0.95-0.16,1.69-0.48,2.23c-0.31,0.53-0.86,0.8-1.64,0.8
				c-0.78,0-1.32-0.27-1.64-0.8C501.94,465.99,501.78,465.25,501.78,464.3z M505.1,464.3c0-0.44-0.03-0.81-0.09-1.12
				c-0.05-0.3-0.17-0.55-0.34-0.74c-0.17-0.2-0.43-0.29-0.77-0.29c-0.34,0-0.6,0.1-0.77,0.29c-0.17,0.19-0.29,0.44-0.35,0.74
				c-0.05,0.3-0.08,0.68-0.08,1.12c0,0.46,0.03,0.84,0.08,1.15c0.05,0.31,0.17,0.56,0.34,0.75c0.18,0.19,0.44,0.28,0.78,0.28
				c0.34,0,0.6-0.1,0.77-0.28c0.18-0.19,0.3-0.44,0.35-0.75C505.08,465.14,505.1,464.76,505.1,464.3z M512.65,466.19h-2.37
				l-0.41,1.16h-0.97l2.03-5.67H512l2.03,5.67h-0.98L512.65,466.19z M512.39,465.43l-0.92-2.63l-0.93,2.63H512.39z M520.87,461.69
				v5.66h-0.93v-3.88l-1.73,3.88h-0.64l-1.73-3.88v3.88h-0.93v-5.66h1l1.99,4.44l1.98-4.44H520.87z"/>
		</g>
	</g>
	<g>
		<g>
			<path class="st1" d="M357.13,516.05h-47.8c-7.18,0-13.02-5.84-13.02-13.02S302.15,490,309.33,490h47.8
				c7.18,0,13.02,5.84,13.02,13.02S364.31,516.05,357.13,516.05z M309.33,490.84c-6.72,0-12.18,5.47-12.18,12.18
				s5.47,12.18,12.18,12.18h47.8c6.72,0,12.18-5.47,12.18-12.18s-5.47-12.18-12.18-12.18H309.33z"/>
		</g>
	</g>
	<g>
		<g>
			<path class="st1" d="M316.04,501.19v-0.85h1.69v5.94h-0.94v-5.09H316.04z M319.01,503.24c0-0.94,0.16-1.67,0.47-2.2
				c0.32-0.53,0.87-0.8,1.64-0.8c0.78,0,1.32,0.27,1.64,0.8c0.32,0.53,0.48,1.26,0.48,2.2c0,0.95-0.16,1.69-0.48,2.23
				c-0.31,0.53-0.86,0.8-1.64,0.8c-0.78,0-1.32-0.27-1.64-0.8C319.17,504.93,319.01,504.19,319.01,503.24z M322.33,503.24
				c0-0.44-0.03-0.81-0.09-1.12c-0.05-0.3-0.17-0.55-0.34-0.74c-0.17-0.2-0.43-0.29-0.77-0.29c-0.34,0-0.6,0.1-0.77,0.29
				c-0.17,0.19-0.29,0.44-0.35,0.74c-0.05,0.3-0.08,0.68-0.08,1.12c0,0.46,0.03,0.84,0.08,1.15c0.05,0.31,0.17,0.56,0.34,0.75
				c0.18,0.19,0.44,0.28,0.78,0.28c0.34,0,0.6-0.09,0.77-0.28c0.18-0.19,0.3-0.44,0.35-0.75
				C322.31,504.08,322.33,503.69,322.33,503.24z M324.72,506.34c-0.17,0-0.31-0.06-0.42-0.17c-0.11-0.11-0.17-0.25-0.17-0.42
				c0-0.17,0.06-0.31,0.17-0.42c0.11-0.11,0.26-0.17,0.42-0.17c0.16,0,0.3,0.06,0.42,0.17c0.11,0.11,0.17,0.25,0.17,0.42
				c0,0.17-0.06,0.31-0.17,0.42C325.03,506.28,324.89,506.34,324.72,506.34z M324.72,502.92c-0.17,0-0.31-0.06-0.42-0.17
				c-0.11-0.11-0.17-0.26-0.17-0.42c0-0.17,0.06-0.31,0.17-0.42c0.11-0.11,0.26-0.17,0.42-0.17c0.16,0,0.3,0.06,0.42,0.17
				c0.11,0.11,0.17,0.26,0.17,0.42c0,0.17-0.06,0.31-0.17,0.42C325.03,502.86,324.89,502.92,324.72,502.92z M326.22,503.24
				c0-0.94,0.16-1.67,0.47-2.2c0.32-0.53,0.87-0.8,1.64-0.8s1.32,0.27,1.64,0.8c0.32,0.53,0.48,1.26,0.48,2.2
				c0,0.95-0.16,1.69-0.48,2.23c-0.31,0.53-0.86,0.8-1.64,0.8s-1.32-0.27-1.64-0.8C326.38,504.93,326.22,504.19,326.22,503.24z
				 M329.55,503.24c0-0.44-0.03-0.81-0.09-1.12c-0.05-0.3-0.17-0.55-0.34-0.74c-0.17-0.2-0.43-0.29-0.77-0.29
				c-0.34,0-0.6,0.1-0.77,0.29c-0.17,0.19-0.29,0.44-0.35,0.74c-0.05,0.3-0.08,0.68-0.08,1.12c0,0.46,0.03,0.84,0.08,1.15
				c0.05,0.31,0.17,0.56,0.34,0.75c0.18,0.19,0.44,0.28,0.78,0.28c0.34,0,0.6-0.09,0.77-0.28c0.18-0.19,0.3-0.44,0.35-0.75
				C329.52,504.08,329.55,503.69,329.55,503.24z M331.44,503.24c0-0.94,0.16-1.67,0.47-2.2c0.32-0.53,0.87-0.8,1.64-0.8
				s1.32,0.27,1.64,0.8c0.32,0.53,0.48,1.26,0.48,2.2c0,0.95-0.16,1.69-0.48,2.23c-0.31,0.53-0.86,0.8-1.64,0.8s-1.32-0.27-1.64-0.8
				C331.6,504.93,331.44,504.19,331.44,503.24z M334.76,503.24c0-0.44-0.03-0.81-0.09-1.12c-0.05-0.3-0.17-0.55-0.34-0.74
				c-0.17-0.2-0.43-0.29-0.77-0.29c-0.34,0-0.6,0.1-0.77,0.29c-0.17,0.19-0.29,0.44-0.35,0.74c-0.05,0.3-0.08,0.68-0.08,1.12
				c0,0.46,0.03,0.84,0.08,1.15c0.05,0.31,0.17,0.56,0.34,0.75c0.18,0.19,0.44,0.28,0.78,0.28c0.34,0,0.6-0.09,0.77-0.28
				c0.18-0.19,0.3-0.44,0.35-0.75C334.74,504.08,334.76,503.69,334.76,503.24z M342.31,505.13h-2.37l-0.41,1.16h-0.97l2.03-5.67
				h1.07l2.03,5.67h-0.98L342.31,505.13z M342.05,504.37l-0.92-2.63l-0.93,2.63H342.05z M350.53,500.62v5.66h-0.93v-3.88l-1.73,3.88
				h-0.64l-1.73-3.88v3.88h-0.93v-5.66h1l1.99,4.44l1.98-4.44H350.53z"/>
		</g>
	</g>
	<g>
		<g>
			<path class="st1" d="M390.31,488.39h55.49c8.08,0,14.63,6.6,14.63,14.74c0,8.14-6.55,14.74-14.63,14.74h-55.49
				c-8.08,0-14.63-6.6-14.63-14.74C375.68,494.99,382.23,488.39,390.31,488.39z"/>
		</g>
	</g>
	<g>
		<g>
			<path class="st0" d="M397.26,499.57v-1.2h2.41v8.44h-1.33v-7.24H397.26z M401.31,499.57v-1.2h2.41v8.44h-1.33v-7.24H401.31z
				 M406.24,506.89c-0.24,0-0.44-0.08-0.6-0.24c-0.16-0.16-0.24-0.36-0.24-0.6c0-0.24,0.08-0.44,0.24-0.6
				c0.16-0.16,0.36-0.24,0.6-0.24c0.23,0,0.43,0.08,0.59,0.24c0.16,0.16,0.24,0.36,0.24,0.6c0,0.24-0.08,0.44-0.24,0.6
				C406.67,506.81,406.47,506.89,406.24,506.89z M406.24,502.03c-0.24,0-0.44-0.08-0.6-0.24c-0.16-0.16-0.24-0.36-0.24-0.6
				s0.08-0.44,0.24-0.6c0.16-0.16,0.36-0.24,0.6-0.24c0.23,0,0.43,0.08,0.59,0.24c0.16,0.16,0.24,0.36,0.24,0.6s-0.08,0.44-0.24,0.6
				C406.67,501.95,406.47,502.03,406.24,502.03z M408.37,502.48c0-1.34,0.22-2.38,0.67-3.13c0.46-0.76,1.24-1.13,2.34-1.13
				c1.1,0,1.88,0.38,2.33,1.13c0.46,0.75,0.68,1.79,0.68,3.13c0,1.35-0.23,2.41-0.68,3.17c-0.45,0.76-1.22,1.13-2.33,1.13
				c-1.1,0-1.88-0.38-2.34-1.13C408.59,504.89,408.37,503.83,408.37,502.48z M413.09,502.48c0-0.63-0.04-1.15-0.13-1.59
				c-0.08-0.43-0.24-0.78-0.49-1.05c-0.25-0.28-0.61-0.42-1.1-0.42s-0.85,0.14-1.1,0.42c-0.25,0.27-0.41,0.62-0.5,1.05
				c-0.08,0.43-0.12,0.96-0.12,1.59c0,0.65,0.04,1.19,0.12,1.63c0.08,0.44,0.24,0.8,0.49,1.07c0.25,0.27,0.63,0.41,1.11,0.41
				s0.85-0.14,1.1-0.41c0.25-0.27,0.42-0.63,0.5-1.07C413.06,503.67,413.09,503.13,413.09,502.48z M415.79,502.48
				c0-1.34,0.22-2.38,0.67-3.13c0.46-0.76,1.24-1.13,2.34-1.13c1.1,0,1.88,0.38,2.33,1.13c0.46,0.75,0.68,1.79,0.68,3.13
				c0,1.35-0.23,2.41-0.68,3.17c-0.45,0.76-1.22,1.13-2.33,1.13c-1.1,0-1.88-0.38-2.34-1.13
				C416.01,504.89,415.79,503.83,415.79,502.48z M420.51,502.48c0-0.63-0.04-1.15-0.13-1.59c-0.08-0.43-0.24-0.78-0.49-1.05
				c-0.25-0.28-0.61-0.42-1.1-0.42s-0.85,0.14-1.1,0.42c-0.25,0.27-0.41,0.62-0.5,1.05c-0.08,0.43-0.12,0.96-0.12,1.59
				c0,0.65,0.04,1.19,0.12,1.63c0.08,0.44,0.24,0.8,0.49,1.07c0.25,0.27,0.63,0.41,1.11,0.41s0.85-0.14,1.1-0.41
				c0.25-0.27,0.42-0.63,0.5-1.07C420.47,503.67,420.51,503.13,420.51,502.48z M431.24,505.17h-3.37l-0.58,1.64h-1.38l2.88-8.06
				h1.53l2.88,8.06h-1.39L431.24,505.17z M430.87,504.09l-1.31-3.74l-1.32,3.74H430.87z M442.94,498.76v8.05h-1.32v-5.51l-2.46,5.51
				h-0.91l-2.47-5.51v5.51h-1.32v-8.05h1.42l2.83,6.31l2.81-6.31H442.94z"/>
		</g>
	</g>
	<g>
		<g>
			<path class="st1" d="M526.61,516.05h-47.8c-7.18,0-13.02-5.84-13.02-13.02S471.63,490,478.81,490h47.8
				c7.18,0,13.02,5.84,13.02,13.02S533.79,516.05,526.61,516.05z M478.81,490.84c-6.72,0-12.18,5.47-12.18,12.18
				s5.46,12.18,12.18,12.18h47.8c6.72,0,12.18-5.47,12.18-12.18s-5.47-12.18-12.18-12.18H478.81z"/>
		</g>
	</g>
	<g>
		<g>
			<path class="st1" d="M486.12,500.61v-0.85h1.69v5.94h-0.94v-5.09H486.12z M489.6,504.44c0.52-0.45,0.93-0.82,1.23-1.11
				c0.3-0.29,0.56-0.6,0.76-0.91c0.2-0.31,0.3-0.63,0.3-0.94c0-0.33-0.08-0.58-0.24-0.77c-0.15-0.18-0.39-0.28-0.72-0.28
				c-0.32,0-0.57,0.1-0.75,0.31c-0.17,0.2-0.27,0.47-0.28,0.81H489c0.02-0.62,0.2-1.09,0.55-1.42c0.36-0.33,0.81-0.5,1.36-0.5
				c0.59,0,1.05,0.16,1.38,0.49c0.34,0.33,0.5,0.76,0.5,1.3c0,0.39-0.1,0.77-0.3,1.13c-0.2,0.36-0.43,0.68-0.71,0.97
				c-0.27,0.28-0.62,0.61-1.04,0.99l-0.37,0.33h2.58v0.77h-3.96v-0.68L489.6,504.44z M494.28,505.76c-0.17,0-0.31-0.06-0.42-0.17
				c-0.11-0.11-0.17-0.26-0.17-0.42c0-0.17,0.06-0.31,0.17-0.42c0.11-0.11,0.26-0.17,0.42-0.17c0.16,0,0.3,0.06,0.42,0.17
				c0.11,0.11,0.17,0.26,0.17,0.42c0,0.17-0.06,0.31-0.17,0.42C494.58,505.7,494.44,505.76,494.28,505.76z M494.28,502.34
				c-0.17,0-0.31-0.06-0.42-0.17c-0.11-0.11-0.17-0.25-0.17-0.42c0-0.17,0.06-0.31,0.17-0.42c0.11-0.11,0.26-0.17,0.42-0.17
				c0.16,0,0.3,0.06,0.42,0.17c0.11,0.11,0.17,0.25,0.17,0.42c0,0.17-0.06,0.31-0.17,0.42
				C494.58,502.28,494.44,502.34,494.28,502.34z M495.78,502.66c0-0.94,0.16-1.67,0.47-2.2c0.32-0.53,0.87-0.8,1.64-0.8
				s1.32,0.27,1.64,0.8c0.32,0.53,0.48,1.26,0.48,2.2c0,0.95-0.16,1.69-0.48,2.23c-0.31,0.53-0.86,0.8-1.64,0.8s-1.32-0.27-1.64-0.8
				C495.94,504.35,495.78,503.61,495.78,502.66z M499.1,502.66c0-0.44-0.03-0.81-0.09-1.12c-0.05-0.3-0.17-0.55-0.34-0.74
				c-0.17-0.2-0.43-0.29-0.77-0.29s-0.6,0.1-0.77,0.29c-0.17,0.19-0.29,0.44-0.35,0.74c-0.05,0.3-0.08,0.68-0.08,1.12
				c0,0.46,0.03,0.84,0.08,1.15s0.17,0.56,0.34,0.75c0.18,0.19,0.44,0.29,0.78,0.29s0.6-0.1,0.77-0.29c0.18-0.19,0.3-0.44,0.35-0.75
				C499.08,503.5,499.1,503.11,499.1,502.66z M501,502.66c0-0.94,0.16-1.67,0.47-2.2c0.32-0.53,0.87-0.8,1.64-0.8
				c0.78,0,1.32,0.27,1.64,0.8c0.32,0.53,0.48,1.26,0.48,2.2c0,0.95-0.16,1.69-0.48,2.23c-0.31,0.53-0.86,0.8-1.64,0.8
				c-0.78,0-1.32-0.27-1.64-0.8C501.15,504.35,501,503.61,501,502.66z M504.32,502.66c0-0.44-0.03-0.81-0.09-1.12
				c-0.05-0.3-0.17-0.55-0.34-0.74c-0.17-0.2-0.43-0.29-0.77-0.29c-0.34,0-0.6,0.1-0.77,0.29c-0.17,0.19-0.29,0.44-0.35,0.74
				c-0.05,0.3-0.08,0.68-0.08,1.12c0,0.46,0.03,0.84,0.08,1.15c0.05,0.31,0.17,0.56,0.34,0.75c0.18,0.19,0.44,0.29,0.78,0.29
				c0.34,0,0.6-0.1,0.77-0.29c0.18-0.19,0.3-0.44,0.35-0.75S504.32,503.11,504.32,502.66z M511.86,504.55h-2.37l-0.41,1.16h-0.97
				l2.03-5.67h1.07l2.03,5.67h-0.98L511.86,504.55z M511.6,503.79l-0.92-2.63l-0.93,2.63H511.6z M520.09,500.04v5.66h-0.93v-3.88
				l-1.73,3.88h-0.64l-1.73-3.88v3.88h-0.93v-5.66h1l1.99,4.44l1.98-4.44H520.09z"/>
		</g>
	</g>
	<g>
		<g>
			<path class="st1" d="M357.13,555.2h-47.8c-7.18,0-13.02-5.84-13.02-13.02c0-7.18,5.84-13.02,13.02-13.02h47.8
				c7.18,0,13.02,5.84,13.02,13.02C370.15,549.36,364.31,555.2,357.13,555.2z M309.33,529.99c-6.72,0-12.18,5.46-12.18,12.18
				s5.47,12.18,12.18,12.18h47.8c6.72,0,12.18-5.47,12.18-12.18s-5.47-12.18-12.18-12.18H309.33z"/>
		</g>
	</g>
	<g>
		<g>
			<path class="st1" d="M315.66,542.33c0-0.94,0.16-1.67,0.47-2.2c0.32-0.53,0.87-0.8,1.64-0.8s1.32,0.27,1.64,0.8
				c0.32,0.53,0.48,1.26,0.48,2.2c0,0.95-0.16,1.69-0.48,2.23c-0.31,0.53-0.86,0.8-1.64,0.8s-1.32-0.27-1.64-0.8
				C315.82,544.03,315.66,543.28,315.66,542.33z M318.99,542.33c0-0.44-0.03-0.81-0.09-1.12c-0.05-0.3-0.17-0.55-0.34-0.74
				c-0.17-0.2-0.43-0.29-0.77-0.29s-0.6,0.1-0.77,0.29c-0.17,0.19-0.29,0.44-0.35,0.74c-0.05,0.3-0.08,0.68-0.08,1.12
				c0,0.46,0.03,0.84,0.08,1.15c0.05,0.31,0.17,0.56,0.34,0.75c0.18,0.19,0.44,0.28,0.78,0.28s0.6-0.09,0.77-0.28
				c0.18-0.19,0.3-0.44,0.35-0.75C318.96,543.17,318.99,542.79,318.99,542.33z M320.76,540.29v-0.85h1.69v5.94h-0.94v-5.09H320.76z
				 M324.22,545.44c-0.17,0-0.31-0.06-0.42-0.17c-0.11-0.11-0.17-0.25-0.17-0.42s0.06-0.31,0.17-0.42c0.11-0.11,0.26-0.17,0.42-0.17
				c0.16,0,0.3,0.06,0.42,0.17c0.11,0.11,0.17,0.25,0.17,0.42s-0.06,0.31-0.17,0.42C324.53,545.38,324.39,545.44,324.22,545.44z
				 M324.22,542.02c-0.17,0-0.31-0.06-0.42-0.17c-0.11-0.11-0.17-0.26-0.17-0.42c0-0.17,0.06-0.31,0.17-0.42
				c0.11-0.11,0.26-0.17,0.42-0.17c0.16,0,0.3,0.06,0.42,0.17c0.11,0.11,0.17,0.26,0.17,0.42c0,0.17-0.06,0.31-0.17,0.42
				C324.53,541.96,324.39,542.02,324.22,542.02z M325.72,542.33c0-0.94,0.16-1.67,0.47-2.2c0.32-0.53,0.87-0.8,1.64-0.8
				s1.32,0.27,1.64,0.8c0.32,0.53,0.48,1.26,0.48,2.2c0,0.95-0.16,1.69-0.48,2.23c-0.32,0.53-0.86,0.8-1.64,0.8s-1.32-0.27-1.64-0.8
				C325.88,544.03,325.72,543.28,325.72,542.33z M329.05,542.33c0-0.44-0.03-0.81-0.09-1.12c-0.05-0.3-0.17-0.55-0.34-0.74
				c-0.17-0.2-0.43-0.29-0.77-0.29s-0.6,0.1-0.77,0.29c-0.17,0.19-0.29,0.44-0.35,0.74c-0.05,0.3-0.08,0.68-0.08,1.12
				c0,0.46,0.03,0.84,0.08,1.15c0.05,0.31,0.17,0.56,0.34,0.75c0.18,0.19,0.44,0.28,0.78,0.28s0.6-0.09,0.77-0.28
				c0.18-0.19,0.3-0.44,0.35-0.75C329.02,543.17,329.05,542.79,329.05,542.33z M330.94,542.33c0-0.94,0.16-1.67,0.47-2.2
				c0.32-0.53,0.87-0.8,1.64-0.8c0.78,0,1.32,0.27,1.64,0.8c0.32,0.53,0.48,1.26,0.48,2.2c0,0.95-0.16,1.69-0.48,2.23
				c-0.31,0.53-0.86,0.8-1.64,0.8c-0.78,0-1.32-0.27-1.64-0.8C331.1,544.03,330.94,543.28,330.94,542.33z M334.26,542.33
				c0-0.44-0.03-0.81-0.09-1.12c-0.05-0.3-0.17-0.55-0.34-0.74c-0.17-0.2-0.43-0.29-0.77-0.29c-0.34,0-0.6,0.1-0.77,0.29
				c-0.17,0.19-0.29,0.44-0.35,0.74c-0.05,0.3-0.08,0.68-0.08,1.12c0,0.46,0.03,0.84,0.08,1.15c0.05,0.31,0.17,0.56,0.34,0.75
				c0.18,0.19,0.44,0.28,0.78,0.28c0.34,0,0.6-0.09,0.77-0.28c0.18-0.19,0.3-0.44,0.35-0.75
				C334.24,543.17,334.26,542.79,334.26,542.33z M342.35,541.41c0,0.29-0.07,0.56-0.2,0.81c-0.14,0.25-0.35,0.46-0.65,0.63
				c-0.3,0.16-0.68,0.24-1.15,0.24h-1.03v2.3h-0.93v-5.66h1.95c0.43,0,0.8,0.08,1.1,0.23c0.3,0.15,0.53,0.35,0.68,0.6
				C342.28,540.81,342.35,541.09,342.35,541.41z M340.35,542.33c0.35,0,0.62-0.08,0.79-0.24c0.17-0.16,0.26-0.39,0.26-0.68
				c0-0.62-0.35-0.93-1.05-0.93h-1.03v1.85H340.35z M349.2,539.72v5.66h-0.93v-3.88l-1.73,3.88h-0.64l-1.73-3.88v3.88h-0.93v-5.66h1
				l1.99,4.44l1.98-4.44H349.2z"/>
		</g>
	</g>
	<g>
		<g>
			<path class="st1" d="M441.87,555.2h-47.8c-7.18,0-13.02-5.84-13.02-13.02c0-7.18,5.84-13.02,13.02-13.02h47.8
				c7.18,0,13.02,5.84,13.02,13.02C454.89,549.36,449.05,555.2,441.87,555.2z M394.07,529.99c-6.72,0-12.18,5.46-12.18,12.18
				s5.47,12.18,12.18,12.18h47.8c6.72,0,12.18-5.47,12.18-12.18s-5.47-12.18-12.18-12.18H394.07z"/>
		</g>
	</g>
	<g>
		<g>
			<path class="st1" d="M400.91,541.28c0-0.94,0.16-1.67,0.47-2.2c0.32-0.53,0.87-0.8,1.64-0.8c0.78,0,1.32,0.27,1.64,0.8
				c0.32,0.53,0.48,1.26,0.48,2.2c0,0.95-0.16,1.69-0.48,2.23c-0.31,0.53-0.86,0.8-1.64,0.8c-0.78,0-1.32-0.27-1.64-0.8
				C401.07,542.98,400.91,542.23,400.91,541.28z M404.23,541.28c0-0.44-0.03-0.81-0.09-1.12c-0.05-0.3-0.17-0.55-0.34-0.74
				c-0.17-0.2-0.43-0.29-0.77-0.29c-0.34,0-0.6,0.1-0.77,0.29c-0.17,0.19-0.29,0.44-0.35,0.74c-0.05,0.3-0.08,0.68-0.08,1.12
				c0,0.46,0.03,0.84,0.08,1.15c0.05,0.31,0.17,0.56,0.34,0.75c0.18,0.19,0.44,0.28,0.78,0.28c0.34,0,0.6-0.09,0.77-0.28
				c0.18-0.19,0.3-0.44,0.35-0.75C404.21,542.12,404.23,541.74,404.23,541.28z M406.64,543.06c0.52-0.45,0.93-0.82,1.23-1.11
				c0.3-0.29,0.56-0.6,0.76-0.91c0.2-0.32,0.3-0.63,0.3-0.94c0-0.33-0.08-0.58-0.24-0.77c-0.15-0.18-0.39-0.28-0.72-0.28
				c-0.32,0-0.57,0.1-0.75,0.31c-0.17,0.2-0.27,0.47-0.28,0.81h-0.9c0.02-0.62,0.2-1.09,0.55-1.42c0.36-0.33,0.81-0.5,1.36-0.5
				c0.59,0,1.05,0.16,1.38,0.49c0.34,0.33,0.51,0.76,0.51,1.3c0,0.39-0.1,0.77-0.3,1.13c-0.2,0.36-0.43,0.68-0.71,0.97
				c-0.27,0.28-0.62,0.61-1.04,0.99l-0.37,0.33h2.58v0.77h-3.96v-0.68L406.64,543.06z M411.32,544.38c-0.17,0-0.31-0.06-0.42-0.17
				c-0.11-0.11-0.17-0.25-0.17-0.42c0-0.17,0.06-0.31,0.17-0.42c0.11-0.11,0.26-0.17,0.42-0.17c0.16,0,0.3,0.06,0.42,0.17
				c0.11,0.11,0.17,0.25,0.17,0.42c0,0.17-0.06,0.31-0.17,0.42C411.62,544.33,411.49,544.38,411.32,544.38z M411.32,540.96
				c-0.17,0-0.31-0.06-0.42-0.17c-0.11-0.11-0.17-0.26-0.17-0.42c0-0.17,0.06-0.31,0.17-0.42c0.11-0.11,0.26-0.17,0.42-0.17
				c0.16,0,0.3,0.06,0.42,0.17c0.11,0.11,0.17,0.26,0.17,0.42c0,0.17-0.06,0.31-0.17,0.42
				C411.62,540.91,411.49,540.96,411.32,540.96z M412.82,541.28c0-0.94,0.16-1.67,0.47-2.2c0.32-0.53,0.87-0.8,1.64-0.8
				c0.78,0,1.32,0.27,1.64,0.8c0.32,0.53,0.48,1.26,0.48,2.2c0,0.95-0.16,1.69-0.48,2.23c-0.31,0.53-0.86,0.8-1.64,0.8
				c-0.78,0-1.32-0.27-1.64-0.8C412.98,542.98,412.82,542.23,412.82,541.28z M416.15,541.28c0-0.44-0.03-0.81-0.09-1.12
				c-0.05-0.3-0.17-0.55-0.34-0.74c-0.17-0.2-0.43-0.29-0.77-0.29c-0.34,0-0.6,0.1-0.77,0.29c-0.17,0.19-0.29,0.44-0.35,0.74
				c-0.05,0.3-0.08,0.68-0.08,1.12c0,0.46,0.03,0.84,0.08,1.15c0.05,0.31,0.17,0.56,0.34,0.75c0.18,0.19,0.44,0.28,0.78,0.28
				c0.34,0,0.6-0.09,0.77-0.28c0.18-0.19,0.3-0.44,0.35-0.75C416.12,542.12,416.15,541.74,416.15,541.28z M418.04,541.28
				c0-0.94,0.16-1.67,0.47-2.2c0.32-0.53,0.87-0.8,1.64-0.8s1.32,0.27,1.64,0.8c0.32,0.53,0.48,1.26,0.48,2.2
				c0,0.95-0.16,1.69-0.48,2.23c-0.31,0.53-0.86,0.8-1.64,0.8s-1.32-0.27-1.64-0.8C418.2,542.98,418.04,542.23,418.04,541.28z
				 M421.36,541.28c0-0.44-0.03-0.81-0.09-1.12c-0.05-0.3-0.17-0.55-0.34-0.74c-0.17-0.2-0.43-0.29-0.77-0.29s-0.6,0.1-0.77,0.29
				c-0.17,0.19-0.29,0.44-0.35,0.74c-0.05,0.3-0.08,0.68-0.08,1.12c0,0.46,0.03,0.84,0.08,1.15c0.05,0.31,0.17,0.56,0.34,0.75
				c0.18,0.19,0.44,0.28,0.78,0.28s0.6-0.09,0.77-0.28c0.18-0.19,0.3-0.44,0.35-0.75C421.33,542.12,421.36,541.74,421.36,541.28z
				 M429.45,540.35c0,0.29-0.07,0.56-0.2,0.81c-0.14,0.25-0.35,0.46-0.65,0.63c-0.3,0.16-0.68,0.24-1.15,0.24h-1.03v2.3h-0.93v-5.66
				h1.95c0.43,0,0.8,0.08,1.1,0.23c0.3,0.15,0.53,0.35,0.68,0.6C429.38,539.75,429.45,540.04,429.45,540.35z M427.45,541.27
				c0.35,0,0.62-0.08,0.79-0.24c0.17-0.16,0.26-0.39,0.26-0.68c0-0.62-0.35-0.93-1.05-0.93h-1.03v1.85H427.45z M436.3,538.67v5.66
				h-0.93v-3.88l-1.73,3.88H433l-1.73-3.88v3.88h-0.93v-5.66h1l1.99,4.44l1.98-4.44H436.3z"/>
		</g>
	</g>
	<g>
		<g>
			<path class="st4" d="M526.61,555.2h-47.8c-7.18,0-13.02-5.84-13.02-13.02c0-7.18,5.84-13.02,13.02-13.02h47.8
				c7.18,0,13.02,5.84,13.02,13.02C539.64,549.36,533.79,555.2,526.61,555.2z M478.81,529.99c-6.72,0-12.18,5.46-12.18,12.18
				s5.46,12.18,12.18,12.18h47.8c6.72,0,12.18-5.47,12.18-12.18s-5.47-12.18-12.18-12.18H478.81z"/>
		</g>
	</g>
	<g>
		<g>
			<path class="st4" d="M487.13,542.33c0-0.94,0.16-1.67,0.47-2.2c0.32-0.53,0.87-0.8,1.64-0.8s1.32,0.27,1.64,0.8
				c0.32,0.53,0.48,1.26,0.48,2.2c0,0.95-0.16,1.69-0.48,2.23c-0.32,0.53-0.86,0.8-1.64,0.8s-1.32-0.27-1.64-0.8
				C487.28,544.03,487.13,543.28,487.13,542.33z M490.45,542.33c0-0.44-0.03-0.81-0.09-1.12c-0.05-0.3-0.17-0.55-0.34-0.74
				c-0.17-0.2-0.43-0.29-0.77-0.29c-0.34,0-0.6,0.1-0.77,0.29c-0.17,0.19-0.29,0.44-0.35,0.74c-0.05,0.3-0.08,0.68-0.08,1.12
				c0,0.46,0.03,0.84,0.08,1.15c0.05,0.31,0.17,0.56,0.34,0.75c0.18,0.19,0.44,0.28,0.78,0.28c0.34,0,0.6-0.09,0.77-0.28
				c0.18-0.19,0.3-0.44,0.35-0.75C490.42,543.17,490.45,542.79,490.45,542.33z M492.33,540.91c0.03-0.5,0.23-0.9,0.58-1.18
				c0.36-0.28,0.81-0.42,1.37-0.42c0.38,0,0.71,0.07,0.99,0.2c0.28,0.14,0.49,0.32,0.63,0.55c0.14,0.23,0.21,0.5,0.21,0.79
				c0,0.34-0.09,0.62-0.27,0.86c-0.18,0.24-0.39,0.4-0.64,0.48v0.03c0.32,0.1,0.57,0.28,0.75,0.54c0.18,0.26,0.27,0.58,0.27,0.99
				c0,0.32-0.07,0.61-0.22,0.85c-0.15,0.25-0.36,0.45-0.65,0.59c-0.29,0.14-0.63,0.21-1.03,0.21c-0.59,0-1.07-0.15-1.45-0.45
				c-0.37-0.3-0.58-0.74-0.6-1.3h0.9c0.02,0.29,0.13,0.52,0.33,0.71c0.2,0.18,0.47,0.27,0.81,0.27c0.33,0,0.59-0.09,0.77-0.27
				c0.18-0.18,0.27-0.42,0.27-0.71c0-0.38-0.12-0.65-0.37-0.81c-0.24-0.16-0.61-0.24-1.11-0.24h-0.21v-0.77h0.22
				c0.44-0.01,0.77-0.08,1-0.22c0.23-0.14,0.35-0.36,0.35-0.67c0-0.26-0.08-0.47-0.25-0.62c-0.17-0.16-0.41-0.24-0.72-0.24
				c-0.3,0-0.54,0.08-0.71,0.24c-0.17,0.15-0.27,0.34-0.3,0.57H492.33z M497.67,545.44c-0.17,0-0.31-0.06-0.42-0.17
				c-0.11-0.11-0.17-0.25-0.17-0.42s0.06-0.31,0.17-0.42c0.11-0.11,0.26-0.17,0.42-0.17c0.16,0,0.3,0.06,0.42,0.17
				c0.11,0.11,0.17,0.25,0.17,0.42s-0.06,0.31-0.17,0.42C497.97,545.38,497.84,545.44,497.67,545.44z M497.67,542.02
				c-0.17,0-0.31-0.06-0.42-0.17c-0.11-0.11-0.17-0.26-0.17-0.42c0-0.17,0.06-0.31,0.17-0.42c0.11-0.11,0.26-0.17,0.42-0.17
				c0.16,0,0.3,0.06,0.42,0.17c0.11,0.11,0.17,0.26,0.17,0.42c0,0.17-0.06,0.31-0.17,0.42
				C497.97,541.96,497.84,542.02,497.67,542.02z M499.17,542.33c0-0.94,0.16-1.67,0.47-2.2c0.32-0.53,0.87-0.8,1.64-0.8
				s1.32,0.27,1.64,0.8c0.32,0.53,0.48,1.26,0.48,2.2c0,0.95-0.16,1.69-0.48,2.23c-0.31,0.53-0.86,0.8-1.64,0.8s-1.32-0.27-1.64-0.8
				C499.33,544.03,499.17,543.28,499.17,542.33z M502.5,542.33c0-0.44-0.03-0.81-0.09-1.12c-0.05-0.3-0.17-0.55-0.34-0.74
				c-0.17-0.2-0.43-0.29-0.77-0.29c-0.34,0-0.6,0.1-0.77,0.29c-0.17,0.19-0.29,0.44-0.35,0.74c-0.05,0.3-0.08,0.68-0.08,1.12
				c0,0.46,0.03,0.84,0.08,1.15c0.05,0.31,0.17,0.56,0.34,0.75c0.18,0.19,0.44,0.28,0.78,0.28c0.34,0,0.6-0.09,0.77-0.28
				c0.18-0.19,0.3-0.44,0.35-0.75C502.47,543.17,502.5,542.79,502.5,542.33z M504.39,542.33c0-0.94,0.16-1.67,0.47-2.2
				c0.32-0.53,0.87-0.8,1.64-0.8c0.78,0,1.32,0.27,1.64,0.8c0.32,0.53,0.48,1.26,0.48,2.2c0,0.95-0.16,1.69-0.48,2.23
				c-0.31,0.53-0.86,0.8-1.64,0.8c-0.78,0-1.32-0.27-1.64-0.8C504.55,544.03,504.39,543.28,504.39,542.33z M507.71,542.33
				c0-0.44-0.03-0.81-0.09-1.12c-0.05-0.3-0.17-0.55-0.34-0.74c-0.17-0.2-0.43-0.29-0.77-0.29c-0.34,0-0.6,0.1-0.77,0.29
				c-0.17,0.19-0.29,0.44-0.35,0.74c-0.05,0.3-0.08,0.68-0.08,1.12c0,0.46,0.03,0.84,0.08,1.15c0.05,0.31,0.17,0.56,0.34,0.75
				c0.18,0.19,0.44,0.28,0.78,0.28c0.34,0,0.6-0.09,0.77-0.28c0.18-0.19,0.3-0.44,0.35-0.75
				C507.68,543.17,507.71,542.79,507.71,542.33z M515.8,541.41c0,0.29-0.07,0.56-0.2,0.81c-0.14,0.25-0.35,0.46-0.65,0.63
				c-0.3,0.16-0.68,0.24-1.15,0.24h-1.03v2.3h-0.93v-5.66h1.95c0.43,0,0.8,0.08,1.1,0.23c0.3,0.15,0.53,0.35,0.68,0.6
				C515.73,540.81,515.8,541.09,515.8,541.41z M513.8,542.33c0.35,0,0.62-0.08,0.79-0.24c0.17-0.16,0.26-0.39,0.26-0.68
				c0-0.62-0.35-0.93-1.05-0.93h-1.03v1.85H513.8z M522.65,539.72v5.66h-0.93v-3.88l-1.73,3.88h-0.64l-1.73-3.88v3.88h-0.93v-5.66h1
				l1.99,4.44l1.98-4.44H522.65z"/>
		</g>
	</g>
	<g>
		<g>
			<path class="st4" d="M357.13,593.56h-47.8c-7.18,0-13.02-5.84-13.02-13.02s5.84-13.02,13.02-13.02h47.8
				c7.18,0,13.02,5.84,13.02,13.02S364.31,593.56,357.13,593.56z M309.33,568.35c-6.72,0-12.18,5.47-12.18,12.18
				s5.47,12.18,12.18,12.18h47.8c6.72,0,12.18-5.47,12.18-12.18s-5.47-12.18-12.18-12.18H309.33z"/>
		</g>
	</g>
	<g>
		<g>
			<path class="st4" d="M314.18,580.17c0-0.94,0.16-1.67,0.47-2.2c0.32-0.53,0.87-0.8,1.64-0.8s1.32,0.27,1.64,0.8
				c0.32,0.53,0.48,1.26,0.48,2.2c0,0.95-0.16,1.69-0.48,2.23c-0.31,0.53-0.86,0.8-1.64,0.8s-1.32-0.27-1.64-0.8
				C314.33,581.86,314.18,581.12,314.18,580.17z M317.5,580.17c0-0.44-0.03-0.81-0.09-1.12c-0.05-0.3-0.17-0.55-0.34-0.74
				c-0.17-0.2-0.43-0.29-0.77-0.29c-0.34,0-0.6,0.1-0.77,0.29c-0.17,0.19-0.29,0.44-0.35,0.74c-0.05,0.3-0.08,0.68-0.08,1.12
				c0,0.46,0.03,0.84,0.08,1.15c0.05,0.31,0.17,0.56,0.34,0.75c0.18,0.19,0.44,0.29,0.78,0.29c0.34,0,0.6-0.1,0.77-0.29
				c0.18-0.19,0.3-0.44,0.35-0.75C317.47,581,317.5,580.62,317.5,580.17z M319.28,581.97v-0.7l2.74-3.93h1.12v3.82h0.76v0.81h-0.76
				v1.24h-0.91v-1.24H319.28z M322.27,578.29l-1.92,2.87h1.92V578.29z M325.16,583.27c-0.17,0-0.31-0.06-0.42-0.17
				c-0.11-0.11-0.17-0.26-0.17-0.42c0-0.17,0.06-0.31,0.17-0.42c0.11-0.11,0.25-0.17,0.42-0.17c0.16,0,0.3,0.06,0.42,0.17
				c0.11,0.11,0.17,0.26,0.17,0.42c0,0.17-0.06,0.31-0.17,0.42C325.46,583.21,325.33,583.27,325.16,583.27z M325.16,579.85
				c-0.17,0-0.31-0.06-0.42-0.17c-0.11-0.11-0.17-0.26-0.17-0.42c0-0.17,0.06-0.31,0.17-0.42c0.11-0.11,0.25-0.17,0.42-0.17
				c0.16,0,0.3,0.06,0.42,0.17c0.11,0.11,0.17,0.25,0.17,0.42c0,0.17-0.06,0.31-0.17,0.42
				C325.46,579.79,325.33,579.85,325.16,579.85z M326.66,580.17c0-0.94,0.16-1.67,0.47-2.2c0.32-0.53,0.87-0.8,1.64-0.8
				c0.78,0,1.32,0.27,1.64,0.8c0.32,0.53,0.48,1.26,0.48,2.2c0,0.95-0.16,1.69-0.48,2.23c-0.31,0.53-0.86,0.8-1.64,0.8
				c-0.78,0-1.32-0.27-1.64-0.8C326.82,581.86,326.66,581.12,326.66,580.17z M329.98,580.17c0-0.44-0.03-0.81-0.09-1.12
				c-0.05-0.3-0.17-0.55-0.34-0.74c-0.17-0.2-0.43-0.29-0.77-0.29c-0.34,0-0.6,0.1-0.77,0.29c-0.17,0.19-0.29,0.44-0.35,0.74
				c-0.05,0.3-0.08,0.68-0.08,1.12c0,0.46,0.03,0.84,0.08,1.15c0.05,0.31,0.17,0.56,0.34,0.75c0.18,0.19,0.44,0.29,0.78,0.29
				c0.34,0,0.6-0.1,0.77-0.29c0.18-0.19,0.3-0.44,0.35-0.75C329.96,581,329.98,580.62,329.98,580.17z M331.88,580.17
				c0-0.94,0.16-1.67,0.47-2.2c0.32-0.53,0.87-0.8,1.64-0.8s1.32,0.27,1.64,0.8c0.32,0.53,0.48,1.26,0.48,2.2
				c0,0.95-0.16,1.69-0.48,2.23c-0.32,0.53-0.86,0.8-1.64,0.8s-1.32-0.27-1.64-0.8C332.04,581.86,331.88,581.12,331.88,580.17z
				 M335.2,580.17c0-0.44-0.03-0.81-0.09-1.12c-0.05-0.3-0.17-0.55-0.34-0.74c-0.17-0.2-0.43-0.29-0.77-0.29
				c-0.34,0-0.6,0.1-0.77,0.29c-0.17,0.19-0.29,0.44-0.35,0.74c-0.05,0.3-0.08,0.68-0.08,1.12c0,0.46,0.03,0.84,0.08,1.15
				c0.05,0.31,0.17,0.56,0.34,0.75c0.18,0.19,0.44,0.29,0.78,0.29c0.34,0,0.6-0.1,0.77-0.29c0.18-0.19,0.3-0.44,0.35-0.75
				C335.17,581,335.2,580.62,335.2,580.17z M343.29,579.24c0,0.29-0.07,0.56-0.2,0.81c-0.14,0.26-0.35,0.46-0.65,0.63
				c-0.3,0.16-0.68,0.24-1.15,0.24h-1.03v2.3h-0.93v-5.66h1.95c0.43,0,0.8,0.08,1.1,0.23c0.3,0.15,0.53,0.35,0.68,0.6
				C343.21,578.64,343.29,578.92,343.29,579.24z M341.29,580.16c0.35,0,0.62-0.08,0.79-0.24c0.17-0.16,0.26-0.39,0.26-0.68
				c0-0.62-0.35-0.93-1.05-0.93h-1.03v1.85H341.29z M350.14,577.55v5.66h-0.93v-3.88l-1.73,3.88h-0.64l-1.73-3.88v3.88h-0.93v-5.66
				h1l1.99,4.44l1.98-4.44H350.14z"/>
		</g>
	</g>
	<g>
		<g>
			<path class="st1" d="M441.87,593.56h-47.8c-7.18,0-13.02-5.84-13.02-13.02s5.84-13.02,13.02-13.02h47.8
				c7.18,0,13.02,5.84,13.02,13.02S449.05,593.56,441.87,593.56z M394.07,568.35c-6.72,0-12.18,5.47-12.18,12.18
				s5.47,12.18,12.18,12.18h47.8c6.72,0,12.18-5.47,12.18-12.18s-5.47-12.18-12.18-12.18H394.07z"/>
		</g>
	</g>
	<g>
		<g>
			<path class="st1" d="M400.54,580.17c0-0.94,0.16-1.67,0.47-2.2c0.32-0.53,0.87-0.8,1.64-0.8c0.78,0,1.32,0.27,1.64,0.8
				c0.32,0.53,0.48,1.26,0.48,2.2c0,0.95-0.16,1.69-0.48,2.23c-0.32,0.53-0.86,0.8-1.64,0.8c-0.78,0-1.32-0.27-1.64-0.8
				C400.7,581.86,400.54,581.12,400.54,580.17z M403.87,580.17c0-0.44-0.03-0.81-0.09-1.12c-0.05-0.3-0.17-0.55-0.34-0.74
				c-0.17-0.2-0.43-0.29-0.77-0.29c-0.34,0-0.6,0.1-0.77,0.29c-0.17,0.19-0.29,0.44-0.35,0.74c-0.05,0.3-0.08,0.68-0.08,1.12
				c0,0.46,0.03,0.84,0.08,1.15c0.05,0.31,0.17,0.56,0.34,0.75c0.18,0.19,0.44,0.29,0.78,0.29c0.34,0,0.6-0.1,0.77-0.29
				c0.18-0.19,0.3-0.44,0.35-0.75C403.84,581,403.87,580.62,403.87,580.17z M409.59,578.07h-2.73v1.62c0.11-0.15,0.28-0.28,0.5-0.38
				c0.23-0.1,0.47-0.15,0.72-0.15c0.46,0,0.82,0.1,1.11,0.29c0.29,0.2,0.49,0.44,0.61,0.74c0.12,0.3,0.19,0.61,0.19,0.94
				c0,0.4-0.08,0.76-0.24,1.07c-0.15,0.31-0.38,0.55-0.69,0.73c-0.3,0.18-0.68,0.27-1.12,0.27c-0.59,0-1.07-0.15-1.42-0.44
				s-0.57-0.68-0.64-1.16h0.9c0.06,0.26,0.19,0.46,0.4,0.61c0.21,0.15,0.46,0.22,0.77,0.22c0.39,0,0.67-0.12,0.86-0.35
				c0.2-0.23,0.29-0.54,0.29-0.93c0-0.39-0.1-0.69-0.29-0.9c-0.2-0.21-0.48-0.32-0.86-0.32c-0.27,0-0.49,0.07-0.68,0.2
				c-0.18,0.13-0.31,0.31-0.39,0.54h-0.88v-3.43h3.58V578.07z M411.46,583.27c-0.17,0-0.31-0.06-0.42-0.17
				c-0.11-0.11-0.17-0.26-0.17-0.42c0-0.17,0.06-0.31,0.17-0.42c0.11-0.11,0.26-0.17,0.42-0.17c0.16,0,0.3,0.06,0.42,0.17
				c0.11,0.11,0.17,0.26,0.17,0.42c0,0.17-0.06,0.31-0.17,0.42C411.76,583.21,411.62,583.27,411.46,583.27z M411.46,579.85
				c-0.17,0-0.31-0.06-0.42-0.17c-0.11-0.11-0.17-0.26-0.17-0.42c0-0.17,0.06-0.31,0.17-0.42c0.11-0.11,0.26-0.17,0.42-0.17
				c0.16,0,0.3,0.06,0.42,0.17c0.11,0.11,0.17,0.25,0.17,0.42c0,0.17-0.06,0.31-0.17,0.42
				C411.76,579.79,411.62,579.85,411.46,579.85z M412.96,580.17c0-0.94,0.16-1.67,0.47-2.2c0.32-0.53,0.87-0.8,1.64-0.8
				s1.32,0.27,1.64,0.8c0.32,0.53,0.48,1.26,0.48,2.2c0,0.95-0.16,1.69-0.48,2.23c-0.31,0.53-0.86,0.8-1.64,0.8s-1.32-0.27-1.64-0.8
				C413.12,581.86,412.96,581.12,412.96,580.17z M416.28,580.17c0-0.44-0.03-0.81-0.09-1.12c-0.05-0.3-0.17-0.55-0.34-0.74
				c-0.17-0.2-0.43-0.29-0.77-0.29c-0.34,0-0.6,0.1-0.77,0.29c-0.17,0.19-0.29,0.44-0.35,0.74c-0.05,0.3-0.08,0.68-0.08,1.12
				c0,0.46,0.03,0.84,0.08,1.15c0.05,0.31,0.17,0.56,0.34,0.75c0.18,0.19,0.44,0.29,0.78,0.29c0.34,0,0.6-0.1,0.77-0.29
				c0.18-0.19,0.3-0.44,0.35-0.75C416.25,581,416.28,580.62,416.28,580.17z M418.17,580.17c0-0.94,0.16-1.67,0.47-2.2
				c0.32-0.53,0.87-0.8,1.64-0.8c0.78,0,1.32,0.27,1.64,0.8c0.32,0.53,0.48,1.26,0.48,2.2c0,0.95-0.16,1.69-0.48,2.23
				c-0.31,0.53-0.86,0.8-1.64,0.8c-0.78,0-1.32-0.27-1.64-0.8C418.33,581.86,418.17,581.12,418.17,580.17z M421.5,580.17
				c0-0.44-0.03-0.81-0.09-1.12c-0.05-0.3-0.17-0.55-0.34-0.74c-0.17-0.2-0.43-0.29-0.77-0.29c-0.34,0-0.6,0.1-0.77,0.29
				c-0.17,0.19-0.29,0.44-0.35,0.74c-0.05,0.3-0.08,0.68-0.08,1.12c0,0.46,0.03,0.84,0.08,1.15c0.05,0.31,0.17,0.56,0.34,0.75
				c0.18,0.19,0.44,0.29,0.78,0.29c0.34,0,0.6-0.1,0.77-0.29c0.18-0.19,0.3-0.44,0.35-0.75C421.47,581,421.5,580.62,421.5,580.17z
				 M429.59,579.24c0,0.29-0.07,0.56-0.2,0.81c-0.14,0.26-0.35,0.46-0.65,0.63c-0.3,0.16-0.68,0.24-1.15,0.24h-1.03v2.3h-0.93v-5.66
				h1.95c0.43,0,0.8,0.08,1.1,0.23c0.3,0.15,0.53,0.35,0.68,0.6C429.51,578.64,429.59,578.92,429.59,579.24z M427.58,580.16
				c0.35,0,0.62-0.08,0.79-0.24c0.17-0.16,0.26-0.39,0.26-0.68c0-0.62-0.35-0.93-1.05-0.93h-1.03v1.85H427.58z M436.43,577.55v5.66
				h-0.93v-3.88l-1.73,3.88h-0.64l-1.73-3.88v3.88h-0.93v-5.66h1l1.99,4.44l1.98-4.44H436.43z"/>
		</g>
	</g>
	<g>
		<g>
			<path class="st1" d="M526.61,593.56h-47.8c-7.18,0-13.02-5.84-13.02-13.02s5.84-13.02,13.02-13.02h47.8
				c7.18,0,13.02,5.84,13.02,13.02S533.79,593.56,526.61,593.56z M478.81,568.35c-6.72,0-12.18,5.47-12.18,12.18
				s5.46,12.18,12.18,12.18h47.8c6.72,0,12.18-5.47,12.18-12.18s-5.47-12.18-12.18-12.18H478.81z"/>
		</g>
	</g>
	<g>
		<g>
			<path class="st1" d="M486.84,580.69c0-0.94,0.16-1.67,0.47-2.2c0.32-0.53,0.87-0.8,1.64-0.8c0.78,0,1.32,0.27,1.64,0.8
				c0.32,0.53,0.48,1.26,0.48,2.2c0,0.95-0.16,1.69-0.48,2.23c-0.31,0.53-0.86,0.8-1.64,0.8c-0.78,0-1.32-0.27-1.64-0.8
				C487,582.39,486.84,581.64,486.84,580.69z M490.17,580.69c0-0.44-0.03-0.81-0.09-1.12c-0.05-0.3-0.17-0.55-0.34-0.74
				c-0.17-0.2-0.43-0.29-0.77-0.29c-0.34,0-0.6,0.1-0.77,0.29c-0.17,0.19-0.29,0.44-0.35,0.74c-0.05,0.3-0.08,0.68-0.08,1.12
				c0,0.46,0.03,0.84,0.08,1.15c0.05,0.31,0.17,0.56,0.34,0.75c0.18,0.19,0.44,0.29,0.78,0.29c0.34,0,0.6-0.1,0.77-0.29
				c0.18-0.19,0.3-0.44,0.35-0.75C490.14,581.53,490.17,581.15,490.17,580.69z M495.25,579.18c-0.06-0.25-0.17-0.44-0.33-0.56
				s-0.38-0.19-0.66-0.19c-0.43,0-0.75,0.17-0.96,0.5c-0.21,0.33-0.32,0.87-0.33,1.63c0.14-0.24,0.35-0.42,0.62-0.55
				c0.27-0.13,0.56-0.2,0.88-0.2c0.36,0,0.67,0.08,0.94,0.24c0.28,0.15,0.49,0.37,0.64,0.67c0.16,0.29,0.24,0.64,0.24,1.05
				c0,0.38-0.08,0.72-0.23,1.02c-0.15,0.3-0.37,0.53-0.66,0.71c-0.29,0.17-0.65,0.25-1.06,0.25c-0.56,0-1-0.12-1.32-0.37
				c-0.32-0.25-0.54-0.6-0.67-1.05c-0.12-0.45-0.19-1.01-0.19-1.69c0-1.99,0.7-2.98,2.1-2.98c0.54,0,0.97,0.15,1.28,0.44
				c0.32,0.29,0.5,0.65,0.55,1.08H495.25z M494.27,580.59c-0.33,0-0.61,0.1-0.85,0.3c-0.23,0.2-0.34,0.48-0.34,0.85
				c0,0.37,0.11,0.67,0.32,0.9c0.22,0.22,0.52,0.33,0.9,0.33c0.34,0,0.61-0.11,0.81-0.32c0.2-0.21,0.3-0.49,0.3-0.85
				c0-0.37-0.1-0.66-0.29-0.88C494.92,580.7,494.64,580.59,494.27,580.59z M497.78,583.79c-0.17,0-0.31-0.06-0.42-0.17
				c-0.11-0.11-0.17-0.26-0.17-0.42c0-0.17,0.06-0.31,0.17-0.42c0.11-0.11,0.25-0.17,0.42-0.17c0.16,0,0.3,0.06,0.42,0.17
				c0.11,0.11,0.17,0.26,0.17,0.42c0,0.17-0.06,0.31-0.17,0.42C498.08,583.74,497.94,583.79,497.78,583.79z M497.78,580.37
				c-0.17,0-0.31-0.06-0.42-0.17c-0.11-0.11-0.17-0.26-0.17-0.42s0.06-0.31,0.17-0.42c0.11-0.11,0.25-0.17,0.42-0.17
				c0.16,0,0.3,0.06,0.42,0.17c0.11,0.11,0.17,0.25,0.17,0.42s-0.06,0.31-0.17,0.42C498.08,580.32,497.94,580.37,497.78,580.37z
				 M499.28,580.69c0-0.94,0.16-1.67,0.47-2.2c0.32-0.53,0.87-0.8,1.64-0.8c0.78,0,1.32,0.27,1.64,0.8c0.32,0.53,0.48,1.26,0.48,2.2
				c0,0.95-0.16,1.69-0.48,2.23c-0.31,0.53-0.86,0.8-1.64,0.8c-0.78,0-1.32-0.27-1.64-0.8
				C499.44,582.39,499.28,581.64,499.28,580.69z M502.6,580.69c0-0.44-0.03-0.81-0.09-1.12c-0.05-0.3-0.17-0.55-0.34-0.74
				c-0.17-0.2-0.43-0.29-0.77-0.29c-0.34,0-0.6,0.1-0.77,0.29c-0.17,0.19-0.29,0.44-0.35,0.74c-0.05,0.3-0.08,0.68-0.08,1.12
				c0,0.46,0.03,0.84,0.08,1.15c0.05,0.31,0.17,0.56,0.34,0.75c0.18,0.19,0.44,0.29,0.78,0.29c0.34,0,0.6-0.1,0.77-0.29
				c0.18-0.19,0.3-0.44,0.35-0.75C502.58,581.53,502.6,581.15,502.6,580.69z M504.5,580.69c0-0.94,0.16-1.67,0.47-2.2
				c0.32-0.53,0.87-0.8,1.64-0.8s1.32,0.27,1.64,0.8c0.32,0.53,0.48,1.26,0.48,2.2c0,0.95-0.16,1.69-0.48,2.23
				c-0.31,0.53-0.86,0.8-1.64,0.8s-1.32-0.27-1.64-0.8C504.66,582.39,504.5,581.64,504.5,580.69z M507.82,580.69
				c0-0.44-0.03-0.81-0.09-1.12c-0.05-0.3-0.17-0.55-0.34-0.74c-0.17-0.2-0.43-0.29-0.77-0.29c-0.34,0-0.6,0.1-0.77,0.29
				c-0.17,0.19-0.29,0.44-0.35,0.74c-0.05,0.3-0.08,0.68-0.08,1.12c0,0.46,0.03,0.84,0.08,1.15s0.17,0.56,0.34,0.75
				c0.18,0.19,0.44,0.29,0.78,0.29c0.34,0,0.6-0.1,0.77-0.29c0.18-0.19,0.3-0.44,0.35-0.75
				C507.79,581.53,507.82,581.15,507.82,580.69z M515.91,579.76c0,0.29-0.07,0.56-0.2,0.81c-0.14,0.26-0.35,0.46-0.65,0.63
				c-0.3,0.16-0.68,0.24-1.15,0.24h-1.03v2.3h-0.93v-5.66h1.95c0.43,0,0.8,0.08,1.1,0.23c0.3,0.15,0.53,0.35,0.68,0.6
				C515.83,579.16,515.91,579.45,515.91,579.76z M513.91,580.68c0.35,0,0.62-0.08,0.79-0.24c0.17-0.16,0.26-0.39,0.26-0.68
				c0-0.62-0.35-0.93-1.05-0.93h-1.03v1.85H513.91z M522.76,578.08v5.66h-0.93v-3.88l-1.73,3.88h-0.64l-1.73-3.88v3.88h-0.93v-5.66
				h1l1.99,4.44l1.98-4.44H522.76z"/>
		</g>
	</g>
</g>
<g>
	<g>
		<path class="st5" d="M85.27,155.87h1.89l2.87,5.58l2.84-5.58h1.89v8.66h-1.52v-6.21l-2.7,5.32h-1.06l-2.71-5.32v6.21h-1.51V155.87
			z"/>
	</g>
	<g>
		<path class="st5" d="M100.74,164.53v-0.8c-0.23,0.29-0.53,0.51-0.89,0.66c-0.36,0.15-0.78,0.22-1.25,0.22
			c-0.46,0-0.87-0.09-1.22-0.27c-0.35-0.18-0.62-0.42-0.81-0.74c-0.19-0.31-0.28-0.66-0.28-1.05c0-0.62,0.22-1.1,0.66-1.45
			c0.44-0.35,1.06-0.53,1.85-0.54h1.93v-0.17c0-0.39-0.13-0.69-0.38-0.9c-0.26-0.21-0.63-0.32-1.11-0.32
			c-0.63,0-1.28,0.21-1.97,0.62l-0.58-1.11c0.52-0.29,0.99-0.5,1.42-0.62c0.42-0.13,0.92-0.19,1.49-0.19c0.86,0,1.52,0.21,2,0.62
			c0.47,0.41,0.71,0.99,0.72,1.73l0.01,4.33H100.74z M100.17,163.04c0.33-0.22,0.52-0.49,0.56-0.81v-0.59h-1.67
			c-0.43,0-0.74,0.06-0.95,0.19c-0.2,0.13-0.3,0.34-0.3,0.62c0,0.28,0.1,0.5,0.32,0.67c0.21,0.17,0.5,0.25,0.86,0.25
			C99.45,163.37,99.84,163.26,100.17,163.04z"/>
	</g>
	<g>
		<path class="st5" d="M106.65,158.2c0.38-0.23,0.83-0.34,1.34-0.35v1.56c-0.68-0.04-1.23,0.12-1.64,0.48
			c-0.41,0.36-0.61,0.84-0.61,1.45v3.19h-1.61v-6.62h1.61v1.27C105.96,158.76,106.26,158.43,106.65,158.2z"/>
	</g>
	<g>
		<path class="st5" d="M111.93,159.27c-0.54,0-0.97,0.18-1.3,0.54c-0.33,0.36-0.5,0.83-0.5,1.41c0,0.59,0.17,1.07,0.5,1.43
			c0.33,0.36,0.77,0.54,1.3,0.54c0.79,0,1.39-0.26,1.78-0.78l1,0.83c-0.3,0.43-0.69,0.76-1.17,0.99c-0.49,0.23-1.05,0.35-1.69,0.35
			c-0.65,0-1.23-0.14-1.74-0.42s-0.9-0.67-1.18-1.18s-0.42-1.09-0.42-1.75c0-0.67,0.14-1.26,0.43-1.77
			c0.28-0.51,0.68-0.91,1.19-1.19c0.51-0.28,1.09-0.42,1.75-0.42c0.6,0,1.14,0.1,1.61,0.32c0.47,0.21,0.86,0.51,1.16,0.9l-0.98,0.93
			C113.22,159.52,112.64,159.27,111.93,159.27z"/>
	</g>
	<g>
		<path class="st5" d="M121.94,158.54c0.44,0.46,0.66,1.08,0.66,1.86v4.13h-1.62v-3.66c0-0.46-0.13-0.83-0.4-1.09
			c-0.26-0.27-0.62-0.4-1.08-0.4c-0.54,0.01-0.96,0.19-1.27,0.54c-0.31,0.35-0.47,0.81-0.47,1.36v3.25h-1.61v-9.18h1.61v3.82
			c0.45-0.87,1.25-1.31,2.39-1.32C120.9,157.85,121.5,158.08,121.94,158.54z"/>
	</g>
	<g>
		<path class="st5" d="M133.3,163.08v1.45h-6.41v-1.2l3.26-3.36c0.31-0.31,0.56-0.62,0.75-0.93c0.19-0.31,0.28-0.57,0.28-0.79
			c0-0.31-0.12-0.56-0.37-0.74c-0.25-0.18-0.59-0.27-1.03-0.27c-0.38,0-0.78,0.09-1.21,0.28c-0.43,0.19-0.83,0.45-1.21,0.79
			l-0.66-1.27c0.51-0.4,1.05-0.7,1.61-0.92c0.56-0.22,1.13-0.33,1.7-0.33s1.07,0.09,1.51,0.27s0.78,0.44,1.02,0.77
			c0.24,0.33,0.36,0.72,0.36,1.16c0,0.42-0.14,0.87-0.43,1.34c-0.29,0.47-0.69,0.98-1.21,1.52l-2.2,2.23H133.3z"/>
	</g>
	<g>
		<path class="st5" d="M140.86,156.94c0.64,0.76,0.96,1.85,0.96,3.26c0,1.41-0.32,2.49-0.96,3.25c-0.64,0.76-1.56,1.14-2.76,1.14
			s-2.11-0.38-2.76-1.14c-0.64-0.76-0.96-1.84-0.96-3.25c0-1.42,0.32-2.51,0.96-3.26c0.64-0.76,1.56-1.14,2.76-1.14
			S140.21,156.18,140.86,156.94z M136.58,157.86c-0.33,0.5-0.49,1.28-0.49,2.34c0,1.06,0.17,1.83,0.49,2.34s0.84,0.75,1.52,0.75
			c0.68,0,1.19-0.25,1.52-0.75c0.33-0.5,0.49-1.28,0.49-2.34c0-1.06-0.17-1.84-0.49-2.34c-0.33-0.5-0.84-0.75-1.52-0.75
			C137.41,157.11,136.91,157.36,136.58,157.86z"/>
	</g>
	<g>
		<path class="st5" d="M149.33,163.08v1.45h-6.41v-1.2l3.26-3.36c0.31-0.31,0.56-0.62,0.75-0.93c0.19-0.31,0.28-0.57,0.28-0.79
			c0-0.31-0.12-0.56-0.37-0.74c-0.25-0.18-0.59-0.27-1.03-0.27c-0.38,0-0.78,0.09-1.21,0.28c-0.43,0.19-0.83,0.45-1.21,0.79
			l-0.66-1.27c0.51-0.4,1.05-0.7,1.61-0.92c0.56-0.22,1.13-0.33,1.7-0.33s1.07,0.09,1.51,0.27s0.78,0.44,1.02,0.77
			c0.24,0.33,0.36,0.72,0.36,1.16c0,0.42-0.14,0.87-0.43,1.34c-0.29,0.47-0.69,0.98-1.21,1.52l-2.2,2.23H149.33z"/>
	</g>
	<g>
		<path class="st5" d="M156.62,163.08v1.45h-6.41v-1.2l3.26-3.36c0.31-0.31,0.56-0.62,0.75-0.93c0.19-0.31,0.28-0.57,0.28-0.79
			c0-0.31-0.12-0.56-0.37-0.74c-0.25-0.18-0.59-0.27-1.03-0.27c-0.38,0-0.78,0.09-1.21,0.28c-0.43,0.19-0.83,0.45-1.21,0.79
			l-0.66-1.27c0.51-0.4,1.05-0.7,1.61-0.92c0.56-0.22,1.13-0.33,1.7-0.33s1.07,0.09,1.51,0.27s0.78,0.44,1.02,0.77
			c0.24,0.33,0.36,0.72,0.36,1.16c0,0.42-0.14,0.87-0.43,1.34c-0.29,0.47-0.69,0.98-1.21,1.52l-2.2,2.23H156.62z"/>
	</g>
</g>
<g>
	<g>
		<path class="st5" d="M84.83,212.09c-0.12,0.1-0.19,0.24-0.19,0.41s0.08,0.3,0.23,0.4c0.15,0.1,0.5,0.22,1.05,0.35
			s0.98,0.34,1.28,0.61s0.46,0.67,0.46,1.18s-0.19,0.94-0.58,1.26c-0.39,0.32-0.9,0.48-1.54,0.48c-0.92,0-1.74-0.34-2.48-1.02
			l0.77-0.94c0.62,0.55,1.2,0.82,1.73,0.82c0.24,0,0.42-0.05,0.56-0.15s0.2-0.24,0.2-0.41s-0.07-0.31-0.22-0.41
			s-0.43-0.21-0.85-0.31c-0.67-0.16-1.17-0.37-1.48-0.63s-0.47-0.66-0.47-1.21c0-0.55,0.2-0.97,0.59-1.27
			c0.4-0.3,0.89-0.45,1.48-0.45c0.39,0,0.77,0.07,1.16,0.2c0.39,0.13,0.72,0.32,1.01,0.56l-0.65,0.94c-0.5-0.38-1.02-0.57-1.56-0.57
			C85.12,211.93,84.95,211.98,84.83,212.09z"/>
	</g>
	<g>
		<path class="st5" d="M90.29,215.22c0.22,0.27,0.51,0.4,0.87,0.4s0.65-0.13,0.87-0.4c0.21-0.27,0.32-0.63,0.32-1.1v-3.2h1.29v3.24
			c0,0.84-0.23,1.48-0.7,1.93c-0.46,0.45-1.06,0.68-1.78,0.68c-0.72,0-1.32-0.23-1.78-0.68c-0.47-0.45-0.7-1.1-0.7-1.93v-3.24h1.29
			v3.2C89.97,214.59,90.07,214.96,90.29,215.22z"/>
	</g>
	<g>
		<path class="st5" d="M99.03,210.93h1.29v5.79h-1.29l-2.76-3.63v3.63h-1.29v-5.79h1.21l2.84,3.73V210.93z"/>
	</g>
</g>
<g>
	<g>
		<path class="st5" d="M155.48,213.16l-1.57,3.16h-0.77l-1.56-3.16v3.64h-1.29v-5.79h1.75l1.49,3.18l1.5-3.18h1.74v5.79h-1.29
			V213.16z"/>
	</g>
	<g>
		<path class="st5" d="M163.07,216c-0.59,0.57-1.31,0.86-2.16,0.86c-0.86,0-1.58-0.29-2.16-0.86c-0.58-0.57-0.88-1.28-0.88-2.13
			c0-0.85,0.29-1.56,0.88-2.13c0.59-0.57,1.31-0.86,2.16-0.86c0.86,0,1.58,0.29,2.16,0.86c0.58,0.57,0.88,1.28,0.88,2.13
			C163.95,214.72,163.65,215.43,163.07,216z M162.63,213.87c0-0.52-0.17-0.96-0.5-1.32c-0.33-0.36-0.74-0.55-1.22-0.55
			c-0.48,0-0.89,0.18-1.22,0.55c-0.33,0.36-0.5,0.8-0.5,1.32c0,0.52,0.17,0.96,0.5,1.32c0.33,0.36,0.74,0.54,1.22,0.54
			c0.48,0,0.89-0.18,1.22-0.54C162.47,214.83,162.63,214.39,162.63,213.87z"/>
	</g>
	<g>
		<path class="st5" d="M169.09,211.01h1.29v5.79h-1.29l-2.76-3.63v3.63h-1.29v-5.79h1.21l2.84,3.73V211.01z"/>
	</g>
</g>
<g>
	<g>
		<path class="st5" d="M211.62,212.05v4.67h-1.29v-4.67h-1.64v-1.12h4.57v1.12H211.62z"/>
	</g>
	<g>
		<path class="st5" d="M215.74,215.22c0.22,0.27,0.51,0.4,0.87,0.4s0.65-0.13,0.87-0.4c0.21-0.27,0.32-0.63,0.32-1.1v-3.2h1.29v3.24
			c0,0.84-0.23,1.48-0.7,1.93c-0.46,0.45-1.06,0.68-1.78,0.68c-0.72,0-1.32-0.23-1.78-0.68c-0.47-0.45-0.7-1.1-0.7-1.93v-3.24h1.29
			v3.2C215.41,214.59,215.52,214.96,215.74,215.22z"/>
	</g>
	<g>
		<path class="st5" d="M224.6,210.93v1.15h-2.88v1.19h2.59v1.1h-2.59v1.2h2.97v1.14h-4.27v-5.79H224.6z"/>
	</g>
	<g>
		<path class="st5" d="M227.19,212.09c-0.12,0.1-0.19,0.24-0.19,0.41s0.08,0.3,0.23,0.4c0.15,0.1,0.5,0.22,1.05,0.35
			s0.98,0.34,1.28,0.61s0.46,0.67,0.46,1.18s-0.19,0.94-0.58,1.26c-0.39,0.32-0.9,0.48-1.54,0.48c-0.92,0-1.74-0.34-2.48-1.02
			l0.77-0.94c0.62,0.55,1.2,0.82,1.73,0.82c0.24,0,0.42-0.05,0.56-0.15s0.2-0.24,0.2-0.41s-0.07-0.31-0.22-0.41
			s-0.43-0.21-0.85-0.31c-0.67-0.16-1.17-0.37-1.48-0.63s-0.47-0.66-0.47-1.21c0-0.55,0.2-0.97,0.59-1.27
			c0.4-0.3,0.89-0.45,1.48-0.45c0.39,0,0.77,0.07,1.16,0.2c0.39,0.13,0.72,0.32,1.01,0.56l-0.65,0.94c-0.5-0.38-1.02-0.57-1.56-0.57
			C227.49,211.93,227.32,211.98,227.19,212.09z"/>
	</g>
</g>
<g>
	<g>
		<path class="st1" d="M219.28,321.22v2.99h-0.79v-2.99h-1v-0.72h2.8v0.72H219.28z"/>
	</g>
	<g>
		<path class="st1" d="M223.75,323.7c-0.36,0.37-0.8,0.55-1.32,0.55s-0.97-0.18-1.32-0.55c-0.36-0.37-0.54-0.82-0.54-1.37
			c0-0.55,0.18-1,0.54-1.37c0.36-0.37,0.8-0.55,1.32-0.55s0.97,0.18,1.32,0.55c0.36,0.37,0.54,0.82,0.54,1.37
			C224.29,322.88,224.11,323.33,223.75,323.7z M223.48,322.33c0-0.33-0.1-0.61-0.3-0.85s-0.45-0.35-0.75-0.35s-0.55,0.12-0.75,0.35
			c-0.2,0.23-0.3,0.52-0.3,0.85s0.1,0.61,0.3,0.84c0.2,0.23,0.45,0.35,0.75,0.35s0.55-0.12,0.75-0.35
			C223.38,322.95,223.48,322.67,223.48,322.33z"/>
	</g>
	<g>
		<path class="st1" d="M227.67,320.99c0.34,0.32,0.51,0.77,0.51,1.35s-0.16,1.03-0.49,1.37c-0.33,0.34-0.83,0.5-1.51,0.5h-1.21
			v-3.71h1.25C226.84,320.5,227.33,320.66,227.67,320.99z M227.08,323.19c0.19-0.19,0.29-0.47,0.29-0.83c0-0.37-0.1-0.65-0.29-0.84
			c-0.19-0.2-0.49-0.29-0.9-0.29h-0.44v2.26h0.5C226.61,323.48,226.89,323.38,227.08,323.19z"/>
	</g>
	<g>
		<path class="st1" d="M231.28,324.21l-0.33-0.8h-1.49l-0.33,0.8h-0.84l1.53-3.71h0.77l1.53,3.71H231.28z M230.21,321.6l-0.45,1.08
			h0.89L230.21,321.6z"/>
	</g>
	<g>
		<path class="st1" d="M233.82,324.21h-0.79v-1.46l-1.23-2.25h0.86l0.77,1.38l0.77-1.38h0.86l-1.23,2.25V324.21z"/>
	</g>
</g>
<g>
	<g>
		<path class="st5" d="M276.95,214.26l1.03-3.33h1.35l1.02,3.33l1.15-3.33h1.4l-2.02,5.79h-0.96l-1.27-4.03l-1.26,4.03h-0.96
			l-2.02-5.79h1.4L276.95,214.26z"/>
	</g>
	<g>
		<path class="st5" d="M287.76,210.93v1.15h-2.88v1.19h2.59v1.1h-2.59v1.2h2.97v1.14h-4.27v-5.79H287.76z"/>
	</g>
	<g>
		<path class="st5" d="M293.42,211.69c0.55,0.51,0.83,1.21,0.83,2.11c0,0.9-0.27,1.61-0.81,2.14c-0.54,0.52-1.36,0.79-2.46,0.79H289
			v-5.79h2.05C292.08,210.93,292.87,211.18,293.42,211.69z M292.48,215.13c0.32-0.3,0.48-0.73,0.48-1.3s-0.16-1.01-0.48-1.31
			c-0.32-0.31-0.81-0.46-1.46-0.46h-0.72v3.52h0.82C291.7,215.58,292.16,215.43,292.48,215.13z"/>
	</g>
</g>
<g>
	<g>
		<path class="st5" d="M341.35,212.05v4.67h-1.29v-4.67h-1.64v-1.12h4.57v1.12H341.35z"/>
	</g>
	<g>
		<path class="st5" d="M347.53,210.93h1.29v5.79h-1.29v-2.28h-2.3v2.28h-1.29v-5.79h1.29v2.42h2.3V210.93z"/>
	</g>
	<g>
		<path class="st5" d="M351.78,215.22c0.22,0.27,0.51,0.4,0.87,0.4s0.65-0.13,0.87-0.4c0.21-0.27,0.32-0.63,0.32-1.1v-3.2h1.29v3.24
			c0,0.84-0.23,1.48-0.7,1.93c-0.46,0.45-1.06,0.68-1.78,0.68c-0.72,0-1.32-0.23-1.79-0.68s-0.7-1.1-0.7-1.93v-3.24h1.29v3.2
			C351.46,214.59,351.57,214.96,351.78,215.22z"/>
	</g>
	<g>
		<path class="st5" d="M361.17,212.85c0,0.93-0.37,1.53-1.1,1.8l1.47,2.07h-1.59l-1.28-1.85h-0.89v1.85h-1.29v-5.79h2.2
			c0.9,0,1.54,0.15,1.93,0.46S361.17,212.18,361.17,212.85z M359.61,213.54c0.16-0.14,0.24-0.37,0.24-0.68s-0.08-0.53-0.25-0.64
			c-0.17-0.12-0.46-0.17-0.87-0.17h-0.97v1.71h0.94C359.15,213.75,359.45,213.68,359.61,213.54z"/>
	</g>
	<g>
		<path class="st5" d="M363.84,212.09c-0.12,0.1-0.19,0.24-0.19,0.41s0.08,0.3,0.23,0.4c0.15,0.1,0.5,0.22,1.05,0.35
			c0.55,0.14,0.98,0.34,1.28,0.61s0.46,0.67,0.46,1.18s-0.19,0.94-0.58,1.26c-0.39,0.32-0.9,0.48-1.54,0.48
			c-0.92,0-1.74-0.34-2.48-1.02l0.77-0.94c0.62,0.55,1.2,0.82,1.73,0.82c0.24,0,0.42-0.05,0.56-0.15c0.13-0.1,0.2-0.24,0.2-0.41
			s-0.07-0.31-0.22-0.41s-0.43-0.21-0.85-0.31c-0.67-0.16-1.17-0.37-1.48-0.63c-0.31-0.26-0.47-0.66-0.47-1.21
			c0-0.55,0.2-0.97,0.59-1.27c0.39-0.3,0.89-0.45,1.48-0.45c0.39,0,0.77,0.07,1.16,0.2c0.39,0.13,0.72,0.32,1.01,0.56l-0.65,0.94
			c-0.5-0.38-1.02-0.57-1.56-0.57C364.14,211.93,363.97,211.98,363.84,212.09z"/>
	</g>
</g>
<g>
	<g>
		<path class="st5" d="M405.87,210.93v1.13h-2.68v1.25h2.55v1.13h-2.55v2.27h-1.29v-5.79H405.87z"/>
	</g>
	<g>
		<path class="st5" d="M411.66,212.85c0,0.93-0.37,1.53-1.1,1.8l1.47,2.07h-1.59l-1.28-1.85h-0.89v1.85h-1.29v-5.79h2.19
			c0.9,0,1.54,0.15,1.93,0.46S411.66,212.18,411.66,212.85z M410.1,213.54c0.16-0.14,0.24-0.37,0.24-0.68s-0.08-0.53-0.25-0.64
			c-0.17-0.12-0.46-0.17-0.87-0.17h-0.97v1.71h0.94C409.64,213.75,409.94,213.68,410.1,213.54z"/>
	</g>
	<g>
		<path class="st5" d="M412.98,210.93h1.29v5.79h-1.29V210.93z"/>
	</g>
	<g>
		<path class="st5" d="M420.12,211.69c0.55,0.51,0.83,1.21,0.83,2.11c0,0.9-0.27,1.61-0.81,2.14c-0.54,0.52-1.36,0.79-2.46,0.79
			h-1.98v-5.79h2.05C418.77,210.93,419.57,211.18,420.12,211.69z M419.17,215.13c0.32-0.3,0.48-0.73,0.48-1.3s-0.16-1.01-0.48-1.31
			c-0.32-0.31-0.8-0.46-1.46-0.46h-0.72v3.52h0.82C418.4,215.58,418.85,215.43,419.17,215.13z"/>
	</g>
</g>
<g>
	<g>
		<path class="st5" d="M451.07,212.09c-0.12,0.1-0.19,0.24-0.19,0.41s0.08,0.3,0.23,0.4c0.15,0.1,0.5,0.22,1.05,0.35
			c0.55,0.14,0.98,0.34,1.28,0.61s0.46,0.67,0.46,1.18s-0.2,0.94-0.58,1.26c-0.39,0.32-0.9,0.48-1.54,0.48
			c-0.92,0-1.74-0.34-2.48-1.02l0.77-0.94c0.62,0.55,1.2,0.82,1.73,0.82c0.24,0,0.42-0.05,0.56-0.15c0.14-0.1,0.2-0.24,0.2-0.41
			s-0.07-0.31-0.21-0.41s-0.43-0.21-0.85-0.31c-0.67-0.16-1.17-0.37-1.48-0.63c-0.31-0.26-0.47-0.66-0.47-1.21
			c0-0.55,0.2-0.97,0.59-1.27c0.4-0.3,0.89-0.45,1.48-0.45c0.39,0,0.77,0.07,1.16,0.2c0.39,0.13,0.72,0.32,1.01,0.56l-0.65,0.94
			c-0.5-0.38-1.02-0.57-1.56-0.57C451.36,211.93,451.2,211.98,451.07,212.09z"/>
	</g>
	<g>
		<path class="st5" d="M459.06,216.72l-0.54-1.25h-2.43l-0.54,1.25h-1.38l2.5-5.79h1.25l2.5,5.79H459.06z M457.31,212.65l-0.73,1.68
			h1.45L457.31,212.65z"/>
	</g>
	<g>
		<path class="st5" d="M463.13,212.05v4.67h-1.29v-4.67h-1.64v-1.12h4.57v1.12H463.13z"/>
	</g>
</g>
</svg>
