<svg width="22" height="23" viewBox="0 0 22 23" fill="none" xmlns="http://www.w3.org/2000/svg">
<g clip-path="url(#clip0_148_502)">
<path d="M11.2869 0.981445C5.56962 0.981445 0.935059 5.79426 0.935059 11.7314C0.935059 17.6686 5.56962 22.4814 11.2869 22.4814C17.0042 22.4814 21.6388 17.6686 21.6388 11.7314C21.6388 5.79426 17.0042 0.981445 11.2869 0.981445ZM16.035 16.4869C15.8494 16.8039 15.4522 16.9026 15.1485 16.7099C12.7178 15.1667 9.65822 14.8179 6.05424 15.6731C5.70765 15.7559 5.36105 15.5298 5.2813 15.1699C5.20156 14.8099 5.41779 14.45 5.76592 14.3672C9.70883 13.4307 13.092 13.8337 15.8203 15.5648C16.1239 15.7575 16.2205 16.17 16.035 16.4869ZM17.3017 13.5597C17.0671 13.9547 16.5717 14.0773 16.1914 13.8353C13.4094 12.0595 9.16746 11.5451 5.87634 12.5819C5.45 12.7157 4.99912 12.4656 4.86876 12.0229C4.73994 11.5801 4.98072 11.1119 5.40706 10.9781C9.16746 9.79326 13.8404 10.3666 17.0364 12.4067C17.4152 12.6488 17.5348 13.1648 17.3017 13.5581V13.5597ZM17.4106 10.5115C14.0735 8.45389 8.56936 8.26437 5.38405 9.2677C4.87183 9.42856 4.332 9.12915 4.17711 8.59722C4.02221 8.0653 4.31053 7.5047 4.82275 7.34226C8.47887 6.18922 14.5581 6.41219 18.3998 8.78037C18.8599 9.06385 19.0102 9.68178 18.7387 10.158C18.4657 10.6357 17.8707 10.7934 17.4121 10.5099L17.4106 10.5115Z" fill="#7BD568"/>
<path d="M16.0348 16.4869C15.8493 16.8039 15.4521 16.9026 15.1484 16.7099C12.7177 15.1667 9.65811 14.8179 6.05413 15.6731C5.70753 15.7559 5.36094 15.5298 5.28119 15.1699C5.20144 14.8099 5.41768 14.45 5.76581 14.3672C9.70871 13.4308 13.0919 13.8337 15.8201 15.5648C16.1238 15.7575 16.2204 16.17 16.0348 16.4869Z" fill="#010201"/>
<path d="M17.3017 13.5597C17.067 13.9547 16.5717 14.0773 16.1913 13.8352C13.4094 12.0595 9.16741 11.5451 5.87628 12.5819C5.44994 12.7156 4.99906 12.4656 4.8687 12.0229C4.73988 11.5801 4.98066 11.1119 5.407 10.9781C9.16741 9.79322 13.8403 10.3666 17.0363 12.4067C17.4151 12.6487 17.5348 13.1647 17.3017 13.5581V13.5597Z" fill="#010201"/>
<path d="M17.4106 10.5115C14.0735 8.45385 8.56936 8.26433 5.38406 9.26767C4.87183 9.42852 4.332 9.12911 4.17711 8.59719C4.02221 8.06526 4.31053 7.50467 4.82276 7.34222C8.47888 6.18919 14.5581 6.41215 18.3998 8.78033C18.8599 9.06382 19.0102 9.68174 18.7387 10.1579C18.4657 10.6357 17.8707 10.7934 17.4121 10.5099L17.4106 10.5115Z" fill="#010201"/>
</g>
<defs>
<clipPath id="clip0_148_502">
<rect width="20.7037" height="21.5" fill="white" transform="translate(0.935059 0.981445)"/>
</clipPath>
</defs>
</svg>
