<?xml version="1.0" encoding="UTF-8" standalone="no"?>
<svg
   viewBox="0 0 160.567 39"
   stroke-miterlimit="1.414"
   width="160.567"
   height="39"
   clip-rule="evenodd"
   fill-rule="evenodd"
   stroke-linejoin="round"
   version="1.1"
   id="svg20"
   sodipodi:docname="sancor-seguros-color.svg"
   inkscape:version="1.2.2 (732a01da63, 2022-12-09, custom)"
   xmlns:inkscape="http://www.inkscape.org/namespaces/inkscape"
   xmlns:sodipodi="http://sodipodi.sourceforge.net/DTD/sodipodi-0.dtd"
   xmlns="http://www.w3.org/2000/svg"
   xmlns:svg="http://www.w3.org/2000/svg">
  <defs
     id="defs24" />
  <sodipodi:namedview
     id="namedview22"
     pagecolor="#ffffff"
     bordercolor="#000000"
     borderopacity="0.25"
     inkscape:showpageshadow="2"
     inkscape:pageopacity="0.0"
     inkscape:pagecheckerboard="0"
     inkscape:deskcolor="#d1d1d1"
     showgrid="false"
     inkscape:zoom="4.5384615"
     inkscape:cx="61.694915"
     inkscape:cy="26.110169"
     inkscape:window-width="1852"
     inkscape:window-height="1136"
     inkscape:window-x="1988"
     inkscape:window-y="27"
     inkscape:window-maximized="1"
     inkscape:current-layer="svg20" />
  <path
     d="m 19.085,0.354 c 9.388,0 17.23,6.86 18.8,15.837 l -13.254,0.003 -2.378,-5.272 -3.082,-7.186 -3.084,7.187 -3.084,7.195 h 25.12 c 0.03,0.456 0.05,0.92 0.05,1.385 0,10.544 -8.574,19.145 -19.087,19.145 C 9.746,38.648 1.94,31.86 0.31,22.95 l 13.073,0.042 2.66,5.183 3.09,6.62 3.083,-6.62 3.088,-6.62 H 0.11 C 0.036,20.878 0,20.192 0,19.5 0,8.956 8.573,0.352 19.085,0.352 m 134.937,4.945 c 0,-0.404 -0.08,-0.758 -0.237,-1.052 -0.153,-0.292 -0.413,-0.52 -0.774,-0.682 -0.254,-0.107 -0.537,-0.173 -0.85,-0.203 -0.31,-0.028 -0.695,-0.045 -1.16,-0.045 h -1.358 v 4.36 h 1.16 c 0.568,0 1.046,-0.034 1.44,-0.105 0.397,-0.067 0.73,-0.216 1.007,-0.436 0.255,-0.205 0.455,-0.446 0.58,-0.73 0.127,-0.285 0.19,-0.652 0.19,-1.11 m 6.547,11.23 h -4.958 l -4.507,-5.937 h -1.463 v 5.938 h -4.046 V 0.337 h 6.514 c 0.9,0 1.683,0.056 2.346,0.167 0.67,0.116 1.287,0.348 1.848,0.702 0.585,0.372 1.045,0.84 1.382,1.41 0.34,0.567 0.51,1.29 0.51,2.167 0,1.24 -0.277,2.247 -0.835,3.017 -0.558,0.773 -1.304,1.386 -2.24,1.843 l 5.446,6.883 z m -24.2,-8.093 c 0,-0.964 -0.1,-1.79 -0.3,-2.464 -0.198,-0.68 -0.464,-1.234 -0.798,-1.672 -0.35,-0.44 -0.744,-0.76 -1.18,-0.947 -0.438,-0.195 -0.895,-0.292 -1.366,-0.292 -0.497,0 -0.95,0.09 -1.36,0.27 -0.403,0.177 -0.796,0.49 -1.172,0.947 -0.335,0.422 -0.605,0.982 -0.808,1.675 -0.21,0.697 -0.313,1.53 -0.313,2.49 0,0.995 0.098,1.82 0.293,2.476 0.198,0.655 0.465,1.206 0.808,1.648 0.35,0.45 0.742,0.774 1.185,0.962 0.44,0.192 0.9,0.292 1.37,0.292 0.477,0 0.94,-0.106 1.392,-0.314 0.453,-0.204 0.838,-0.53 1.166,-0.962 0.348,-0.47 0.613,-1.02 0.805,-1.643 0.188,-0.63 0.28,-1.45 0.28,-2.465 m 4.198,0.008 c 0,2.62 -0.697,4.677 -2.097,6.18 -1.4,1.498 -3.318,2.248 -5.753,2.248 -2.446,0 -4.362,-0.762 -5.753,-2.28 -1.392,-1.517 -2.09,-3.567 -2.09,-6.15 0,-2.602 0.698,-4.657 2.09,-6.17 1.39,-1.51 3.303,-2.268 5.75,-2.268 2.435,0 4.354,0.752 5.756,2.256 1.398,1.505 2.094,3.563 2.094,6.18 m -26.146,8.41 c -2.427,0 -4.356,-0.738 -5.788,-2.203 -1.427,-1.47 -2.14,-3.532 -2.14,-6.195 0,-2.563 0.718,-4.61 2.15,-6.134 1.43,-1.526 3.362,-2.29 5.79,-2.29 0.644,0 1.225,0.037 1.74,0.107 0.515,0.076 1.01,0.175 1.48,0.305 0.368,0.114 0.772,0.264 1.207,0.445 0.434,0.195 0.787,0.355 1.054,0.493 V 5.23 h -0.41 C 119.305,5.055 119.054,4.847 118.757,4.605 118.461,4.36 118.125,4.125 117.75,3.895 117.37,3.658 116.953,3.463 116.5,3.3 c -0.453,-0.163 -0.925,-0.245 -1.42,-0.245 -0.584,0 -1.122,0.094 -1.612,0.278 -0.49,0.185 -0.957,0.506 -1.4,0.96 -0.404,0.413 -0.738,0.976 -0.996,1.677 -0.256,0.705 -0.384,1.532 -0.384,2.49 0,1.01 0.13,1.857 0.398,2.545 0.27,0.682 0.618,1.237 1.06,1.653 0.416,0.41 0.887,0.702 1.403,0.883 0.52,0.182 1.036,0.272 1.552,0.272 0.533,0 1.044,-0.09 1.532,-0.268 0.487,-0.178 0.894,-0.372 1.228,-0.59 0.362,-0.226 0.683,-0.454 0.957,-0.686 0.272,-0.234 0.514,-0.438 0.714,-0.62 h 0.372 v 3.803 c -0.3,0.14 -0.644,0.3 -1.034,0.475 -0.394,0.175 -0.794,0.33 -1.21,0.45 -0.505,0.15 -0.98,0.265 -1.424,0.35 -0.446,0.076 -1.053,0.12 -1.83,0.12 M 101.291,16.53 H 97.374 L 91.15,5.238 V 16.526 H 87.43 V 0.336 h 4.993 l 5.16,9.275 V 0.338 h 3.72 v 16.19 z M 75.537,10.29 73.884,4.955 72.231,10.29 Z m -9.29,6.242 5.483,-16.195 h 4.435 l 5.47,16.19 h -4.187 l -1.017,-3.306 h -5.082 l -1.014,3.308 h -4.076 z m -11.766,0.293 c -1.24,0 -2.326,-0.117 -3.266,-0.36 -0.937,-0.236 -1.81,-0.533 -2.616,-0.888 V 11.72 h 0.368 c 0.808,0.685 1.706,1.217 2.683,1.588 0.982,0.368 1.932,0.553 2.852,0.553 0.233,0 0.538,-0.026 0.92,-0.074 0.378,-0.05 0.685,-0.132 0.916,-0.24 0.287,-0.123 0.525,-0.293 0.723,-0.516 0.195,-0.223 0.292,-0.512 0.292,-0.877 0,-0.404 -0.16,-0.734 -0.48,-0.986 -0.32,-0.257 -0.7,-0.438 -1.14,-0.558 -0.55,-0.144 -1.143,-0.282 -1.77,-0.413 -0.624,-0.13 -1.212,-0.288 -1.755,-0.48 -1.254,-0.44 -2.155,-1.034 -2.697,-1.78 -0.543,-0.744 -0.816,-1.682 -0.816,-2.806 0,-1.513 0.64,-2.74 1.926,-3.68 1.285,-0.941 2.892,-1.411 4.815,-1.411 0.965,0 1.922,0.097 2.877,0.292 0.953,0.198 1.807,0.46 2.56,0.794 V 4.824 H 60.515 C 59.917,4.309 59.178,3.872 58.315,3.522 57.445,3.164 56.555,2.986 55.64,2.986 c -0.352,0 -0.67,0.023 -0.956,0.072 -0.282,0.052 -0.577,0.15 -0.89,0.295 -0.253,0.116 -0.473,0.29 -0.66,0.516 -0.185,0.23 -0.275,0.484 -0.275,0.767 0,0.412 0.145,0.744 0.44,0.983 0.292,0.247 0.86,0.464 1.698,0.655 l 1.574,0.362 c 0.505,0.11 1.045,0.273 1.616,0.478 1.123,0.404 1.957,0.952 2.507,1.638 0.548,0.685 0.822,1.588 0.822,2.713 0,1.607 -0.63,2.903 -1.897,3.883 -1.268,0.974 -2.977,1.465 -5.13,1.465 m 98.89,22.132 c -1.24,0 -2.33,-0.116 -3.27,-0.357 -0.938,-0.236 -1.81,-0.533 -2.613,-0.89 v -3.845 h 0.37 c 0.808,0.686 1.705,1.214 2.68,1.588 0.982,0.367 1.932,0.553 2.853,0.553 0.234,0 0.54,-0.028 0.922,-0.074 0.376,-0.053 0.685,-0.135 0.916,-0.243 0.288,-0.122 0.524,-0.293 0.722,-0.516 0.195,-0.223 0.292,-0.51 0.292,-0.877 0,-0.404 -0.16,-0.734 -0.478,-0.987 -0.32,-0.256 -0.702,-0.437 -1.142,-0.557 -0.55,-0.143 -1.142,-0.278 -1.77,-0.41 -0.626,-0.132 -1.21,-0.29 -1.75,-0.48 -1.26,-0.44 -2.16,-1.032 -2.703,-1.78 -0.547,-0.746 -0.82,-1.682 -0.82,-2.808 0,-1.514 0.645,-2.744 1.93,-3.68 1.28,-0.94 2.882,-1.408 4.804,-1.408 0.967,0 1.923,0.098 2.88,0.293 0.952,0.197 1.807,0.462 2.558,0.793 v 3.7 h -0.356 c -0.6,-0.515 -1.338,-0.95 -2.2,-1.302 -0.87,-0.356 -1.76,-0.534 -2.675,-0.534 -0.348,0 -0.668,0.025 -0.954,0.076 -0.285,0.052 -0.58,0.15 -0.89,0.296 -0.252,0.115 -0.475,0.288 -0.658,0.515 -0.186,0.228 -0.28,0.483 -0.28,0.766 0,0.41 0.15,0.74 0.443,0.984 0.293,0.244 0.86,0.462 1.7,0.654 l 1.574,0.363 c 0.504,0.112 1.044,0.274 1.615,0.48 1.124,0.404 1.958,0.95 2.507,1.634 0.546,0.686 0.82,1.59 0.82,2.716 0,1.606 -0.63,2.902 -1.896,3.882 -1.266,0.975 -2.977,1.465 -5.13,1.465 m -12.385,-8.39 c 0,-0.967 -0.103,-1.79 -0.304,-2.466 -0.194,-0.68 -0.464,-1.24 -0.798,-1.67 -0.35,-0.44 -0.743,-0.76 -1.18,-0.95 -0.44,-0.193 -0.897,-0.29 -1.37,-0.29 -0.495,0 -0.946,0.09 -1.356,0.266 -0.404,0.18 -0.798,0.494 -1.174,0.95 -0.334,0.422 -0.606,0.982 -0.81,1.675 -0.21,0.7 -0.313,1.53 -0.313,2.492 0,0.997 0.097,1.82 0.294,2.475 0.195,0.657 0.463,1.208 0.808,1.65 0.35,0.45 0.74,0.774 1.184,0.96 0.44,0.195 0.9,0.29 1.368,0.29 0.478,0 0.942,-0.103 1.393,-0.31 0.45,-0.204 0.836,-0.53 1.164,-0.96 0.35,-0.474 0.617,-1.024 0.806,-1.65 0.193,-0.628 0.283,-1.45 0.283,-2.462 m 4.197,0.007 c 0,2.618 -0.696,4.677 -2.097,6.18 -1.397,1.5 -3.317,2.248 -5.75,2.248 -2.447,0 -4.36,-0.76 -5.754,-2.28 -1.393,-1.517 -2.09,-3.564 -2.09,-6.15 0,-2.6 0.697,-4.657 2.09,-6.167 1.393,-1.514 3.307,-2.268 5.755,-2.268 2.433,0 4.353,0.752 5.754,2.257 1.397,1.504 2.093,3.563 2.093,6.178 m -23.274,-3.138 c 0,-0.404 -0.078,-0.757 -0.234,-1.05 -0.16,-0.294 -0.42,-0.52 -0.78,-0.68 -0.252,-0.11 -0.535,-0.175 -0.848,-0.206 -0.31,-0.028 -0.697,-0.042 -1.16,-0.042 h -1.36 v 4.353 h 1.162 c 0.568,0 1.044,-0.032 1.44,-0.104 0.398,-0.066 0.73,-0.213 1.007,-0.438 0.26,-0.203 0.458,-0.445 0.582,-0.73 0.125,-0.282 0.19,-0.65 0.19,-1.107 m 6.547,11.23 h -4.964 l -4.504,-5.936 h -1.463 v 5.937 h -4.05 V 22.47 h 6.512 c 0.9,0 1.685,0.056 2.347,0.167 0.667,0.115 1.284,0.348 1.85,0.7 0.584,0.372 1.043,0.84 1.377,1.41 0.342,0.568 0.516,1.294 0.516,2.17 0,1.24 -0.28,2.246 -0.836,3.015 -0.563,0.773 -1.31,1.386 -2.242,1.842 l 5.446,6.886 z M 102.795,39 c -2.173,0 -3.845,-0.526 -5.02,-1.577 -1.17,-1.05 -1.754,-2.586 -1.754,-4.61 v -10.34 h 4.067 V 32.58 c 0,1.12 0.212,1.957 0.637,2.51 0.42,0.55 1.112,0.824 2.07,0.824 0.933,0 1.62,-0.265 2.06,-0.794 0.436,-0.53 0.653,-1.38 0.653,-2.543 V 22.47 h 4.072 v 10.333 c 0,1.992 -0.574,3.524 -1.714,4.594 -1.142,1.067 -2.83,1.602 -5.072,1.602 m -10.4,-1.263 c -0.71,0.288 -1.635,0.57 -2.77,0.85 -1.132,0.275 -2.253,0.41 -3.357,0.41 -2.543,0 -4.572,-0.738 -6.082,-2.2 -1.51,-1.47 -2.267,-3.552 -2.267,-6.25 0,-2.537 0.757,-4.57 2.268,-6.1 1.51,-1.528 3.577,-2.292 6.2,-2.292 1.36,0 2.46,0.128 3.31,0.384 0.846,0.255 1.724,0.608 2.63,1.05 v 3.792 h -0.374 c -0.193,-0.153 -0.474,-0.37 -0.842,-0.646 -0.362,-0.284 -0.72,-0.52 -1.068,-0.715 -0.41,-0.233 -0.877,-0.43 -1.412,-0.598 -0.53,-0.17 -1.097,-0.25 -1.69,-0.25 -0.696,0 -1.333,0.107 -1.904,0.327 -0.57,0.215 -1.08,0.55 -1.532,0.996 -0.426,0.44 -0.77,0.99 -1.017,1.658 -0.25,0.664 -0.373,1.44 -0.373,2.326 0,1.894 0.47,3.29 1.42,4.188 0.95,0.897 2.25,1.348 3.894,1.348 0.146,0 0.316,-0.004 0.51,-0.01 0.196,-0.008 0.37,-0.02 0.513,-0.033 v -3.175 h -3.147 v -3.03 h 7.08 v 7.966 z m -28.018,0.925 v -16.19 h 10.95 v 3.087 h -6.904 v 2.84 h 6.36 v 3.087 h -6.36 v 4.085 h 6.904 v 3.09 h -10.95 z m -9.884,0.292 c -1.24,0 -2.326,-0.118 -3.268,-0.362 -0.937,-0.237 -1.81,-0.532 -2.615,-0.89 v -3.847 h 0.374 c 0.808,0.685 1.706,1.216 2.683,1.588 0.982,0.37 1.93,0.553 2.852,0.553 0.232,0 0.535,-0.025 0.918,-0.074 0.377,-0.05 0.683,-0.134 0.916,-0.237 0.287,-0.125 0.522,-0.297 0.718,-0.518 0.195,-0.223 0.293,-0.513 0.293,-0.878 0,-0.405 -0.158,-0.733 -0.48,-0.985 -0.317,-0.257 -0.7,-0.44 -1.14,-0.558 -0.55,-0.144 -1.144,-0.28 -1.768,-0.41 -0.624,-0.13 -1.21,-0.29 -1.755,-0.48 -1.253,-0.44 -2.154,-1.034 -2.698,-1.782 -0.547,-0.744 -0.817,-1.68 -0.817,-2.804 0,-1.513 0.64,-2.743 1.928,-3.68 1.278,-0.94 2.883,-1.407 4.805,-1.407 0.965,0 1.922,0.097 2.876,0.292 0.95,0.198 1.807,0.46 2.56,0.794 v 3.697 h -0.362 c -0.6,-0.518 -1.334,-0.95 -2.2,-1.304 -0.87,-0.355 -1.758,-0.533 -2.672,-0.533 -0.354,0 -0.673,0.025 -0.958,0.074 -0.282,0.055 -0.577,0.153 -0.89,0.298 -0.25,0.115 -0.473,0.285 -0.657,0.515 -0.186,0.227 -0.278,0.483 -0.278,0.766 0,0.41 0.147,0.74 0.44,0.984 0.29,0.245 0.86,0.462 1.697,0.654 l 1.574,0.363 c 0.505,0.112 1.046,0.276 1.617,0.48 1.122,0.403 1.957,0.95 2.507,1.633 0.547,0.686 0.822,1.588 0.822,2.716 0,1.606 -0.63,2.903 -1.9,3.88 -1.266,0.98 -2.974,1.466 -5.127,1.466"
     fill="#a80456"
     id="path18" />
</svg>
