<?xml version="1.0" encoding="UTF-8" standalone="no"?>
<svg
   width="600"
   height="1302"
   viewBox="0 0 600 1302"
   fill="none"
   version="1.1"
   id="svg30"
   xmlns="http://www.w3.org/2000/svg"
   xmlns:svg="http://www.w3.org/2000/svg">
  <defs
     id="defs34">
    <clipPath
       clipPathUnits="userSpaceOnUse"
       id="clipPath479">
      <rect
         style="fill:none;stroke:#000000;stroke-width:1.00212"
         id="rect481"
         width="598.99792"
         height="1301.9979"
         x="0.50105786"
         y="0.50105786" />
    </clipPath>
  </defs>
  <g
     opacity="0.3"
     id="g28"
     clip-path="url(#clipPath479)">
    <path
       d="M-51 1302C-410.026 1302 -702 1009.91 -702 651C-702 292.092 -409.908 0 -51 0C307.908 0 600 292.092 600 651C600 1009.91 308.145 1302 -51 1302ZM-51 9.17311C-404.818 9.17311 -692.679 297.033 -692.679 650.882C-692.679 1004.73 -404.7 1292.59 -51 1292.59C302.7 1292.59 590.708 1004.73 590.708 650.882C590.708 297.033 302.966 9.17311 -51 9.17311Z"
       fill="#E0E0E0"
       id="path18" />
    <path
       d="M-50.9997 1172.72C-338.742 1172.72 -572.835 938.624 -572.835 650.882C-572.835 363.14 -338.623 129.046 -50.9997 129.046C236.624 129.046 470.954 363.17 470.954 650.882C470.954 938.594 236.861 1172.72 -50.9997 1172.72ZM-50.9997 138.456C-333.534 138.456 -563.426 368.318 -563.426 650.882C-563.426 933.446 -333.415 1163.28 -50.9997 1163.28C231.416 1163.28 461.426 933.416 461.426 650.882C461.426 368.348 231.682 138.456 -50.9997 138.456Z"
       fill="#E0E0E0"
       id="path20" />
    <path
       d="M-50.9982 1043.43C-267.456 1043.43 -443.551 867.339 -443.551 650.881C-443.551 434.424 -267.337 258.328 -50.9982 258.328C165.341 258.328 341.555 434.424 341.555 650.881C341.555 867.339 165.578 1043.43 -50.9982 1043.43ZM-50.9982 267.738C-152.558 267.887 -249.913 308.305 -321.715 380.13C-393.517 451.954 -433.906 549.322 -434.023 650.881C-434.023 862.131 -262.129 1034.02 -50.8799 1034.02C50.7517 1034.02 148.221 993.651 220.085 921.787C291.95 849.922 332.322 752.454 332.322 650.822C332.322 549.19 291.95 451.721 220.085 379.857C148.221 307.993 50.7517 267.62 -50.8799 267.62L-50.9982 267.738Z"
       fill="#E0E0E0"
       id="path22" />
    <path
       d="M-50.9996 914.152C-103.087 914.152 -154.005 898.706 -197.314 869.768C-240.623 840.829 -274.379 799.698 -294.312 751.576C-314.245 703.453 -319.46 650.5 -309.298 599.414C-299.137 548.327 -274.054 501.401 -237.223 464.57C-200.391 427.738 -153.465 402.656 -102.378 392.494C-51.2917 382.332 1.66098 387.548 49.7836 407.481C97.9062 427.414 139.037 461.169 167.976 504.478C196.914 547.787 212.36 598.705 212.36 650.793C212.305 720.623 184.54 787.578 135.163 836.955C85.7853 886.333 18.8307 914.097 -50.9996 914.152ZM-50.9996 397.021C-101.208 397.021 -150.29 411.91 -192.037 439.804C-233.784 467.699 -266.322 507.346 -285.536 553.733C-304.75 600.12 -309.777 651.163 -299.982 700.407C-290.187 749.651 -266.009 794.885 -230.506 830.388C-195.003 865.891 -149.769 890.069 -100.525 899.864C-51.2812 909.659 -0.238342 904.632 46.1486 885.418C92.5355 866.204 132.183 833.666 160.078 791.919C187.972 750.171 202.861 701.09 202.861 650.881C202.783 583.577 176.011 519.053 128.42 471.462C80.8293 423.871 16.3043 397.099 -50.9996 397.021Z"
       fill="#E0E0E0"
       id="path24" />
    <path
       d="M-50.9983 784.869C-77.4986 784.869 -103.404 777.011 -125.438 762.288C-147.472 747.565 -164.646 726.639 -174.787 702.156C-184.928 677.673 -187.581 650.733 -182.411 624.742C-177.241 598.751 -164.48 574.876 -145.742 556.138C-127.003 537.399 -103.129 524.638 -77.138 519.468C-51.1469 514.298 -24.2065 516.952 0.27655 527.093C24.7596 537.234 45.6856 554.407 60.4084 576.442C75.1311 598.476 82.9893 624.381 82.9893 650.881C82.9502 686.405 68.8211 720.462 43.702 745.581C18.583 770.701 -15.4746 784.83 -50.9983 784.869ZM-50.9983 526.303C-75.6375 526.303 -99.7233 533.61 -120.21 547.299C-140.697 560.987 -156.664 580.444 -166.093 603.207C-175.522 625.971 -177.989 651.02 -173.182 675.185C-168.375 699.351 -156.511 721.548 -139.088 738.971C-121.666 756.393 -99.4679 768.259 -75.3022 773.065C-51.1365 777.872 -26.0881 775.405 -3.32446 765.976C19.4391 756.547 38.8955 740.58 52.5843 720.093C66.2731 699.606 73.5794 675.52 73.5794 650.881C73.5403 617.853 60.4026 586.189 37.0482 562.835C13.6938 539.48 -17.9702 526.343 -50.9983 526.303Z"
       fill="#E0E0E0"
       id="path26" />
  </g>
</svg>
