<?xml version="1.0" encoding="UTF-8" standalone="no"?>
<svg
   width="87.629143"
   height="87.512543"
   viewBox="0 0 87.629143 87.512543"
   fill="none"
   version="1.1"
   id="svg2110"
   sodipodi:docname="calendar.svg"
   inkscape:version="1.2.2 (732a01da63, 2022-12-09, custom)"
   xmlns:inkscape="http://www.inkscape.org/namespaces/inkscape"
   xmlns:sodipodi="http://sodipodi.sourceforge.net/DTD/sodipodi-0.dtd"
   xmlns="http://www.w3.org/2000/svg"
   xmlns:svg="http://www.w3.org/2000/svg">
  <sodipodi:namedview
     id="namedview2112"
     pagecolor="#ffffff"
     bordercolor="#000000"
     borderopacity="0.25"
     inkscape:showpageshadow="2"
     inkscape:pageopacity="0.0"
     inkscape:pagecheckerboard="0"
     inkscape:deskcolor="#d1d1d1"
     showgrid="false"
     inkscape:zoom="4.8163265"
     inkscape:cx="41.317797"
     inkscape:cy="61.665254"
     inkscape:window-width="1852"
     inkscape:window-height="1132"
     inkscape:window-x="1988"
     inkscape:window-y="31"
     inkscape:window-maximized="1"
     inkscape:current-layer="svg2110" />
  <path
     d="m 43.81454,87.51254 c 24.1981,0 43.8146,-19.5904 43.8146,-43.7563 C 87.62914,19.59034 68.01264,0 43.81454,0 19.61644,0 0,19.59034 0,43.75624 c 0,24.1659 19.61644,43.7563 43.81454,43.7563 z"
     fill="url(#paint0_linear_0_1)"
     id="path2043"
     style="fill:url(#paint0_linear_0_1)" />
  <g
     clip-path="url(#clip0_0_1)"
     id="g2083"
     transform="translate(-2.03906,-2.03516)">
    <path
       d="m 50.9168,48.174 c 0.6122,0 1.2244,-0.0099 1.8317,0 0.5925,0.0099 0.9776,0.3654 0.9973,0.8838 0.0198,0.5381 -0.3801,0.9331 -0.9973,0.943 -1.0713,0.0148 -2.1378,0.0148 -3.2091,0 -0.2963,0 -0.3999,0.0691 -0.3851,0.3752 0.0247,0.4937 0,0.9923 0.0098,1.491 0.005,0.4443 -0.1283,0.9134 0.5382,1.1059 0.3505,0.1037 0.4542,0.553 0.3407,0.9381 -0.1284,0.4246 -0.4345,0.6616 -0.8887,0.6764 -0.9035,0.0345 -1.7774,-0.7603 -1.812,-1.7132 -0.0345,-0.9924 -0.0345,-1.9848 0,-2.9771 0.0296,-0.943 0.7949,-1.6787 1.7428,-1.7182 0.6123,-0.0246 1.2195,0 1.8317,0 z"
       fill="#6ecbf4"
       id="path2047" />
    <path
       d="m 72.9901,27.1122 c 0,-2.6068 -2.0094,-4.5816 -4.6212,-4.6063 -1.3379,-0.0099 -2.6759,-0.0198 -4.0089,0.0049 -0.3999,0.0099 -0.5876,-0.0543 -0.5382,-0.5135 0.0494,-0.4739 0.0198,-0.9528 0.0049,-1.4317 -0.0493,-1.8515 -1.4959,-3.3869 -3.3276,-3.5548 -1.8514,-0.1679 -3.5103,1.0615 -3.9152,2.8883 -0.1629,0.7405 -0.0642,1.486 -0.0839,2.2266 -0.0049,0.2321 0,0.3851 -0.3209,0.3802 -2.2365,-0.0148 -4.4681,-0.0099 -6.7047,0 -0.2518,0 -0.3308,-0.0691 -0.3209,-0.3209 0.0197,-0.5333 0.0148,-1.0714 0,-1.6046 -0.0494,-1.8564 -1.4762,-3.3919 -3.3079,-3.5696 -1.8416,-0.1777 -3.5202,1.0516 -3.925,2.8685 -0.158,0.7011 -0.1037,1.4071 -0.079,2.1131 0.0148,0.4542 -0.1333,0.5233 -0.5431,0.5135 -1.7577,-0.0247 -3.5153,-0.005 -5.268,-0.0099 -0.4937,0 -1.1602,0.1679 -1.4318,-0.0839 -0.3209,-0.2913 -0.0691,-0.9677 -0.1036,-1.4762 -0.005,-0.1136 0,-0.2272 0,-0.3456 -0.0494,-1.8614 -1.4565,-3.3968 -3.2931,-3.5844 -1.8564,-0.1926 -3.5498,1.0565 -3.9498,2.908 -0.153,0.701 -0.079,1.4071 -0.074,2.1131 0,0.3653 -0.079,0.4838 -0.4641,0.4739 C 25.4354,22.4763 24.1566,22.4911 22.8779,22.4911 19.9304,22.5108 18,24.4363 18,27.3789 c 0,12.0318 0,24.0637 0,36.0906 0,2.9376 1.9354,4.8631 4.8829,4.8631 8.324,0 16.653,0 24.9771,0 0.1728,0 0.3505,0.0198 0.5134,-0.0148 0.4888,-0.0987 0.785,-0.4048 0.7801,-0.9134 -0.0049,-0.5036 -0.3061,-0.8097 -0.7998,-0.8936 -0.1876,-0.0346 -0.3802,-0.0099 -0.5727,-0.0099 -8.2895,0 -16.5741,0 -24.8636,0 -1.9798,0 -3.0857,-1.101 -3.0857,-3.0758 0,-9.1634 0.0049,-18.3317 -0.0148,-27.4951 0,-0.5283 0.153,-0.6023 0.627,-0.6023 8.3438,0.0148 16.6876,0.0099 25.0364,0.0099 8.3487,0 16.7271,0.0049 25.0906,-0.0149 0.5283,0 0.6023,0.1531 0.6023,0.6271 -0.0197,4.794 -0.0098,9.5879 -0.0098,14.377 0,0.1333 0,0.2666 0,0.3999 0.0098,0.6813 0.3406,1.0911 0.8936,1.101 0.5727,0.0148 0.9381,-0.4098 0.9381,-1.1208 0,-7.8649 0.0098,-15.7347 0,-23.5996 z M 58.3317,20.7334 c 0.0148,-1.101 0.8146,-1.9057 1.8613,-1.8909 1.0121,0.0148 1.7971,0.8196 1.8021,1.8959 0.0098,1.7922 0.0098,3.5794 0,5.3716 -0.005,1.0961 -0.8196,1.9107 -1.8613,1.8959 -1.0122,-0.0148 -1.7873,-0.8245 -1.8021,-1.8959 -0.0099,-0.8936 0,-1.7922 0,-2.6858 0,-0.8936 -0.0099,-1.7922 0,-2.6858 z m -14.6683,0.0198 c 0.0098,-1.1059 0.7949,-1.9156 1.8415,-1.9107 1.0368,0.0049 1.8169,0.8196 1.8218,1.9354 0.0099,1.7724 0.0099,3.5448 0,5.3173 -0.0049,1.1059 -0.7998,1.9205 -1.8415,1.9156 -1.0368,-0.0049 -1.812,-0.8245 -1.8218,-1.9354 -0.005,-0.8936 0,-1.7921 0,-2.6858 0,-0.8788 -0.005,-1.7527 0,-2.6315 z M 29,20.7384 c 0.0049,-1.101 0.8097,-1.9107 1.8564,-1.8959 1.017,0.0148 1.7922,0.8196 1.807,1.8909 0.0098,0.9134 0,1.8268 0,2.7451 0,0.8788 0.0098,1.7527 0,2.6315 -0.0148,1.101 -0.8147,1.9107 -1.8564,1.8959 -1.0121,-0.0148 -1.7971,-0.8196 -1.8021,-1.8959 -0.0098,-1.7922 -0.0098,-3.5794 0,-5.3716 z M 70.7536,33.5108 C 69.0157,33.496 67.2778,33.5059 65.5399,33.5059 H 45.4951 c -8.3636,0 -16.7271,0 -25.0858,0.0098 -0.4739,0 -0.5974,-0.1036 -0.5875,-0.5825 0.0296,-1.8712 0.0099,-3.7424 0.0148,-5.6136 0,-1.8514 1.1405,-2.9771 3.0068,-2.982 1.2984,0 2.5969,0.0148 3.8954,-0.0099 0.3555,-0.005 0.4443,0.0839 0.4394,0.4394 0,0.7208 -0.079,1.4515 0.079,2.1674 0.4048,1.8218 2.0687,3.0561 3.9102,2.8882 1.8317,-0.1678 3.2734,-1.7033 3.3277,-3.5498 0.0148,-0.5134 0.0148,-1.0318 0,-1.5453 -0.005,-0.2666 0.0246,-0.3999 0.3604,-0.3999 2.2168,0.0148 4.4286,0.0148 6.6454,0 0.2913,0 0.3357,0.1037 0.3407,0.3604 0.0148,0.7603 -0.084,1.5256 0.0888,2.281 0.4049,1.7872 2.0588,3.0067 3.8856,2.8536 1.8317,-0.153 3.2881,-1.6885 3.3424,-3.535 0.0149,-0.5332 0.0198,-1.0713 0,-1.6045 -0.0098,-0.2666 0.0593,-0.3605 0.3407,-0.3605 2.2168,0.0099 4.4286,0.0149 6.6454,0 0.3407,0 0.3506,0.1432 0.3555,0.4049 0.0197,0.7406 -0.079,1.4861 0.0889,2.2267 0.4048,1.8119 2.0933,3.0511 3.93,2.8684 1.8366,-0.1826 3.2585,-1.7181 3.3078,-3.5695 0.0149,-0.5135 0.0247,-1.0319 0,-1.5454 -0.0148,-0.311 0.0939,-0.3801 0.3851,-0.3752 1.4121,0.0148 2.8241,-0.0099 4.2361,0.0099 1.5009,0.0197 2.6908,1.1997 2.7105,2.6957 0.0247,2.0242 0,4.0485 0.0148,6.0727 0,0.3357 -0.1036,0.4048 -0.4147,0.3999 z"
       fill="#6ecbf4"
       id="path2049" />
    <path
       d="m 61.1208,48.1738 c -6.5614,0 -11.9479,5.3174 -11.9528,11.8048 -0.005,6.6948 5.2926,12.017 11.9578,12.0269 6.5318,0.005 11.864,-5.3617 11.8689,-11.943 0,-6.5121 -5.3617,-11.8837 -11.8739,-11.8837 z m 0.0149,22 C 55.5863,70.1837 51.0243,65.7008 50.9997,60.2057 50.975,54.5576 55.448,50.0351 61.0813,50.0105 66.6208,49.9907 71.1482,54.5131 71.163,60.0872 71.1778,65.602 66.6455,70.159 61.1406,70.1738 Z"
       fill="#6ecbf4"
       id="path2051" />
    <path
       d="m 52.801,39.9232 c -1.1998,-0.0148 -2.3995,-0.0148 -3.5992,0 -1.0961,0.0148 -1.8515,0.7801 -1.8663,1.886 -0.0098,0.8788 -0.0098,1.7527 0,2.6315 0.0148,1.1257 0.7801,1.8811 1.9157,1.8959 0.5727,0.0099 1.1454,0 1.7131,0 0.6073,0 1.2195,0.0099 1.8317,0 1.0665,-0.0198 1.8465,-0.7751 1.8663,-1.8317 0.0197,-0.9134 0.0148,-1.8317 0,-2.7451 -0.0198,-1.0565 -0.7949,-1.8218 -1.8613,-1.8366 z m -0.3209,4.5866 c -0.474,-0.0197 -0.9529,-0.0049 -1.4318,-0.0049 -0.5135,0 -1.0319,-0.0148 -1.5454,0.0049 -0.2814,0.0099 -0.3505,-0.0839 -0.3456,-0.3554 0.0198,-0.6863 0.0198,-1.3726 0,-2.0588 -0.0098,-0.2814 0.0889,-0.3506 0.3555,-0.3456 0.9924,0.0148 1.9848,0.0148 2.9771,0 0.2814,0 0.3506,0.0888 0.3456,0.3554 -0.0197,0.6863 -0.0197,1.3726 0,2.0588 0.0099,0.2815 -0.0888,0.3555 -0.3554,0.3456 z"
       fill="#6ecbf4"
       id="path2053" />
    <path
       d="m 65.661,41.8142 c -0.0148,-1.101 -0.7751,-1.8762 -1.8613,-1.891 -1.1997,-0.0148 -2.3994,-0.0148 -3.5992,0 -1.0713,0.0099 -1.8415,0.7702 -1.8613,1.8317 -0.0148,0.9134 -0.0148,1.8317 0,2.7451 0.0198,1.0565 0.7949,1.8168 1.8613,1.8366 0.5925,0.0099 1.18,0 1.7725,0 0.5924,0 1.18,0.0049 1.7724,0 1.1356,-0.0148 1.9058,-0.7702 1.9206,-1.8909 0.0099,-0.8789 0.0099,-1.7527 0,-2.6315 z m -1.8267,2.3105 c 0.0099,0.2864 -0.0543,0.4049 -0.3703,0.3901 -0.4937,-0.0296 -0.9924,-0.0099 -1.4861,-0.0099 -0.4937,0 -0.9528,-0.0148 -1.4318,0.0049 -0.2863,0.0099 -0.3999,-0.0543 -0.39,-0.3702 0.0247,-0.6666 0.0198,-1.338 0,-2.0045 -0.0099,-0.2864 0.0543,-0.395 0.3703,-0.3901 0.9726,0.0198 1.9452,0.0198 2.9179,0 0.2863,0 0.3999,0.0543 0.39,0.3703 -0.0247,0.6665 -0.0198,1.338 0,2.0045 z"
       fill="#6ecbf4"
       id="path2055" />
    <path
       d="m 36.9531,46.8301 v 0.3456 c 0.0296,0 0.0642,0.0099 0.0938,0.0099 0.0198,-0.1333 0.0494,-0.2667 -0.0938,-0.3555 z"
       fill="#6ecbf4"
       id="path2057" />
    <path
       d="m 36.9531,47.1758 v 0.3456 c 0.0346,0 0.0642,0 0.0988,0.0049 0,-0.1135 0,-0.2271 0,-0.3406 -0.0346,0.0395 -0.0692,0.0345 -0.0938,-0.0099 z"
       fill="#6ecbf4"
       id="path2059" />
    <path
       d="m 36.9531,47.5215 v 0.2271 c 0.1432,-0.0247 0.1086,-0.1284 0.0988,-0.2222 -0.0346,0.0445 -0.0692,0.0445 -0.0988,-0.0049 z"
       fill="#6ecbf4"
       id="path2061" />
    <path
       d="m 30.7711,39.9234 c -1.1799,-0.0099 -2.3649,-0.0099 -3.5448,0 -1.106,0.0099 -1.8712,0.7653 -1.891,1.8613 -0.0148,0.8937 -0.0148,1.7922 0,2.6858 0.0148,1.0862 0.7949,1.8465 1.891,1.8614 0.5924,0.0098 1.1799,0 1.7724,0 0.5925,0 1.18,0.0098 1.7724,0 1.101,-0.0198 1.8762,-0.7752 1.891,-1.8663 0.0148,-0.8936 0.0148,-1.7922 0,-2.6858 -0.0148,-1.0911 -0.79,-1.8514 -1.891,-1.8613 z m 0.0692,4.2312 c 0.0049,0.2666 -0.0593,0.3703 -0.3456,0.3554 -0.5135,-0.0246 -1.0319,-0.0049 -1.6441,-0.0049 -0.4839,-0.0543 -1.2639,0.2567 -1.5947,-0.1135 -0.2864,-0.321 -0.0839,-1.0862 -0.0839,-1.6589 0,-0.9825 0,-0.9825 0.9676,-0.9825 0.785,0 1.5651,0.0098 2.3452,-0.005 0.2666,-0.0049 0.3653,0.0593 0.3555,0.3456 -0.0198,0.6863 -0.0198,1.3726 0,2.0588 z"
       fill="#6ecbf4"
       id="path2063" />
    <path
       d="m 38.172,46.3319 c 0.5924,0.0148 1.1799,0 1.7724,0 0.6122,0 1.2195,0.0098 1.8317,0 1.101,-0.0198 1.8712,-0.7752 1.886,-1.8663 0.0148,-0.8936 0.0148,-1.7922 0,-2.6858 -0.0198,-1.0862 -0.7949,-1.8465 -1.8959,-1.8564 -1.18,-0.0099 -2.3649,-0.0099 -3.5449,0 -1.1059,0.0099 -1.8712,0.7702 -1.886,1.8663 -0.0148,0.8936 -0.0148,1.7922 0,2.6858 0.0148,1.0615 0.7801,1.8366 1.8367,1.8613 z m 0.9133,-4.5817 c 0.7998,0 1.6046,0.0098 2.4044,-0.005 0.2765,-0.0049 0.3555,0.079 0.3506,0.3506 -0.0198,0.6862 -0.0198,1.3725 0,2.0588 0.0098,0.2765 -0.079,0.3604 -0.3506,0.3505 -0.4937,-0.0197 -0.9923,-0.0049 -1.4861,-0.0049 0,-0.0099 0,-0.0198 0,-0.0247 -0.5875,0 -1.3824,0.232 -1.7132,-0.0593 -0.3752,-0.3357 -0.1036,-1.1454 -0.1135,-1.7477 -0.0198,-0.9134 0,-0.9134 0.9134,-0.9134 z m -2.1279,2.5574 v -0.6862 c 0.1432,0.0246 0.1086,0.1283 0.0988,0.2221 0,0.0741 0,0.1531 0,0.2271 0,0.079 0,0.1531 0,0.2321 0.0148,0.0987 0.0049,0.1876 -0.0988,0.237 v -0.2271 z"
       fill="#6ecbf4"
       id="path2065" />
    <path
       d="m 36.9531,44.0806 c 0.0296,0 0.0642,-0.0049 0.0938,-0.0049 -0.0345,-0.0444 -0.0691,-0.0444 -0.0938,0.0049 z"
       fill="#6ecbf4"
       id="path2067" />
    <path
       d="m 36.9531,43.8536 c 0.0346,0 0.0642,0 0.0988,0 -0.0346,-0.0444 -0.0692,-0.0444 -0.0988,0 z"
       fill="#6ecbf4"
       id="path2069" />
    <path
       d="m 37.0519,44.3086 c -0.0346,0 -0.0642,0 -0.0988,0.0049 0.0346,0.0543 0.0691,0.0494 0.0988,-0.0049 z"
       fill="#6ecbf4"
       id="path2071" />
    <path
       d="m 27.2034,54.5866 c 0.5925,0.0099 1.18,0 1.7725,0 0.5924,0 1.1799,0.0049 1.7724,0 1.1356,-0.0148 1.9057,-0.7702 1.9206,-1.8959 0.0098,-0.8788 0.0098,-1.7527 0,-2.6315 -0.0149,-1.101 -0.7752,-1.8761 -1.8663,-1.886 -1.1997,-0.0148 -2.3995,-0.0148 -3.5992,0 -1.0713,0.0148 -1.8415,0.7702 -1.8564,1.8317 -0.0148,0.9134 -0.0148,1.8317 0,2.7451 0.0198,1.0516 0.7999,1.8119 1.8614,1.8317 z M 27.1639,50.39 c -0.0099,-0.2864 0.0543,-0.4048 0.3703,-0.39 0.4937,0.0296 0.9924,0.0098 1.4861,0.0098 0.4937,0 0.9529,0.0149 1.4318,-0.0049 0.2863,-0.0099 0.3999,0.0543 0.39,0.3703 -0.0247,0.6665 -0.0197,1.338 0,2.0045 0.0099,0.2863 -0.0543,0.395 -0.3703,0.39 -0.9726,-0.0197 -1.9452,-0.0197 -2.9178,0 -0.2864,0 -0.4,-0.0543 -0.3901,-0.3703 0.0247,-0.6665 0.0198,-1.3379 0,-2.0045 z"
       fill="#6ecbf4"
       id="path2073" />
    <path
       d="m 38.152,54.582 c 1.2392,0.0197 2.4785,0.0197 3.7177,0 0.9973,-0.0198 1.7675,-0.7851 1.7922,-1.7824 0.0247,-0.9331 0.0197,-1.8662 0,-2.7993 -0.0198,-1.027 -0.79,-1.7972 -1.8169,-1.8218 -0.6073,-0.0149 -1.2195,0 -1.8317,0 -0.627,0 -1.259,-0.0149 -1.886,0 -1.0022,0.0296 -1.7675,0.785 -1.7922,1.7823 -0.0197,0.9331 -0.0197,1.8662 0,2.7993 0.0198,1.027 0.79,1.807 1.812,1.8219 z m 0.0099,-4.2608 c -0.005,-0.2518 0.0691,-0.3259 0.3209,-0.3209 1.0121,0.0148 2.0242,0.0148 3.0363,0 0.2469,0 0.3308,0.0691 0.321,0.3209 -0.0148,0.706 -0.0148,1.412 0,2.118 0.0049,0.2518 -0.0692,0.3308 -0.321,0.3209 -0.5134,-0.0197 -1.0318,-0.0049 -1.5453,-0.0049 -0.5135,0 -0.9924,-0.0148 -1.4861,0.0049 -0.2518,0.0099 -0.3308,-0.0641 -0.3209,-0.3209 0.0148,-0.706 0.0148,-1.412 0,-2.118 z"
       fill="#6ecbf4"
       id="path2075" />
    <path
       d="m 30.7711,56.4234 c -1.1799,-0.0099 -2.3649,-0.0099 -3.5448,0 -1.106,0.0099 -1.8762,0.7653 -1.891,1.8613 -0.0148,0.8937 -0.0148,1.7922 0,2.6858 0.0148,1.0862 0.7949,1.8465 1.891,1.8663 0.5727,0.0099 1.1454,0 1.7132,0 0.6122,0 1.2194,0.0099 1.8316,0 1.101,-0.0148 1.8762,-0.7751 1.891,-1.8613 0.0148,-0.8936 0.0148,-1.7922 0,-2.6858 -0.0148,-1.0911 -0.79,-1.8515 -1.891,-1.8613 z M 30.386,61.01 c -0.4739,-0.0246 -0.9528,-0.0049 -1.5305,-0.0049 -0.4838,-0.0494 -1.2639,0.2567 -1.5996,-0.1086 -0.2864,-0.316 -0.0889,-1.0862 -0.0889,-1.654 -0.0049,-0.9874 0,-0.9874 0.9578,-0.9874 0.7653,0 1.5256,0.0148 2.2909,-0.0049 0.3061,-0.0099 0.4394,0.0493 0.4246,0.3949 -0.0297,0.6468 -0.0346,1.2985 0,1.9453 0.0197,0.3851 -0.1284,0.4394 -0.4543,0.4196 z"
       fill="#6ecbf4"
       id="path2077" />
    <path
       d="m 43.6571,58.2302 c -0.0197,-1.0269 -0.7998,-1.7922 -1.8267,-1.807 -1.2195,-0.0148 -2.439,-0.0148 -3.6584,0 -1.0615,0.0148 -1.8219,0.785 -1.8367,1.8564 -0.0148,0.8936 -0.0148,1.7922 0,2.6858 0.0148,1.0862 0.79,1.8514 1.886,1.8663 0.5925,0.0098 1.18,0 1.7725,0 0.6072,0 1.2194,0.0098 1.8267,0 1.0368,-0.0247 1.812,-0.7752 1.8366,-1.8021 0.0198,-0.9331 0.0198,-1.8663 0,-2.7994 z m -2.2464,2.7796 c -0.4739,-0.0197 -0.9528,-0.0049 -1.4317,-0.0049 -0.479,0 -0.9529,-0.0148 -1.4318,0.0049 -0.2765,0.0099 -0.4049,-0.0395 -0.395,-0.3653 0.0296,-0.6665 0.0198,-1.338 0,-2.0045 -0.0049,-0.2765 0.0444,-0.3999 0.3654,-0.395 0.9726,0.0247 1.9452,0.0148 2.9178,0 0.2765,0 0.4049,0.0445 0.395,0.3654 -0.0296,0.6665 -0.0296,1.338 0,2.0045 0.0148,0.3505 -0.1284,0.4048 -0.4295,0.39 z"
       fill="#6ecbf4"
       id="path2079" />
    <path
       d="m 55.3335,59.8696 c 0.3703,0.0098 0.6221,0.2024 0.8541,0.4394 0.8986,0.9084 1.8169,1.7971 2.7006,2.7203 0.2716,0.2815 0.4246,0.2963 0.711,0.0099 2.1723,-2.197 4.3644,-4.3743 6.5417,-6.5615 0.2321,-0.232 0.4641,-0.4641 0.8147,-0.4838 0.3505,-0.0198 0.6319,0.1333 0.8245,0.4246 0.1925,0.2962 0.2123,0.6171 0.0345,0.9183 -0.1037,0.1777 -0.2616,0.3258 -0.4048,0.474 -2.4094,2.4142 -4.8236,4.8285 -7.2379,7.2428 -0.7258,0.7257 -1.101,0.7307 -1.8218,0.0148 -1.1849,-1.1849 -2.3748,-2.3748 -3.5597,-3.5597 -0.2864,-0.2913 -0.4345,-0.6221 -0.2666,-1.0319 0.153,-0.3752 0.4443,-0.5529 0.8097,-0.5974 z"
       fill="#6ecbf4"
       id="path2081" />
  </g>
  <defs
     id="defs2108">
    <filter
       id="filter0_d_0_1"
       x="0.57906199"
       y="0.57515597"
       width="97.428902"
       height="97.311699"
       filterUnits="userSpaceOnUse"
       color-interpolation-filters="sRGB">
      <feFlood
         flood-opacity="0"
         result="BackgroundImageFix"
         id="feFlood2085" />
      <feColorMatrix
         in="SourceAlpha"
         type="matrix"
         values="0 0 0 0 0 0 0 0 0 0 0 0 0 0 0 0 0 0 127 0"
         result="hardAlpha"
         id="feColorMatrix2087" />
      <feOffset
         dx="3.44"
         dy="3.44"
         id="feOffset2089" />
      <feGaussianBlur
         stdDeviation="2.45"
         id="feGaussianBlur2091" />
      <feColorMatrix
         type="matrix"
         values="0 0 0 0 0 0 0 0 0 0 0 0 0 0 0 0 0 0 0.15 0"
         id="feColorMatrix2093" />
      <feBlend
         mode="normal"
         in2="BackgroundImageFix"
         result="effect1_dropShadow_0_1"
         id="feBlend2095" />
      <feBlend
         mode="normal"
         in="SourceGraphic"
         in2="effect1_dropShadow_0_1"
         result="shape"
         id="feBlend2097" />
    </filter>
    <linearGradient
       id="paint0_linear_0_1"
       x1="45.8536"
       y1="89.547699"
       x2="45.8536"
       y2="2.01998"
       gradientUnits="userSpaceOnUse"
       gradientTransform="translate(-2.03906,-2.03516)">
      <stop
         stop-color="white"
         id="stop2100" />
      <stop
         offset="1"
         stop-color="#F1F2F6"
         id="stop2102" />
    </linearGradient>
    <clipPath
       id="clip0_0_1">
      <rect
         width="55"
         height="55"
         fill="#ffffff"
         transform="translate(18,17)"
         id="rect2105"
         x="0"
         y="0" />
    </clipPath>
  </defs>
</svg>
