<?xml version="1.0" encoding="UTF-8" standalone="no"?>
<svg
   width="87.629242"
   height="87.512543"
   viewBox="0 0 87.629242 87.512543"
   fill="none"
   version="1.1"
   id="svg1922"
   sodipodi:docname="satisfaction.svg"
   inkscape:version="1.2.2 (732a01da63, 2022-12-09, custom)"
   xmlns:inkscape="http://www.inkscape.org/namespaces/inkscape"
   xmlns:sodipodi="http://sodipodi.sourceforge.net/DTD/sodipodi-0.dtd"
   xmlns="http://www.w3.org/2000/svg"
   xmlns:svg="http://www.w3.org/2000/svg">
  <sodipodi:namedview
     id="namedview1924"
     pagecolor="#ffffff"
     bordercolor="#000000"
     borderopacity="0.25"
     inkscape:showpageshadow="2"
     inkscape:pageopacity="0.0"
     inkscape:pagecheckerboard="0"
     inkscape:deskcolor="#d1d1d1"
     showgrid="false"
     inkscape:zoom="2.3838384"
     inkscape:cx="10.487288"
     inkscape:cy="47.402542"
     inkscape:window-width="1852"
     inkscape:window-height="1132"
     inkscape:window-x="1988"
     inkscape:window-y="31"
     inkscape:window-maximized="1"
     inkscape:current-layer="svg1922" />
  <path
     d="m 43.81464,87.51254 c 24.1981,0 43.8146,-19.5904 43.8146,-43.7563 C 87.62924,19.59034 68.01274,0 43.81464,0 19.61654,0 0,19.59034 0,43.75624 c 0,24.1659 19.61654,43.7563 43.81464,43.7563 z"
     fill="url(#paint0_linear_0_1)"
     id="path1859"
     style="fill:url(#paint0_linear_0_1)" />
  <g
     clip-path="url(#clip0_0_1)"
     id="g1895"
     transform="translate(-1.78906,-2.28906)">
    <path
       d="m 27.6764,47.3637 c -6.3033,0 -11.4264,-5.1857 -11.4264,-11.5549 0,-6.3692 5.1231,-11.5549 11.4264,-11.5549 6.3034,0 11.4264,5.1807 11.4264,11.5549 0,6.3742 -5.123,11.5549 -11.4264,11.5549 z m 0,-21.7232 c -5.55,-0.0051 -10.0603,4.5559 -10.0603,10.1683 0,5.6124 4.5103,10.1734 10.0603,10.1734 5.55,0 10.0603,-4.561 10.0603,-10.1734 0,-5.6124 -4.5153,-10.1734 -10.0603,-10.1734 z"
       fill="#2f9eed"
       stroke="#2f9eed"
       stroke-miterlimit="10"
       id="path1863" />
    <path
       d="m 25.2021,30.0547 h -1.3662 v 5.1095 h 1.3662 z"
       fill="#2f9eed"
       stroke="#2f9eed"
       stroke-miterlimit="10"
       id="path1865" />
    <path
       d="m 31.5185,30.0547 h -1.3662 v 5.1095 h 1.3662 z"
       fill="#2f9eed"
       stroke="#2f9eed"
       stroke-miterlimit="10"
       id="path1867" />
    <path
       d="m 27.6767,42.2497 c -2.7624,0 -5.2386,-1.671 -6.3134,-4.2562 l 1.2607,-0.5384 c 0.8638,2.0722 2.8478,3.408 5.0577,3.408 2.21,0 4.1939,-1.3408 5.0578,-3.408 l 1.2606,0.5333 c -1.0748,2.5852 -3.556,4.2562 -6.3184,4.2562 z"
       fill="#2f9eed"
       id="path1869" />
    <path
       d="m 46.6327,47.3629 c -2.6168,0 -5.1733,-0.9193 -7.1974,-2.5802 l 0.8639,-1.0717 c 1.783,1.4679 4.0331,2.2704 6.3385,2.2704 5.5449,0 10.0603,-4.561 10.0603,-10.1734 0,-5.6124 -4.5204,-10.1734 -10.0653,-10.1734 -2.4008,0 -4.7213,0.8686 -6.5445,2.4431 l -0.889,-1.0514 c 2.0693,-1.7929 4.7062,-2.7783 7.4335,-2.7783 6.2983,0 11.4264,5.1807 11.4264,11.5549 0,6.3743 -5.1231,11.5549 -11.4264,11.5549 z"
       fill="#2f9eed"
       stroke="#2f9eed"
       stroke-miterlimit="10"
       id="path1871" />
    <path
       d="m 44.1552,30.0547 h -1.3661 v 5.1095 h 1.3661 z"
       fill="#2f9eed"
       stroke="#2f9eed"
       stroke-miterlimit="10"
       id="path1873" />
    <path
       d="m 50.4755,30.0547 h -1.3661 v 5.1095 h 1.3661 z"
       fill="#2f9eed"
       stroke="#2f9eed"
       stroke-miterlimit="10"
       id="path1875" />
    <path
       d="m 68.3743,40.847 c -1.0447,-0.7314 -2.5213,-1.153 -4.0482,-1.153 -1.0347,0 -2.0442,0.1879 -2.9232,0.5435 l -0.5123,-1.28 c 1.0347,-0.4215 2.225,-0.645 3.4305,-0.645 1.8282,0 3.5409,0.4977 4.8267,1.4018 l -0.7785,1.1377 z"
       fill="#2f9eed"
       id="path1877" />
    <path
       d="m 64.3268,47.3629 c -2.1497,0 -4.2441,-0.6095 -6.0573,-1.7574 l 0.7233,-1.1732 c 1.5972,1.0107 3.4405,1.544 5.329,1.544 5.5449,0 10.0602,-4.561 10.0602,-10.1734 0,-5.6123 -4.5103,-10.1683 -10.0552,-10.1683 -1.8885,0 -3.7318,0.5333 -5.324,1.539 l -0.7232,-1.1733 c 1.8131,-1.1428 3.9025,-1.7523 6.0472,-1.7523 6.2983,0 11.4264,5.1807 11.4264,11.5549 0,6.3743 -5.123,11.5549 -11.4264,11.5549 z"
       fill="#2f9eed"
       stroke="#2f9eed"
       stroke-miterlimit="10"
       id="path1879" />
    <path
       d="m 61.8466,30.0547 h -1.3661 v 5.1095 h 1.3661 z"
       fill="#2f9eed"
       stroke="#2f9eed"
       stroke-miterlimit="10"
       id="path1881" />
    <path
       d="m 68.1708,30.0547 h -1.3661 v 5.1095 h 1.3661 z"
       fill="#2f9eed"
       stroke="#2f9eed"
       stroke-miterlimit="10"
       id="path1883" />
    <path
       d="M 51.0518,39.5879 H 42.207 v 1.3815 h 8.8448 z"
       fill="#2f9eed"
       id="path1885" />
    <path
       d="M 34.045,67.807 H 17.5156 V 51.0918 h 12.0543 v 1.3815 H 18.8818 V 66.4255 H 32.6789 V 59.452 h 1.3661 z"
       fill="#2f9eed"
       stroke="#2f9eed"
       stroke-width="0.75"
       stroke-miterlimit="10"
       id="path1887" />
    <path
       d="m 25.8434,64.3274 -4.3395,-4.3883 0.9694,-0.9803 3.2446,3.2811 8.3676,-10.8844 1.0799,0.8482 z"
       fill="#2f9fee"
       id="path1889" />
    <path
       d="M 54.2688,67.807 H 37.7344 V 51.0918 H 54.2638 V 67.807 Z M 39.1055,66.4255 H 52.9026 V 52.4733 H 39.1055 Z"
       fill="#2f9eed"
       id="path1891" />
    <path
       d="M 74.4864,67.807 H 57.957 V 51.0918 H 74.4864 Z M 59.3232,66.4255 H 73.1203 V 52.4733 H 59.3232 Z"
       fill="#2f9eed"
       id="path1893" />
  </g>
  <defs
     id="defs1920">
    <filter
       id="filter0_d_0_1"
       x="0.32906201"
       y="0.82906199"
       width="97.428902"
       height="97.311699"
       filterUnits="userSpaceOnUse"
       color-interpolation-filters="sRGB">
      <feFlood
         flood-opacity="0"
         result="BackgroundImageFix"
         id="feFlood1897" />
      <feColorMatrix
         in="SourceAlpha"
         type="matrix"
         values="0 0 0 0 0 0 0 0 0 0 0 0 0 0 0 0 0 0 127 0"
         result="hardAlpha"
         id="feColorMatrix1899" />
      <feOffset
         dx="3.44"
         dy="3.44"
         id="feOffset1901" />
      <feGaussianBlur
         stdDeviation="2.45"
         id="feGaussianBlur1903" />
      <feColorMatrix
         type="matrix"
         values="0 0 0 0 0 0 0 0 0 0 0 0 0 0 0 0 0 0 0.15 0"
         id="feColorMatrix1905" />
      <feBlend
         mode="normal"
         in2="BackgroundImageFix"
         result="effect1_dropShadow_0_1"
         id="feBlend1907" />
      <feBlend
         mode="normal"
         in="SourceGraphic"
         in2="effect1_dropShadow_0_1"
         result="shape"
         id="feBlend1909" />
    </filter>
    <linearGradient
       id="paint0_linear_0_1"
       x1="45.603699"
       y1="89.816803"
       x2="45.603699"
       y2="2.2890601"
       gradientUnits="userSpaceOnUse"
       gradientTransform="translate(-1.78906,-2.28906)">
      <stop
         stop-color="white"
         id="stop1912" />
      <stop
         offset="1"
         stop-color="#F1F2F6"
         id="stop1914" />
    </linearGradient>
    <clipPath
       id="clip0_0_1">
      <rect
         width="60"
         height="44"
         fill="#ffffff"
         transform="translate(16,24)"
         id="rect1917"
         x="0"
         y="0" />
    </clipPath>
  </defs>
</svg>
