<?xml version="1.0" encoding="UTF-8" standalone="no"?>
<svg
   width="87.62912"
   height="87.512482"
   viewBox="0 0 87.62912 87.512482"
   fill="none"
   version="1.1"
   id="svg1738"
   sodipodi:docname="teleworker.svg"
   inkscape:version="1.2.2 (732a01da63, 2022-12-09, custom)"
   xmlns:inkscape="http://www.inkscape.org/namespaces/inkscape"
   xmlns:sodipodi="http://sodipodi.sourceforge.net/DTD/sodipodi-0.dtd"
   xmlns="http://www.w3.org/2000/svg"
   xmlns:svg="http://www.w3.org/2000/svg">
  <sodipodi:namedview
     id="namedview1740"
     pagecolor="#ffffff"
     bordercolor="#000000"
     borderopacity="0.25"
     inkscape:showpageshadow="2"
     inkscape:pageopacity="0.0"
     inkscape:pagecheckerboard="0"
     inkscape:deskcolor="#d1d1d1"
     showgrid="false"
     inkscape:zoom="2.3838384"
     inkscape:cx="10.487288"
     inkscape:cy="47.402542"
     inkscape:window-width="1852"
     inkscape:window-height="1132"
     inkscape:window-x="1988"
     inkscape:window-y="31"
     inkscape:window-maximized="1"
     inkscape:current-layer="svg1738" />
  <path
     d="m 43.81452,87.51248 c 24.1981,0 43.8146,-19.5903 43.8146,-43.7562 C 87.62912,19.59028 68.01262,0 43.81452,0 19.61642,0 0,19.59028 0,43.75628 c 0,24.1659 19.61642,43.7562 43.81452,43.7562 z"
     fill="url(#paint0_linear_0_1)"
     id="path1701"
     style="fill:url(#paint0_linear_0_1)" />
  <g
     clip-path="url(#clip0_0_1)"
     id="g1711"
     transform="translate(-2.30078,-2.29102)">
    <path
       d="M 70.9806,74.5277 C 70.5233,70.8693 70.066,67.2159 69.6776,63.5526 69.3039,60.032 66.9782,57.1762 63.5559,56.2013 59.6715,55.0935 55.7871,53.9955 51.8929,52.9122 51.5045,52.8039 51.3324,52.671 51.352,52.2229 c 0.0443,-1.0832 0.059,-2.1763 0,-3.2546 -0.0393,-0.6451 0.2016,-1.039 0.6638,-1.4526 2.0258,-1.8021 3.6091,-3.9045 4.1254,-6.6471 0.059,-0.3102 0.231,-0.2757 0.4326,-0.2757 1.126,0 2.252,0.0098 3.378,0 1.8291,-0.0197 3.1813,-1.359 3.201,-3.1759 0.0147,-1.1472 0.0098,-2.2945 0,-3.4417 -0.005,-1.1472 -0.4819,-2.0631 -1.4456,-2.6884 -0.2754,-0.1773 -0.3196,-0.3496 -0.3,-0.645 0.1377,-1.9301 0.0443,-3.8504 -0.3491,-5.7461 -1.1112,-5.3866 -4.1302,-9.1583 -9.4406,-10.8274 -4.3269,-1.359 -8.7472,-1.3688 -13.143,-0.3151 -4.0516,0.9749 -7.223,3.1857 -9.1407,6.9819 -1.5636,3.102 -1.9717,6.4256 -1.7651,9.8476 0.0196,0.3397 -0.0443,0.5318 -0.3492,0.7386 -0.9047,0.6056 -1.3767,1.4919 -1.3865,2.5948 -0.0148,1.167 -0.0148,2.3339 0,3.5058 0.0196,1.7873 1.362,3.1413 3.1419,3.1709 0.9391,0.0148 1.8832,0 2.8223,0 0.9343,0 0.9294,0 1.1752,0.9355 0.0787,0.2954 0.177,0.5859 0.2852,0.8715 0.8211,2.1616 2.2618,3.8701 3.9876,5.3571 0.2754,0.2364 0.3836,0.4727 0.3737,0.8371 -0.0245,1.2309 -0.0245,2.4569 0,3.6879 0.005,0.3693 -0.0983,0.517 -0.4671,0.6204 -3.9139,1.0832 -7.818,2.196 -11.722,3.2989 -3.3977,0.9602 -5.748,3.8307 -6.1217,7.3513 -0.3835,3.6239 -0.826,7.2429 -1.2833,10.8569 -0.0836,0.6697 -0.0098,1.1965 0.5606,1.5953 h 0.7375 c 0.7375,-1.2457 0.6245,-2.6687 0.8015,-4.0276 0.3737,-2.8411 0.6195,-5.6969 1.0325,-8.533 0.4032,-2.7967 2.0209,-4.6628 4.7154,-5.4949 1.8537,-0.5712 3.7369,-1.0636 5.6053,-1.5904 0.5753,-0.1625 0.9097,-0.0296 1.2244,0.4579 1.5586,2.3782 3.1468,4.7416 4.7252,7.11 0.1131,0.1723 0.2212,0.3446 0.3442,0.512 0.4769,0.6648 0.8998,0.7337 1.539,0.2265 1.185,-0.9404 2.306,-1.9596 3.4861,-2.9099 0.0492,-0.0394 0.0934,-0.0788 0.1426,-0.1182 0.1623,-0.1133 0.3098,-0.3397 0.5261,-0.2462 0.0098,0 0.0098,0.0099 0.0197,0.0148 0.0098,-0.0049 0.0147,-0.0148 0.0246,-0.0197 v 0.0394 c 0.1868,0.1181 0.1573,0.3643 0.1622,0.5662 0.0099,1.8415 0,3.6879 0.0049,5.5294 0,0.2265 -0.0147,0.453 0.0345,0.6746 0.0885,0.4037 0.3343,0.6696 0.7523,0.6943 0.4326,0.0246 0.6687,-0.2512 0.7867,-0.6401 0.0688,-0.2413 0.059,-0.4875 0.059,-0.7337 0,-1.679 0,-3.358 0,-5.037 0,-0.1822 -0.0099,-0.3693 0.0049,-0.5515 0.0147,-0.1773 0,-0.3939 0.1573,-0.4973 v -0.0345 c 0,0 0.0148,0.0148 0.0246,0.0197 0.0099,-0.0049 0.0148,-0.0147 0.0246,-0.0197 0.1967,-0.0787 0.3393,0.1034 0.4769,0.2167 0.9834,0.8026 1.9521,1.6199 2.9256,2.4323 0.3,0.2511 0.5901,0.5072 0.8999,0.7386 0.4474,0.3397 0.8752,0.2757 1.2439,-0.1477 0.1476,-0.1723 0.2606,-0.3644 0.3885,-0.5515 1.5882,-2.388 3.1763,-4.7711 4.7645,-7.1592 0.4966,-0.7435 0.5704,-0.773 1.4063,-0.5318 1.7455,0.5121 3.5058,0.9848 5.2562,1.4821 2.8469,0.8124 4.6072,2.8263 4.976,5.7559 0.472,3.7175 0.8654,7.4399 1.3177,11.1574 0.059,0.4776 0.3737,0.7927 0.4819,1.2211 h 0.7375 c 0.5163,-0.3644 0.6589,-0.8371 0.5802,-1.4722 z M 61.1909,33.9802 c 0,0 0,0.0394 0,0.0591 0,0.5515 0,1.1029 0,1.6544 0,0.5712 0.0147,1.1472 0,1.7184 -0.0246,0.7189 -0.477,1.1916 -1.1998,1.2014 -1.121,0.0197 -2.247,0 -3.3681,0.0148 -0.2655,0 -0.3442,-0.0739 -0.3442,-0.3447 0.0099,-1.7381 0.0148,-3.4762 0,-5.2143 0,-0.325 0.1279,-0.3594 0.3934,-0.3545 1.0817,0.0099 2.1635,0 3.2452,0.0099 0.7916,0.0098 1.244,0.4677 1.2735,1.2555 z M 31.6842,20.617 c 1.8438,-2.8804 4.6121,-4.3674 7.8524,-5.0961 1.6226,-0.3644 3.2697,-0.5022 5.6299,-0.4973 2.247,0.0197 5.1333,0.3742 7.8032,1.7282 3.4173,1.7332 5.3103,4.6087 6.1216,8.277 0.3786,1.7085 0.4573,3.4417 0.3934,5.1896 -0.0148,0.4038 -0.1033,0.5663 -0.5507,0.5564 -1.0129,-0.0246 -0.9982,0 -1.0572,-1.034 -0.1671,-2.841 -0.6736,-5.6033 -2.1142,-8.1095 -1.7898,-3.1118 -4.5925,-4.7416 -8.0442,-5.3275 -3.019,-0.5121 -6.038,-0.453 -8.9784,0.4825 -4.1155,1.3097 -6.4216,4.2886 -7.5082,8.3508 -0.4573,1.7085 -0.6687,3.4516 -0.7277,5.2143 -0.0099,0.3003 -0.0639,0.4776 -0.4032,0.4136 -0.2213,-0.0443 -0.5605,0.1674 -0.5802,-0.3053 -0.1721,-3.4762 0.236,-6.8293 2.1635,-9.8377 z m 0.6637,18.0162 c -1.121,-0.0197 -2.247,0.0049 -3.3681,-0.0148 -0.6834,-0.0147 -1.1555,-0.4825 -1.1702,-1.162 -0.0246,-1.1866 -0.0197,-2.3732 0,-3.5599 0.0098,-0.6598 0.4622,-1.1423 1.1063,-1.162 1.1653,-0.0295 2.3257,0 3.491,-0.0197 0.3147,0 0.3098,0.1576 0.3049,0.3791 -0.0049,0.8568 0,1.7184 0,2.5752 0,0.8567 -0.0098,1.7184 0.0049,2.5751 0.0049,0.2856 -0.0639,0.389 -0.3688,0.3841 z m 0.9933,-9.9214 c -0.236,0.5465 -0.3983,1.1127 -0.5065,1.6987 -0.0295,0.1526 0.0099,0.3643 -0.2409,0.3348 -0.2262,-0.0246 -0.1278,-0.2216 -0.1229,-0.3398 0.0983,-2.4274 0.4425,-4.8105 1.5144,-7.0213 1.2391,-2.5653 3.2796,-4.1951 6.0233,-4.9041 2.8027,-0.7189 5.6348,-0.7287 8.4326,0.0049 3.7221,0.9749 5.8463,3.5402 6.8395,7.1543 0.2606,0.9454 0.4474,1.9104 0.5261,2.8903 0.1033,0.1575 0.118,0.3299 0.0836,0.5416 -0.1229,-0.0837 -0.1819,-0.1773 -0.1869,-0.3102 -0.9293,-2.2847 -3.0534,-3.363 -5.6496,-2.8755 -0.9293,0.1723 -1.8241,0.4431 -2.6699,0.8715 -1.9225,0.97 -3.8352,0.97 -5.7627,0.0049 -1.0669,-0.5367 -2.2028,-0.8567 -3.3976,-0.9552 -2.2815,-0.1969 -3.9778,0.8026 -4.8825,2.9051 z m 2.6355,14.7123 c -0.8949,-1.295 -1.3424,-2.7278 -1.3129,-4.3281 0.0394,-2.3781 0.0148,-4.7514 0.0099,-7.1296 0,-0.5761 0.0688,-1.1423 0.2163,-1.6987 0.5409,-2.0532 1.7554,-2.8263 3.8303,-2.4225 0.7671,0.1477 1.4899,0.4136 2.193,0.7533 2.3798,1.1522 4.7645,1.1571 7.1444,0.0099 0.9293,-0.4481 1.8881,-0.7485 2.9206,-0.8469 1.2145,-0.1133 2.1094,0.3496 2.6995,1.4032 0.4376,0.7829 0.6293,1.6446 0.6342,2.5358 0.0197,2.2748 0,4.5496 0.0148,6.8244 0,0.32 -0.1033,0.4677 -0.3934,0.5711 -1.2833,0.4629 -2.5666,0.9356 -3.8401,1.4329 -0.2901,0.1132 -0.4671,0.0738 -0.6982,-0.128 -1.0867,-0.9356 -2.4782,-1.0045 -3.6189,-0.2068 -1.0965,0.7681 -1.5243,2.1615 -1.0473,3.4269 0.472,1.2556 1.7307,2.0335 3.0534,1.8858 1.3325,-0.1477 2.4044,-1.1866 2.5814,-2.5653 0.0443,-0.3397 0.1475,-0.4923 0.4573,-0.6007 1.0522,-0.3693 2.0995,-0.773 3.2599,-1.2014 -0.4474,1.4821 -1.1997,2.6343 -2.1339,3.6781 -1.6325,1.8267 -3.5599,3.2399 -5.807,4.2246 -0.9293,0.4087 -1.8635,0.5564 -2.8469,0.1527 -2.9846,-1.231 -5.4677,-3.0922 -7.3115,-5.7609 z m 12.4448,-0.8519 c -0.0049,0.5318 -0.4474,0.9651 -0.9785,0.97 -0.531,0 -0.9735,-0.4333 -0.9834,-0.965 -0.0098,-0.5564 0.4524,-1.0143 1.008,-0.9996 0.5311,0.0148 0.9588,0.4629 0.9539,0.9946 z m -9.6077,20.1679 c -1.5587,-2.3388 -3.083,-4.6333 -4.6318,-6.9622 1.3571,-0.3792 2.6502,-0.7386 3.9385,-1.1128 0.2016,-0.0591 0.3392,-0.0492 0.4917,0.1034 1.4751,1.4771 2.9551,2.9444 4.4498,4.4363 -1.4407,1.2014 -2.8322,2.3635 -4.2433,3.5403 z m 5.9741,-5.1355 c -0.2262,0.2314 -0.354,0.2314 -0.5802,0 -1.4505,-1.4722 -2.9109,-2.9297 -4.3712,-4.3871 -0.1672,-0.1674 -0.2606,-0.3348 -0.2557,-0.5859 0.0148,-0.9996 0.0049,-2.004 0.0049,-3.1611 3.26,2.3585 6.5052,2.4717 9.8192,-0.0099 0,1.167 -0.0098,2.1665 0.0049,3.166 0,0.2462 -0.0786,0.4136 -0.2507,0.586 -1.4653,1.4574 -2.9256,2.9149 -4.3761,4.3871 z m 9.7159,-1.3639 c -1.3472,2.0286 -2.6994,4.0474 -4.0368,6.0809 -0.2016,0.3053 -0.3245,0.4136 -0.6638,0.1231 -1.2538,-1.0832 -2.5323,-2.1369 -3.8451,-3.23 1.4849,-1.487 2.9354,-2.9346 4.3761,-4.3871 0.2065,-0.2068 0.3737,-0.2167 0.6441,-0.1379 1.2539,0.3693 2.5126,0.709 3.7664,1.0586 0,0.2167 -0.1426,0.3496 -0.2409,0.4973 z"
       fill="#5eb6e4"
       id="path1705" />
    <path
       d="m 45.2799,72.1252 c 0.0197,-0.5269 -0.3442,-0.842 -0.7818,-0.842 -0.4376,0 -0.767,0.3102 -0.7916,0.842 -0.0443,0.9404 -0.0098,1.8858 -0.0148,2.8262 0,0.4284 0.4081,0.65 0.4376,1.0488 h 0.7376 c 0.7572,-1.2211 0.3688,-2.5751 0.4179,-3.875 z"
       fill="#5eb6e4"
       id="path1707" />
    <path
       d="m 55.8025,28.5352 c -0.0344,0.0787 -0.0689,0.1526 -0.1033,0.2314 0.2164,0.0049 0.1377,-0.1231 0.1033,-0.2314 z"
       fill="#5eb6e4"
       id="path1709" />
  </g>
  <defs
     id="defs1736">
    <filter
       id="filter0_d_0_1"
       x="0.84078097"
       y="0.831016"
       width="97.428902"
       height="97.311699"
       filterUnits="userSpaceOnUse"
       color-interpolation-filters="sRGB">
      <feFlood
         flood-opacity="0"
         result="BackgroundImageFix"
         id="feFlood1713" />
      <feColorMatrix
         in="SourceAlpha"
         type="matrix"
         values="0 0 0 0 0 0 0 0 0 0 0 0 0 0 0 0 0 0 127 0"
         result="hardAlpha"
         id="feColorMatrix1715" />
      <feOffset
         dx="3.44"
         dy="3.44"
         id="feOffset1717" />
      <feGaussianBlur
         stdDeviation="2.45"
         id="feGaussianBlur1719" />
      <feColorMatrix
         type="matrix"
         values="0 0 0 0 0 0 0 0 0 0 0 0 0 0 0 0 0 0 0.15 0"
         id="feColorMatrix1721" />
      <feBlend
         mode="normal"
         in2="BackgroundImageFix"
         result="effect1_dropShadow_0_1"
         id="feBlend1723" />
      <feBlend
         mode="normal"
         in="SourceGraphic"
         in2="effect1_dropShadow_0_1"
         result="shape"
         id="feBlend1725" />
    </filter>
    <linearGradient
       id="paint0_linear_0_1"
       x1="46.115299"
       y1="89.818703"
       x2="46.115299"
       y2="2.2910199"
       gradientUnits="userSpaceOnUse"
       gradientTransform="translate(-2.30078,-2.29102)">
      <stop
         stop-color="white"
         id="stop1728" />
      <stop
         offset="1"
         stop-color="#F1F2F6"
         id="stop1730" />
    </linearGradient>
    <clipPath
       id="clip0_0_1">
      <rect
         width="53"
         height="63"
         fill="#ffffff"
         transform="translate(18,13)"
         id="rect1733"
         x="0"
         y="0" />
    </clipPath>
  </defs>
</svg>
