<?xml version="1.0" encoding="UTF-8" standalone="no"?>
<svg
   width="87.629242"
   height="87.512482"
   viewBox="0 0 87.629242 87.512482"
   fill="none"
   version="1.1"
   id="svg1580"
   sodipodi:docname="window.svg"
   inkscape:version="1.2.2 (732a01da63, 2022-12-09, custom)"
   xmlns:inkscape="http://www.inkscape.org/namespaces/inkscape"
   xmlns:sodipodi="http://sodipodi.sourceforge.net/DTD/sodipodi-0.dtd"
   xmlns="http://www.w3.org/2000/svg"
   xmlns:svg="http://www.w3.org/2000/svg">
  <sodipodi:namedview
     id="namedview1582"
     pagecolor="#ffffff"
     bordercolor="#000000"
     borderopacity="0.25"
     inkscape:showpageshadow="2"
     inkscape:pageopacity="0.0"
     inkscape:pagecheckerboard="0"
     inkscape:deskcolor="#d1d1d1"
     showgrid="false"
     inkscape:zoom="2.4081633"
     inkscape:cx="10.79661"
     inkscape:cy="46.923729"
     inkscape:window-width="1852"
     inkscape:window-height="1132"
     inkscape:window-x="1988"
     inkscape:window-y="31"
     inkscape:window-maximized="1"
     inkscape:current-layer="svg1580" />
  <path
     d="m 43.81464,87.51248 c 24.1981,0 43.8146,-19.5903 43.8146,-43.7562 C 87.62924,19.59038 68.01274,0 43.81464,0 19.61654,0 0,19.59038 0,43.75628 c 0,24.1659 19.61654,43.7562 43.81464,43.7562 z"
     fill="url(#paint0_linear_0_1)"
     id="path1539"
     style="fill:url(#paint0_linear_0_1)" />
  <g
     clip-path="url(#clip0_0_1)"
     id="g1553"
     transform="translate(-1.78906,-2.04102)">
    <path
       d="m 74.9995,63.0723 c -0.1862,0.1192 -0.1499,0.3362 -0.2044,0.5058 -0.5737,1.7754 -2.1192,3.0145 -3.9615,3.0466 -2.5098,0.0428 -5.0212,0.0214 -7.5325,0.0168 -0.5783,0 -0.9401,-0.3438 -0.9446,-0.8388 -0.0045,-0.5057 0.3815,-0.8663 0.987,-0.8678 2.3024,-0.0092 4.6079,-0.0627 6.9088,0.0137 1.9906,0.0672 3.0805,-1.3889 3.0715,-3.1154 -0.047,-9.2423 -0.0273,-18.4831 -0.0106,-27.7254 0,-0.5195 -0.1257,-0.6463 -0.6404,-0.6463 -17.7837,0.0153 -35.5674,0.0153 -53.3512,0 -0.5343,0 -0.6388,0.1558 -0.6312,0.657 0.0287,1.8472 0.0136,3.696 0.0106,5.5448 0,0.6967 -0.3361,1.1123 -0.8704,1.097 -0.5162,-0.0153 -0.8266,-0.4125 -0.8266,-1.0833 -0.0015,-4.4019 -0.009,-8.8038 0.0015,-13.2057 0.0076,-2.547 1.8695,-4.4569 4.3945,-4.46 14.0463,-0.0107 28.0925,-0.0061 42.1372,-0.0045 0.6767,0 1.043,0.3055 1.0445,0.8449 0,0.5561 -0.3814,0.8678 -1.0959,0.8678 -4.455,0.0031 -8.9101,0 -13.3666,0 -9.5155,0 -19.0296,0 -28.5451,0 -1.5244,0 -2.6128,0.8496 -2.8338,2.2415 -0.0711,0.4477 -0.0363,0.9121 -0.0378,1.369 -0.0046,1.2957 0.0212,2.5928 -0.0136,3.887 -0.0122,0.4568 0.1241,0.55 0.5555,0.55 9.458,-0.0122 18.916,-0.0091 28.3741,-0.0091 8.3635,0 16.7271,-0.0061 25.0892,0.0137 0.5116,0 0.6115,-0.136 0.6024,-0.6234 -0.0333,-1.5432 -0.006,-3.0863 -0.0136,-4.6295 -0.0076,-1.67 -1.1126,-2.7824 -2.7717,-2.7976 -0.8871,-0.0077 -1.7741,0.0046 -2.6612,-0.0031 -0.6645,-0.0061 -1.0339,-0.3285 -1.0309,-0.8724 0.003,-0.547 0.3573,-0.8358 1.046,-0.8388 0.9446,-0.0046 1.8877,-0.0153 2.8323,0.0061 2.0829,0.0443 3.7299,1.427 4.1825,3.4943 0.0167,0.0749 0.0167,0.1497 0.1045,0.1788 v 37.3863 z"
       fill="#22619c"
       id="path1543" />
    <path
       d="m 33.8649,26.1506 c 0.8583,-0.0153 1.5909,0.709 1.597,1.5768 0.006,0.8694 -0.7175,1.6043 -1.5758,1.6028 -0.8356,-0.0015 -1.5471,-0.7044 -1.5728,-1.5524 -0.0273,-0.8602 0.6902,-1.6119 1.5516,-1.6272 z"
       fill="#22619c"
       id="path1545" />
    <path
       d="m 30.6081,27.7869 c -0.0212,0.848 -0.7311,1.5462 -1.5667,1.5417 -0.8568,-0.0046 -1.5744,-0.7472 -1.5607,-1.6135 0.0136,-0.8755 0.7447,-1.589 1.6046,-1.5661 0.8673,0.0229 1.5455,0.7517 1.5243,1.6379 z"
       fill="#22619c"
       id="path1547" />
    <path
       d="m 22.6484,27.7455 c -0.003,-0.8831 0.7009,-1.5997 1.5653,-1.5951 0.8462,0.0046 1.5365,0.6952 1.5531,1.5539 0.0167,0.8816 -0.6751,1.6119 -1.5395,1.6272 -0.8568,0.0138 -1.5758,-0.7074 -1.5789,-1.5844 z"
       fill="#22619c"
       id="path1549" />
    <path
       d="m 59.4581,65.0129 c -0.2316,-0.107 -0.4798,-0.0825 -0.725,-0.0825 -3.1335,0 -6.267,-0.0352 -9.399,0.0229 -0.8553,0.0153 -1.4684,-0.2154 -1.9906,-0.8755 -0.1938,-0.2444 -0.2362,-0.3529 0,-0.5821 0.8144,-0.793 1.6091,-1.6089 2.4069,-2.4202 0.9218,-0.9366 0.7054,-1.9848 -0.5117,-2.4416 -4.8304,-1.8121 -9.6639,-3.615 -14.4913,-5.4363 -0.6403,-0.2414 -1.2155,-0.2689 -1.7257,0.2353 -0.5359,0.5271 -0.4874,1.1444 -0.2437,1.7953 0.6585,1.7586 1.3064,3.5203 1.9558,5.282 0.5359,1.4545 1.0687,2.9091 1.6243,4.4217 h -0.5147 c -4.7381,0 -9.4747,0.0031 -14.2128,0 C 19.749,64.9304 18.7,63.8563 18.7,61.9479 c 0,-5.9817 0,-11.965 0,-17.9468 0,-0.712 -0.3134,-1.097 -0.8689,-1.0848 -0.5314,0.0107 -0.8296,0.385 -0.8296,1.0665 -0.0015,6.078 0,12.1545 -0.0015,18.2325 0,0.4416 0.0636,0.8709 0.1892,1.2941 0.5874,1.9603 2.2222,3.1353 4.4127,3.1368 4.9636,0.0061 9.9288,0.0077 14.8924,-0.0076 0.3845,0 0.5601,0.1054 0.6827,0.4798 0.3088,0.9366 0.6646,1.8564 1.0142,2.7777 0.4269,1.1261 1.4669,1.3491 2.3222,0.4996 0.8204,-0.8159 1.6409,-1.6303 2.4371,-2.4691 0.2407,-0.2536 0.3679,-0.2582 0.6101,-0.0046 0.8371,0.8786 1.6924,1.7403 2.5597,2.5898 0.6358,0.6234 1.4094,0.6601 2.024,0.0825 0.6494,-0.6096 1.2745,-1.2467 1.8801,-1.9007 0.448,-0.4828 0.4828,-1.0512 0.1937,-1.6394 -0.062,-0.1253 -0.2346,-0.2139 -0.1544,-0.4064 2.8671,0 5.7357,0 8.6043,0 0.2073,0 0.4193,0.0107 0.6206,-0.0245 0.3996,-0.0703 0.6282,-0.3285 0.6676,-0.7364 0.0393,-0.4049 -0.1302,-0.6998 -0.5011,-0.8694 z m -11.2185,3.0848 c -0.3693,0.3209 -0.7099,0.9489 -1.0581,0.9458 -0.3557,-0.003 -0.71,-0.6066 -1.0566,-0.9549 -0.6706,-0.6708 -1.3352,-1.3461 -2.0027,-2.0184 -0.6888,-0.6937 -1.0279,-0.6982 -1.703,-0.0153 -0.9052,0.9152 -1.8059,1.835 -2.7838,2.8282 -1.7212,-4.6662 -3.4121,-9.2545 -5.1484,-13.9574 4.667,1.754 9.2098,3.4622 13.8223,5.1964 -0.9507,0.9549 -1.8559,1.8625 -2.7596,2.7731 -0.7191,0.7242 -0.7145,1.0573 0.0166,1.7984 0.8931,0.903 1.7741,1.8182 2.69,2.6982 0.2997,0.2873 0.274,0.4554 -0.0152,0.7059 z"
       fill="#22619c"
       id="path1551" />
  </g>
  <defs
     id="defs1578">
    <filter
       id="filter0_d_0_1"
       x="0.32906201"
       y="0.581016"
       width="97.428902"
       height="97.311699"
       filterUnits="userSpaceOnUse"
       color-interpolation-filters="sRGB">
      <feFlood
         flood-opacity="0"
         result="BackgroundImageFix"
         id="feFlood1555" />
      <feColorMatrix
         in="SourceAlpha"
         type="matrix"
         values="0 0 0 0 0 0 0 0 0 0 0 0 0 0 0 0 0 0 127 0"
         result="hardAlpha"
         id="feColorMatrix1557" />
      <feOffset
         dx="3.44"
         dy="3.44"
         id="feOffset1559" />
      <feGaussianBlur
         stdDeviation="2.45"
         id="feGaussianBlur1561" />
      <feColorMatrix
         type="matrix"
         values="0 0 0 0 0 0 0 0 0 0 0 0 0 0 0 0 0 0 0.15 0"
         id="feColorMatrix1563" />
      <feBlend
         mode="normal"
         in2="BackgroundImageFix"
         result="effect1_dropShadow_0_1"
         id="feBlend1565" />
      <feBlend
         mode="normal"
         in="SourceGraphic"
         in2="effect1_dropShadow_0_1"
         result="shape"
         id="feBlend1567" />
    </filter>
    <linearGradient
       id="paint0_linear_0_1"
       x1="45.603699"
       y1="89.553497"
       x2="45.603699"
       y2="2.02584"
       gradientUnits="userSpaceOnUse"
       gradientTransform="translate(-1.78906,-2.04102)">
      <stop
         stop-color="white"
         id="stop1570" />
      <stop
         offset="1"
         stop-color="#F1F2F6"
         id="stop1572" />
    </linearGradient>
    <clipPath
       id="clip0_0_1">
      <rect
         width="58"
         height="49"
         fill="#ffffff"
         transform="translate(17,22)"
         id="rect1575"
         x="0"
         y="0" />
    </clipPath>
  </defs>
</svg>
