<?xml version="1.0" encoding="UTF-8" standalone="no"?>
<svg
   width="87.629158"
   height="87.512489"
   viewBox="0 0 87.629158 87.512489"
   fill="none"
   version="1.1"
   id="svg1418"
   sodipodi:docname="window_alert.svg"
   inkscape:version="1.2.2 (732a01da63, 2022-12-09, custom)"
   xmlns:inkscape="http://www.inkscape.org/namespaces/inkscape"
   xmlns:sodipodi="http://sodipodi.sourceforge.net/DTD/sodipodi-0.dtd"
   xmlns="http://www.w3.org/2000/svg"
   xmlns:svg="http://www.w3.org/2000/svg">
  <sodipodi:namedview
     id="namedview1420"
     pagecolor="#ffffff"
     bordercolor="#000000"
     borderopacity="0.25"
     inkscape:showpageshadow="2"
     inkscape:pageopacity="0.0"
     inkscape:pagecheckerboard="0"
     inkscape:deskcolor="#d1d1d1"
     showgrid="false"
     inkscape:zoom="2.4081633"
     inkscape:cx="10.79661"
     inkscape:cy="46.923729"
     inkscape:window-width="1852"
     inkscape:window-height="1132"
     inkscape:window-x="1988"
     inkscape:window-y="31"
     inkscape:window-maximized="1"
     inkscape:current-layer="svg1418" />
  <path
     d="m 43.81456,87.51249 c 24.1981,0 43.8146,-19.5903 43.8146,-43.7562 C 87.62916,19.59039 68.01266,0 43.81456,0 19.61646,0 0,19.59039 0,43.75629 c 0,24.1659 19.61646,43.7562 43.81456,43.7562 z"
     fill="url(#paint0_linear_0_1)"
     id="path1379"
     style="fill:url(#paint0_linear_0_1)" />
  <g
     clip-path="url(#clip0_0_1)"
     id="g1391"
     transform="translate(-2.27734,-1.94141)">
    <path
       d="M 74.3774,24 C 64.9133,24 55.4441,24 45.9799,24 36.5157,24 27.0516,24 17.5874,24 16.3165,24 16,24.3148 16,25.5941 16,38.5314 16,51.4686 16,64.4059 16,65.6802 16.3165,66 17.5874,66 c 18.9283,0 37.8617,0 56.79,0 C 75.6936,66 76,65.6902 76,64.371 76,51.4587 76,38.5413 76,25.629 76,24.3098 75.6936,24 74.3774,24 Z M 38.6005,63.6664 c -0.4672,0.2199 -0.9344,0.1799 -1.2911,-0.1699 -1.7029,-1.659 -3.3757,-3.343 -5.0686,-5.012 -0.1809,-0.1749 -0.1708,-0.3048 0.0151,-0.4498 0.0351,-0.0299 0.0653,-0.0649 0.1004,-0.0949 0.4672,-0.4447 0.8992,-1.1943 1.4066,-1.2493 0.5275,-0.0549 0.9444,0.7646 1.4015,1.2043 1.2207,1.1943 2.4213,2.4086 3.637,3.6079 0.3064,0.2998 0.5476,0.6246 0.5375,1.1393 -0.0452,0.4347 -0.2662,0.8095 -0.7284,1.0244 z m -10.7,-13.9067 c -0.3014,-0.2949 -0.2963,-0.4448 -0.015,-0.7546 3.8128,-4.1925 6.3496,-9.0496 7.5803,-14.5813 0.0252,-0.1099 0.0704,-0.2149 0.1106,-0.3348 4.1895,4.1675 8.3288,8.2801 12.5033,12.4326 -0.8088,0.2199 -1.6226,0.4297 -2.4313,0.6596 -4.7171,1.3542 -8.8865,3.6928 -12.5235,6.9659 -0.3114,0.2798 -0.4772,0.3547 -0.8138,0.0099 -1.4518,-1.4891 -2.9236,-2.9482 -4.4156,-4.3973 z m 2.9136,6.586 c -0.7133,0.6896 -1.4015,1.3992 -2.1199,2.0788 -0.6681,0.6296 -1.4919,0.8845 -2.4363,0.9345 -1.4367,-0.1 -2.5771,-0.7296 -3.21,-2.0888 -0.633,-1.3542 -0.4571,-2.6634 0.5023,-3.7927 0.6682,-0.7896 1.4568,-1.4742 2.1752,-2.2187 0.216,-0.2199 0.3516,-0.2049 0.5576,0 1.512,1.5191 3.0291,3.0332 4.5562,4.5323 0.2311,0.2298 0.1759,0.3598 -0.0251,0.5546 z m -8.153,-25.2449 c 0,-0.3248 0.0351,-0.4797 0.437,-0.4797 3.7224,0.0199 7.4397,0.01 11.1621,0.0149 0.0352,0 0.0703,0.03 0.1758,0.08 -0.653,0.3298 -0.6781,0.9544 -0.7836,1.5241 -0.2914,1.5341 -0.6531,3.0482 -1.1253,4.5373 -0.1105,0.3498 -0.2511,0.4997 -0.6631,0.4947 -2.8884,-0.025 -5.7769,-0.02 -8.6654,0 -0.4069,0 -0.5526,-0.07 -0.5425,-0.5147 0.0301,-1.8839 0.0201,-3.7678 0.005,-5.6566 z m 46.6828,5.5916 c 0,0.4198 -0.0602,0.5847 -0.5475,0.5847 -6.7314,-0.02 -13.4679,-0.015 -20.1993,0 -0.3566,0 -0.5073,-0.1049 -0.6279,-0.4397 -1.1152,-3.0332 -4.6668,-3.8577 -7.0228,-1.6091 -0.427,0.4098 -0.6229,0.3848 -1.0097,-0.02 -1.4668,-1.5291 -2.9789,-3.0232 -4.5161,-4.5723 h 0.6481 c 10.8305,0 21.656,0 32.4866,-0.0099 0.5927,0 0.8238,0.0899 0.7987,0.7545 -0.0553,1.769 -0.0302,3.5429 -0.0101,5.3168 z M 46,38.1965 c -0.01,0.7246 -0.3918,1.2443 -0.8992,1.719 -0.1959,0.1849 -0.3064,0.11 -0.4521,-0.0399 -0.7987,-0.7996 -1.5975,-1.5991 -2.4062,-2.3936 -0.1306,-0.1299 -0.1809,-0.2149 -0.0503,-0.3998 0.4873,-0.7046 1.5121,-1.0843 2.3359,-0.8345 0.8992,0.2748 1.4819,1.0444 1.4719,1.9488 z m -7.7763,16.87 c 0.005,0.6196 -0.5023,1.0394 -0.9645,1.4891 -0.1356,0.1299 -0.2461,0.05 -0.3466,-0.0599 -0.0955,-0.1 -0.2009,-0.1899 -0.2914,-0.2949 -0.3566,-0.4047 -0.8389,-0.7045 -1.1001,-1.1943 0.6028,-0.4597 1.2056,-0.9244 1.8034,-1.3841 0.1256,-0.095 0.206,0 0.2914,0.0749 0.3617,0.3448 0.6128,0.7446 0.6078,1.3692 z m 35.561,8.1252 c 0,0.3648 0.0401,0.6196 -0.5124,0.6146 -10.5543,-0.02 -21.1085,-0.015 -31.6628,-0.015 -0.0653,0 -0.1356,-0.02 -0.2612,-0.035 0.7033,-2.0338 -0.4069,-3.363 -1.7733,-4.6172 -0.864,-0.7945 -0.8389,-0.8245 -0.1005,-1.669 1.2157,-1.3892 1.3112,-3.2431 0.206,-4.7622 -0.2562,-0.3548 -0.2461,-0.4647 0.1457,-0.6896 3.1195,-1.7789 6.4652,-2.9082 9.9866,-3.5529 0.226,-0.0399 0.4521,-0.0999 0.6782,-0.1299 0.5023,-0.0749 0.869,-0.3298 1.0197,-0.8145 0.1507,-0.4947 -0.0703,-0.8895 -0.422,-1.2343 -1.4115,-1.3941 -2.8081,-2.8083 -4.2347,-4.1875 -0.3265,-0.3148 -0.3567,-0.5047 0,-0.8045 0.3717,-0.3098 0.6982,-0.6946 0.854,-1.1593 0.1858,-0.5397 0.5023,-0.6696 1.0599,-0.6646 7.058,0.02 14.1209,0.015 21.1789,0.015 1.2809,0 1.6074,-0.3198 1.6074,-1.5741 0,-2.6734 0,-5.3418 0,-8.0102 0,-1.0944 -0.3616,-1.4641 -1.4417,-1.4641 -16.085,0 -32.1751,0 -48.2602,0 -1.0348,0 -1.4066,0.3747 -1.4116,1.4241 0,2.7384 0,5.4817 0,8.2201 0,1.0344 0.3818,1.4092 1.4267,1.4092 3.1698,0 6.3396,0 9.5847,0 -0.5475,1.3941 -1.2508,2.6434 -2.0144,3.8677 -1.2609,2.0238 -2.7629,3.8577 -4.4608,5.5317 -0.9846,0.9744 -1.9893,1.9338 -2.9337,2.9432 -2.14,2.2787 -2.135,5.6866 -0.0151,7.9403 2.1049,2.2387 5.5509,2.4535 7.9622,0.4647 0.3567,-0.2948 0.5425,-0.3298 0.8791,0.02 1.1353,1.1643 2.3108,2.2887 3.5918,3.5529 h -0.7837 c -4.928,0 -9.861,-0.01 -14.789,0.01 -0.5225,0 -0.6832,-0.0999 -0.6832,-0.6596 0.0201,-12.0878 0.0151,-24.1756 0,-36.2634 0,-0.5147 0.1005,-0.6796 0.6631,-0.6796 18.0794,0.015 36.1537,0.015 54.2331,0 0.5124,0 0.6882,0.0899 0.6882,0.6546 -0.0201,12.1128 -0.0151,24.2206 -0.0101,36.3334 z"
       fill="#232c61"
       id="path1383" />
    <path
       d="m 70.8613,50.5138 c -6.6409,0.025 -13.287,0.015 -19.928,0.015 -1.6075,0 -1.5823,0 -1.6125,1.5891 -0.01,0.5196 0.1256,0.6396 0.643,0.6346 3.4963,-0.025 6.9876,-0.015 10.4839,-0.015 h 9.5798 c 1.5321,0 1.502,0 1.5421,-1.5191 0.0151,-0.5797 -0.1356,-0.7096 -0.7133,-0.7046 z"
       fill="#232c61"
       id="path1385" />
    <path
       d="m 70.9283,54.9318 c -3.4712,0.025 -6.9424,0.015 -10.4136,0.015 h -9.6501 c -1.5321,0 -1.502,0 -1.5472,1.5191 -0.0151,0.5796 0.1356,0.7096 0.7133,0.7046 6.641,-0.025 13.287,-0.015 19.928,-0.015 1.6075,0 1.5824,0 1.6126,-1.5891 0.01,-0.5197 -0.1206,-0.6396 -0.643,-0.6346 z"
       fill="#232c61"
       id="path1387" />
    <path
       d="m 54.4052,48.3305 c 5.1591,-0.02 10.3232,-0.015 15.4823,-0.015 1.6879,0 1.6678,0 1.6778,-1.659 0,-0.4548 -0.1206,-0.5647 -0.5676,-0.5647 -2.778,0.02 -5.556,0.01 -8.3339,0.01 h -7.289 c -1.6075,0 -1.5824,0 -1.6126,1.589 -0.01,0.5197 0.1256,0.6347 0.643,0.6347 z"
       fill="#232c61"
       id="path1389" />
  </g>
  <defs
     id="defs1416">
    <filter
       id="filter0_d_0_1"
       x="0.81734401"
       y="0.481406"
       width="97.428902"
       height="97.311699"
       filterUnits="userSpaceOnUse"
       color-interpolation-filters="sRGB">
      <feFlood
         flood-opacity="0"
         result="BackgroundImageFix"
         id="feFlood1393" />
      <feColorMatrix
         in="SourceAlpha"
         type="matrix"
         values="0 0 0 0 0 0 0 0 0 0 0 0 0 0 0 0 0 0 127 0"
         result="hardAlpha"
         id="feColorMatrix1395" />
      <feOffset
         dx="3.44"
         dy="3.44"
         id="feOffset1397" />
      <feGaussianBlur
         stdDeviation="2.45"
         id="feGaussianBlur1399" />
      <feColorMatrix
         type="matrix"
         values="0 0 0 0 0 0 0 0 0 0 0 0 0 0 0 0 0 0 0.15 0"
         id="feColorMatrix1401" />
      <feBlend
         mode="normal"
         in2="BackgroundImageFix"
         result="effect1_dropShadow_0_1"
         id="feBlend1403" />
      <feBlend
         mode="normal"
         in="SourceGraphic"
         in2="effect1_dropShadow_0_1"
         result="shape"
         id="feBlend1405" />
    </filter>
    <linearGradient
       id="paint0_linear_0_1"
       x1="46.0919"
       y1="89.453903"
       x2="46.0919"
       y2="1.92623"
       gradientUnits="userSpaceOnUse"
       gradientTransform="translate(-2.27734,-1.94141)">
      <stop
         stop-color="white"
         id="stop1408" />
      <stop
         offset="1"
         stop-color="#F1F2F6"
         id="stop1410" />
    </linearGradient>
    <clipPath
       id="clip0_0_1">
      <rect
         width="60"
         height="42"
         fill="#ffffff"
         transform="translate(16,24)"
         id="rect1413"
         x="0"
         y="0" />
    </clipPath>
  </defs>
</svg>
