<svg width="1900" height="1046" viewBox="0 0 1900 1046" fill="none" xmlns="http://www.w3.org/2000/svg">
<g clip-path="url(#clip0_3208_1216)">
<path d="M1372.49 754.421C1372.12 746.908 1371.41 741.463 1368.51 736.607C1366.74 733.63 1362.95 733.41 1360.98 736.224C1359.42 738.455 1358.43 741.075 1357.01 743.411C1352.28 751.161 1347.67 758.842 1337.76 761.341C1332.61 762.643 1328.8 768.009 1331.34 774.419C1331.84 775.695 1332.3 777.013 1332.55 778.352C1333.69 784.363 1334.32 790.37 1330.93 795.956C1329.56 798.219 1329.34 800.676 1329.85 803.123C1331.3 810.095 1333.16 816.962 1332.94 824.223C1332.84 827.494 1335.39 829.537 1338.76 830.161C1345.2 831.353 1349.45 829.437 1352.37 823.583C1353.83 820.653 1354.94 817.508 1355.88 814.363C1360.39 799.395 1364.9 784.421 1369.17 769.384C1370.74 763.872 1371.67 758.17 1372.49 754.416V754.421Z" fill="#F6F7FB" stroke="#F6F7FB" stroke-width="1.5" stroke-miterlimit="10"/>
<path d="M1269.38 422.148C1265.24 422.919 1260.98 424.048 1257.33 420.121C1256.71 419.449 1255.25 419.123 1254.27 419.271C1246.6 420.405 1238.96 421.628 1233.99 428.684C1232.74 430.469 1231.25 432.139 1229.64 433.609C1229.05 434.15 1227.79 433.966 1226.33 434.197C1227.32 429.981 1230.41 428.401 1232.6 426.117C1234.83 423.796 1237.76 422.011 1238.76 418.073C1237.18 417.375 1235.81 416.32 1234.38 416.231C1230 415.958 1225.59 415.895 1221.2 416.057C1216.68 416.231 1212.49 415.338 1208.43 413.401C1205.49 411.999 1202.45 410.823 1200.06 409.799C1195.94 411.091 1194.89 414.067 1193.46 416.682C1191.86 419.57 1190.55 422.625 1188.76 425.377C1186.01 429.582 1183.6 430.133 1178.92 428.101C1175.91 426.794 1173.02 425.125 1169.9 424.174C1166.4 423.108 1163.16 421.659 1160.43 419.323C1155.92 415.459 1150.68 413.18 1144.99 411.868C1138.01 410.251 1133.54 404.528 1127.51 401.372C1127.29 401.257 1127.15 400.968 1126.98 400.753C1125.51 398.8 1126.26 396.059 1128.62 395.413C1130.95 394.773 1133.36 394.431 1135.92 393.927C1137.81 388.787 1136.29 384.503 1133.63 380.534C1131.35 377.153 1127.97 375.273 1123.92 375.053C1121.48 374.921 1118.99 375.252 1116.55 375.557C1111.39 376.203 1106.26 377.19 1101.08 377.615C1096.71 377.972 1092.28 377.914 1087.89 377.709C1083.37 377.499 1079.13 378.25 1075.03 380.056C1068.24 383.054 1061.4 385.937 1054.69 389.092C1048.87 391.822 1043.1 393.875 1036.46 392.436C1032.88 391.659 1029.38 392.604 1026.37 394.957C1021.82 398.495 1017.18 401.913 1012.66 405.483C1011.6 406.318 1010.76 407.484 1010.02 408.628C1007 413.317 1004.93 418.367 1004.58 424.001C1004.43 426.196 1004.43 428.401 1004.23 430.59C1003.9 434.145 1002.21 436.764 998.863 438.287C996.111 439.537 993.417 440.912 990.713 442.272C978.587 448.367 977.615 449.628 973.367 462.59C971.398 468.586 969.649 474.766 966.734 480.294C963.626 486.19 963.531 491.624 965.595 497.688C967.092 502.083 968.011 506.698 968.919 511.266C969.749 515.455 968.793 519.472 966.829 523.226C964.025 528.571 961.163 533.879 958.206 539.418C961.64 543.833 962.497 548.831 961.541 554.213C961.399 555.016 961.462 555.856 961.451 556.68C961.425 559.337 962.444 561.568 964.613 563.06C966.64 564.456 968.788 565.711 971.004 566.777C973.724 568.084 976.549 569.187 979.375 570.263C984.269 572.127 987.572 575.319 989.541 580.333C991.941 586.46 994.929 592.366 997.802 598.305C998.747 600.258 999.882 602.232 1001.35 603.807C1005.09 607.834 1008.99 611.724 1012.99 615.489C1014.29 616.712 1016.12 617.374 1017.88 618.392C1018.86 617.148 1019.83 616.407 1020.11 615.457C1021.54 610.653 1025.2 609.241 1029.61 609.089C1033.45 608.952 1037.31 609.041 1041.15 609.152C1044.45 609.246 1047.74 609.587 1051.04 609.671C1055.7 609.787 1059.61 608.007 1062.7 604.516C1064.35 602.662 1065.98 600.804 1067.55 598.887C1069.22 596.85 1071.33 595.737 1073.94 595.611C1076.14 595.506 1078.34 595.322 1080.53 595.443C1087.79 595.847 1093.04 599.181 1095.7 606.154C1096.38 607.949 1096.99 609.787 1097.83 611.514C1100.02 616.024 1103.41 617.468 1107.96 615.588C1109.95 614.764 1111.68 613.305 1113.54 612.155C1114.87 611.33 1116.22 610.543 1117.58 609.729C1120.33 611.792 1122.87 613.457 1125.12 615.452C1128.57 618.513 1129.07 621.043 1126.19 624.776C1122.95 628.971 1122 633.565 1121.75 638.616C1121.6 641.609 1121.03 644.601 1120.41 647.547C1118.93 654.608 1119.02 655.359 1125.29 658.74C1129.17 660.83 1131.74 663.754 1133.3 667.734C1134.3 670.291 1135.33 672.843 1136.23 675.436C1137.95 680.366 1139.3 685.443 1141.36 690.221C1142.93 693.88 1143.75 697.498 1143.45 701.404C1142.94 708.098 1143.55 714.53 1146.81 720.61C1149.26 725.198 1148.91 729.446 1144.78 733.273C1140.42 737.326 1137.88 742.655 1137.01 748.446C1135.55 758.049 1135.4 767.804 1139.2 776.908C1143.74 787.776 1147.96 798.928 1156.22 807.801C1157.34 808.998 1158.19 810.442 1159.15 811.78C1162.12 815.886 1162.61 820.375 1161.14 825.127C1160.49 827.227 1159.78 829.316 1158.95 831.348C1157.28 835.428 1157.18 839.292 1159.78 843.109C1162.09 846.506 1163.99 850.197 1166.43 853.494C1168.76 856.644 1170.68 859.925 1171.54 863.737C1172.72 869.092 1173.77 874.474 1174.82 879.855C1175.3 882.281 1175.54 884.754 1176.06 887.164C1177.11 892.052 1180.84 894.325 1185.09 895.932C1188.66 897.281 1191.25 895.533 1194.03 893.375C1200.76 888.146 1208.36 885.4 1217.1 886.444C1219.8 886.77 1222.6 886.544 1225.34 886.402C1229.91 886.161 1233.88 884.392 1237.15 881.205C1238.92 879.483 1240.66 877.697 1242.21 875.781C1249.14 867.239 1255.94 858.597 1262.89 850.076C1266.53 845.624 1267.72 841.219 1264.93 835.69C1260.44 826.78 1262.79 825.552 1271.11 823.163C1274.74 822.123 1278.72 821.598 1281.72 818.327C1281.79 817.172 1282.17 815.771 1281.92 814.484C1281 809.633 1280.16 804.735 1278.74 800.02C1277.27 795.142 1278.03 790.968 1280.67 786.705C1284.33 780.778 1288.85 775.722 1294.13 771.212C1297.88 768.009 1301.41 764.517 1304.84 760.963C1311.16 754.411 1313.74 746.698 1312.17 737.536C1311.58 734.071 1311.11 730.165 1312.12 726.947C1313.86 721.418 1312.4 717.312 1308.78 713.411C1306.49 710.933 1305.13 707.962 1304.34 704.691C1303.45 700.953 1302.1 697.283 1301.62 693.497C1300.79 686.85 1301.02 679.946 1305.55 674.691C1309.54 670.07 1312.75 665.009 1316.3 660.126C1321.3 653.233 1326.4 646.397 1331.66 639.692C1334.72 635.786 1338.39 632.626 1343.15 630.578C1348.92 628.095 1353.41 623.537 1355.27 617.673C1357.89 609.377 1362.38 602.195 1366.93 595.034C1372.69 585.966 1374.62 575.734 1376.93 565.569C1377.05 565.044 1377.01 564.477 1377.01 563.926C1377 561.358 1375.32 559.605 1372.84 560.035C1369.88 560.55 1366.87 561.175 1364.09 562.267C1358.46 564.472 1352.95 566.955 1347.44 569.449C1342.9 571.507 1338.34 573.387 1333.2 572.878C1329.49 572.51 1327.89 570.835 1327.64 567.013C1327.46 564.288 1328.01 561.301 1327.06 558.886C1324.65 552.738 1321.49 546.826 1316.34 542.478C1311.8 538.641 1308.48 534.02 1306.26 528.623C1304.53 524.402 1301.79 521.099 1298.27 518.327C1295.9 516.453 1293.56 514.537 1291.2 512.641C1288 510.074 1286.3 506.803 1286.34 502.645C1286.38 498.523 1286.32 494.397 1286.33 490.27C1286.35 485.823 1285.71 481.528 1283.96 477.391C1279.89 467.772 1275.9 458.122 1271.93 448.467C1271.54 447.522 1271.5 446.435 1271.21 444.986C1273.84 444.241 1276.14 443.448 1278.51 442.944C1279.39 442.755 1280.17 442.86 1280.88 443.128C1278.86 436.612 1274.17 424.237 1271.8 418.803C1271.02 419.901 1270.22 421.008 1269.35 422.153L1269.38 422.148ZM1272.27 645.746C1272.19 652.729 1269.42 658.467 1263.77 662.641C1262.54 663.55 1260.83 663.135 1260.28 661.744C1259.3 659.26 1258.78 656.604 1258.39 655.165C1258.67 652.241 1258.7 650.581 1259.01 648.975C1260 643.719 1263.9 641.199 1269.28 642.333C1271.05 642.706 1272.3 643.914 1272.28 645.751L1272.27 645.746Z" fill="#F6F7FB" stroke="#F6F7FB" stroke-width="1.5" stroke-miterlimit="10"/>
<path d="M731.064 152.394C730.839 153.644 730.923 154.337 730.613 154.683C726.144 159.755 726.59 165.11 729.536 170.676C730.177 171.888 730.644 173.19 731.211 174.44C732.151 176.509 733.548 178.126 735.691 179.055C737.156 179.69 738.574 180.436 740.05 181.155C739.834 182.499 739.262 183.68 739.567 184.557C741.284 189.514 743.384 194.123 748.158 197.21C752.275 199.878 755.93 203.274 759.753 206.393C760.977 207.391 762.09 208.525 763.324 209.669C764.905 209.024 766.149 208.493 767.415 208C768.864 207.443 770.324 206.923 771.994 206.304C772.651 207.763 773.081 208.74 773.528 209.706C776.08 215.224 779.682 216.159 784.477 212.546C787.964 209.921 790.028 206.619 790.043 202.067C790.054 199.127 789.524 195.977 791.645 193.572C792.034 193.304 792.249 193.042 792.491 193.015C793.305 192.921 794.129 192.952 794.943 192.863C799.281 192.401 800.163 191.43 800.005 187.214C799.906 184.526 798.651 181.796 800.389 179.155C803.818 177.532 807.515 176.257 810.666 174.167C814.368 171.71 818.139 171.132 822.398 171.489C826.173 171.804 830.033 172.529 833.872 171.075C835.657 167.956 837.453 164.874 839.202 161.766C841.266 158.091 844.091 155.875 848.581 156.694C849.117 156.794 849.684 156.726 850.225 156.789C860.071 157.912 869.382 156.258 878.126 151.523C881.324 149.79 884.711 148.84 888.414 149.055C889.443 149.113 890.498 148.661 891.58 148.441C889.443 142.697 888.587 141.778 883.094 139.174C878.063 136.79 876.687 132.994 878.992 126.988C884.843 128.92 890.483 130.847 890.971 138.439C890.987 138.701 891.113 138.969 891.218 139.221C892.599 142.681 895.813 144.078 899.268 142.728C902.839 141.332 904.346 138.413 903.097 134.816C902.015 131.708 900.586 128.721 899.457 125.628C898.706 123.57 897.971 121.46 897.635 119.307C896.926 114.745 899.977 111.731 904.504 112.686C907.707 113.364 910.758 114.755 913.93 115.632C915.663 116.11 917.507 116.194 919.549 116.488C920.61 113.033 919.975 109.983 920.348 107.037C920.689 104.323 920.941 101.514 921.886 98.9937C922.895 96.3003 924.664 93.8957 926.045 91.4648C925.331 90.8138 924.969 90.1943 924.528 90.1313C921.849 89.7532 919.849 88.5194 918.972 85.8838C918.074 83.1852 917.963 80.4025 919.381 77.8824C920.447 75.987 921.781 74.181 923.278 72.6111C931.213 64.2895 938.35 55.0805 949.294 50.1452C952.324 48.7802 954.55 46.029 954.981 42.5008C955.128 41.3038 954.739 39.5239 953.91 38.8047C948.59 34.2002 937.704 34.1634 932.342 38.6209C930.661 40.0227 929.249 41.7396 927.658 43.2569C926.072 44.7742 924.543 46.4018 922.763 47.6566C917.575 51.3265 912.145 50.4392 908.343 45.2887C907.051 43.5404 906.158 41.4928 905.155 39.5397C904.026 37.3398 903.238 34.93 901.862 32.9034C898.838 28.4564 897.325 23.6104 896.669 18.3181C896.275 15.1417 896.27 11.687 893.591 8.89389C892.095 8.89389 890.483 8.86239 888.87 8.89914C886.696 8.9464 884.47 9.39267 882.364 9.05665C876.388 8.10635 870.963 9.33492 865.654 12.0808C863.537 13.1781 860.927 14.3227 858.717 14.0444C853.806 13.4301 849.527 14.7847 845.131 16.5015C838.115 19.2369 830.91 19.0794 822.041 17.5568C825.953 15.651 828.741 15.9713 831.315 15.483C834.014 14.9685 836.745 14.6377 839.444 14.1442C841.875 13.6979 844.286 13.1466 846.701 12.6163C849.385 12.0283 852.126 11.6135 854.726 10.763C857.204 9.95445 860.334 10.6737 862.382 7.64433C861.468 6.93554 860.754 5.95374 859.872 5.75948C851.281 3.90089 842.694 2.00029 834.04 0.467217C829.156 -0.399077 824.204 0.0156941 819.278 0.934491C815.245 1.68528 811.123 1.98454 807.027 2.35206C802.374 2.76683 797.705 2.99259 793.052 3.36011C789.151 3.66988 785.475 4.80919 782.193 6.93554C778.228 9.50817 774.042 11.5243 769.41 12.4693C766.123 13.1414 764.175 15.1575 762.83 18.0871C761.806 20.3342 760.693 22.5656 759.343 24.6237C758.519 25.889 757.175 26.813 756.198 27.7633C752.811 26.4403 752.401 23.3636 750.742 21.2635C749.959 20.2712 748.809 19.5677 747.979 18.8641C744.907 20.2345 744.135 22.4921 744.004 25.0962C743.894 27.2908 743.978 29.5064 743.72 31.6853C743.169 36.2845 740.528 39.0567 736.022 40.2485C731.826 41.3563 727.935 40.7473 723.98 39.1092C721.228 37.9699 718.298 36.8463 715.378 36.6415C710.741 36.3108 706.015 36.442 701.389 36.9566C696.211 37.5341 691.09 38.7049 686.354 41.078C683.455 42.5323 681.538 44.2544 682.173 48.1186C682.609 50.7858 680.362 52.7914 677.778 52.9804C676.712 53.0591 675.609 52.8334 674.538 52.6654C667.616 51.5943 663.688 54.4294 662.596 61.2863C662.381 62.6356 662.239 64.0164 661.808 65.2975C660.947 67.8544 659.235 69.482 656.363 69.5082C655.538 69.5135 654.714 69.4872 653.889 69.4715C650.47 69.3927 647.656 70.9573 646.826 74.0864C645.361 79.6202 640.981 81.0536 636.507 82.3819C634.181 83.0749 631.628 83.0171 629.176 83.2902C626.545 83.5842 623.793 83.5474 621.866 85.3535C621.834 87.5534 622.974 88.3777 624.266 88.8134C625.542 89.2492 626.949 89.5065 628.294 89.496C632.857 89.4645 636.103 91.6433 638.665 95.2083C639.947 96.9881 641.244 98.7889 642.756 100.364C644.594 102.286 647.414 102.396 649.468 100.574C650.654 99.5187 651.526 98.0592 652.366 96.6783C653.159 95.371 653.732 93.9324 654.53 92.2891C659.125 98.5264 659.188 98.5527 666.272 97.8806C666.818 97.8281 667.364 97.7704 667.911 97.6864C672.873 96.9146 677.704 97.5394 682.636 98.4004C690.324 99.7497 697.235 103.136 704.487 105.651C710.915 107.877 714.433 112.13 715.184 118.855C715.735 123.77 716.423 128.668 717.117 133.567C717.295 134.832 717.201 136.397 719.369 136.727C722.027 135.415 723.35 132.606 725.115 130.222C726.364 128.537 727.882 127.681 730.04 127.933C735.444 128.558 737.734 132.795 740.265 136.706C742.57 140.271 744.319 143.978 741.604 148.157C741.462 148.378 741.184 148.509 740.549 149.018C739.178 148.288 737.623 147.454 736.258 146.729C736.095 142.692 738.122 139.195 736.069 135.42C732.241 134.249 728.134 133.309 724.81 136.806C721.244 140.555 720.908 145.07 722.956 150.089C725.456 150.798 728.045 151.538 731.075 152.399L731.064 152.394Z" fill="#2F9FEE"/>
<path d="M471.864 80.791C470.856 84.881 472.305 86.6503 474.684 87.9891C481.148 91.6223 487.461 95.5915 494.865 97.1613C498.436 97.9174 501.55 99.398 504.176 102.081C510.662 108.707 519.08 110.408 527.729 109.526C536.31 108.649 544.723 108.985 553.225 109.867C557.594 110.319 562.01 110.529 566.395 110.46C568.8 110.424 571.242 109.736 573.579 109.053C574.871 108.675 575.9 107.641 575.612 106.003C571.101 103.115 566.936 101.75 561.816 101.703C548.351 101.577 534.881 101.435 521.417 101.488C517.93 101.498 514.931 100.753 512.263 98.5107C511.003 97.4501 509.512 96.6573 508.304 95.5443C502.065 89.8162 494.75 86.3563 486.494 84.608C481.731 83.5999 477.052 82.1613 471.853 80.791H471.864Z" fill="#2F9FEE"/>
<path d="M454.345 107.148C459.381 107.877 462.979 107.431 465.746 103.945C468.991 99.8601 467.7 95.891 462.553 94.8777C461.23 94.6151 459.822 94.7149 458.457 94.7149C453.237 94.6991 448.017 94.6834 442.802 94.7149C440.334 94.7306 437.845 94.6886 435.398 94.9669C429.873 95.5864 428.76 96.8728 428.718 102.233C428.702 104.155 428.839 106.076 428.786 107.993C428.744 109.536 429.269 111.033 430.75 111.048C431.848 111.064 433.161 110.025 434.012 109.111C434.92 108.14 435.24 106.638 436.102 105.599C436.937 104.591 438.029 103.346 439.189 103.126C444.882 102.044 450.785 100.663 454.361 107.148H454.345Z" fill="#2F9FEE"/>
<path d="M455.657 124.878C456.503 126.857 457.222 128.296 457.742 129.808C460.405 137.463 465.089 136.964 469.826 131.829C470.745 130.831 471.779 129.808 472.294 128.595C472.898 127.167 473.407 125.476 473.239 123.98C472.557 117.758 469.779 115.291 463.435 115.831C457.501 116.335 451.635 117.648 445.617 117.16C445.107 117.118 444.551 117.359 444.046 117.559C442.292 118.241 441.573 119.585 441.773 121.412C442.046 123.933 443.579 125.67 445.926 125.634C448.899 125.586 451.866 125.187 455.652 124.872L455.657 124.878Z" fill="#2F9FEE"/>
<path d="M606.567 500.093C604.782 495.615 602.377 492.559 598.202 492.05C592.121 491.315 587.562 488.044 583.02 484.405C580.919 482.725 578.593 481.082 576.093 480.179C568.027 477.265 560.449 479.743 553.076 483.035C552.562 483.266 552.152 484.484 552.262 485.141C552.372 485.786 553.139 486.663 553.759 486.8C555.345 487.146 557.004 487.256 558.632 487.251C563.301 487.23 567.969 487.162 572.633 487.004C576.655 486.873 579.985 488.023 583.135 490.753C586.848 493.971 591.076 496.618 595.188 499.342C598.485 501.527 602.014 502.661 606.557 500.083L606.567 500.093Z" fill="#2F9FEE"/>
<path d="M614.75 511.596C615.827 512.363 616.226 512.893 616.662 512.919C621.624 513.245 626.34 514.148 630.441 517.314C632.353 518.789 634.548 518.023 636.691 517.298C641.144 515.797 641.17 515.875 646.091 517.02C647.162 513.382 646.81 510 644.3 507.055C641.721 504.026 638.424 502.24 634.427 501.847C626.03 501.012 619.623 504.246 614.75 511.596Z" fill="#2F9FEE"/>
<path d="M458.955 87.4537C458.976 82.0564 457.254 77.9297 452.627 75.7456C444.414 71.8709 435.67 72.3172 426.937 73.2832C426.675 73.3147 426.423 73.4617 426.171 73.5667C424.469 74.2545 423.246 76.2496 423.361 78.1345C423.471 79.9826 424.522 81.4106 426.144 81.7781C428.486 82.3032 430.955 82.4817 433.36 82.4187C436.301 82.3399 439.236 81.8517 441.967 81.5629C446.373 87.9997 452.239 88.425 458.95 87.4537H458.955Z" fill="#2F9FEE"/>
<path d="M487.638 124.006C492.543 123.313 497.438 122.636 502.327 121.917C502.847 121.838 503.351 121.56 503.829 121.313C505.887 120.257 506.186 116.945 504.201 115.816C502.064 114.603 499.827 113.5 497.506 112.708C496.303 112.298 494.591 112.214 493.525 112.776C489.912 114.676 486.388 116.787 483.033 119.113C481.31 120.305 482.224 122.93 484.388 123.46C485.443 123.717 486.541 123.828 487.633 124.006H487.638Z" fill="#2F9FEE"/>
<path d="M394.924 82.2927C395.097 76.7694 392.865 74.9948 388.407 77.0057C383.938 79.0218 379.642 81.4317 375.388 83.8783C374.674 84.2878 374.139 85.7946 374.265 86.6924C374.48 88.2097 375.871 88.9658 377.342 88.6245C381.643 87.6217 385.828 87.0337 390.171 88.74C391.983 89.4541 393.936 87.8212 394.393 85.8156C394.698 84.4926 394.803 83.1222 394.924 82.2927Z" fill="#2F9FEE"/>
<path d="M33.7988 268.036C41.5815 269.102 43.3932 269.045 46.7857 267.632C47.7467 267.233 48.9913 266.666 49.3431 265.847C50.0626 264.157 50.4459 262.266 50.6402 260.429C50.8503 258.429 51.1916 256.239 49.007 254.134C48.0933 255.226 47.1112 255.882 46.9222 256.717C45.8877 261.216 42.9889 263.506 38.6722 264.613C37.3488 264.955 36.2723 266.251 33.8093 268.031L33.7988 268.036Z" fill="#2F9FEE"/>
<path d="M16.7362 271.113C10.9176 266.666 5.58214 267.065 0.209914 268.157C-1.03993 268.409 -2.31603 269.186 -1.93268 271.418C3.83866 275.356 9.74129 274.678 16.7362 271.113Z" fill="#2F9FEE"/>
<path d="M596.553 521.751C596.391 521.247 596.212 520.155 595.718 519.23C594.904 517.718 593.581 516.448 591.811 517.136C590.714 517.561 589.705 518.768 589.154 519.871C588.723 520.732 588.881 522.003 589.07 523.042C589.453 525.142 591.354 526.607 593.051 526.303C594.889 525.972 596.433 524.213 596.559 521.751H596.553Z" fill="#2F9FEE"/>
<path d="M492.187 106.649C491.468 103.409 489.052 102.322 486.258 101.803C483.764 101.341 481.322 102.763 481.148 104.638C481.001 106.26 482.23 107.473 484.956 108.176C487.582 108.854 490.296 109.652 492.187 106.649Z" fill="#2F9FEE"/>
<path d="M664.57 516.227C664.701 512.589 663.094 510.457 660.71 510.326C658.504 510.205 656.887 512.625 657.354 515.629C657.512 516.637 658.005 517.666 658.599 518.506C659.476 519.745 660.967 520.091 662.107 519.22C663.262 518.338 664.013 516.925 664.565 516.227H664.57Z" fill="#2F9FEE"/>
<path d="M45.0938 215.282C46.4854 217.86 48.3969 219.346 51.0121 218.332C52.7819 217.65 53.8059 215.865 52.8816 213.423C50.0144 212.431 47.3991 212.641 45.0938 215.277V215.282Z" fill="#2F9FEE"/>
<path d="M593.46 469.358C593.502 467.851 592.058 466.46 590.23 466.234C588.518 466.024 586.874 467.274 586.743 468.896C586.612 470.534 587.977 471.852 589.873 471.92C591.842 471.989 593.418 470.865 593.454 469.358H593.46Z" fill="#2F9FEE"/>
<path d="M577.259 198.786C574.785 198.786 573.042 200.135 573.247 201.432C573.499 202.981 574.68 203.584 576.062 203.726C577.821 203.905 579.769 202.387 579.281 201.117C578.882 200.077 577.747 199.316 577.259 198.786Z" fill="#2F9FEE"/>
<path d="M561.999 196.113C561.573 194.139 559.578 193.136 557.472 193.829C556.826 194.045 556.054 194.785 555.928 195.399C555.823 195.93 556.432 196.995 556.952 197.179C558.149 197.594 559.499 197.799 560.754 197.704C561.237 197.667 561.641 196.586 561.988 196.113H561.999Z" fill="#2F9FEE"/>
<path d="M741.095 301.334C739.205 297.37 737.188 293.459 735.103 289.589C734.111 287.746 732.325 286.638 730.298 287.064C725.084 288.161 721.534 285.609 718.083 282.454C720.079 275.524 725.047 270.3 726.901 263.217C725.477 262.309 724.259 261.138 722.82 260.686C718.414 259.3 714.948 257.169 713.158 252.543C712.412 250.616 710.474 249.11 708.967 247.524C706.572 245.009 703.742 243.733 700.097 244.169C697.44 244.489 694.709 244.232 691.915 244.232C688.796 237.664 688.061 230.534 683.193 225.284C678.603 220.333 675.668 213.901 669.55 209.538C667.832 211.25 666.21 212.657 664.844 214.274C663.432 215.954 662.36 217.907 660.979 219.619C657.996 223.32 654.546 225.552 649.526 223.31C647.803 222.543 645.719 222.596 643.959 221.892C642.484 221.299 641.055 220.328 639.937 219.193C638.676 217.918 638.513 216.175 639.763 214.72C641.312 212.925 643.025 211.271 645.004 209.207C641.906 206.162 638.54 205.212 635 204.881C630.201 204.435 626.031 202.744 622.113 199.915C619.955 198.355 617.298 196.959 614.714 196.607C607.336 195.594 599.989 196.455 592.632 197.673C591.907 199.993 590.956 201.778 590.857 203.611C590.615 207.958 590.778 212.331 590.778 216.679C588.777 217.949 587.049 219.046 585.505 220.028C589.097 224.003 592.584 227.494 595.635 231.332C598.429 234.85 598.23 238.336 595.352 241.78C593.246 244.3 590.82 246.558 587.07 247.083C585.82 246.117 584.581 245.062 583.242 244.148C582.076 243.35 580.616 242.72 579.624 244.143C579.135 244.846 579.435 246.117 579.435 247.135C579.435 247.377 579.655 247.639 579.829 247.849C583.904 252.774 584.046 259.038 585.526 264.829C585.857 266.115 585.789 267.564 585.61 268.903C585.28 271.365 583.347 272.73 580.065 272.604C577.166 272.494 573.721 273.234 572.324 269.496C571.978 268.572 572.319 267.37 572.435 266.309C572.608 264.703 573.117 263.08 573.002 261.505C572.918 260.387 572.041 259.327 571.81 258.833C569.452 258.518 569.226 261.584 566.647 260.062C565.655 256.712 564.547 253.058 563.497 249.388C561.643 242.904 558.655 241.192 552.022 242.069C547.979 242.604 543.762 242.925 539.75 242.4C532.377 241.434 525.161 239.491 518.749 235.48C514.816 233.012 510.772 231.962 506.182 233.175C504.969 233.495 503.599 233.222 501.939 233.222C500.889 228.318 498.373 224.57 494.676 222.391C494.351 218.149 494.466 214.505 493.689 211.061C492.912 207.606 493.81 205.275 496.378 203.096C501.818 198.476 507.08 193.64 512.552 189.052C516.591 185.671 521.243 184.484 526.416 186.169C528.118 186.726 529.819 187.277 531.883 187.944C532.77 183.791 532.86 179.985 535.128 175.69C537.05 179.486 540.768 180.342 542.044 183.843C541.399 184.831 540.721 185.676 540.264 186.631C539.844 187.503 539.66 188.49 539.34 189.519C545.138 190.07 545.153 190.107 548.483 188.542C550.473 187.608 552.343 186.411 554.37 185.566C559.994 183.219 561.758 183.864 564.941 189.172C565.361 189.876 565.681 190.664 566.206 191.283C567.377 192.664 568.9 193.089 570.649 192.538C573.548 191.63 575.696 189.603 575.627 187.634C575.538 185.056 573.558 183.938 571.615 182.851C571.138 182.583 570.675 182.247 570.166 182.074C564.368 180.095 559.379 176.819 554.774 171.899C549.848 175.637 545.395 172.172 540.705 171.185C540.317 171.106 539.76 170.319 539.818 169.946C539.928 169.258 540.28 168.318 540.816 168.045C543.967 166.434 547.317 166.99 550.468 167.888C557.836 169.993 563.838 166.218 570.077 163.593C572.198 162.701 572.902 159.986 571.799 157.902C571.064 156.505 569.898 155.261 568.711 154.185C567.367 152.967 565.781 152.016 564.038 150.762C569.063 143.091 576.736 146.393 582.507 145.333C584.623 144.115 583.379 140.97 586.666 140.912C587.595 142.582 588.62 144.414 589.596 146.168C590.3 146.257 590.862 146.451 591.377 146.367C594.885 145.784 598.335 146.089 599.795 149.711C601.181 153.161 599.196 156.054 596.644 158.422C596.245 158.794 595.683 159.01 595.336 159.419C594.732 160.128 594.244 160.931 593.398 162.128C597.789 163.793 601.496 163.577 605.314 163.094C607.651 159.865 609.862 156.81 612.167 153.618C615.701 155.366 619.288 156.038 621.53 159.293C620.727 159.991 620.202 160.742 619.498 161.005C614.388 162.89 610.366 165.882 608.029 171.012C607.005 173.269 604.726 173.805 602.378 173.427C599.942 173.038 597.547 172.288 595.1 172.062C589.896 171.584 587.375 173.952 587.391 179.207C587.396 181.644 587.385 184.216 590.185 185.786C592.453 185.251 594.858 184.704 597.248 184.116C604.705 182.289 611.967 184.62 619.32 185.098C623.836 188.7 630.006 189.393 634.223 193.546C634.543 193.861 635.21 193.829 635.714 193.955C636.938 193.367 638.162 192.779 639.9 191.945C642.289 193.898 644.789 195.94 647.651 198.276H656.988C661.814 193.341 662.019 193.31 667.528 196.061C668.93 196.759 670.369 197.379 671.892 198.082C673.908 190.349 670.925 185.403 664.671 181.969C662.985 181.045 661.221 180.189 659.729 179.003C658.485 178.016 657.398 176.714 656.584 175.343C655.465 173.464 656.915 171.427 659.141 171.458C663.463 171.521 667.118 173.369 670.511 175.811C679.144 182.032 678.493 179.685 685.729 175.548C689.132 173.605 691.464 170.734 692.682 166.539C691.207 166.024 690.246 165.557 689.237 165.363C683.224 164.197 677.684 162.391 673.131 157.776C670.033 154.636 666.094 152.804 661.121 154.3C657.807 155.298 655.985 153.88 654.924 150.604C654.247 148.52 653.89 146.33 653.344 144.204C652.808 142.12 652.22 140.046 651.59 137.725C648.103 136.985 644.915 136.208 641.691 135.641C633.267 134.165 625.086 132.039 617.266 128.416C611.28 125.644 605.135 123.24 599.653 119.475C594.475 115.916 588.877 114.556 582.465 115.38C575.396 116.288 568.202 116.173 561.097 116.861C556.575 117.302 551.739 116.829 547.769 119.664C548.861 128.427 548.231 129.13 539.308 129.162C539.308 127.839 539.214 126.511 539.335 125.198C539.487 123.565 540.033 121.943 540.017 120.32C539.975 115.427 536.662 112.813 531.799 113.716C530.728 113.915 529.646 114.225 528.648 114.666C524.872 116.32 521.07 117.932 517.394 119.795C515.756 120.63 514.406 122.027 512.93 123.171C513.44 125.397 514.165 127.235 514.228 129.094C514.38 133.42 516.79 136.161 520.02 138.549C523.26 140.949 526.789 141.973 530.827 141.789C535.428 141.579 540.107 141.117 544.749 143.38C545.054 147.627 544.539 151.119 539.786 152.473C537.26 153.192 535.585 154.899 534.314 157.162C533.364 158.847 532.167 160.422 529.31 159.734C529.226 157.477 529.32 155.083 529.01 152.741C528.401 148.142 523.948 145.8 519.857 147.837C517.977 148.772 516.16 149.832 514.579 150.693C508.829 143.962 503.593 137.667 498.137 131.567C496.735 129.997 494.792 128.679 492.838 127.891C489.971 126.731 487.13 129.062 487.566 132.149C487.902 134.564 488.8 136.906 489.451 139.279C490.318 142.45 491.415 145.585 491.961 148.814C492.208 150.284 491.862 152.352 490.943 153.418C488.832 155.87 486.295 157.996 483.748 160.023C481.984 161.425 479.048 160.259 478.502 157.944C478.003 155.828 477.987 153.602 477.677 151.439C477.263 148.535 477.609 145.417 475.367 142.555C471.271 145.096 466.14 140.534 461.965 144.981C463.856 146.803 465.867 148.273 467.269 150.184C469.674 153.465 467.952 157.718 464.013 158.485C461.876 158.899 459.639 158.952 457.449 158.947C447.823 158.91 438.202 158.836 428.582 158.668C426.985 158.642 425.331 158.264 423.819 157.723C421.902 157.041 421.645 154.384 423.146 152.961C425.515 150.709 428.435 150.158 431.528 150.195C435.403 150.242 439.216 149.984 442.892 148.598C445.565 147.59 447.686 145.963 449.068 143.427C450.181 141.385 449.414 138.796 447.23 137.898C445.722 137.279 444.094 136.906 442.488 136.596C440.602 136.229 438.628 136.229 436.784 135.741C432.258 134.533 429.144 131.378 426.97 127.466C425.226 124.321 427.689 121.749 428.976 119.076C429.175 118.661 429.002 118.073 429.002 117.191C424.517 114.088 418.683 119.008 413.998 114.902C417.653 111.715 420.836 108.287 421.519 102.989C422.443 95.8227 421.34 94.6782 414.314 97.2088C411.415 98.2536 408.962 98.2326 406.972 95.5865C406.478 94.9302 405.964 94.2739 405.397 93.6806C403.658 91.8693 401.49 91.5543 399.357 92.5938C397.677 93.4076 396.186 94.6624 394.726 95.8595C393.46 96.8938 392.494 98.3324 391.155 99.2302C388.991 100.69 386.497 101.346 384.265 99.4612C379.171 95.1665 373.147 93.7751 366.725 93.4339C365.906 93.3919 365.108 93.0874 364.288 93.0034C361.684 92.7303 359.651 91.6803 358.17 89.3754C355.975 85.9575 352.473 85.2802 348.744 85.548C341.24 86.0835 334.329 88.9449 327.292 91.2603C326.641 91.4755 325.785 92.3471 325.764 92.9456C325.659 95.3922 324.288 96.1535 322.124 96.479C320.134 96.7783 318.448 97.6813 318.328 100.396C319.173 100.816 320.097 101.64 321.069 101.703C327.659 102.134 334.255 102.464 340.641 100.107C343.745 98.9624 346.922 98.0909 350.183 99.3719C352.257 102.821 352.415 107.667 357.446 108.628C360.407 107.127 363.285 105.667 366.641 103.966C368.043 106.124 369.387 107.825 370.317 109.725C371.703 112.555 373.956 113.863 376.918 113.742C379.638 113.632 382.343 113.138 385.047 112.744C392.73 111.637 400.308 111.479 407.723 114.713C405.811 120.856 410.632 126.196 409.598 132.323C406.573 131.294 406.305 128.884 405.46 126.952C402.361 119.879 400.434 118.672 392.861 119.58C388.492 120.105 384.139 120.735 379.801 121.47C376.944 121.953 374.466 121.434 371.929 119.974C368.852 118.205 365.559 116.798 362.287 115.39C359.242 114.078 356.169 112.886 354.132 110.046C352.698 108.045 350.55 107.473 348.292 107.662C346.418 107.814 344.375 108.035 342.763 108.891C339.417 110.66 336.02 110.718 332.375 110.576C325.517 110.308 318.643 110.445 311.774 110.439C309.054 110.439 306.937 111.364 306.218 114.293C306.023 115.091 305.661 115.853 305.483 116.656C304.48 121.155 302.211 124.683 297.947 126.773C297.747 126.873 297.921 127.734 297.921 128.616C299.023 128.999 300.268 129.697 301.57 129.829C305.23 130.207 308.507 131.073 311.06 134.066C311.805 134.937 313.517 135.378 314.772 135.357C318.611 135.278 322.461 135.021 326.273 134.564C330.259 134.092 333.688 132.596 335.474 128.548C335.862 127.666 336.902 127.067 338.105 125.881C341.429 129.713 343.598 133.861 346.517 137.394C349.421 140.902 352.693 144.104 355.65 147.275C354.216 150.195 352.357 150.819 349.926 150.026C346.281 148.84 342.616 147.722 339.008 146.43C337.212 145.79 335.416 145.002 333.83 143.962C329.744 141.29 325.275 140.403 320.491 140.466C316.369 140.524 312.21 140.76 308.124 140.345C302.899 139.815 298.314 140.65 294.434 144.377C294.124 144.676 293.43 144.577 292.601 144.713C291.078 142.739 289.466 140.639 287.743 138.402C285.496 139.647 283.631 140.681 281.736 141.731C279.514 140.923 277.482 140.077 275.387 139.442C272.094 138.444 268.686 138.371 265.876 140.482C260.735 144.351 255.2 144.104 249.355 142.949C246.173 142.319 242.891 142.172 239.724 141.815C236.184 145.748 233.438 150.132 228.171 150.42C227.362 149.916 226.832 149.696 226.454 149.323C221.522 144.477 216.024 141.369 208.725 142.912C205.511 143.595 202.36 142.33 200.496 140.009C195.27 133.488 188.89 133.898 181.984 136.008C181.459 136.171 180.913 136.25 180.377 136.386C171.912 138.549 163.667 138.828 155.522 134.727C149.951 131.924 143.917 131.609 137.809 133.178C134.569 134.013 131.297 134.092 128.031 133.068C126.729 132.659 125.332 132.328 123.982 132.354C120.726 132.422 117.276 133.493 114.283 132.706C111.295 131.924 108.769 129.377 106.022 127.597C105.198 128.516 104.468 129.031 104.147 129.739C102.241 133.94 98.6439 135.699 94.4532 136.607C92.5785 137.011 90.6407 137.646 88.7817 137.505C84.4807 137.184 80.6577 138.523 76.8399 140.13C72.0033 142.167 67.1247 143.936 61.7472 143.863C58.8694 143.826 56.48 145.27 54.2639 146.96C52.2474 148.499 51.7747 150.342 52.6202 152.788C53.513 155.382 55.2512 156.82 58.0187 157.183C60.7337 157.534 63.517 157.813 66.1007 158.647C69.4616 159.729 72.686 161.257 75.9051 162.727C78.4731 163.898 80.4634 165.756 81.6555 168.381C82.4064 170.03 81.3771 171.899 79.6126 171.994C75.0544 172.24 70.9162 170.933 67.151 168.444C65.565 167.394 64.1104 166.161 62.4299 164.885C55.8026 168.497 47.8782 168.119 41.3086 172.482C42.8315 177.302 45.8406 181.077 50.3358 182.562C58.7434 185.34 67.3715 187.151 75.7318 181.785C77.2285 180.825 79.3081 180.594 81.1513 180.42C82.8423 180.263 83.9871 182.473 83.2151 184.011C81.5609 187.303 78.93 188.91 75.2119 188.632C66.5103 187.97 59.9617 192.317 53.9436 197.835C51.9795 199.636 51.6014 201.505 52.72 203.752C53.3292 204.971 54.0696 206.157 54.9308 207.218C57.8612 210.809 60.8702 214.342 63.685 217.692C69.5404 218.348 71.5097 212.793 75.8421 210.693C76.5931 211.696 77.6013 212.457 77.7431 213.36C77.9899 214.946 77.5173 216.642 77.7011 218.248C78.0057 220.889 79.1453 222.989 82.1491 223.178C83.8873 221.903 85.5625 220.679 87.3848 219.335C89.7532 221.446 91.7697 223.247 93.9176 225.158C95.8554 224.449 97.5883 223.614 99.4106 223.236C100.324 223.047 101.621 223.42 102.367 224.013C103.596 224.985 103.617 226.738 102.666 227.715C100.781 229.647 98.7384 231.631 96.3858 232.876C86.4395 238.142 76.3462 243.14 66.316 248.254C65.3602 248.742 64.2101 249.209 63.6535 250.028C63.1231 250.811 62.8658 252.191 63.1914 253.031C63.5065 253.845 64.7773 254.869 65.544 254.806C67.7024 254.633 69.8975 254.16 71.9403 253.425C76.0784 251.939 80.164 250.301 84.1919 248.537C86.5971 247.482 88.7922 247.051 91.2393 248.427C95.0834 250.58 98.8487 249.635 102.036 247.141C105.261 244.621 108.096 241.607 111.069 238.772C112.597 237.317 113.453 235.002 116.52 234.908C117.864 236.215 119.329 237.821 120.984 239.208C123.126 241.003 125.584 241.176 127.81 239.47C130.195 237.643 132.537 235.695 134.559 233.49C136.034 231.883 136.948 229.778 135.525 227.379C133.34 226.938 131.093 226.481 126.902 225.636C132.426 222.685 133.225 218.632 134.144 214.605C134.721 212.074 136.165 210.084 138.634 209.055C139.29 208.782 140.104 208.903 140.718 208.85C143.124 212.426 138.487 215.791 141.002 219.587C142.499 219.304 144.106 219.214 145.539 218.668C147.278 218.007 148.869 216.962 150.318 216.19C151.505 216.663 152.261 216.973 153.023 217.261C159.261 219.645 161.919 218.527 164.56 212.358C164.991 211.35 165.185 210.231 165.673 209.26C166.367 207.874 167.233 206.577 168.173 204.992C170.51 206.225 172.385 207.359 174.375 208.226C175.845 208.866 177.599 209.78 178.996 209.48C182.903 208.64 185.96 210.373 189.184 211.901C190.917 212.725 192.655 213.665 194.499 214.111C203.037 216.164 211.587 218.206 220.189 219.971C228.544 221.687 234.425 225.615 235.286 234.845C235.586 238.063 237.492 239.512 240.738 239.89C243.143 240.168 245.548 241.003 247.801 241.943C250.558 243.093 252.075 245.214 251.844 248.427C251.666 250.889 251.734 253.373 251.718 255.846C251.692 259.972 253.063 263.322 256.786 265.553C258.902 266.819 260.788 268.483 262.914 269.727C263.97 270.347 265.346 270.426 266.921 270.835C267.2 269.265 267.651 268.184 267.515 267.186C267.094 264.188 266.154 261.442 264.264 258.875C262.016 255.819 262.237 254.523 263.802 249.881C266.638 250.69 267.053 253.383 268.071 255.478C270.13 259.726 272.341 263.548 276.815 266.015C280.617 268.115 282.334 272.001 281.846 276.563C281.699 277.928 281.546 279.309 281.599 280.674C281.799 285.825 283.4 287.825 288.263 289.741C290.805 290.739 293.22 292.057 295.694 293.222C300.488 295.48 303.624 298.866 304.133 304.458C304.327 306.595 305.288 308.69 306.06 310.742C307.636 314.948 308.082 319.258 307.672 323.716C307.095 330.011 306.785 336.337 306.092 342.622C305.073 351.862 307.704 360.163 312.903 367.519C316.684 372.864 319.105 378.492 319.709 384.929C320.25 390.699 323.112 394.705 328.536 396.715C331.341 397.755 334.218 399.026 337.133 399.236C341.192 399.524 343.844 401.404 345.787 404.638C347.342 407.227 348.881 409.852 350.115 412.598C352.136 417.108 353.927 421.728 355.776 426.311C357.54 430.679 359.404 434.869 363.936 437.279C365.853 438.298 367.313 440.119 367.124 442.566C366.09 445.995 362.534 448.273 362.986 452.122C363.275 452.468 363.427 452.836 363.616 452.851C365.186 453.004 366.777 452.983 368.327 453.235C369.881 453.487 372.071 453.492 372.801 454.474C376.178 459.036 381.151 462.528 382.406 468.607C382.695 470.02 383.876 471.8 385.115 472.356C388.272 473.768 390.546 475.958 392.636 478.572C393.465 479.612 394.647 480.426 395.792 481.156C397.388 482.169 400.098 480.893 400.182 478.929C400.25 477.375 400.066 475.485 399.221 474.288C397.656 472.073 395.66 470.093 393.597 468.308C390.792 465.883 388.891 463.247 388.308 459.367C387.878 456.495 386.854 453.098 384.879 451.187C377.679 444.209 375.012 433.95 367.203 427.514C366.798 427.178 366.557 426.626 366.294 426.148C364.666 423.182 365.528 420.153 368.72 418.557C369.461 418.189 371.178 418.436 371.588 419.013C372.675 420.531 373.583 422.311 374.035 424.122C375.343 429.362 378.189 433.656 381.65 437.641C383.094 439.3 384.464 441.038 386.034 442.571C392.583 448.956 397.945 456.217 402.435 464.176C404.451 467.752 407.151 470.655 410.469 473.348C416.939 478.593 421.954 484.736 420.925 494.365C420.221 500.918 425.263 506.115 431.832 507.984C434.211 508.662 436.627 509.213 438.964 510.011C443.433 511.539 446.484 514.253 447.156 519.32C447.476 521.724 448.432 524.108 449.451 526.339C451.578 531.017 453.358 532.015 458.531 531.516C462.049 531.175 465.536 530.54 469.921 529.91C471.365 531.674 472.788 533.732 474.537 535.454C476.118 537.008 477.903 536.703 479.578 534.987C480.151 534.398 480.576 533.669 481.138 533.07C485.439 528.466 489.535 528.329 493.752 532.792C496.583 535.785 499.067 539.124 502.013 541.985C503.94 543.859 506.251 546.028 508.703 546.527C513.729 547.55 518.129 551.346 523.733 549.934C524.631 549.708 525.844 550.407 526.821 550.869C532.529 553.557 536.011 557.904 535.9 564.388C535.816 569.46 538.085 572.689 542.533 574.741C544.271 575.545 546.167 576.311 547.527 577.587C550.993 580.842 554.475 584.05 558.25 586.885C558.56 584.087 559.29 580.963 560.703 577.834C560.488 577.545 560.278 577.288 560.057 576.962C557.195 572.746 555.42 568.116 555.714 563.033C556.029 557.563 556.239 551.945 557.694 546.726C559.29 540.998 557.184 537.139 553.55 533.443C549.559 529.384 547.895 528.959 542.711 531.705C539.303 533.511 536.126 534.125 532.497 532.65C530.602 531.878 528.538 531.521 527.178 531.149C527.724 526.77 528.574 523 528.564 519.236C528.553 514.369 529.294 510.111 532.87 506.399C535.732 503.427 535.963 499.453 535.228 495.515C534.54 491.793 532.66 490.286 528.911 490.596C524.809 490.932 520.724 491.457 516.638 491.919C512.752 492.36 510.688 494.412 510.457 498.298C510.357 499.925 510.704 501.579 510.751 503.222C510.83 505.869 509.942 508.058 507.579 509.454C503.504 508.901 499.72 509.701 496.226 511.854C495.995 511.996 495.779 512.179 495.543 512.321C491.877 514.474 489.85 514.516 486.605 511.565C482.745 508.063 478.996 504.377 475.635 500.408C473.734 498.166 472.069 495.337 471.391 492.512C469.391 484.18 468.545 475.753 471.003 467.253C473.377 459.057 473.187 458.348 469.806 450.683C470.893 447.638 473.408 445.853 476.118 444.561C480.45 442.498 483.9 439.526 487.02 435.945C488.191 434.601 490.055 433.158 491.694 433.042C498.242 432.58 504.89 431.908 510.898 435.83C512.395 436.807 514.354 437.085 516.302 437.752C517.772 435.294 519.006 433.236 520.435 430.853C524.205 430.611 528.023 430.506 531.815 430.091C535.58 429.677 538.925 427.115 543.016 427.598C545.012 429.86 546.97 432.071 549.129 434.517C551.266 433.494 553.114 432.606 555.084 431.656C556.89 434.192 556.77 437.032 557.358 439.678C558.376 444.236 559.028 449.197 562.357 452.589C565.308 455.597 567.84 458.543 569.168 462.591C569.788 464.486 572.813 464.664 573.994 463.079C574.64 462.207 575.234 461.252 575.622 460.249C577.282 456.001 577.429 451.649 575.979 447.333C573.973 441.353 572.056 435.326 569.667 429.493C568.491 426.616 568.438 424.148 570.129 421.733C571.374 419.953 572.681 417.958 574.456 416.866C579.766 413.606 583.657 409.022 587.207 404.118C590.998 398.873 595.268 394.484 601.701 392.489C603.292 391.996 604.495 390.252 606.002 388.982C604.416 386.084 603.045 383.716 601.801 381.28C600.551 378.838 599.18 376.386 599.768 373.467C599.863 373.005 600.33 372.617 600.819 371.913C602.452 372.522 604.18 373.163 605.634 373.698C612.44 371.42 608.496 365.445 610.287 361.397C612.193 360.52 614.121 359.633 616.137 358.709C616.137 357.328 616.058 356.241 616.153 355.17C616.426 352.188 617.917 350.497 620.59 350.377C621.93 350.314 623.284 350.739 624.644 350.833C628.473 351.101 632.301 351.427 636.135 351.463C637.327 351.474 638.524 350.613 639.464 350.251C639.564 349.411 639.711 349.085 639.611 348.891C638.498 346.722 637.374 344.559 636.203 342.423C633.74 337.928 634.207 334.831 637.915 331.402C639.989 329.486 642.4 328.142 645.225 327.9C649.442 327.533 653.286 326.567 656.069 323.002C656.426 322.545 657.555 322.697 658.889 322.471C659.241 325.028 659.493 327.412 659.913 329.764C660.869 335.098 663.29 336.201 667.99 333.523C668.704 333.114 669.45 332.71 670.048 332.158C673.215 329.244 677.185 328.121 681.197 327.134C685.199 326.147 689.242 325.328 693.228 324.288C695.828 323.611 698.737 323.364 700.475 320.125C699.493 316.266 698.543 312.081 694.793 308.637C693.312 310.175 692.162 311.698 690.692 312.806C689.463 313.735 687.846 314.748 686.438 314.696C684.653 314.628 684.038 312.79 683.786 311.031C683.56 309.472 683.088 307.949 682.557 305.728C680.488 307.036 678.992 308.07 677.406 308.942C676.728 309.314 675.867 309.362 674.806 309.629C673.635 308.196 672.459 306.747 671.193 305.198C671.666 304.027 672.175 303.061 672.459 302.032C674.223 295.595 670.022 291.054 663.51 292.372C662.45 292.587 661.315 292.876 660.423 293.453C655.014 296.945 648.738 298.189 642.814 300.331C641.575 300.777 640.225 301.428 639.049 300.1C641.276 289.353 642.636 288.056 653.118 285.977C655.77 285.452 658.522 284.801 660.874 283.541C663.584 282.092 666.241 281.682 668.688 283.168C671.283 284.748 673.94 283.247 676.303 283.567C677.621 287.074 675.857 290.697 678.319 293.438C684.905 293.154 685.708 292.608 687.032 287.709C687.231 286.959 687.383 285.998 687.914 285.567C691.312 282.785 694.641 279.86 699.609 280.527C701.736 280.811 703.936 280.574 704.939 280.574C707.554 278.238 709.314 276.516 711.236 274.993C713.089 273.523 716.14 274.951 716.056 277.34C716.004 278.879 715.636 280.9 714.617 281.813C710.758 285.263 708.437 289.51 707.134 294.383C706.446 296.96 703.096 299.071 704.614 301.801C706.409 305.03 710.138 302.93 712.974 303.418C714.04 303.602 715.279 303.712 716.245 303.345C720.588 301.691 724.196 303.492 727.205 305.681C729.321 304.899 730.808 304.132 732.388 303.833C733.696 303.581 735.109 303.875 736.474 303.933C737.976 303.996 739.242 306.133 741.29 304.117C741.242 303.387 741.468 302.216 741.053 301.35L741.095 301.334ZM318.17 299.859C317.97 300.693 317.025 301.539 316.206 301.953C315.838 302.142 314.478 301.397 314.357 300.888C312.814 294.493 309.458 289.967 303.03 287.436C300.562 286.465 298.939 283.383 298.325 278.81C305.535 282.9 311.154 286.57 315.77 291.652C317.944 294.052 318.932 296.74 318.175 299.859H318.17ZM528.827 297.669C526.075 298.704 523.045 299.911 519.967 300.977C518.45 301.502 516.859 301.974 515.273 302.079C513.477 302.2 511.943 301.129 511.77 299.36C511.654 298.194 512.552 296.918 513.041 295.716C513.13 295.501 513.435 295.307 513.676 295.228C520.787 292.912 526.605 288.292 532.881 284.486C533.537 284.087 534.43 284.076 535.349 283.856C540.175 287.242 545.027 290.639 550.473 294.456C549.312 301.281 548.225 302.19 542.37 301.386C539.939 301.05 537.439 301.035 535.086 300.426C533.049 299.901 531.179 298.735 528.827 297.669ZM561.68 326.897C561.501 324.719 561.758 322.471 561.349 320.35C560.151 314.124 553.934 311.451 548.772 315.09C544.161 318.345 540.69 322.534 540.826 328.688C540.905 332.247 541.104 335.812 541.031 339.367C540.942 343.583 538.957 346.386 536.578 346.066C534.482 345.788 532.781 343.341 532.681 339.509C532.508 332.673 532.555 325.832 532.681 318.996C532.786 313.436 535.743 309.824 540.889 307.865C544.329 306.558 547.921 306.133 551.392 307.12C556.491 308.569 561.611 308.684 566.836 308.637C575.438 308.558 577.865 310.905 579.456 320.114C575.806 322.792 574.614 317.772 571.29 317.594C570.24 320.035 570.481 322.65 570.717 325.333C571.206 330.846 570.344 331.869 564.337 333.466C561.9 331.906 561.884 329.344 561.69 326.903L561.68 326.897ZM601.333 327.874C601.029 328.268 600.42 328.467 599.91 328.662C589.827 332.536 581.278 338.894 572.781 345.342C572.561 345.51 572.34 345.672 572.109 345.819C569.305 347.636 566.107 347.683 565.576 345.84C564.799 343.147 566.779 341.446 568.633 340.632C575.234 337.729 579.388 332.316 583.73 326.997C584.76 325.737 586.109 324.74 587.664 323.291C591.77 323.291 596.15 323.191 600.514 323.38C601.333 323.417 602.609 324.498 602.756 325.275C602.903 326.031 601.942 327.071 601.328 327.874H601.333Z" fill="#2F9FEE"/>
<path d="M840.558 679.316C835.17 677.51 830.827 674.843 826.998 670.543C823.065 666.117 817.987 663.476 811.486 665.335C807.62 666.443 803.939 665.466 800.589 662.993C796.834 660.221 792.796 657.832 788.983 655.134C784.073 651.658 778.743 650.078 773.229 650.603C768.534 654.089 767.668 659.229 765.567 663.345C762.904 664.127 760.625 664.71 758.709 662.085C760.657 660.384 762.474 659.097 763.897 657.465C765.32 655.837 766.549 653.963 767.489 652.015C768.592 649.726 767.988 647.158 766.339 645.993C764.37 644.596 762.148 644.502 760.095 645.62C758.945 646.245 757.931 647.311 757.154 648.392C754.807 651.668 751.53 652.598 747.759 652.409C746.32 652.335 744.839 651.873 744.839 650.209C744.839 649.306 745.569 648.077 746.347 647.568C747.702 646.681 749.392 646.334 750.852 645.589C753.536 644.218 756.314 642.942 758.772 641.231C762.899 638.354 763.167 631.749 758.719 629.554C754.723 627.585 753.305 624.477 751.635 621.028C747.959 613.452 742.303 607.493 735.828 602.253C731.616 598.851 727.105 597.843 722.043 600.452C720.394 601.303 718.524 601.733 716.86 602.321C713.425 600.41 712.811 596.782 710.632 594.377C708.242 591.737 705.863 589.085 703.364 586.303C698.952 586.423 694.72 585.762 690.865 582.717C692.23 578.742 693.706 574.668 694.987 570.536C695.308 569.502 696.064 568.063 694.478 567.197C691.585 568.389 691.931 573.056 687.898 572.909C686.102 571.324 684.374 569.554 682.405 568.121C679.795 566.226 676.802 566.021 673.735 566.934C671.156 567.701 669.571 569.349 668.904 572.032C668.662 573.004 667.759 573.817 667.197 574.642C666.682 574.458 666.372 574.432 666.189 574.264C665.595 573.723 664.976 573.193 664.503 572.552C660.585 567.26 658.905 566.703 652.771 568.751C651.548 569.16 650.313 569.554 648.917 570.011C646.811 566.798 644.915 563.915 642.993 560.991C631.807 563.39 631.986 573.114 629.071 581.772C628.042 579.661 627.186 578.579 626.987 577.388C626.167 572.452 625.962 567.543 628.473 562.913C629.512 560.991 630.678 558.985 628.483 556.591C627.37 556.828 625.91 556.812 624.812 557.437C622.433 558.791 620.406 560.839 617.938 561.952C611.075 565.044 606.511 570.315 602.777 576.6C601.675 578.459 600.209 580.202 598.581 581.625C595.656 584.176 592.537 583.793 590.379 580.433C588.299 577.193 585.5 575.414 582.076 574.468C578.5 576.495 575.249 578.532 571.836 580.223C566.605 582.816 563.953 582.181 560.739 577.829C559.327 580.958 558.602 584.082 558.287 586.88C560.818 588.786 563.476 590.524 566.353 591.978C566.584 592.094 566.71 592.398 566.92 592.571C570.04 595.086 572.996 594.692 575.076 591.222C576.289 589.195 577.077 586.917 577.938 584.99C581.493 584.47 584.156 585.289 585.511 588.03C588.058 593.18 590.505 598.415 592.485 603.796C593.393 606.275 593.608 609.272 593.235 611.903C592.463 617.3 591.082 622.608 590.121 627.15C585.558 630.867 581.441 633.697 577.964 637.172C572.734 642.396 569.326 648.455 571.242 656.415C572.755 662.71 572.056 668.774 569.515 674.927C566.595 681.994 568.17 686.073 574.104 690.709C575.186 691.555 576.326 692.326 577.429 693.151C579.487 694.684 580.669 696.731 581.53 699.157C585.563 710.529 589.67 721.88 593.897 733.189C595.347 737.059 596.98 740.834 597.148 745.044C597.321 749.266 599.542 752.374 602.972 754.474C605.996 756.327 609.31 757.708 612.482 759.341C614.908 760.585 617.408 761.73 619.682 763.216C622.433 765.016 624.975 767.137 627.622 769.101C633.719 773.622 637.174 779.67 637.715 787.214C637.952 790.491 637.81 793.819 637.51 797.095C636.786 805.034 635.909 812.957 635.026 820.879C634.291 827.484 634.16 834.073 635.73 840.568C636.885 845.351 636.282 849.262 631.524 851.788C630.605 852.276 629.933 853.226 629.386 853.735C628.446 856.434 631.261 859.101 628.935 861.112C625.527 864.052 626.304 867.381 627.386 870.919C628.368 874.117 628.935 877.446 627.79 880.653C625.763 886.339 623.641 892.005 621.205 897.528C619.75 900.83 618.091 903.959 618.469 907.713C618.679 909.808 617.613 911.336 616.3 912.843C614.226 915.221 614.01 917.993 616.037 920.351C618.8 923.569 618.558 926.95 617.072 930.368C614.304 936.732 614.057 943.09 616.258 949.642C617.376 952.971 616.757 956.215 614.992 959.166C612.881 962.694 610.749 966.238 608.328 969.556C605.519 973.42 603.922 977.201 607.126 981.595C609 984.168 608.633 986.725 606.963 989.255C606.511 989.938 606.154 990.699 605.828 991.455C603.281 997.351 603.539 998.123 608.906 1002.19C609.489 1002.63 609.704 1003.56 610.098 1004.27C608.916 1006.47 607.782 1008.58 606.69 1010.62C607.43 1011.57 607.798 1012.44 608.449 1012.82C612.12 1014.97 614.068 1017.86 613.459 1022.33C613.007 1025.62 614.667 1028.13 617.187 1030.13C618.479 1031.16 620.07 1032 620.942 1033.31C623.599 1037.31 627.47 1038.66 631.907 1039.04C631.692 1039.76 631.266 1040.81 631.445 1040.93C637.075 1044.58 642.841 1047.41 649.941 1045.24C655.455 1043.56 661.131 1042.43 666.708 1040.94C667.974 1040.61 669.119 1039.81 671.172 1038.81C668.483 1038.08 666.687 1037.25 664.86 1037.17C655.413 1036.73 650.082 1030.42 645.535 1023.41C641.927 1017.84 643.508 1010.93 648.57 1006.41C652.467 1002.94 656.374 999.462 660.186 995.892C663.547 992.741 665.028 988.804 665.07 984.609C662.45 981.842 659.419 982.997 656.851 982.267C654.856 981.7 653.837 979.663 654.772 977.768C655.134 977.038 655.533 976.292 656.059 975.678C661.257 969.661 666.498 963.686 671.692 957.675C673.635 955.423 676.072 953.406 675.872 949.978C667.937 947.663 666.903 946.13 668.489 938.291C671.902 939.236 675.258 940.26 678.671 941.063C680.136 941.41 681.707 941.294 683.461 941.399C684.416 936.516 680.788 931.502 685.74 927.37C686.911 927.423 688.539 927.654 690.14 927.544C695.339 927.176 700.528 926.672 705.716 926.231C708.09 926.026 709.865 924.855 711.073 922.85C713.767 918.382 716.461 913.909 719.065 909.388C720.315 907.22 719.963 905.146 718.141 903.403C716.35 901.697 714.46 900.09 712.695 898.357C706.467 892.23 706.32 891.679 709.03 883.163C709.397 882.019 710.311 881.047 711.372 879.367C712.218 883.504 712.653 886.781 713.572 889.915C716.067 898.394 725.876 902.243 732.514 896.588C739.935 890.272 747.896 883.93 749.319 873.035C749.87 868.825 751.861 865.249 756.057 863.28C758.724 862.026 759.838 859.385 760.961 856.87C761.991 854.57 763.125 852.48 765.714 851.499C769.747 849.971 770.629 846.605 770.304 842.768C770.141 840.856 769.936 838.882 769.301 837.097C767.389 831.705 769.569 828.198 773.975 825.268C783.858 818.706 793.641 812.069 806.098 811.392C809.989 811.182 812.63 808.966 813.922 805.128C815.855 799.369 818.554 793.987 821.941 788.921C823.784 786.17 825.213 783.072 824.703 779.623C824.157 775.937 825.034 772.487 826.111 769.091C827.886 763.468 828.668 757.96 826.857 752.106C825.449 747.575 827.093 743.422 830.128 739.889C831.378 738.429 832.759 737.074 834.161 735.757C843.903 726.584 849.359 715.055 852.62 702.318C855.214 692.195 850.399 682.629 840.537 679.322L840.558 679.316ZM636.906 1033.55C635.389 1035.35 633.682 1036.99 632.07 1038.71C632.096 1038.83 632.101 1038.95 632.133 1039.07C632.133 1039.07 631.97 1038.88 631.944 1038.85C631.986 1038.8 632.028 1038.76 632.07 1038.72C631.324 1035.22 633.173 1032.2 634.171 1029.06C634.354 1028.48 636.14 1027.82 636.754 1028.11C637.479 1028.45 638.088 1029.78 638.099 1030.69C638.114 1031.65 637.558 1032.79 636.906 1033.56V1033.55Z" fill="#2F9FEE"/>
<path d="M1113.29 356.966C1113.21 359.354 1114.19 361.371 1115.79 362.389C1114.19 361.371 1115.81 361.392 1114.73 358.719C1114.27 357.338 1114.01 354.955 1114.11 354.419C1114.01 354.955 1113.34 356.42 1113.29 356.966Z" fill="#2F9FEE"/>
<path d="M1028.22 276.358C1031.75 280.616 1036.65 277.351 1040.1 279.655C1040.78 280.984 1039.89 283.194 1042.81 283.43C1046.54 278.831 1051.63 279.508 1056.84 280.937C1057.9 281.225 1058.94 281.598 1060.02 281.787C1061.64 282.071 1063.28 282.407 1064.9 282.401C1073.14 282.375 1078.19 273.654 1073.84 266.735C1072.27 264.225 1070.32 261.621 1067.9 260.035C1060.69 255.315 1057.3 247.792 1052.32 241.113C1054.01 239.108 1055.4 237.454 1056.79 235.795C1058.65 233.558 1061.85 231.647 1060.25 228.187C1058.97 225.42 1055.76 225.168 1053.07 225.058C1048.08 224.853 1043.29 224.05 1039.6 222.134C1034.61 222.249 1033.23 226.329 1029.79 228.318C1028.81 228.261 1027.47 228.145 1026.12 228.119C1021.66 228.024 1020.05 229.778 1020.75 233.999C1020.93 235.075 1021.08 236.236 1021.6 237.16C1025.43 243.901 1029.47 250.375 1037.65 252.758C1040.42 253.562 1043.47 254.244 1045.8 257.379C1039.44 263.369 1032.34 268.646 1028.23 276.364L1028.22 276.358Z" fill="#2F9FEE"/>
<path d="M971.266 174.482C965.495 170.077 960.144 167.394 952.85 169.615C947.42 171.264 941.596 171.715 935.908 172.329C934.186 172.518 932.059 171.888 930.583 170.922C927.48 168.89 924.072 168.056 920.548 167.651C915.401 167.058 912.256 171.227 914.194 176.125C915.486 179.391 916.935 182.683 919.839 184.762C920.895 184.893 921.708 185.109 922.507 185.077C927.574 184.872 932.316 184.988 935.136 190.485C936.145 192.454 938.749 192.874 941.039 192.27C945.529 191.094 950.198 190.154 953.884 187.151C956.105 185.34 958.49 183.953 961.205 183.806C966.776 183.507 969.386 180.247 971.266 174.482Z" fill="#2F9FEE"/>
<path d="M1028.87 258.271C1028.76 257.699 1028.49 255.221 1027.78 252.884C1025.52 245.523 1018.52 243.654 1013.22 249.136C1011.23 251.183 1009.29 252.627 1006.5 253.42C1003.52 254.27 1002.74 255.982 1003.63 259.206C1004.53 262.497 1004.6 265.243 1003.03 268.609C1000.91 273.145 1006.02 278.385 1010.82 276.841C1016.32 275.067 1021.43 272.31 1025.71 268.315C1028.02 266.152 1029.12 263.374 1028.87 258.271Z" fill="#2F9FEE"/>
<path d="M1378.15 129.881C1378.56 125.403 1380.66 122.447 1384.31 120.494C1389.64 117.637 1394.92 114.692 1400.3 111.936C1404.5 109.783 1408.43 107.347 1411.49 103.677C1413.87 100.826 1416.73 99.2772 1420.61 98.8047C1427.42 97.9804 1434.15 96.5103 1440.89 95.1663C1445.52 94.237 1450.12 93.8852 1454.81 94.7042C1456.43 94.9878 1458.09 95.2293 1459.72 95.1978C1464.69 95.1033 1469.47 94.8197 1473.56 91.1078C1476.85 88.1204 1480.58 88.6927 1483.95 91.8638C1484.05 95.3448 1481.53 97.2716 1479.52 99.4032C1474.97 104.233 1469.88 106.643 1462.68 105.84C1454.28 104.906 1445.68 105.62 1437.17 105.835C1432.7 105.95 1428.54 107.546 1424.69 109.757C1420.65 112.083 1416.71 114.613 1412.82 117.191C1411.47 118.084 1410.25 119.27 1409.23 120.525C1407.65 122.457 1407.76 124.62 1409.39 126.505C1410.1 127.324 1411.2 127.833 1411.83 128.694C1415.04 133.073 1413.25 138.355 1407.99 139.668C1406.19 140.119 1404.15 140.061 1402.3 139.757C1400.44 139.452 1398.52 138.812 1396.89 137.872C1392.07 135.1 1386.99 133.152 1381.6 131.881C1380.37 131.593 1379.32 130.579 1378.16 129.881H1378.15Z" fill="#2F9FEE"/>
<path d="M1234.92 353.254C1235.13 350.613 1235.39 348.76 1235.39 346.911C1235.4 345.289 1235.66 343.325 1234.88 342.097C1232.24 337.923 1233.94 334.505 1236.71 331.712C1241.64 326.745 1245.19 320.944 1248.43 314.864C1249.07 313.667 1249.88 312.506 1250.83 311.53C1254.42 307.818 1258.22 307.954 1261.18 312.102C1263.09 314.769 1264.56 317.757 1266.26 320.576C1267.22 322.172 1268.26 323.726 1269.34 325.443C1275.22 323.679 1279.58 320.613 1281.82 315.179C1284.18 309.467 1288.65 308.81 1294.7 309.298C1293.98 310.952 1293.75 312.281 1292.96 313.079C1291.68 314.391 1290.04 315.363 1288.76 316.323C1289.04 318.77 1290.61 319.516 1292.09 320.114C1300.96 323.705 1307.21 330.998 1314.89 336.264C1315.97 337.004 1316.78 338.275 1317.46 339.446C1317.55 339.614 1317.6 339.771 1317.69 339.934C1322.71 340.727 1332.07 342.433 1336.02 344.675C1341.53 347.809 1347.04 355.511 1350.72 355.333C1354.4 355.154 1350.46 348.555 1357.15 347.389C1361.84 346.575 1368.07 351.526 1371.38 354.572C1373.16 352.088 1372.79 349.967 1369.97 348.555C1368.02 347.583 1365.95 346.738 1363.84 346.224C1360.12 345.315 1357.47 343.136 1355.51 340.002C1352.75 335.587 1349.84 331.245 1347.4 326.661C1344.47 321.18 1347.28 313.173 1352.81 310.454C1353.75 309.992 1354.92 309.839 1355.98 309.808C1356.66 309.787 1357.35 309.871 1358.03 309.992C1352.46 305.298 1343.22 296.409 1344.42 289.936C1346.12 280.748 1353.48 286.108 1356.23 283.43C1358.99 280.753 1382.88 267.128 1383.8 261.542C1384.72 255.951 1391.15 241.255 1391.15 235.742C1391.15 230.229 1390.23 210.021 1381.96 210.021C1373.69 210.021 1381.62 199.09 1405.85 202.671C1413.98 203.873 1419.8 197.841 1422.55 196.003C1425.31 194.165 1424.2 179.375 1427.88 180.866C1431.28 182.242 1434.7 155.665 1445.16 143.584C1443.57 143.495 1441.97 143.469 1440.36 143.495C1436.89 143.553 1433.97 144.577 1431.72 147.449C1429.69 150.032 1427.48 152.557 1423.34 153.14C1419.33 150.068 1414.58 148.588 1409.22 150.819C1408.51 151.113 1407.56 151.061 1406.77 150.893C1402.1 149.911 1398.11 151.076 1394.92 154.825C1392.36 153.922 1390.02 153.156 1387.73 152.263C1383.88 150.761 1380.36 150.767 1376.88 153.455C1373.02 156.447 1368.38 157.104 1363.59 156.999C1360.33 156.925 1357.07 156.983 1354.02 156.983C1352.19 159.388 1350.72 161.372 1349.19 163.294C1348.32 164.375 1347.05 165.63 1345.83 164.491C1345.06 163.787 1344.89 161.971 1345.11 160.779C1345.47 158.92 1346.53 157.204 1347.03 155.355C1347.44 153.864 1347.45 152.268 1347.67 150.41C1345.68 149.843 1344.17 149.066 1342.63 149.018C1332.46 148.73 1330.33 151.439 1332.79 160.495C1333.57 163.383 1333.99 166.391 1334.32 169.374C1334.4 170.098 1333.46 170.933 1332.64 172.298C1330.66 169.463 1329.16 167.305 1327.52 164.963C1325.33 165.677 1323.51 166.171 1321.77 166.869C1319.74 167.688 1317.86 169.185 1315.77 169.51C1310.4 170.345 1308.12 173.227 1308.52 178.535C1308.58 179.307 1308.17 180.11 1307.97 180.898C1304.85 183.759 1301.62 183.786 1298.17 181.654C1296.33 180.52 1294.41 179.517 1292.48 178.425C1291.32 179.139 1290.39 179.701 1289.47 180.263C1288.3 180.971 1287.17 181.775 1285.94 182.373C1282.56 184.027 1280.18 183.009 1280.29 179.375C1280.43 174.876 1278.54 171.516 1276 168.234C1275.89 168.098 1276.01 167.788 1276.1 166.623C1283.45 169.237 1290.83 171.589 1298.57 170.088C1306.08 168.628 1313.33 166.391 1320.17 161.503C1316.66 158.107 1313.58 155.077 1310.44 152.1C1306.81 148.661 1302.51 147.359 1297.55 148.068C1294.83 148.457 1292.08 148.672 1289.35 148.971C1282.63 149.696 1276.34 148.583 1270.09 145.779C1259.32 140.938 1248.33 136.57 1237.39 132.107C1233.84 130.653 1230.13 129.561 1226.53 128.222C1216.74 124.584 1207.16 124.783 1197.77 129.582C1186.52 135.336 1175.27 141.101 1163.99 146.808C1159.95 148.856 1156.87 151.77 1154.54 155.691C1149.91 163.467 1143.27 169.221 1135.25 173.217C1130.1 175.779 1124.72 177.963 1119.28 179.827C1115.54 181.108 1112.08 182.762 1109.41 185.55C1105.81 189.309 1102.53 193.373 1099.19 197.379C1096.69 200.366 1096.33 203.684 1097.48 207.443C1098.44 210.551 1098.95 213.822 1099.36 217.057C1100.56 226.434 1106.9 231.637 1116.45 230.933C1119.66 230.697 1122.17 229.694 1123.64 226.423C1124.99 223.43 1126.91 220.684 1131.02 220.065C1133.15 227.468 1137.27 234.141 1136.67 242.205C1136.47 244.862 1138.37 246.337 1141 245.76C1147.97 244.221 1154.94 242.604 1161.82 240.683C1165.51 239.654 1168.03 237.128 1167.96 232.902C1167.91 229.337 1169.74 226.628 1171.88 224.066C1173.47 222.165 1175.3 220.464 1176.77 218.485C1177.89 216.967 1178.82 215.229 1179.45 213.455C1180.28 211.092 1179.34 209.081 1177.11 207.974C1175.39 207.123 1173.53 206.577 1171.8 205.732C1169.01 204.367 1168.44 202.135 1170.16 199.699C1173.03 195.635 1176.99 193.798 1181.91 192.942C1191.18 191.336 1196.56 184.804 1197.29 175.322C1197.37 174.304 1197.74 173.311 1198.06 171.967C1204.3 171.316 1210.28 170.739 1216.31 171.542C1217.24 171.668 1218.1 172.408 1219.09 172.918C1218.61 174.062 1218.47 174.96 1217.96 175.49C1216.44 177.06 1214.91 178.698 1213.12 179.932C1208.37 183.208 1203.45 186.238 1198.66 189.456C1194.05 192.554 1192.71 196.497 1194.75 201.521C1196.09 204.823 1197.68 208.047 1199.44 211.145C1200.18 212.452 1201.63 213.36 1202.67 214.363C1207.79 212.646 1212.34 210.52 1217.12 209.685C1221.94 208.845 1226.99 209.344 1231.94 209.155C1238.53 208.903 1239.84 209.921 1241.89 217.356C1239.61 219.871 1236.47 219.43 1233.52 219.598C1225.29 220.075 1217.05 220.49 1208.83 221.015C1207.59 221.094 1205.97 220.984 1205.77 223.163C1207.75 224.837 1209.88 226.528 1211.87 228.355C1212.86 229.263 1212.38 231.358 1211.07 231.784C1209.81 232.198 1208.42 232.603 1207.13 232.487C1205.52 232.345 1203.97 231.616 1202.37 231.232C1196.54 229.83 1194.5 230.718 1191.72 236.026C1189.65 239.974 1188.32 244.127 1188.59 248.679C1188.71 250.627 1188.58 252.569 1186.35 253.934C1185.54 253.777 1184.39 253.766 1183.43 253.336C1175.2 249.634 1166.52 250.837 1158.37 252.512C1151.23 253.971 1144.2 254.024 1137.1 254.281C1133.43 254.417 1131.3 253.005 1130.27 249.65C1129.64 247.603 1129.6 245.345 1129.49 243.171C1129.37 240.783 1129.47 238.378 1129.47 235.805C1124.06 234.01 1119.68 235.165 1116.28 238.751C1112.82 242.41 1112.76 249.76 1115.53 254.192C1116.51 255.746 1118.42 256.843 1117.88 259.647C1115.05 259.426 1112.14 259.169 1109.23 258.975C1104.88 258.686 1101.11 259.936 1098.07 263.191C1096.2 265.202 1094.06 266.976 1092.31 269.087C1090.07 271.764 1087.4 273.371 1083.95 273.854C1081.22 274.232 1078.51 274.773 1076.04 277.293C1075.92 278.164 1075.68 279.487 1075.56 280.821C1075.26 284.654 1073.25 286.754 1069.43 287.389C1065.9 287.972 1062.42 288.78 1058.94 289.631C1056.02 290.345 1052.95 290.865 1050.29 292.188C1046.56 294.041 1042.88 295.7 1038.67 296.115C1037.4 296.241 1036.03 296.871 1036.03 299.16C1038.35 301.329 1041.8 301.365 1044.78 302.468C1056.55 306.831 1059.26 312.034 1055.97 324.036C1055.82 324.566 1055.74 325.118 1055.57 325.637C1053.91 330.725 1052.52 331.864 1047.29 331.859C1044.27 331.859 1041.26 331.497 1038.23 331.329C1031.1 330.935 1023.96 330.289 1016.82 330.258C1010.68 330.226 1008.33 332.589 1007.97 338.7C1007.77 342.233 1007.89 345.903 1008.66 349.337C1009.67 353.91 1009.71 357.9 1006.47 361.707C1003.79 364.846 1004.17 368.264 1006.64 371.519C1008.62 374.124 1010.53 376.785 1012.55 379.526C1014.94 379.526 1017.12 379.594 1019.29 379.51C1022.37 379.39 1024.41 380.818 1026.06 383.338C1027.35 385.291 1027.88 387.932 1030.69 389.076C1032.41 386.603 1034.09 384.199 1035.98 381.5C1040.8 382.975 1045.32 381.532 1049.82 380.434C1051.86 379.936 1053.96 378.817 1055.52 377.41C1058.76 374.496 1061.65 371.204 1064.67 368.091C1062.59 361.134 1062.7 360.935 1067.44 355.742C1070.66 352.214 1074.06 349.185 1079.16 348.859C1080.2 348.791 1081.19 348.135 1082.38 347.688C1082.85 346.407 1083.39 345.163 1083.79 343.872C1084.51 341.509 1085 339.062 1085.86 336.752C1086.89 333.964 1088.79 333.103 1091.78 333.88C1093.64 334.363 1095.51 334.899 1097.27 335.665C1101.79 337.634 1105.82 336.82 1109.64 333.922C1111.61 332.431 1113.67 331.05 1115.74 329.696C1118.02 328.21 1120.43 328.346 1122.85 329.334C1124.99 330.21 1126.41 331.722 1127.3 333.906C1130.52 341.798 1136.67 346.581 1144.34 349.689C1146.63 350.618 1148.86 351.726 1151.21 352.498C1156.65 354.293 1159.76 358.21 1161.67 363.371C1162.71 366.19 1163.69 369.068 1165.09 371.719C1165.92 373.289 1167.14 375.069 1169.95 374.328C1171.83 368.558 1166.44 362.982 1168.64 357.333C1170.84 356.21 1173.32 357.029 1175.32 355.112C1174.36 354.015 1173.8 353.059 1172.97 352.482C1169.15 349.81 1165.32 347.137 1161.36 344.664C1157.61 342.317 1153.81 339.997 1151.4 336.19C1149.16 332.646 1146.4 329.701 1143.21 327.013C1141.81 325.837 1140.65 324.104 1140.01 322.387C1139.62 321.353 1140.17 319.699 1140.81 318.628C1141.6 317.321 1143.14 317.247 1144.49 317.893C1145.97 318.597 1147.55 319.264 1148.76 320.314C1155.42 326.052 1161.88 332.032 1168.62 337.681C1175.21 343.215 1181.25 349.064 1183.88 357.585C1188.57 363.103 1189.91 369.766 1190.48 376.707C1190.7 379.447 1190.93 382.198 1191.41 384.902C1191.68 386.451 1192.45 387.911 1192.93 389.265C1196.17 389.638 1197.85 387.601 1199.72 386.073C1203.12 383.296 1206.42 380.382 1209.77 377.541C1214.46 373.557 1214.61 370.212 1210.45 365.692C1208.88 363.98 1206.1 363.234 1205.87 360.2C1209.47 357.611 1213.01 355.06 1216.56 352.524C1217 352.209 1217.51 351.978 1218.01 351.747C1219.99 350.823 1222.09 351.532 1222.66 353.574C1223.25 355.669 1223.67 357.848 1223.84 360.016C1223.91 360.835 1223.93 361.665 1223.97 362.489C1227.2 360.095 1231.44 356.75 1235.26 353.08C1235.14 353.128 1235.04 353.175 1234.91 353.222L1234.92 353.254Z" fill="#2F9FEE"/>
<path d="M1728.98 629.937C1729.05 644.685 1730.86 657.034 1741.36 666.558C1742.17 667.293 1743.03 668.033 1744 668.511C1745.46 669.225 1746.98 669.971 1748.55 670.244C1753.69 671.121 1758.86 671.793 1764.02 672.533C1767.34 673.011 1770.58 673 1773.39 670.984C1773.59 670.643 1773.85 670.412 1773.85 670.17C1773.93 667.729 1774.03 665.287 1774.01 662.846C1773.95 656.824 1775.41 651.422 1780.09 647.242C1780.91 646.513 1781.63 645.672 1782.41 644.906C1786.64 640.795 1787.72 636.101 1785.15 630.672C1783.85 627.942 1782.72 625.139 1781.43 622.414C1780.04 619.479 1780.75 617.122 1783.13 615.079C1784.95 613.52 1786.72 611.908 1788.51 610.322C1787.86 609.593 1787.5 608.894 1787.22 608.926C1782.89 609.404 1781.4 606.6 1780.53 603.161C1779.96 600.851 1779.6 598.483 1779.14 596.157C1772.03 597.412 1771.27 598.788 1771.68 609.162C1770.51 609.503 1769.24 610.17 1767.96 610.186C1762.42 610.254 1758.46 612.58 1756.4 617.815C1755.08 621.185 1752.48 623.107 1749.14 623.942C1745.07 624.96 1742.34 627.228 1740.9 631.213C1740.49 632.353 1739.49 633.282 1738.73 634.337C1735.81 633.019 1733.37 631.922 1728.97 629.937H1728.98Z" fill="#F6F7FB" stroke="#F6F7FB" stroke-width="1.5" stroke-miterlimit="10"/>
<path d="M1707.6 689.974C1707.98 686.871 1708.39 684.209 1708.6 681.526C1708.99 676.581 1709.52 671.693 1712.06 667.272C1712.47 666.574 1712.69 665.749 1712.89 664.957C1713.6 662.116 1712.8 659.895 1709.89 659.218C1706.31 658.383 1704.45 655.832 1702.19 653.469C1698.6 649.72 1695 645.945 1691.07 642.569C1685.86 638.091 1680.79 633.513 1676.5 628.115C1670.64 620.755 1663.03 615.252 1655.93 609.257C1653.06 606.836 1649.51 605.014 1644.93 606.81C1645.28 608.222 1645.25 609.74 1645.97 610.658C1648.17 613.446 1650.66 616.003 1653.04 618.655C1657.79 623.957 1662.64 629.176 1667.26 634.594C1670.72 638.663 1672.39 643.457 1672.88 648.87C1673.35 654.026 1674.37 659.176 1675.63 664.211C1678.9 677.31 1679.17 675.21 1688.64 678.907C1694.53 681.206 1700.42 683.401 1704.08 689.134C1704.47 689.738 1705.99 689.617 1707.61 689.969L1707.6 689.974Z" fill="#F6F7FB" stroke="#F6F7FB" stroke-width="1.5" stroke-miterlimit="10"/>
<path d="M1871.21 387.606C1865.71 392.762 1861.93 398.422 1855.08 400.201C1853.36 400.648 1852.77 402.475 1852.88 404.234C1853.2 409.006 1854.86 413.327 1857.75 417.113C1859.86 419.869 1863.27 420.026 1865.49 417.302C1866.64 415.9 1867.16 413.957 1867.87 412.219C1868.45 410.791 1868.89 409.305 1869.53 407.452C1871.79 408.024 1873.63 408.376 1875.38 408.954C1879.08 410.177 1881.79 409.038 1883.77 405.788C1884.6 404.428 1885.54 403.131 1886.46 401.745C1887.72 402.548 1888.57 403.31 1889.56 403.677C1893.66 405.189 1895.7 404.816 1897.94 401.188C1899.5 398.647 1901.52 397.23 1904.12 396.169C1906.91 395.035 1909.76 393.943 1912.34 392.421C1923.76 385.679 1923.14 388.551 1923.63 375.053C1923.75 371.698 1924.11 368.485 1927.5 366.526C1929.1 365.602 1929.56 363.791 1928.97 362.184C1927 356.797 1924.92 351.442 1922.67 346.166C1921.83 344.213 1918.79 344.155 1918.01 346.082C1916.99 348.555 1915.96 351.258 1915.94 353.868C1915.89 361.26 1913.13 367.765 1910.2 374.281C1908.8 377.389 1906.88 379.594 1903.38 380.854C1899.31 382.324 1895.27 384.382 1891.84 387.007C1888.64 389.465 1885.52 389.885 1881.87 389.255C1878.38 388.651 1874.88 388.168 1871.21 387.601V387.606Z" fill="#F6F7FB" stroke="#F6F7FB" stroke-width="1.5" stroke-miterlimit="10"/>
<path d="M1665.59 574.621C1665.11 574.846 1664.44 574.946 1664.18 575.324C1661.94 578.606 1662.31 585.126 1665.55 587.374C1670.29 590.644 1671.84 595.27 1673.4 600.368C1675.56 607.43 1678.46 614.265 1681.03 621.196C1682.51 625.165 1685.06 628.331 1688.26 631.035C1690.57 632.983 1692.85 634.962 1695.19 636.863C1696.03 637.54 1696.96 638.165 1697.94 638.6C1699.92 639.482 1702.73 637.361 1702.36 635.214C1702.13 633.907 1701.68 632.526 1700.94 631.439C1697.66 626.593 1695.57 621.322 1694.34 615.604C1693.77 612.963 1692.53 610.438 1691.4 607.944C1688.2 600.856 1674.04 581.304 1668.4 576.049C1668 575.681 1667.6 575.272 1667.13 575.03C1666.66 574.794 1666.1 574.747 1665.58 574.621H1665.59Z" fill="#F6F7FB" stroke="#F6F7FB" stroke-width="1.5" stroke-miterlimit="10"/>
<path d="M1793.61 566.787C1799.81 562.43 1803.78 557.893 1807.44 553.11C1809.74 550.112 1812.32 548.007 1816.24 547.718C1817.55 547.624 1818.94 547.104 1820.05 546.401C1820.8 545.923 1821.13 544.778 1821.82 543.66C1816.18 540.2 1810.17 540.016 1804.33 539.496C1805.15 531.863 1805.19 531.905 1809.97 526.822C1811.25 525.473 1812.61 523.919 1813.12 522.218C1813.85 519.771 1812.84 517.335 1811.45 515.203C1809.91 512.825 1807.95 511.082 1805.05 511.166C1804.48 511.838 1803.83 512.242 1803.83 512.641C1803.86 518.17 1801.12 521.971 1796.54 524.696C1796.07 524.974 1795.65 525.352 1795.25 525.725C1791.62 529.069 1790.91 531.8 1793.46 535.916C1795.32 538.908 1797.93 541.439 1800.22 544.153C1801.78 545.991 1804.17 547.298 1804.05 550.942C1802.37 552.706 1800.23 554.811 1798.26 557.059C1796.17 559.442 1793.57 561.616 1793.6 566.798L1793.61 566.787Z" fill="#F6F7FB" stroke="#F6F7FB" stroke-width="1.5" stroke-miterlimit="10"/>
<path d="M1794.6 650.203C1793.55 651.568 1792.82 652.125 1792.63 652.834C1791.21 658.084 1789.87 663.361 1788.58 668.642C1788.17 670.286 1788.19 672.039 1789.77 673.052C1791.32 674.045 1792.94 673.425 1794.36 672.47C1795.27 671.861 1796.06 671.094 1796.95 670.454C1798.66 669.215 1800.4 668.018 1802.53 666.526C1803.37 668.222 1804.16 669.325 1804.48 670.553C1804.9 672.123 1804.58 673.961 1805.23 675.378C1806.24 677.547 1807.54 679.71 1809.2 681.395C1810.92 683.138 1813.27 684.094 1815.87 683.054C1816.09 682.508 1816.48 682.009 1816.47 681.526C1816.26 674.444 1814.73 667.996 1808.18 663.812C1806.67 662.841 1804.84 661.638 1806.04 658.95C1807.28 658.95 1808.63 658.977 1809.97 658.94C1811.06 658.908 1812.16 658.887 1813.24 658.714C1815.54 658.341 1816.86 656.866 1816.72 654.908C1816.59 652.912 1815.2 652.025 1813.49 651.868C1811.33 651.668 1809.11 651.579 1806.97 651.847C1802.83 652.366 1798.8 652.503 1794.61 650.203H1794.6Z" fill="#F6F7FB" stroke="#F6F7FB" stroke-width="1.5" stroke-miterlimit="10"/>
<path d="M1733.48 700.517C1733.72 700.711 1734.44 701.142 1734.98 701.73C1738.38 705.42 1742.52 706.87 1747.54 706.586C1750.23 706.434 1752.96 707.143 1755.68 707.426C1757.31 707.599 1758.95 707.815 1760.58 707.82C1762.32 707.83 1763.26 705.903 1762.49 704.218C1760.9 700.763 1758.34 698.485 1754.61 697.608C1751.94 696.978 1749.21 696.558 1746.6 695.755C1741.98 694.332 1737.49 693.718 1733.49 696.663C1731.62 695.907 1730.14 695.151 1728.57 694.72C1726.73 694.216 1724.82 693.739 1722.93 693.712C1719.52 693.665 1717.33 692.09 1715.62 689.265C1714.99 688.236 1713.63 687.654 1712.89 687.092C1709.51 688.063 1708.35 690.195 1708.3 692.82C1708.25 695.755 1709.68 698.228 1712.23 699.598C1714.11 700.601 1716.35 701.43 1718.43 701.441C1723.04 701.462 1727.65 700.921 1733.49 700.522L1733.48 700.517Z" fill="#F6F7FB" stroke="#F6F7FB" stroke-width="1.5" stroke-miterlimit="10"/>
<path d="M1805 592.099C1806.71 592.482 1807.75 592.865 1808.81 592.923C1814.44 593.227 1819.81 593.768 1822.23 600.195C1822.82 601.775 1824.75 602.195 1826.51 601.722C1827.57 601.439 1828.65 601.145 1829.6 600.641C1836.75 596.84 1838.49 588.964 1833.5 582.732C1832.18 581.078 1830.53 579.682 1828.83 577.96C1826.36 580.543 1824.15 582.863 1822.11 584.995C1818.15 585.147 1815.15 581.577 1811.41 583.635C1808.26 585.368 1805.17 587.09 1805 592.104V592.099Z" fill="#F6F7FB" stroke="#F6F7FB" stroke-width="1.5" stroke-miterlimit="10"/>
<path d="M1549.38 596.819C1550.12 600.872 1550.59 604.652 1551.55 608.317C1552.16 610.69 1555.18 611.126 1556.79 609.32C1557.33 608.711 1557.88 608.081 1558.27 607.372C1563.57 597.601 1562.66 588.035 1557.16 578.695C1556.81 578.112 1555.7 577.472 1555.16 577.624C1554.25 577.881 1552.96 578.637 1552.8 579.388C1551.52 585.221 1550.47 591.101 1549.38 596.819Z" fill="#F6F7FB" stroke="#F6F7FB" stroke-width="1.5" stroke-miterlimit="10"/>
<path d="M1826.7 636.379C1825.99 636.096 1825.48 635.681 1825.02 635.734C1822.86 636.001 1820.71 636.353 1818.57 636.757C1812.42 637.918 1806.36 639.902 1799.96 638.301C1798.52 637.944 1797.28 638.773 1796.9 640.322C1796.47 642.055 1796.81 643.787 1798.53 644.502C1799.97 645.105 1801.71 645.431 1803.26 645.284C1809.24 644.717 1815.22 644.029 1821.17 643.142C1824.92 642.58 1826.69 640.107 1826.7 636.374V636.379Z" fill="#F6F7FB" stroke="#F6F7FB" stroke-width="1.5" stroke-miterlimit="10"/>
<path d="M1850.91 629.875C1849.74 629.728 1849.39 629.565 1849.24 629.68C1843.02 634.4 1841.37 641 1841.77 648.345C1841.88 650.298 1844.76 651.164 1846.24 649.81C1846.83 649.264 1847.46 648.681 1847.84 647.988C1850.93 642.36 1852.52 636.474 1850.9 629.875H1850.91Z" fill="#F6F7FB" stroke="#F6F7FB" stroke-width="1.5" stroke-miterlimit="10"/>
<path d="M1807.62 574.269C1815.65 576.191 1816.87 576.206 1821.82 574.495C1821.93 571.801 1820.01 570.084 1818.56 568.242C1816.57 565.711 1814.29 562.566 1810.65 563.999C1807.33 565.312 1806.72 568.856 1806.87 572.258C1806.89 572.757 1807.22 573.245 1807.62 574.269Z" fill="#F6F7FB" stroke="#F6F7FB" stroke-width="1.5" stroke-miterlimit="10"/>
<path d="M1806.01 466.176C1805.49 466.082 1804.88 465.762 1804.45 465.924C1798.59 468.187 1794.13 477.869 1796.28 483.513C1796.87 485.051 1798.97 485.508 1800.37 484.4C1805.32 480.499 1807.64 472.991 1806.01 466.171L1806.01 466.176Z" fill="#F6F7FB" stroke="#F6F7FB" stroke-width="1.5" stroke-miterlimit="10"/>
<path d="M1823.15 560.923C1822.66 564.965 1824.46 566.761 1827.85 566.341C1828.89 566.21 1829.99 565.931 1830.91 565.438C1832.63 564.514 1833.45 561.836 1832.85 559.72C1832.17 557.363 1829.89 555.179 1827.78 555.079C1825.42 554.969 1824.7 556.964 1823.83 558.571C1823.33 559.489 1823.23 560.623 1823.15 560.917V560.923Z" fill="#F6F7FB" stroke="#F6F7FB" stroke-width="1.5" stroke-miterlimit="10"/>
<path d="M1819.1 719.696C1817.38 717.785 1817.8 715.774 1818.83 714.199C1821.08 710.77 1823.56 707.479 1826.14 704.286C1827.72 702.333 1829.96 702.339 1832.16 703.284C1834.55 704.313 1836.53 705.914 1836.56 708.681C1836.58 709.852 1835.81 711.553 1834.87 712.13C1830.46 714.824 1825.89 717.244 1821.32 719.654C1820.7 719.979 1819.76 719.701 1819.1 719.701L1819.1 719.696Z" fill="#F6F7FB" stroke="#F6F7FB" stroke-width="1.5" stroke-miterlimit="10"/>
<path d="M1794.39 719.097C1792.15 718.856 1790.36 716.84 1790.42 714.619C1790.48 712.692 1792.24 711.127 1794.29 711.18C1796.62 711.238 1798.31 713.154 1798.15 715.559C1798.02 717.585 1796.21 719.286 1794.39 719.092V719.097Z" fill="#F6F7FB" stroke="#F6F7FB" stroke-width="1.5" stroke-miterlimit="10"/>
<path d="M2150.18 181.533C2152.79 180.373 2155.12 179.57 2157.19 178.352C2160.05 176.677 2161.36 174.031 2160.74 170.681C2160.45 169.064 2160.02 167.447 2159.42 165.919C2157.96 162.17 2157.59 158.6 2159.56 154.809C2161.01 152.032 2159.77 149.501 2157.61 147.406C2154.91 144.792 2151.7 143.458 2147.94 143.479C2142.44 143.511 2136.94 143.505 2131.44 143.621C2126.97 143.71 2122.68 143.217 2118.72 140.88C2117.32 140.051 2115.73 139.468 2114.16 138.996C2110.32 137.84 2108.67 138.449 2106.54 141.825C2104.81 144.582 2103.23 147.433 2101.74 149.974C2100.62 149.974 2100.02 150.121 2099.55 149.942C2098.8 149.648 2097.86 149.312 2097.47 148.693C2093.74 142.844 2087.83 141.72 2081.66 141.516C2075.91 141.321 2070.13 141.374 2064.39 141.699C2060.01 141.946 2055.63 142.639 2051.31 143.432C2046.68 144.277 2042.88 143.516 2039.18 140.214C2032.15 133.934 2023.92 130.621 2014.22 131.981C2010.41 132.517 2006.55 132.669 2002.72 133.026C2000.8 133.204 1998.88 133.367 1996.98 133.661C1991.25 134.554 1986.13 133.246 1981.43 129.818C1978.55 127.718 1975.42 125.949 1972.41 124.032C1968.07 121.286 1963.48 119.948 1958.29 120.945C1955.6 121.46 1952.83 121.654 1950.09 121.785C1947.04 121.932 1944 121.654 1941.43 119.743C1938.52 117.585 1935.34 116.12 1931.85 115.112C1930.31 114.671 1929.06 113.306 1930.32 111.096C1935.62 108.78 1941.99 108.775 1947.46 104.895C1945.94 103.32 1944.88 101.288 1943.31 100.763C1936.31 98.411 1929.03 97.2191 1921.7 96.3424C1918.2 98.7732 1914.21 97.4239 1910.46 97.7389C1905.31 98.1694 1905.3 98.0119 1900.56 95.4183C1897.62 98.1747 1896.81 99.986 1897.66 102.191C1898.44 104.202 1900.21 105.005 1902.14 105.399C1903.75 105.725 1905.4 105.819 1907.05 105.998C1909.23 106.239 1911.45 106.302 1913.59 106.743C1916.84 107.41 1918.44 109.468 1918.1 112.571C1917.86 114.739 1917.54 117.013 1916.68 118.982C1914.51 123.948 1911.8 128.406 1905.1 127.214C1904.07 127.03 1902.8 127.14 1901.86 127.592C1895.39 130.732 1888.38 129.739 1881.59 130.448C1879.51 130.663 1877.87 130.144 1876.32 128.789C1875.54 128.112 1874.5 127.749 1873.2 127.041C1870.55 129.13 1868.05 131.22 1865.42 133.147C1860.71 136.601 1856.75 135.987 1853.63 131.068C1852.5 129.288 1852.01 127.035 1851.53 124.93C1850.98 122.531 1850.93 120.021 1850.37 117.622C1849.68 114.65 1847.73 112.854 1844.56 112.702C1832.42 112.125 1820.42 111.925 1809.47 118.687C1805.02 121.428 1800.17 121.843 1795.41 118.813C1791.86 116.556 1787.86 115.495 1783.69 115.238C1776.83 114.818 1769.97 114.472 1763.11 114.141C1761.19 114.046 1759.25 114.246 1757.33 114.094C1755.69 113.962 1754.06 113.516 1753.74 111.001C1755.56 108.36 1757.77 105.578 1759.52 102.538C1761.2 99.6238 1760.35 97.0511 1757.35 95.6966C1755.12 94.6885 1752.72 93.8537 1750.31 93.5072C1743.79 92.5727 1737.23 91.8534 1730.66 91.2181C1726.5 90.8138 1722.44 91.5436 1718.51 92.9927C1716.76 93.6385 1714.95 94.153 1713.38 94.6518C1706.86 88.4145 1704.18 87.3801 1695.52 87.4799C1692.81 87.5114 1690.11 87.4799 1686.8 87.4799C1676.22 95.7911 1664.56 101.677 1650.51 94.1792C1649.5 91.7956 1648.58 89.6693 1647.68 87.5534C1644.12 88.4039 1643.02 91.2233 1641.03 93.0084C1635.19 98.2534 1629.07 102.501 1620.42 101.078C1614.11 100.044 1607.91 100.963 1601.9 103.666C1597.64 105.588 1593.39 107.352 1589.49 110.04C1583.49 114.172 1576.89 116.624 1569.33 115.81C1565.8 115.432 1562.19 115.621 1558.61 115.721C1557.37 115.758 1556.14 116.288 1555.13 116.535C1554.58 119.601 1556.47 120.635 1558.01 121.559C1561.79 123.806 1565.66 125.896 1569.59 127.87C1574.12 130.138 1575.64 133.976 1575.68 138.691C1575.7 140.928 1574.48 142.524 1572.55 142.912C1570.74 143.274 1568.7 142.14 1567.89 140.292C1567.68 139.794 1567.41 139.253 1567.41 138.733C1567.39 133 1563.75 130.469 1558.87 129.136C1555.06 128.096 1551.75 126.384 1549.04 123.423C1547.95 122.237 1546.53 121.265 1545.09 120.515C1540.53 118.136 1536.22 119.99 1534.74 124.962C1534.12 127.056 1533.96 129.293 1533.3 131.372C1532.61 133.54 1529.96 134.769 1527.17 134.543C1525.59 134.417 1524.56 132.942 1524.26 130.191C1524.04 128.28 1524.06 126.332 1523.72 124.447C1523.5 123.224 1522.83 122.084 1522.12 120.31C1519.11 122.914 1517.34 125.655 1515.91 128.553C1515.37 129.655 1515.24 131.351 1515.68 132.48C1517.54 137.279 1517.64 142.088 1516.58 147.044C1516.3 148.362 1516.52 149.816 1518.69 150.362C1524.74 145.543 1531.35 141.358 1540.06 143.647C1541.3 147.333 1542.41 150.62 1543.48 153.77C1535.85 158.763 1535.11 158.611 1526.56 150.756C1523.5 150.609 1521.45 152.483 1519.59 154.515C1517.73 156.537 1515.79 158.574 1514.39 160.905C1510.89 166.727 1505.45 169.657 1499.3 171.621C1498.47 171.888 1497.42 171.463 1495.74 171.279C1496.96 169.258 1497.59 167.72 1498.65 166.57C1500.69 164.349 1503 162.385 1505.15 160.259C1508.91 156.542 1510.82 152.567 1508.88 146.95C1506.8 140.949 1505.82 134.685 1509.3 128.595C1510.31 126.831 1510.02 124.662 1508.24 123.365C1504.25 120.452 1500.15 117.679 1496.02 114.96C1494.19 113.752 1492.3 114.193 1490.71 115.595C1489.48 116.687 1488.39 117.931 1487.23 119.092C1482.79 123.491 1479.25 128.81 1472.92 131.146C1469.91 132.254 1469.32 136.339 1471.36 138.917C1472.52 140.382 1474.15 141.5 1475.66 142.66C1477.62 144.162 1479.74 145.448 1481.64 147.013C1482.94 148.084 1484.05 149.706 1482.84 151.281C1482.17 152.158 1480.44 152.825 1479.34 152.651C1476.65 152.231 1474.03 151.339 1471.43 150.494C1468.56 149.559 1465.79 148.315 1462.9 147.475C1459.49 146.482 1455.91 146.036 1452.55 144.892C1450.1 144.057 1447.64 143.721 1445.15 143.579C1434.68 155.665 1431.26 182.242 1427.86 180.861C1424.19 179.37 1425.3 194.16 1422.54 195.998C1419.78 197.835 1413.96 203.868 1405.83 202.666C1381.61 199.08 1373.67 210.016 1381.95 210.016C1390.22 210.016 1391.14 230.224 1391.14 235.737C1391.14 241.25 1384.7 255.945 1383.78 261.537C1382.86 267.128 1358.98 280.747 1356.22 283.425C1353.46 286.103 1346.11 280.747 1344.4 289.93C1343.2 296.404 1352.45 305.292 1358.02 309.986C1358.42 310.06 1358.83 310.128 1359.22 310.233C1364.44 311.656 1368.98 310.69 1372.73 306.631C1373.1 306.232 1373.62 305.975 1373.98 305.571C1378.88 300.11 1383.78 301.497 1389.31 305.744C1393.07 308.632 1395.81 312.995 1397.43 318.003C1391.28 322.729 1385.55 321.012 1380.23 317.678C1377.17 317.883 1375.19 319.232 1373.75 321.395C1372.32 323.537 1371.74 325.858 1372.55 328.367C1378.55 331.497 1378.68 331.428 1381.62 337.057C1383.23 340.117 1385.17 342.475 1388.52 343.677C1389.7 344.102 1390.6 345.268 1391.97 346.36C1391.22 347.741 1390.66 348.917 1389.97 350.025C1389.26 351.169 1388.44 352.246 1387.4 353.716C1391.72 360.221 1393.8 367.503 1394.7 375.168C1395.15 379.027 1394.51 380.287 1391.15 381.469C1386.39 383.143 1381.59 383.847 1376.66 382.046C1372.8 380.634 1368.94 379.216 1365 378.024C1361.06 376.827 1359.33 374.118 1358.68 370.259C1358.22 367.503 1357.76 364.841 1359.57 361.775C1364.18 361.087 1368.35 358.766 1371.36 354.571C1371.36 354.571 1371.36 354.561 1371.37 354.556C1368.05 351.511 1361.82 346.56 1357.14 347.373C1350.45 348.539 1354.38 355.138 1350.7 355.317C1347.03 355.495 1341.51 347.788 1336.01 344.659C1332.06 342.417 1322.7 340.711 1317.68 339.918C1320.35 344.984 1318.7 348.712 1312.9 349.536C1307.75 350.271 1302.5 350.361 1297.29 350.581C1293.55 350.739 1290.41 348.891 1287.34 347.032C1282.24 343.95 1276.73 342.596 1270.8 342.932C1267.17 343.136 1263.66 343.677 1261.04 346.591C1259.08 348.775 1256.56 349.741 1253.7 349.799C1250.41 349.867 1247.05 349.384 1243.84 349.904C1241.13 350.345 1238.57 351.773 1235.25 353.091C1231.43 356.761 1227.2 360.105 1223.97 362.499C1224.07 364.699 1224.12 366.899 1224.08 369.094C1224.02 372.181 1225.39 374.244 1227.96 375.83C1231.69 378.135 1235.34 380.56 1238.95 383.038C1241.84 385.018 1245.1 385.931 1248.34 385.144C1252.27 384.188 1255.92 384.33 1259.65 385.679C1262.61 386.75 1265.63 386.519 1268.59 385.742C1271.25 385.044 1273.83 384.057 1276.49 383.39C1278.01 383.012 1279.62 383.017 1281.16 382.849C1283.41 395.97 1280.88 405.93 1271.81 418.772C1274.18 424.206 1278.87 436.581 1280.89 443.096C1281.89 443.474 1282.7 444.236 1283.19 445.412C1285.62 451.239 1288.04 457.067 1290.26 462.974C1291.13 465.289 1291.41 467.951 1293.66 469.363C1297.06 471.5 1297.81 474.734 1298.6 478.367C1300.66 487.828 1303.61 496.864 1311.37 503.626C1318.06 509.46 1321.16 517.44 1322.93 525.945C1323.71 529.71 1324.16 533.543 1324.94 537.312C1325.71 541.077 1326.45 544.878 1327.66 548.506C1329.4 553.772 1331.55 554.911 1337.06 553.851C1343.03 552.706 1348.7 550.784 1353.97 547.571C1361.01 543.271 1368.31 539.481 1376.22 536.887C1384.8 534.073 1392.47 529.211 1400.62 525.415C1401.59 524.964 1402.38 524.108 1403.22 523.399C1409.98 517.655 1415.82 511.166 1420.04 503.27C1422.63 498.434 1425.56 493.782 1428.33 489.041C1430.29 485.686 1430.25 483.707 1427.86 480.735C1424.52 476.593 1420.36 473.18 1415.5 471.343C1410.95 469.626 1408.29 466.749 1406.48 462.569C1406.33 462.218 1405.54 462.139 1405.42 462.086C1400.4 466.145 1395.58 470.13 1390.65 473.968C1389.38 474.955 1387.81 475.643 1386.27 476.162C1384.82 476.651 1383.09 475.931 1383.01 474.535C1382.69 469.285 1379.06 466.323 1375.83 462.953C1374.36 461.414 1372.76 459.54 1372.3 457.571C1371.33 453.287 1368.75 450.216 1365.99 447.139C1364.52 445.506 1363.02 443.863 1361.77 442.067C1358.18 436.917 1358.77 432.412 1363.45 428.201C1366.34 425.597 1368.76 426.117 1370.59 429.771C1370.96 430.506 1371.24 431.288 1371.52 432.065C1373.98 439.069 1378.04 444.687 1384.89 448.089C1386.83 449.055 1388.45 450.662 1390.25 451.927C1392.69 453.649 1395.18 455.324 1397.24 456.742C1402.65 456.264 1405.66 451.413 1411.17 451.476C1413.06 453.996 1415.17 456.511 1416.95 459.241C1419.86 463.714 1423.88 466.297 1429.17 466.581C1437.12 467.001 1445.09 467.253 1453.06 467.426C1456.76 467.505 1459.8 466.25 1462.48 463.289C1465.53 459.918 1467.79 460.359 1470.63 463.887C1471.49 464.958 1472.28 466.092 1472.99 467.263C1475.24 470.923 1478.09 473.49 1482.59 474.304C1486.68 475.044 1488.27 478.042 1488.31 482.184C1488.34 484.888 1488.68 487.708 1489.51 490.265C1491.85 497.473 1494.98 498.329 1500.91 493.856C1502.49 492.659 1503.56 490.233 1506.58 491.157C1506.58 495.258 1506.77 499.374 1506.54 503.469C1506.22 509.019 1506.78 514.416 1508.06 519.818C1511.84 535.716 1518.02 550.643 1526.04 564.829C1529.71 571.308 1533.43 577.666 1533.11 585.588C1532.99 588.481 1533.65 591.631 1536.9 593.989C1538.15 592.661 1539.71 591.532 1540.57 590.009C1544.77 582.601 1548.76 575.072 1552.86 567.612C1555.16 563.406 1556.37 558.959 1555.92 554.15C1555.46 549.225 1555.06 544.295 1554.41 539.397C1553.77 534.535 1555.41 530.755 1559.29 527.909C1560.83 526.775 1562.61 525.94 1564.13 524.78C1566.73 522.79 1569.72 521.026 1571.67 518.49C1577.36 511.082 1584.39 504.782 1589.29 496.738C1591.93 492.412 1595.98 490.354 1601.04 490.312C1602.97 490.296 1604.9 490.17 1606.82 490.265C1610.6 490.448 1613.76 489.514 1616.28 486.39C1617.38 485.025 1619.22 484.243 1620.94 483.04C1621.93 484.274 1622.92 485.004 1623.2 485.938C1624.96 491.871 1628.24 496.953 1632.16 501.584C1638.83 509.491 1640.8 518.432 1639.39 528.539C1638.6 534.236 1638.59 540.048 1638.33 545.807C1638.28 546.794 1638.14 548.081 1640.12 548.637C1640.94 547.587 1642.11 546.495 1642.77 545.146C1645.08 540.462 1647.32 535.737 1649.36 530.938C1650.94 527.247 1653.82 525.52 1657.49 524.748C1659.2 524.391 1660.96 525.525 1661.17 527.179C1661.39 528.807 1661.36 530.466 1661.45 532.109C1661.79 538.698 1662.31 545.282 1662.41 551.876C1662.52 558.193 1664.76 563.669 1668.15 568.798C1668.82 569.806 1669.29 571.371 1671.75 570.672C1673.4 564.094 1675.12 557.221 1676.94 549.934C1678.24 550.464 1679.57 550.769 1680.63 551.483C1688.91 557.095 1694.29 564.923 1697.5 574.269C1699.38 579.724 1700.95 585.284 1702.77 590.76C1703.17 591.973 1703.98 593.049 1704.98 594.876C1706.53 592.409 1707.84 590.676 1708.79 588.76C1710.61 585.063 1712.38 581.325 1713.88 577.493C1715.41 573.618 1717.82 570.741 1721.99 570.058C1728.33 569.024 1731.58 565.328 1732.57 559.164C1733.05 556.192 1734.07 553.299 1734.46 550.322C1734.93 546.715 1734.46 543.093 1732.37 540.016C1727.75 533.201 1723.26 526.266 1718.16 519.824C1714.34 514.993 1711.45 509.922 1709.6 503.695C1713.98 498.959 1718.24 494.313 1722.56 489.734C1724.03 488.18 1725.94 487.881 1727.87 488.758C1729.74 489.608 1731.15 492.244 1730.57 494.302C1729.99 496.397 1728.79 498.308 1728.12 500.387C1727.03 503.763 1725.7 507.16 1725.33 510.641C1725.09 512.904 1725.96 515.529 1727.03 517.629C1728.5 520.48 1731.91 520.601 1733.79 517.996C1736.18 514.678 1738.27 511.145 1740.4 507.827C1739.07 505.469 1737.73 503.684 1737 501.673C1734.59 494.99 1739.27 489.262 1746.38 489.104C1760.41 488.789 1772.98 484.741 1781.5 472.66C1785.81 466.549 1790.71 461.078 1796.19 456.012C1799.61 452.856 1802.63 449.239 1805.62 445.653C1808.37 442.366 1809.65 438.618 1808.87 434.155C1808.36 431.199 1808.49 428.122 1808.41 425.104C1808.27 419.47 1806.69 414.246 1803.76 409.479C1801.6 405.972 1799.18 402.622 1796.96 399.151C1795.95 397.576 1795.13 395.875 1793.95 393.707C1796.11 392.452 1797.93 391.371 1799.77 390.331C1802.15 388.982 1804.75 387.921 1806.88 386.246C1808.27 385.144 1809.35 383.29 1809.9 381.558C1810.8 378.649 1808.5 375.909 1805.5 376.066C1803.59 376.166 1801.62 376.402 1799.81 376.98C1795.27 378.423 1791.75 377.137 1788.83 373.541C1787.97 372.475 1786.89 371.588 1786 370.543C1783.13 367.188 1783.61 363.14 1787.66 362.022C1793.06 360.531 1796.59 356.855 1800.43 353.359C1802.21 351.747 1803.68 349.568 1806.84 349.547C1807.46 352.445 1805.58 354.839 1805.33 357.47C1805.11 359.832 1804.29 362.384 1806.95 364.321C1812.95 363.696 1816.44 357.995 1822.12 356.456C1825.28 359.711 1825.41 363.481 1824.97 367.335C1824.76 369.235 1824.01 371.094 1823.92 372.989C1823.87 374.165 1824.59 375.373 1825.09 376.943C1826.55 376.108 1827.48 375.588 1828.4 375.063C1829.55 374.407 1830.7 373.745 1831.76 373.142C1837.48 379.074 1838.03 381.652 1835.02 387.9C1833.96 390.1 1832.82 392.263 1831.88 394.111C1832.71 398.08 1835.37 399.419 1838.35 400.322C1840.73 401.047 1842.59 399.703 1844.43 398.485C1853.41 392.557 1855.91 380.996 1850.22 371.798C1848.92 369.692 1847.47 367.666 1846.34 365.476C1845.37 363.602 1844.77 361.539 1843.9 359.302C1845.76 358.194 1847.05 357.17 1848.52 356.598C1851.82 355.317 1853.96 353.469 1854.68 349.647C1855.1 347.421 1856.78 345.131 1858.5 343.52C1862.07 340.17 1866.05 337.251 1870.11 333.959C1871.76 334.746 1873.4 335.733 1875.16 336.337C1879.65 337.881 1883.31 337.45 1886.92 333.418C1893.53 326.068 1900.65 319.137 1907.96 312.48C1914.93 306.132 1919.39 298.509 1921.84 289.542C1923.13 284.769 1924.41 279.991 1925.84 275.256C1926.18 274.095 1927.06 273.093 1928.04 271.407C1929.95 277.288 1930.14 282.417 1930.01 287.683C1929.83 294.262 1930.03 300.872 1930.51 307.44C1930.81 311.703 1933.51 314.218 1938.04 314.969C1940.11 310.947 1938.97 307.104 1938.09 303.544C1937.01 299.181 1938.14 296.041 1941.52 293.39C1942.35 292.739 1943 291.847 1943.53 291.274C1943.4 282.596 1943.36 282.475 1936.4 270.572C1939.72 267.386 1941.27 263.569 1936.57 259.09C1933.26 259.521 1929.53 260.014 1925.45 260.544C1924.91 259.967 1924.13 259.221 1923.46 258.387C1921.31 255.662 1918.49 255.158 1915.31 255.961C1914.25 256.229 1913.23 256.654 1912.22 257.063C1902.59 260.985 1904.29 258.591 1901.69 251.341C1899.81 252.496 1898.07 253.798 1896.12 254.627C1895.4 254.937 1894.03 254.36 1893.28 253.766C1892.84 253.425 1892.74 252.107 1893.04 251.498C1893.62 250.296 1894.4 248.994 1895.45 248.238C1898.13 246.332 1900.81 244.232 1903.83 243.061C1909.91 240.693 1914.73 236.761 1919.2 232.219C1921.9 229.473 1924.74 226.864 1927.43 224.113C1930.71 220.768 1934.51 219.136 1939.28 219.603C1943.38 220.007 1947.52 220.018 1951.64 220.275C1959.93 220.789 1968.17 220.669 1975.98 217.335C1978.87 216.101 1981.15 216.867 1983.67 218.427C1986.45 220.144 1989.45 221.698 1992.56 222.617C1996.27 223.719 2000.33 224.102 2003.47 221.047C2010.77 213.938 2020.24 209.501 2027.01 201.705C2029.19 199.185 2032.29 197.799 2035.77 197.631C2037.53 197.546 2039.1 198.644 2039.32 200.35C2039.56 202.251 2039.48 204.199 2039.75 206.094C2040.09 208.609 2042.21 210 2044.56 208.877C2048.74 206.876 2052.73 204.477 2056.79 202.245C2057.39 203.584 2057.14 204.724 2055.94 205.684C2048.22 211.838 2040.99 218.684 2031.37 222.044C2024.1 224.585 2018.79 229.489 2014.47 235.879C2010.4 241.885 2009.46 247.923 2012 254.601C2013.08 257.426 2014.19 260.235 2015.31 263.049C2017.01 267.349 2017.1 271.533 2014.92 275.781C2013.68 278.212 2012.8 280.847 2011.95 283.457C2011.59 284.57 2011.74 285.845 2011.64 287.442C2018.09 281.351 2024.12 275.796 2029.98 270.068C2032.33 267.774 2034.53 265.243 2036.4 262.545C2040.05 257.258 2043.95 252.433 2050.49 250.501C2052.35 249.949 2053.66 248.511 2054.2 246.416C2055.3 242.168 2056.64 237.984 2057.74 233.737C2058.15 232.188 2058.78 230.298 2058.26 228.985C2056.29 224.055 2059.19 220.411 2061.26 216.699C2063.67 212.384 2068.16 211.596 2072.67 211.339C2074.87 211.213 2077.07 211.192 2079.27 211.255C2083.67 211.386 2088.07 211.565 2092.46 211.806C2100.93 212.268 2108.86 210.74 2116.06 206.01C2122.83 201.568 2130.48 199.29 2138.23 197.347C2143.82 195.945 2149.38 194.307 2155.23 196.365C2156.65 196.869 2158.54 196.811 2159.46 194.465C2158.08 189.335 2151.46 187.408 2150.18 181.507V181.533Z" fill="#F6F7FB" stroke="#F6F7FB" stroke-width="1.5" stroke-miterlimit="10"/>
<path d="M1870.62 672.79C1872.65 674.727 1874.89 673.709 1877.01 673.667C1879.19 673.625 1881.36 673.656 1883.8 673.656C1885.34 676.89 1888.04 678.392 1891.59 678.754C1893.48 678.949 1895.36 679.526 1897.19 680.104C1904.36 682.367 1910.46 689.197 1912.37 697.167C1910.84 698.102 1909.17 698.978 1907.66 700.076C1906.25 701.094 1905.33 702.433 1906.63 704.486C1908.38 704.486 1910.29 704.47 1912.19 704.486C1914.32 704.507 1916.45 704.565 1918.41 704.601C1918.94 705.536 1919.42 706.402 1919.88 707.247V658.368C1910.81 653.474 1901.16 652.303 1891.52 655.737C1887.28 654.509 1883.42 653.049 1879.43 652.351C1876.49 651.836 1874.49 650.781 1872.7 648.34C1870.28 645.027 1868.26 645.011 1865.22 647.809C1863.5 649.395 1861.35 650.881 1861.38 653.763C1865.71 657.06 1871.92 655.154 1875.8 659.349C1874.81 664.19 1869.63 667.403 1870.62 672.78V672.79Z" fill="#F6F7FB" stroke="#F6F7FB" stroke-width="1.5" stroke-miterlimit="10"/>
<path d="M2001.96 847.624C1998.18 838.788 1994.2 830.031 1990.04 821.368C1986.44 813.881 1983.04 806.341 1982.9 797.904C1982.82 793.415 1980.56 791.494 1976.65 790.58C1973.17 789.766 1969.74 788.737 1966.25 787.981C1961.39 786.931 1958.63 783.802 1957.34 779.245C1956.44 776.079 1955.62 772.86 1955.11 769.616C1953.82 761.504 1950.58 754.343 1945.02 748.315C1939.48 742.325 1935.84 735.363 1933.58 727.572C1933.1 725.902 1932.1 724.385 1930.85 721.791C1927.32 729.803 1925.82 737.08 1927.92 744.351C1929.38 749.397 1929.64 754.049 1927.92 758.826C1926.28 763.394 1925.5 768.398 1921.41 772.897C1919.2 771.595 1917.36 770.881 1916 769.642C1911.49 765.52 1906.4 762.328 1901.05 759.456C1899.12 758.427 1897.32 757.115 1895.6 755.76C1893.73 754.28 1892.94 752.211 1893.61 749.875C1894.38 747.244 1895.29 744.651 1896.27 742.089C1897.25 739.5 1898.34 736.97 1896.94 733.867C1891.23 730.029 1884.75 734.224 1877.57 732.559C1877.31 732.197 1876.62 730.953 1875.64 730.013C1874.7 729.11 1873.45 728.527 1872.57 727.95C1867.99 729.682 1870.87 734.649 1867.99 737.384C1866.24 735.436 1864.85 733.772 1863.33 732.25C1862.46 731.383 1861.36 730.758 1860.43 730.065C1859.47 733.132 1859.19 736.082 1857.73 738.23C1855.39 741.668 1853.41 745.144 1851.99 749.066C1850.69 752.652 1847.9 753.109 1844.81 750.541C1843.34 749.323 1842.19 747.717 1840.76 746.451C1839.37 745.228 1837.8 744.21 1836.51 743.244C1829.42 746.767 1829.13 747.129 1826.56 752.951C1825.36 755.66 1825.06 758.853 1822.31 761.063C1816.49 762.37 1810.8 757.493 1804.32 760.065C1804.01 761.767 1803.36 763.609 1803.41 765.436C1803.54 770.377 1803.98 775.307 1804.25 780.247C1804.33 781.828 1804.27 783.424 1804.27 785.45C1801.63 786.065 1799.27 786.606 1796.91 787.173C1795.06 787.619 1792.98 787.719 1791.41 788.658C1788.14 790.611 1784.73 791.236 1781.11 790.706C1776.94 790.097 1773.59 791.609 1770.5 794.15C1765.83 797.993 1760.87 801.537 1756.55 805.732C1753.65 808.546 1751.3 812.085 1749.31 815.64C1746.78 820.144 1747.26 821.415 1750.97 824.959C1753.52 827.395 1756.68 829.232 1758.51 832.556C1755.11 839.675 1756.8 845.839 1761.44 851.751C1763.23 854.04 1765 857.027 1765.14 859.778C1765.36 864.267 1767.07 867.659 1769.86 870.841C1770.77 871.87 1771.49 873.051 1772.29 874.169C1773.98 876.537 1773.73 878.9 1771.9 880.963C1770.08 883.011 1767.97 884.791 1766.05 886.754C1763.39 889.479 1763.12 891.543 1765.17 894.845C1766.18 896.467 1767.49 897.906 1768.68 899.413C1770.93 902.269 1773.93 903.161 1777.46 902.846C1782.53 902.4 1787.34 900.951 1791.19 897.748C1796.75 893.128 1802.55 893.055 1808.89 895.333C1810.7 895.984 1812.56 896.494 1814.44 896.929C1815.94 897.281 1817.48 897.428 1819.19 897.691C1820.57 892.44 1821.59 887.61 1823.12 882.948C1825.11 876.9 1827.29 875.193 1833.55 876.264C1838.81 877.162 1843.14 875.823 1847.79 873.907C1853.07 871.733 1858.52 869.649 1864.32 870.258C1867.5 873.776 1871.31 876.341 1875.74 877.955C1877.29 878.517 1878.86 879.057 1880.33 879.787C1884.88 882.05 1885.78 884.003 1884.96 889.033C1884.58 891.359 1883.25 893.648 1884.49 896.667C1887.87 896.735 1891.02 897.071 1892.75 893.102C1893.39 891.616 1894.3 890.136 1895.43 888.991C1897.45 886.949 1899.27 884.366 1902.73 884.303C1904.76 888.041 1902.1 892.351 1904.93 895.643C1906.19 895.176 1907.33 894.745 1908.69 894.236C1910.35 897.486 1911.71 900.757 1915.17 902.589C1917.8 903.986 1918.47 906.779 1918.61 909.677C1918.74 912.654 1918.19 915.757 1919.97 918.592C1923 919.695 1926.41 920.314 1929.06 922.073C1931.88 923.947 1933.98 926.908 1936.76 929.759C1939.09 927.339 1941.11 925.234 1942.98 923.286C1947.9 922.451 1950.61 926.525 1954.83 927.859C1956.53 926.866 1958.37 925.711 1960.28 924.682C1963.18 923.128 1965.97 921.002 1969.08 920.304C1975.07 918.96 1977.83 915.127 1979.23 909.698C1979.51 908.632 1979.86 907.587 1980.16 906.532C1982.49 898.42 1986.61 891.469 1992.95 885.757C1996.4 882.638 1999.45 879.052 2002.56 875.566C2006.54 871.098 2007.49 865.801 2006 860.141C2004.88 855.899 2003.67 851.625 2001.96 847.603V847.624Z" fill="#F6F7FB" stroke="#F6F7FB" stroke-width="1.5" stroke-miterlimit="10"/>
</g>
<defs>
<clipPath id="clip0_3208_1216">
<rect width="2164" height="1046" fill="white" transform="translate(-2)"/>
</clipPath>
</defs>
</svg>
