<?xml version="1.0" encoding="utf-8"?>
<!-- Generator: Adobe Illustrator 27.3.1, SVG Export Plug-In . SVG Version: 6.00 Build 0)  -->
<svg version="1.1" id="Capa_1" xmlns="http://www.w3.org/2000/svg" xmlns:xlink="http://www.w3.org/1999/xlink" x="0px" y="0px"
	 viewBox="0 0 431 432" style="enable-background:new 0 0 431 432;" xml:space="preserve">
<style type="text/css">
	.st0{fill:#232C61;}
	.st1{fill:#FFFFFF;}
	.st2{fill:#266392;}
	.st3{opacity:0.15;}
	.st4{fill:#404041;}
	.st5{fill:#C1C1C1;}
	.st6{fill:#4D4D4D;}
</style>
<path class="st0" d="M31.3,30.8l2.4-2.4c0.3-0.3,0.3-0.7,0-1l-14-13.9c-0.3-0.3-0.7-0.3-1,0l-2.4,2.4c-0.3,0.3-0.3,0.7,0,1l14,13.9
	C30.5,31.1,31,31.1,31.3,30.8z"/>
<path class="st0" d="M88.3,16.1l-2.4-2.4c-0.3-0.3-0.7-0.3-1,0l-14,13.9c-0.3,0.3-0.3,0.7,0,1l2.4,2.4c0.3,0.3,0.7,0.3,1,0l14-13.9
	C88.6,16.8,88.6,16.3,88.3,16.1z"/>
<path class="st0" d="M3.4,47.6v3.4c0,0.4,0.3,0.7,0.7,0.7h19.8c0.4,0,0.7-0.3,0.7-0.7v-3.4c0-0.4-0.3-0.7-0.7-0.7H4.1
	C3.7,46.8,3.4,47.2,3.4,47.6z"/>
<path class="st0" d="M16.4,82.5l2.4,2.4c0.3,0.3,0.7,0.3,1,0l14-13.9c0.3-0.3,0.3-0.7,0-1l-2.4-2.4c-0.3-0.3-0.7-0.3-1,0l-14,13.9
	C16.1,81.7,16.1,82.2,16.4,82.5z"/>
<path class="st0" d="M53.4,0H50c-0.4,0-0.7,0.3-0.7,0.7v19.7c0,0.4,0.3,0.7,0.7,0.7h3.4c0.4,0,0.7-0.3,0.7-0.7V0.7
	C54.1,0.3,53.8,0,53.4,0z"/>
<g>
	<path class="st1" d="M364.9,58.9H48.5c-2.2,0-3.9,1.3-3.9,3v297c0,1.6,1.7,3,3.9,3h316.5c2.2,0,3.9-1.3,3.9-3v-297
		C368.8,60.2,367.1,58.9,364.9,58.9z"/>
</g>
<g>
	<path class="st2" d="M368.8,109.3V43.4c0-2.3-1.7-4.1-3.9-4.1H48.1c-2.2,0-3.9,1.9-3.9,4.1v65.9H368.8L368.8,109.3z"/>
</g>
<g>
	<path class="st1" d="M115.1,69.7c-0.6-0.2-1.2-0.3-1.6-0.3c-0.5,0-0.9,0.1-1.2,0.3c-0.3,0.2-0.5,0.5-0.5,0.8c0,0.3,0.1,0.6,0.3,0.8
		s0.5,0.4,0.8,0.5c0.3,0.1,0.8,0.3,1.3,0.5c0.8,0.2,1.4,0.5,1.9,0.7c0.5,0.2,0.9,0.6,1.3,1c0.4,0.5,0.5,1,0.5,1.8
		c0,0.7-0.2,1.3-0.6,1.8c-0.4,0.5-0.9,0.9-1.6,1.2c-0.7,0.3-1.4,0.4-2.3,0.4c-0.9,0-1.8-0.2-2.6-0.5c-0.9-0.3-1.6-0.8-2.2-1.3
		l0.9-1.9c0.6,0.5,1.2,1,2,1.3s1.4,0.5,2,0.5c0.6,0,1.1-0.1,1.4-0.4s0.5-0.6,0.5-1c0-0.3-0.1-0.6-0.3-0.8c-0.2-0.2-0.5-0.4-0.8-0.5
		c-0.3-0.1-0.8-0.3-1.4-0.4c-0.8-0.2-1.4-0.5-1.9-0.7s-0.9-0.6-1.3-1c-0.4-0.4-0.5-1-0.5-1.7c0-0.7,0.2-1.3,0.5-1.7
		c0.4-0.5,0.9-0.9,1.5-1.2c0.6-0.3,1.4-0.4,2.3-0.4c0.7,0,1.5,0.1,2.2,0.3c0.7,0.2,1.4,0.5,1.9,0.9l-0.9,1.9
		C116.3,70.2,115.7,69.9,115.1,69.7z"/>
	<path class="st1" d="M120,67.6h8.4v1.9h-6.2v2.8h5.6v1.9h-5.6v2.9h6.4v1.9H120V67.6z"/>
	<path class="st1" d="M130.8,67.6h2.2v9.5h5v2h-7.2V67.6z"/>
	<path class="st1" d="M139.7,67.6h8.4v1.9h-6.2v2.8h5.6v1.9h-5.6v2.9h6.4v1.9h-8.6V67.6z"/>
	<path class="st1" d="M157.5,69.8c-0.6-0.3-1.1-0.4-1.7-0.4c-0.7,0-1.4,0.2-2,0.5s-1.1,0.8-1.4,1.4c-0.3,0.6-0.5,1.3-0.5,2
		s0.2,1.4,0.5,2c0.3,0.6,0.8,1.1,1.4,1.4c0.6,0.3,1.2,0.5,2,0.5c0.5,0,1.1-0.1,1.7-0.4c0.6-0.2,1-0.6,1.5-1l1.3,1.4
		c-0.6,0.6-1.3,1.1-2.1,1.5c-0.8,0.4-1.6,0.5-2.4,0.5c-1.1,0-2.1-0.3-3-0.8c-0.9-0.5-1.6-1.2-2.2-2.1c-0.5-0.9-0.8-1.9-0.8-3
		c0-1.1,0.3-2.1,0.8-3c0.5-0.9,1.3-1.6,2.2-2.1c0.9-0.5,2-0.8,3.1-0.8c0.8,0,1.6,0.2,2.4,0.5c0.8,0.3,1.5,0.8,2,1.4l-1.3,1.6
		C158.5,70.4,158.1,70.1,157.5,69.8z"/>
	<path class="st1" d="M160.8,67.6h9.4v2h-3.6v9.6h-2.2v-9.6h-3.6L160.8,67.6L160.8,67.6z"/>
	<path class="st1" d="M183.6,68.3c0.9,0.5,1.6,1.2,2.1,2s0.8,1.9,0.8,3s-0.3,2.1-0.8,3c-0.5,0.9-1.2,1.6-2.2,2
		c-0.9,0.5-2,0.7-3.1,0.7h-4.7V67.6h4.8C181.7,67.6,182.7,67.8,183.6,68.3z M182.5,76.7c0.6-0.3,1-0.8,1.3-1.4
		c0.3-0.6,0.5-1.2,0.5-2c0-0.7-0.2-1.4-0.5-2c-0.3-0.6-0.8-1-1.4-1.4c-0.6-0.3-1.2-0.5-1.9-0.5H178v7.6h2.6
		C181.3,77.2,181.9,77,182.5,76.7z"/>
	<path class="st1" d="M196.7,79.1l-1-2.4H190l-1,2.4h-2.3l5.1-11.5h2.3l5,11.5H196.7z M190.8,74.8h4l-2-4.8L190.8,74.8z"/>
	<path class="st1" d="M198,67.6h9.4v2h-3.6v9.6h-2.2v-9.6H198L198,67.6L198,67.6z"/>
	<path class="st1" d="M209,67.6h8.4v1.9h-6.2v2.8h5.6v1.9h-5.6v2.9h6.4v1.9H209L209,67.6L209,67.6z"/>
	<path class="st1" d="M232.4,79.1l-1-2.4h-5.6l-1,2.4h-2.3l5.1-11.5h2.3l5,11.5H232.4z M226.5,74.8h4l-2-4.8L226.5,74.8z"/>
	<path class="st1" d="M244.2,67.6h2.1v11.5h-2.1l-5.9-7.9v7.9h-2.2V67.6h2.1l5.9,7.9V67.6z"/>
	<path class="st1" d="M257,68.3c0.9,0.5,1.6,1.2,2.1,2c0.5,0.9,0.8,1.9,0.8,3s-0.3,2.1-0.8,3c-0.5,0.9-1.2,1.6-2.2,2
		c-0.9,0.5-2,0.7-3.1,0.7h-4.7V67.6h4.8C255.1,67.6,256.1,67.8,257,68.3z M255.9,76.7c0.6-0.3,1-0.8,1.3-1.4c0.3-0.6,0.5-1.2,0.5-2
		c0-0.7-0.2-1.4-0.5-2c-0.3-0.6-0.8-1-1.4-1.4s-1.2-0.5-1.9-0.5h-2.5v7.6h2.6C254.7,77.2,255.3,77,255.9,76.7z"/>
	<path class="st1" d="M264.6,67.6h9.4v2h-3.6v9.6h-2.2v-9.6h-3.6L264.6,67.6L264.6,67.6z"/>
	<path class="st1" d="M275.5,67.6h2.2v11.5h-2.2V67.6z"/>
	<path class="st1" d="M280.6,67.6h2.5l3.8,7.4l3.8-7.4h2.5v11.5h-2v-8.3l-3.6,7.1h-1.4l-3.6-7.1v8.3h-2L280.6,67.6L280.6,67.6z"/>
	<path class="st1" d="M296,67.6h8.4v1.9h-6.2v2.8h5.6v1.9h-5.6v2.9h6.4v1.9H296V67.6L296,67.6z"/>
</g>
<g>
	<path d="M240.1,126.4l4.7,4.7l4.7-4.7H240.1L240.1,126.4z"/>
</g>
<g>
	<path d="M271.4,128.8l1.3,1.3l5.3-5.3v11.5h1.9v-11.5l5.3,5.3l1.3-1.3l-7.6-7.6L271.4,128.8L271.4,128.8L271.4,128.8z"/>
</g>
<g>
	<path d="M332.1,128.8l-1.3-1.3l-5.3,5.3v-11.5h-1.9v11.5l-5.3-5.3l-1.3,1.3l7.6,7.6L332.1,128.8L332.1,128.8L332.1,128.8z"/>
</g>
<g>
	<path d="M83.7,192.5h0.8c0.5,0,0.9-0.1,1.1-0.4c0.3-0.3,0.4-0.6,0.4-1c0-0.9-0.5-1.4-1.4-1.4c-0.4,0-0.8,0.1-1.1,0.4
		c-0.3,0.3-0.4,0.6-0.4,1h-1c0-0.6,0.2-1.2,0.7-1.6c0.5-0.4,1.1-0.6,1.8-0.6c0.8,0,1.4,0.2,1.8,0.6c0.4,0.4,0.6,1,0.6,1.7
		c0,0.4-0.1,0.7-0.3,1c-0.2,0.3-0.5,0.6-0.9,0.7c0.4,0.1,0.8,0.4,1,0.7c0.2,0.3,0.4,0.7,0.4,1.2c0,0.7-0.2,1.3-0.7,1.7
		c-0.5,0.4-1.1,0.6-1.8,0.6s-1.4-0.2-1.9-0.6c-0.5-0.4-0.7-1-0.7-1.6h1c0,0.4,0.1,0.8,0.4,1c0.3,0.3,0.6,0.4,1.1,0.4
		c0.5,0,0.9-0.1,1.1-0.4c0.3-0.3,0.4-0.6,0.4-1.1c0-0.5-0.1-0.8-0.4-1.1c-0.3-0.3-0.7-0.4-1.2-0.4h-0.8L83.7,192.5L83.7,192.5z
		 M93.7,193.6c0,1.2-0.2,2.1-0.6,2.7c-0.4,0.6-1.1,0.9-1.9,0.9s-1.5-0.3-1.9-0.9c-0.4-0.6-0.6-1.4-0.6-2.6v-1.4
		c0-1.2,0.2-2.1,0.6-2.7c0.4-0.6,1.1-0.9,1.9-0.9s1.5,0.3,1.9,0.8c0.4,0.6,0.6,1.4,0.6,2.6L93.7,193.6L93.7,193.6L93.7,193.6z
		 M92.7,192.2c0-0.9-0.1-1.5-0.4-1.9c-0.2-0.4-0.6-0.6-1.2-0.6s-0.9,0.2-1.2,0.6c-0.2,0.4-0.4,1-0.4,1.8v1.6c0,0.9,0.1,1.5,0.4,1.9
		c0.3,0.4,0.6,0.6,1.2,0.6c0.5,0,0.9-0.2,1.1-0.6c0.3-0.4,0.4-1,0.4-1.9L92.7,192.2L92.7,192.2L92.7,192.2z"/>
</g>
<g>
	<path d="M89.9,219.3v0.9h-0.2c-0.8,0-1.4,0.3-1.9,0.7c-0.5,0.5-0.7,1.1-0.8,1.9c0.4-0.5,1-0.7,1.7-0.7s1.3,0.3,1.7,0.7
		c0.4,0.5,0.6,1.1,0.6,1.9c0,0.8-0.2,1.5-0.7,2c-0.5,0.5-1.1,0.7-1.8,0.7c-0.8,0-1.4-0.3-1.9-0.9c-0.5-0.6-0.7-1.4-0.7-2.3v-0.4
		c0-1.5,0.3-2.6,0.9-3.4c0.6-0.8,1.6-1.2,2.8-1.2L89.9,219.3L89.9,219.3z M88.6,223c-0.4,0-0.7,0.1-1,0.3c-0.3,0.2-0.5,0.5-0.6,0.8
		v0.4c0,0.7,0.1,1.2,0.5,1.6c0.3,0.4,0.7,0.6,1.1,0.6s0.8-0.2,1.1-0.5c0.3-0.3,0.4-0.8,0.4-1.3s-0.1-1-0.4-1.3
		C89.4,223.1,89,223,88.6,223z"/>
</g>
<g>
	<path d="M85.6,257.8h-1v-6.9l-2.1,0.8v-0.9l2.9-1.1h0.2V257.8L85.6,257.8z M90.1,253.2h0.8c0.5,0,0.9-0.1,1.1-0.4
		c0.3-0.3,0.4-0.6,0.4-1c0-0.9-0.5-1.4-1.4-1.4c-0.4,0-0.8,0.1-1.1,0.4c-0.3,0.3-0.4,0.6-0.4,1h-1c0-0.6,0.2-1.2,0.7-1.6
		c0.5-0.4,1.1-0.6,1.8-0.6c0.8,0,1.4,0.2,1.8,0.6c0.4,0.4,0.6,1,0.6,1.7c0,0.4-0.1,0.7-0.3,1c-0.2,0.3-0.5,0.6-0.9,0.7
		c0.4,0.1,0.8,0.4,1,0.7c0.2,0.3,0.4,0.7,0.4,1.2c0,0.7-0.2,1.3-0.7,1.7c-0.5,0.4-1.1,0.6-1.8,0.6c-0.8,0-1.4-0.2-1.9-0.6
		c-0.5-0.4-0.7-1-0.7-1.6h1c0,0.4,0.1,0.8,0.4,1c0.3,0.3,0.6,0.4,1.1,0.4c0.5,0,0.9-0.1,1.1-0.4c0.3-0.3,0.4-0.6,0.4-1.1
		c0-0.5-0.1-0.8-0.4-1.1c-0.3-0.3-0.7-0.4-1.2-0.4h-0.8L90.1,253.2L90.1,253.2z"/>
</g>
<g>
	<path d="M87.5,288.1h-5.3v-0.7l2.8-3.1c0.4-0.5,0.7-0.8,0.9-1.1c0.2-0.3,0.2-0.6,0.2-0.9c0-0.4-0.1-0.8-0.4-1s-0.6-0.4-1-0.4
		c-0.5,0-0.9,0.1-1.2,0.4c-0.3,0.3-0.4,0.7-0.4,1.2h-1c0-0.7,0.2-1.3,0.7-1.8c0.5-0.5,1.1-0.7,1.9-0.7c0.8,0,1.3,0.2,1.8,0.6
		c0.4,0.4,0.7,0.9,0.7,1.6c0,0.8-0.5,1.7-1.5,2.9l-2.2,2.4h4.1V288.1L87.5,288.1z M93.7,284.7c0,1.2-0.2,2.1-0.6,2.7
		c-0.4,0.6-1.1,0.9-1.9,0.9s-1.5-0.3-1.9-0.9c-0.4-0.6-0.6-1.4-0.6-2.6v-1.4c0-1.2,0.2-2.1,0.6-2.7c0.4-0.6,1.1-0.9,1.9-0.9
		c0.9,0,1.5,0.3,1.9,0.8c0.4,0.6,0.6,1.4,0.6,2.6L93.7,284.7L93.7,284.7L93.7,284.7z M92.7,283.3c0-0.9-0.1-1.5-0.4-1.9
		c-0.2-0.4-0.6-0.6-1.2-0.6c-0.5,0-0.9,0.2-1.2,0.6c-0.2,0.4-0.4,1-0.4,1.8v1.6c0,0.9,0.1,1.5,0.4,1.9c0.3,0.4,0.6,0.6,1.2,0.6
		s0.9-0.2,1.1-0.6c0.3-0.4,0.4-1,0.4-1.9L92.7,283.3L92.7,283.3L92.7,283.3z"/>
</g>
<g>
	<path d="M87.5,318.5h-5.3v-0.7l2.8-3.1c0.4-0.5,0.7-0.8,0.9-1.1c0.2-0.3,0.2-0.6,0.2-0.9c0-0.4-0.1-0.8-0.4-1
		c-0.3-0.3-0.6-0.4-1-0.4c-0.5,0-0.9,0.1-1.2,0.4c-0.3,0.3-0.4,0.7-0.4,1.2h-1c0-0.7,0.2-1.3,0.7-1.8c0.5-0.5,1.1-0.7,1.9-0.7
		c0.8,0,1.3,0.2,1.8,0.6c0.4,0.4,0.7,0.9,0.7,1.6c0,0.8-0.5,1.7-1.5,2.9l-2.2,2.4h4.1V318.5L87.5,318.5z M93.9,311l-3.4,7.5h-1.1
		l3.3-7.3h-4.4v-0.8h5.5V311z"/>
</g>
<g>
	<path d="M90.3,346.1h1.1v0.8h-1.1v1.9h-1V347h-3.7v-0.6l3.6-5.6h1.1L90.3,346.1L90.3,346.1L90.3,346.1z M86.7,346.1h2.5v-4
		l-0.1,0.2L86.7,346.1L86.7,346.1z"/>
</g>
<g>
	<path d="M125.3,192.5h0.8c0.5,0,0.9-0.1,1.1-0.4c0.3-0.3,0.4-0.6,0.4-1c0-0.9-0.5-1.4-1.4-1.4c-0.4,0-0.8,0.1-1.1,0.4
		c-0.3,0.3-0.4,0.6-0.4,1h-1c0-0.6,0.2-1.2,0.7-1.6c0.5-0.4,1.1-0.6,1.8-0.6c0.8,0,1.4,0.2,1.8,0.6c0.4,0.4,0.6,1,0.6,1.7
		c0,0.4-0.1,0.7-0.3,1c-0.2,0.3-0.5,0.6-0.9,0.7c0.4,0.1,0.8,0.4,1,0.7c0.2,0.3,0.4,0.7,0.4,1.2c0,0.7-0.2,1.3-0.7,1.7
		c-0.5,0.4-1.1,0.6-1.8,0.6c-0.8,0-1.4-0.2-1.9-0.6c-0.5-0.4-0.7-1-0.7-1.6h1c0,0.4,0.1,0.8,0.4,1c0.3,0.3,0.6,0.4,1.1,0.4
		c0.5,0,0.9-0.1,1.1-0.4c0.3-0.3,0.4-0.6,0.4-1.1c0-0.5-0.1-0.8-0.4-1.1c-0.3-0.3-0.7-0.4-1.2-0.4h-0.8L125.3,192.5L125.3,192.5z
		 M133.6,197.1h-1v-6.9l-2.1,0.8V190l2.9-1.1h0.2V197.1L133.6,197.1z"/>
</g>
<g>
	<path d="M132.7,219.9l-3.4,7.5h-1.1l3.3-7.3h-4.4v-0.8h5.5L132.7,219.9L132.7,219.9z"/>
</g>
<g>
	<path d="M127.2,257.8h-1v-6.9l-2.1,0.8v-0.9l2.9-1.1h0.2V257.8L127.2,257.8z M134.6,255.1h1.1v0.8h-1.1v1.9h-1v-1.9h-3.7v-0.6
		l3.6-5.6h1.1L134.6,255.1L134.6,255.1L134.6,255.1z M131,255.1h2.5v-4l-0.1,0.2L131,255.1L131,255.1z"/>
</g>
<g>
	<path d="M129.2,288.1h-5.3v-0.7l2.8-3.1c0.4-0.5,0.7-0.8,0.9-1.1c0.2-0.3,0.2-0.6,0.2-0.9c0-0.4-0.1-0.8-0.4-1
		c-0.3-0.3-0.6-0.4-1-0.4c-0.5,0-0.9,0.1-1.2,0.4c-0.3,0.3-0.4,0.7-0.4,1.2h-1c0-0.7,0.2-1.3,0.7-1.8s1.1-0.7,1.9-0.7
		c0.8,0,1.3,0.2,1.8,0.6c0.4,0.4,0.7,0.9,0.7,1.6c0,0.8-0.5,1.7-1.5,2.9l-2.2,2.4h4.1V288.1L129.2,288.1z M133.6,288.1h-1v-6.9
		l-2.1,0.8v-0.9l2.9-1.1h0.2V288.1L133.6,288.1z"/>
</g>
<g>
	<path d="M129.2,318.5h-5.3v-0.7l2.8-3.1c0.4-0.5,0.7-0.8,0.9-1.1c0.2-0.3,0.2-0.6,0.2-0.9c0-0.4-0.1-0.8-0.4-1
		c-0.3-0.3-0.6-0.4-1-0.4c-0.5,0-0.9,0.1-1.2,0.4c-0.3,0.3-0.4,0.7-0.4,1.2h-1c0-0.7,0.2-1.3,0.7-1.8c0.5-0.5,1.1-0.7,1.9-0.7
		c0.8,0,1.3,0.2,1.8,0.6c0.4,0.4,0.7,0.9,0.7,1.6c0,0.8-0.5,1.7-1.5,2.9l-2.2,2.4h4.1V318.5L129.2,318.5z M135.2,312.5
		c0,0.4-0.1,0.8-0.3,1.1c-0.2,0.3-0.5,0.6-0.9,0.7c0.4,0.2,0.8,0.4,1,0.8c0.3,0.3,0.4,0.7,0.4,1.2c0,0.7-0.2,1.3-0.7,1.7
		c-0.5,0.4-1.1,0.6-1.9,0.6s-1.4-0.2-1.9-0.6c-0.5-0.4-0.7-1-0.7-1.7c0-0.4,0.1-0.8,0.4-1.2c0.2-0.4,0.6-0.6,1-0.8
		c-0.4-0.2-0.6-0.4-0.8-0.7c-0.2-0.3-0.3-0.7-0.3-1.1c0-0.7,0.2-1.2,0.7-1.6c0.4-0.4,1-0.6,1.7-0.6s1.3,0.2,1.7,0.6
		C134.9,311.3,135.2,311.8,135.2,312.5L135.2,312.5z M134.3,316.3c0-0.5-0.1-0.8-0.4-1.1c-0.3-0.3-0.7-0.4-1.1-0.4
		c-0.5,0-0.8,0.1-1.1,0.4c-0.3,0.3-0.4,0.6-0.4,1.1c0,0.5,0.1,0.8,0.4,1.1c0.3,0.3,0.6,0.4,1.1,0.4s0.9-0.1,1.1-0.4
		C134.2,317.1,134.3,316.7,134.3,316.3L134.3,316.3L134.3,316.3z M132.8,311.1c-0.4,0-0.7,0.1-1,0.4c-0.3,0.2-0.4,0.6-0.4,1
		c0,0.4,0.1,0.7,0.4,1c0.3,0.3,0.6,0.4,1,0.4c0.4,0,0.7-0.1,1-0.4c0.3-0.3,0.4-0.6,0.4-1s-0.1-0.7-0.4-1S133.2,311.1,132.8,311.1
		L132.8,311.1L132.8,311.1z"/>
</g>
<g>
	<path d="M128,344.8l0.4-4h4.1v1h-3.3l-0.2,2.2c0.4-0.2,0.8-0.3,1.4-0.3c0.7,0,1.3,0.2,1.8,0.7s0.6,1.1,0.6,2s-0.2,1.5-0.7,2
		s-1.1,0.7-1.9,0.7c-0.7,0-1.3-0.2-1.7-0.6c-0.5-0.4-0.7-0.9-0.8-1.6h1c0.1,0.5,0.2,0.8,0.5,1c0.3,0.2,0.6,0.3,1.1,0.3
		c0.5,0,0.8-0.2,1.1-0.5c0.3-0.3,0.4-0.8,0.4-1.4c0-0.5-0.1-1-0.4-1.3c-0.3-0.3-0.7-0.5-1.2-0.5c-0.5,0-0.8,0.1-1.1,0.3l-0.3,0.2
		L128,344.8L128,344.8z"/>
</g>
<g>
	<path d="M171.4,197.1h-1v-6.9l-2.1,0.8V190l2.9-1.1h0.2V197.1L171.4,197.1z"/>
</g>
<g>
	<path d="M172.9,221.4c0,0.4-0.1,0.8-0.3,1.1c-0.2,0.3-0.5,0.6-0.9,0.7c0.4,0.2,0.8,0.4,1,0.8c0.3,0.3,0.4,0.7,0.4,1.2
		c0,0.7-0.2,1.3-0.7,1.7c-0.5,0.4-1.1,0.6-1.9,0.6c-0.8,0-1.4-0.2-1.9-0.6c-0.5-0.4-0.7-1-0.7-1.7c0-0.4,0.1-0.8,0.4-1.2
		c0.2-0.4,0.6-0.6,1-0.8c-0.4-0.2-0.6-0.4-0.8-0.7c-0.2-0.3-0.3-0.7-0.3-1.1c0-0.7,0.2-1.2,0.7-1.6c0.4-0.4,1-0.6,1.7-0.6
		s1.3,0.2,1.7,0.6C172.7,220.2,172.9,220.8,172.9,221.4L172.9,221.4z M172.1,225.2c0-0.5-0.1-0.8-0.4-1.1c-0.3-0.3-0.7-0.4-1.1-0.4
		s-0.8,0.1-1.1,0.4c-0.3,0.3-0.4,0.6-0.4,1.1s0.1,0.8,0.4,1.1c0.3,0.3,0.6,0.4,1.1,0.4c0.5,0,0.9-0.1,1.1-0.4
		C171.9,226,172.1,225.6,172.1,225.2L172.1,225.2L172.1,225.2z M170.5,220c-0.4,0-0.7,0.1-1,0.4c-0.3,0.2-0.4,0.6-0.4,1
		c0,0.4,0.1,0.7,0.4,1c0.3,0.3,0.6,0.4,1,0.4s0.7-0.1,1-0.4c0.3-0.3,0.4-0.6,0.4-1c0-0.4-0.1-0.7-0.4-1S170.9,220,170.5,220
		L170.5,220z"/>
</g>
<g>
	<path d="M167.7,257.8h-1v-6.9l-2.1,0.8v-0.9l2.9-1.1h0.2V257.8L167.7,257.8z M171.2,253.7l0.4-4h4.1v1h-3.3l-0.2,2.2
		c0.4-0.2,0.8-0.3,1.4-0.3c0.7,0,1.3,0.2,1.7,0.7c0.4,0.5,0.6,1.1,0.6,2s-0.2,1.5-0.7,2c-0.5,0.5-1.1,0.7-1.9,0.7
		c-0.7,0-1.3-0.2-1.7-0.6c-0.5-0.4-0.7-0.9-0.8-1.6h1c0.1,0.5,0.2,0.8,0.5,1c0.3,0.2,0.6,0.3,1.1,0.3c0.5,0,0.8-0.2,1.1-0.5
		c0.3-0.3,0.4-0.8,0.4-1.4c0-0.5-0.1-1-0.4-1.3c-0.3-0.3-0.7-0.5-1.2-0.5c-0.5,0-0.8,0.1-1.1,0.3l-0.3,0.2L171.2,253.7L171.2,253.7
		L171.2,253.7z"/>
</g>
<g>
	<path d="M169.6,288.1h-5.3v-0.7l2.8-3.1c0.4-0.5,0.7-0.8,0.9-1.1c0.2-0.3,0.2-0.6,0.2-0.9c0-0.4-0.1-0.8-0.4-1s-0.6-0.4-1-0.4
		c-0.5,0-0.9,0.1-1.2,0.4c-0.3,0.3-0.4,0.7-0.4,1.2h-1c0-0.7,0.2-1.3,0.7-1.8c0.5-0.5,1.1-0.7,1.9-0.7c0.8,0,1.3,0.2,1.8,0.6
		c0.4,0.4,0.7,0.9,0.7,1.6c0,0.8-0.5,1.7-1.5,2.9l-2.2,2.4h4.1V288.1L169.6,288.1z M176,288.1h-5.3v-0.7l2.8-3.1
		c0.4-0.5,0.7-0.8,0.9-1.1c0.2-0.3,0.2-0.6,0.2-0.9c0-0.4-0.1-0.8-0.4-1s-0.6-0.4-1-0.4c-0.5,0-0.9,0.1-1.2,0.4
		c-0.3,0.3-0.4,0.7-0.4,1.2h-1c0-0.7,0.2-1.3,0.7-1.8c0.5-0.5,1.1-0.7,1.9-0.7c0.8,0,1.3,0.2,1.8,0.6c0.4,0.4,0.7,0.9,0.7,1.6
		c0,0.8-0.5,1.7-1.5,2.9l-2.2,2.4h4.1V288.1L176,288.1z"/>
</g>
<g>
	<path d="M169.6,318.5h-5.3v-0.7l2.8-3.1c0.4-0.5,0.7-0.8,0.9-1.1c0.2-0.3,0.2-0.6,0.2-0.9c0-0.4-0.1-0.8-0.4-1
		c-0.3-0.3-0.6-0.4-1-0.4c-0.5,0-0.9,0.1-1.2,0.4c-0.3,0.3-0.4,0.7-0.4,1.2h-1c0-0.7,0.2-1.3,0.7-1.8c0.5-0.5,1.1-0.7,1.9-0.7
		c0.8,0,1.3,0.2,1.8,0.6c0.4,0.4,0.7,0.9,0.7,1.6c0,0.8-0.5,1.7-1.5,2.9l-2.2,2.4h4.1V318.5L169.6,318.5z M174.7,314.9
		c-0.2,0.3-0.5,0.5-0.8,0.6c-0.3,0.2-0.6,0.2-1,0.2c-0.5,0-0.9-0.1-1.2-0.3c-0.3-0.2-0.6-0.6-0.8-1c-0.2-0.4-0.3-0.9-0.3-1.4
		c0-0.5,0.1-1,0.3-1.5c0.2-0.4,0.5-0.8,0.9-1c0.4-0.2,0.8-0.3,1.3-0.3c0.8,0,1.4,0.3,1.9,0.9c0.5,0.6,0.7,1.4,0.7,2.4v0.3
		c0,1.6-0.3,2.7-0.9,3.5c-0.6,0.7-1.6,1.1-2.8,1.1h-0.2v-0.9h0.2c0.8,0,1.5-0.2,2-0.7C174.4,316.5,174.6,315.8,174.7,314.9
		L174.7,314.9L174.7,314.9z M173.1,314.9c0.3,0,0.7-0.1,1-0.3c0.3-0.2,0.5-0.5,0.6-0.8v-0.4c0-0.7-0.1-1.2-0.4-1.6
		c-0.3-0.4-0.7-0.6-1.1-0.6s-0.8,0.2-1.1,0.5s-0.4,0.8-0.4,1.4c0,0.6,0.1,1,0.4,1.4C172.3,314.7,172.6,314.9,173.1,314.9z"/>
</g>
<g>
	<path d="M172,340.7v0.9h-0.2c-0.8,0-1.4,0.3-1.9,0.7c-0.5,0.5-0.7,1.1-0.8,1.9c0.4-0.5,1-0.7,1.7-0.7c0.7,0,1.3,0.3,1.7,0.7
		c0.4,0.5,0.6,1.1,0.6,1.9c0,0.8-0.2,1.5-0.7,2c-0.5,0.5-1.1,0.7-1.8,0.7c-0.8,0-1.4-0.3-1.9-0.9c-0.5-0.6-0.7-1.4-0.7-2.3v-0.4
		c0-1.5,0.3-2.6,1-3.4c0.6-0.8,1.6-1.2,2.8-1.2L172,340.7L172,340.7z M170.7,344.4c-0.4,0-0.7,0.1-1,0.3c-0.3,0.2-0.5,0.5-0.6,0.8
		v0.4c0,0.7,0.1,1.2,0.5,1.6c0.3,0.4,0.7,0.6,1.1,0.6c0.5,0,0.8-0.2,1.1-0.5c0.3-0.3,0.4-0.8,0.4-1.3c0-0.6-0.1-1-0.4-1.3
		C171.5,344.6,171.1,344.4,170.7,344.4L170.7,344.4L170.7,344.4z"/>
</g>
<g>
	<path d="M212.7,197.1h-5.3v-0.7l2.8-3.1c0.4-0.5,0.7-0.8,0.9-1.1c0.2-0.3,0.2-0.6,0.2-0.9c0-0.4-0.1-0.8-0.4-1
		c-0.3-0.3-0.6-0.4-1-0.4c-0.5,0-0.9,0.1-1.2,0.4c-0.3,0.3-0.4,0.7-0.4,1.2h-1c0-0.7,0.2-1.3,0.7-1.8c0.5-0.5,1.1-0.7,1.9-0.7
		c0.8,0,1.3,0.2,1.8,0.6s0.7,0.9,0.7,1.6c0,0.8-0.5,1.7-1.5,2.9l-2.2,2.4h4.1L212.7,197.1L212.7,197.1z"/>
</g>
<g>
	<path d="M211.3,223.9c-0.2,0.3-0.5,0.5-0.8,0.6c-0.3,0.2-0.6,0.2-1,0.2c-0.5,0-0.9-0.1-1.2-0.3c-0.3-0.2-0.6-0.6-0.8-1
		c-0.2-0.4-0.3-0.9-0.3-1.4c0-0.5,0.1-1,0.3-1.5c0.2-0.4,0.5-0.8,0.9-1c0.4-0.2,0.8-0.3,1.3-0.3c0.8,0,1.4,0.3,1.9,0.9
		c0.5,0.6,0.7,1.4,0.7,2.4v0.3c0,1.6-0.3,2.7-0.9,3.5c-0.6,0.7-1.6,1.1-2.8,1.1h-0.2v-0.9h0.2c0.8,0,1.5-0.2,2-0.7
		C211,225.4,211.3,224.8,211.3,223.9L211.3,223.9L211.3,223.9z M209.7,223.9c0.3,0,0.7-0.1,1-0.3c0.3-0.2,0.5-0.5,0.6-0.8v-0.4
		c0-0.7-0.1-1.2-0.4-1.6c-0.3-0.4-0.7-0.6-1.1-0.6s-0.8,0.2-1.1,0.5c-0.3,0.3-0.4,0.8-0.4,1.4c0,0.6,0.1,1,0.4,1.4
		C208.9,223.7,209.3,223.9,209.7,223.9z"/>
</g>
<g>
	<path d="M207.1,257.8h-1v-6.9l-2.1,0.8v-0.9l2.9-1.1h0.2V257.8L207.1,257.8z M214.1,249.7v0.9h-0.2c-0.8,0-1.4,0.3-1.9,0.7
		c-0.5,0.5-0.7,1.1-0.8,1.9c0.4-0.5,1-0.7,1.7-0.7c0.7,0,1.3,0.3,1.7,0.7s0.6,1.1,0.6,1.9c0,0.8-0.2,1.5-0.7,2
		c-0.5,0.5-1.1,0.7-1.8,0.7c-0.8,0-1.4-0.3-1.9-0.9c-0.5-0.6-0.7-1.4-0.7-2.3v-0.4c0-1.5,0.3-2.6,1-3.4c0.6-0.8,1.6-1.2,2.8-1.2
		L214.1,249.7L214.1,249.7z M212.8,253.3c-0.4,0-0.7,0.1-1,0.3c-0.3,0.2-0.5,0.5-0.6,0.8v0.4c0,0.7,0.1,1.2,0.5,1.6
		c0.3,0.4,0.7,0.6,1.1,0.6s0.8-0.2,1.1-0.5c0.3-0.3,0.4-0.8,0.4-1.3c0-0.6-0.1-1-0.4-1.3C213.6,253.5,213.2,253.3,212.8,253.3
		L212.8,253.3L212.8,253.3z"/>
</g>
<g>
	<path d="M209,288.1h-5.3v-0.7l2.8-3.1c0.4-0.5,0.7-0.8,0.9-1.1c0.2-0.3,0.2-0.6,0.2-0.9c0-0.4-0.1-0.8-0.4-1
		c-0.3-0.3-0.6-0.4-1-0.4c-0.5,0-0.9,0.1-1.2,0.4c-0.3,0.3-0.4,0.7-0.4,1.2h-1c0-0.7,0.2-1.3,0.7-1.8c0.5-0.5,1.1-0.7,1.9-0.7
		c0.8,0,1.3,0.2,1.8,0.6c0.4,0.4,0.7,0.9,0.7,1.6c0,0.8-0.5,1.7-1.5,2.9l-2.2,2.4h4.1L209,288.1L209,288.1z M211.6,283.6h0.8
		c0.5,0,0.9-0.1,1.1-0.4c0.3-0.3,0.4-0.6,0.4-1c0-0.9-0.5-1.4-1.4-1.4c-0.4,0-0.8,0.1-1.1,0.4c-0.3,0.3-0.4,0.6-0.4,1h-1
		c0-0.6,0.2-1.2,0.7-1.6c0.5-0.4,1.1-0.6,1.8-0.6c0.8,0,1.4,0.2,1.8,0.6c0.4,0.4,0.6,1,0.6,1.7c0,0.4-0.1,0.7-0.3,1
		c-0.2,0.3-0.5,0.6-0.9,0.7c0.4,0.1,0.8,0.4,1,0.7c0.2,0.3,0.4,0.7,0.4,1.2c0,0.7-0.2,1.3-0.7,1.7c-0.5,0.4-1.1,0.6-1.8,0.6
		s-1.4-0.2-1.9-0.6c-0.5-0.4-0.7-1-0.7-1.6h1c0,0.4,0.1,0.8,0.4,1c0.3,0.3,0.6,0.4,1.1,0.4c0.5,0,0.9-0.1,1.1-0.4
		c0.3-0.3,0.4-0.6,0.4-1.1c0-0.5-0.1-0.8-0.4-1.1c-0.3-0.3-0.7-0.4-1.2-0.4h-0.8L211.6,283.6L211.6,283.6z"/>
</g>
<g>
	<path d="M205.2,313.9h0.8c0.5,0,0.9-0.1,1.1-0.4c0.3-0.3,0.4-0.6,0.4-1c0-0.9-0.5-1.4-1.4-1.4c-0.4,0-0.8,0.1-1.1,0.4
		c-0.3,0.3-0.4,0.6-0.4,1h-1c0-0.6,0.2-1.2,0.7-1.6c0.5-0.4,1.1-0.6,1.8-0.6c0.8,0,1.4,0.2,1.8,0.6c0.4,0.4,0.6,1,0.6,1.7
		c0,0.4-0.1,0.7-0.3,1c-0.2,0.3-0.5,0.6-0.9,0.7c0.4,0.1,0.8,0.4,1,0.7c0.2,0.3,0.4,0.7,0.4,1.2c0,0.7-0.2,1.3-0.7,1.7
		c-0.5,0.4-1.1,0.6-1.8,0.6c-0.8,0-1.4-0.2-1.9-0.6c-0.5-0.4-0.7-1-0.7-1.6h1c0,0.4,0.1,0.8,0.4,1c0.3,0.3,0.6,0.4,1.1,0.4
		c0.5,0,0.9-0.1,1.1-0.4c0.3-0.3,0.4-0.6,0.4-1.1c0-0.5-0.1-0.8-0.4-1.1c-0.3-0.3-0.7-0.4-1.2-0.4h-0.8L205.2,313.9L205.2,313.9z
		 M215.2,315c0,1.2-0.2,2.1-0.6,2.7c-0.4,0.6-1,0.9-1.9,0.9s-1.5-0.3-1.9-0.9c-0.4-0.6-0.6-1.4-0.6-2.6v-1.4c0-1.2,0.2-2.1,0.6-2.6
		c0.4-0.6,1.1-0.9,1.9-0.9s1.5,0.3,1.9,0.8c0.4,0.6,0.6,1.4,0.6,2.6L215.2,315L215.2,315L215.2,315z M214.1,313.6
		c0-0.9-0.1-1.5-0.4-1.9c-0.2-0.4-0.6-0.6-1.2-0.6c-0.5,0-0.9,0.2-1.2,0.6c-0.2,0.4-0.4,1-0.4,1.8v1.6c0,0.9,0.1,1.5,0.4,1.9
		c0.3,0.4,0.6,0.6,1.2,0.6c0.5,0,0.9-0.2,1.1-0.6c0.3-0.4,0.4-1,0.4-1.9L214.1,313.6L214.1,313.6z"/>
</g>
<g>
	<path d="M212.6,341.3l-3.4,7.5h-1.1l3.3-7.3h-4.4v-0.8h5.5L212.6,341.3L212.6,341.3z"/>
</g>
<g>
	<path d="M249.9,192.5h0.8c0.5,0,0.9-0.1,1.1-0.4c0.3-0.3,0.4-0.6,0.4-1c0-0.9-0.5-1.4-1.4-1.4c-0.4,0-0.8,0.1-1.1,0.4
		c-0.3,0.3-0.4,0.6-0.4,1h-1c0-0.6,0.2-1.2,0.7-1.6c0.5-0.4,1.1-0.6,1.8-0.6c0.8,0,1.4,0.2,1.8,0.6c0.4,0.4,0.6,1,0.6,1.7
		c0,0.4-0.1,0.7-0.3,1c-0.2,0.3-0.5,0.6-0.9,0.7c0.4,0.1,0.8,0.4,1,0.7c0.2,0.3,0.4,0.7,0.4,1.2c0,0.7-0.2,1.3-0.7,1.7
		c-0.5,0.4-1.1,0.6-1.8,0.6c-0.8,0-1.4-0.2-1.9-0.6c-0.5-0.4-0.7-1-0.7-1.6h1c0,0.4,0.1,0.8,0.4,1c0.3,0.3,0.6,0.4,1.1,0.4
		c0.5,0,0.9-0.1,1.1-0.4c0.3-0.3,0.4-0.6,0.4-1.1c0-0.5-0.1-0.8-0.4-1.1c-0.3-0.3-0.7-0.4-1.2-0.4h-0.8L249.9,192.5L249.9,192.5z"/>
</g>
<g>
	<path d="M248.1,227.4h-1v-6.9l-2.1,0.8v-0.9l2.9-1.1h0.2V227.4L248.1,227.4z M256.2,224c0,1.2-0.2,2.1-0.6,2.7
		c-0.4,0.6-1,0.9-1.9,0.9s-1.5-0.3-1.9-0.9c-0.4-0.6-0.6-1.4-0.6-2.6v-1.4c0-1.2,0.2-2.1,0.6-2.6c0.4-0.6,1.1-0.9,1.9-0.9
		c0.9,0,1.5,0.3,1.9,0.8c0.4,0.6,0.6,1.4,0.6,2.6L256.2,224L256.2,224L256.2,224z M255.2,222.6c0-0.9-0.1-1.5-0.4-1.9
		c-0.2-0.4-0.6-0.6-1.2-0.6c-0.5,0-0.9,0.2-1.2,0.6c-0.2,0.4-0.4,1-0.4,1.8v1.6c0,0.9,0.1,1.5,0.4,1.9c0.3,0.4,0.6,0.6,1.2,0.6
		c0.5,0,0.9-0.2,1.1-0.6c0.3-0.4,0.4-1,0.4-1.9L255.2,222.6L255.2,222.6z"/>
</g>
<g>
	<path class="st2" d="M250.4,235.8c9.9,0,18,8.1,18,18c0,9.9-8.1,18-18,18c-9.9,0-18-8.1-18-18C232.4,243.9,240.5,235.8,250.4,235.8
		z"/>
</g>
<g>
	<path class="st1" d="M246.5,260h-1.7v-10.9l-3.4,1.2v-1.5l4.8-1.8h0.3V260L246.5,260z M260,248.1l-5.5,12h-1.8l5.5-11.5H251v-1.3h9
		L260,248.1L260,248.1L260,248.1z"/>
</g>
<g>
	<path d="M250,288.1h-5.3v-0.7l2.8-3.1c0.4-0.5,0.7-0.8,0.9-1.1c0.2-0.3,0.2-0.6,0.2-0.9c0-0.4-0.1-0.8-0.4-1
		c-0.3-0.3-0.6-0.4-1-0.4c-0.5,0-0.9,0.1-1.2,0.4c-0.3,0.3-0.4,0.7-0.4,1.2h-1c0-0.7,0.2-1.3,0.7-1.8c0.5-0.5,1.1-0.7,1.9-0.7
		c0.8,0,1.3,0.2,1.8,0.6c0.4,0.4,0.7,0.9,0.7,1.6c0,0.8-0.5,1.7-1.5,2.9l-2.2,2.4h4.1L250,288.1L250,288.1z M255.5,285.4h1.1v0.8
		h-1.1v1.9h-1v-1.9h-3.7v-0.6l3.6-5.6h1.1L255.5,285.4L255.5,285.4L255.5,285.4z M251.9,285.4h2.5v-4l-0.1,0.2L251.9,285.4
		L251.9,285.4z"/>
</g>
<g>
	<path d="M251.8,318.5h-1v-6.9l-2.1,0.8v-0.9l2.9-1.1h0.2V318.5L251.8,318.5z"/>
</g>
<g>
	<path d="M253.3,342.9c0,0.4-0.1,0.8-0.3,1.1c-0.2,0.3-0.5,0.6-0.9,0.7c0.4,0.2,0.8,0.4,1,0.8c0.3,0.3,0.4,0.7,0.4,1.2
		c0,0.7-0.2,1.3-0.7,1.7c-0.5,0.4-1.1,0.6-1.9,0.6c-0.8,0-1.4-0.2-1.9-0.6c-0.5-0.4-0.7-1-0.7-1.7c0-0.4,0.1-0.8,0.4-1.2
		c0.2-0.4,0.6-0.6,1-0.8c-0.4-0.2-0.6-0.4-0.8-0.7c-0.2-0.3-0.3-0.7-0.3-1.1c0-0.7,0.2-1.2,0.7-1.6s1-0.6,1.7-0.6s1.3,0.2,1.7,0.6
		C253.1,341.6,253.3,342.2,253.3,342.9L253.3,342.9z M252.5,346.6c0-0.5-0.1-0.8-0.4-1.1c-0.3-0.3-0.7-0.4-1.1-0.4
		c-0.5,0-0.8,0.1-1.1,0.4c-0.3,0.3-0.4,0.6-0.4,1.1c0,0.5,0.1,0.8,0.4,1.1c0.3,0.3,0.6,0.4,1.1,0.4c0.5,0,0.9-0.1,1.1-0.4
		C252.3,347.4,252.5,347.1,252.5,346.6L252.5,346.6L252.5,346.6z M250.9,341.5c-0.4,0-0.7,0.1-1,0.4c-0.3,0.2-0.4,0.6-0.4,1
		c0,0.4,0.1,0.7,0.4,1c0.3,0.3,0.6,0.4,1,0.4c0.4,0,0.7-0.1,1-0.4c0.3-0.3,0.4-0.6,0.4-1s-0.1-0.7-0.4-1
		C251.6,341.6,251.3,341.5,250.9,341.5L250.9,341.5z"/>
</g>
<g>
	<path d="M289.9,194.3h1.1v0.8h-1.1v1.9h-1v-1.9h-3.7v-0.6l3.6-5.6h1.1L289.9,194.3L289.9,194.3L289.9,194.3z M286.3,194.3h2.5v-4
		l-0.1,0.2L286.3,194.3L286.3,194.3z"/>
</g>
<g>
	<path d="M285.2,227.4h-1v-6.9l-2.1,0.8v-0.9l2.9-1.1h0.2V227.4L285.2,227.4z M291.6,227.4h-1v-6.9l-2.1,0.8v-0.9l2.9-1.1h0.2V227.4
		L291.6,227.4z"/>
</g>
<g>
	<path d="M285.2,257.8h-1v-6.9l-2.1,0.8v-0.9l2.9-1.1h0.2V257.8L285.2,257.8z M293.1,251.8c0,0.4-0.1,0.8-0.3,1.1
		c-0.2,0.3-0.5,0.6-0.9,0.7c0.4,0.2,0.8,0.4,1,0.8c0.3,0.3,0.4,0.7,0.4,1.2c0,0.7-0.2,1.3-0.7,1.7c-0.5,0.4-1.1,0.6-1.9,0.6
		s-1.4-0.2-1.9-0.6c-0.5-0.4-0.7-1-0.7-1.7c0-0.4,0.1-0.8,0.4-1.2c0.2-0.4,0.6-0.6,1-0.8c-0.4-0.2-0.6-0.4-0.8-0.7
		c-0.2-0.3-0.3-0.7-0.3-1.1c0-0.7,0.2-1.2,0.7-1.6s1-0.6,1.7-0.6c0.7,0,1.3,0.2,1.7,0.6C292.9,250.6,293.1,251.1,293.1,251.8
		L293.1,251.8z M292.3,255.6c0-0.5-0.1-0.8-0.4-1.1c-0.3-0.3-0.7-0.4-1.1-0.4c-0.5,0-0.8,0.1-1.1,0.4c-0.3,0.3-0.4,0.6-0.4,1.1
		s0.1,0.8,0.4,1.1c0.3,0.3,0.6,0.4,1.1,0.4c0.5,0,0.9-0.1,1.1-0.4C292.2,256.4,292.3,256,292.3,255.6L292.3,255.6L292.3,255.6z
		 M290.8,250.4c-0.4,0-0.7,0.1-1,0.4c-0.3,0.2-0.4,0.6-0.4,1c0,0.4,0.1,0.7,0.4,1c0.3,0.3,0.6,0.4,1,0.4s0.7-0.1,1-0.4
		c0.3-0.3,0.4-0.6,0.4-1c0-0.4-0.1-0.7-0.4-1C291.5,250.5,291.2,250.4,290.8,250.4L290.8,250.4L290.8,250.4z"/>
</g>
<g>
	<path d="M287.2,288.1h-5.3v-0.7l2.8-3.1c0.4-0.5,0.7-0.8,0.9-1.1c0.2-0.3,0.2-0.6,0.2-0.9c0-0.4-0.1-0.8-0.4-1
		c-0.3-0.3-0.6-0.4-1-0.4c-0.5,0-0.9,0.1-1.2,0.4c-0.3,0.3-0.4,0.7-0.4,1.2h-1c0-0.7,0.2-1.3,0.7-1.8c0.5-0.5,1.1-0.7,1.9-0.7
		c0.8,0,1.3,0.2,1.8,0.6c0.4,0.4,0.7,0.9,0.7,1.6c0,0.8-0.5,1.7-1.5,2.9l-2.2,2.4h4.1L287.2,288.1L287.2,288.1z M288.7,284.1l0.4-4
		h4.1v1H290l-0.2,2.2c0.4-0.2,0.8-0.3,1.4-0.3c0.7,0,1.3,0.2,1.7,0.7c0.4,0.5,0.6,1.1,0.6,2c0,0.8-0.2,1.5-0.7,2
		c-0.5,0.5-1.1,0.7-1.9,0.7c-0.7,0-1.3-0.2-1.7-0.6c-0.5-0.4-0.7-0.9-0.8-1.6h1c0.1,0.5,0.2,0.8,0.5,1s0.6,0.3,1.1,0.3
		c0.5,0,0.8-0.2,1.1-0.5c0.3-0.3,0.4-0.8,0.4-1.4c0-0.5-0.1-1-0.4-1.3c-0.3-0.3-0.7-0.5-1.2-0.5c-0.5,0-0.8,0.1-1.1,0.3l-0.3,0.2
		L288.7,284.1L288.7,284.1L288.7,284.1z"/>
</g>
<g>
	<path d="M290.8,318.5h-5.3v-0.7l2.8-3.1c0.4-0.5,0.7-0.8,0.9-1.1c0.2-0.3,0.2-0.6,0.2-0.9c0-0.4-0.1-0.8-0.4-1
		c-0.3-0.3-0.6-0.4-1-0.4c-0.5,0-0.9,0.1-1.2,0.4c-0.3,0.3-0.4,0.7-0.4,1.2h-1c0-0.7,0.2-1.3,0.7-1.8c0.5-0.5,1.1-0.7,1.9-0.7
		c0.8,0,1.3,0.2,1.8,0.6c0.4,0.4,0.7,0.9,0.7,1.6c0,0.8-0.5,1.7-1.5,2.9l-2.2,2.4h4.1V318.5L290.8,318.5z"/>
</g>
<g>
	<path d="M289.5,345.3c-0.2,0.3-0.5,0.5-0.8,0.6c-0.3,0.2-0.6,0.2-1,0.2c-0.5,0-0.9-0.1-1.2-0.3c-0.3-0.2-0.6-0.6-0.8-1
		c-0.2-0.4-0.3-0.9-0.3-1.4c0-0.5,0.1-1,0.3-1.5c0.2-0.4,0.5-0.8,0.9-1s0.8-0.3,1.3-0.3c0.8,0,1.4,0.3,1.9,0.9
		c0.5,0.6,0.7,1.4,0.7,2.5v0.3c0,1.6-0.3,2.7-0.9,3.5c-0.6,0.7-1.6,1.1-2.8,1.1h-0.2V348h0.2c0.8,0,1.5-0.2,2-0.7
		C289.2,346.9,289.4,346.2,289.5,345.3L289.5,345.3z M287.9,345.3c0.3,0,0.7-0.1,1-0.3c0.3-0.2,0.5-0.5,0.6-0.8v-0.4
		c0-0.7-0.1-1.2-0.4-1.6c-0.3-0.4-0.7-0.6-1.1-0.6s-0.8,0.2-1.1,0.5s-0.4,0.8-0.4,1.4c0,0.6,0.1,1,0.4,1.4
		C287.1,345.1,287.4,345.3,287.9,345.3L287.9,345.3z"/>
</g>
<g>
	<path d="M318.6,193l0.4-4h4.1v1h-3.3l-0.2,2.2c0.4-0.2,0.8-0.3,1.4-0.3c0.7,0,1.3,0.2,1.8,0.7c0.4,0.5,0.6,1.1,0.6,2
		c0,0.8-0.2,1.5-0.7,2c-0.5,0.5-1.1,0.7-1.9,0.7c-0.7,0-1.3-0.2-1.7-0.6c-0.5-0.4-0.7-0.9-0.8-1.6h1c0.1,0.5,0.2,0.8,0.5,1
		c0.3,0.2,0.6,0.3,1.1,0.3c0.5,0,0.8-0.2,1.1-0.5c0.3-0.3,0.4-0.8,0.4-1.4c0-0.5-0.1-1-0.4-1.3c-0.3-0.3-0.7-0.5-1.2-0.5
		c-0.5,0-0.8,0.1-1.1,0.3l-0.3,0.2L318.6,193L318.6,193z"/>
</g>
<g>
	<path d="M317.8,227.4h-1v-6.9l-2.1,0.8v-0.9l2.9-1.1h0.2V227.4L317.8,227.4z M326.1,227.4h-5.3v-0.7l2.8-3.1
		c0.4-0.5,0.7-0.8,0.9-1.1c0.2-0.3,0.2-0.6,0.2-0.9c0-0.4-0.1-0.8-0.4-1c-0.3-0.3-0.6-0.4-1-0.4c-0.5,0-0.9,0.1-1.2,0.4
		c-0.3,0.3-0.4,0.7-0.4,1.2h-1c0-0.7,0.2-1.3,0.7-1.8s1.1-0.7,1.9-0.7c0.8,0,1.3,0.2,1.8,0.6c0.4,0.4,0.7,0.9,0.7,1.6
		c0,0.8-0.5,1.7-1.5,2.9l-2.2,2.4h4.1L326.1,227.4L326.1,227.4z"/>
</g>
<g>
	<path d="M317.8,257.8h-1v-6.9l-2.1,0.8v-0.9l2.9-1.1h0.2V257.8L317.8,257.8z M324.8,254.2c-0.2,0.3-0.5,0.5-0.8,0.6
		c-0.3,0.2-0.6,0.2-1,0.2c-0.5,0-0.9-0.1-1.2-0.3c-0.3-0.2-0.6-0.6-0.8-1c-0.2-0.4-0.3-0.9-0.3-1.4c0-0.5,0.1-1,0.3-1.5
		c0.2-0.4,0.5-0.8,0.9-1c0.4-0.2,0.8-0.3,1.3-0.3c0.8,0,1.4,0.3,1.9,0.9c0.5,0.6,0.7,1.4,0.7,2.5v0.3c0,1.6-0.3,2.7-0.9,3.5
		c-0.6,0.7-1.6,1.1-2.8,1.1h-0.2v-0.9h0.2c0.8,0,1.5-0.2,1.9-0.7C324.5,255.8,324.7,255.1,324.8,254.2L324.8,254.2z M323.2,254.2
		c0.3,0,0.7-0.1,1-0.3c0.3-0.2,0.5-0.5,0.6-0.8v-0.4c0-0.7-0.1-1.2-0.4-1.6c-0.3-0.4-0.7-0.6-1.1-0.6s-0.8,0.2-1.1,0.5
		c-0.3,0.3-0.4,0.8-0.4,1.4s0.1,1,0.4,1.4C322.4,254,322.8,254.2,323.2,254.2z"/>
</g>
<g>
	<path d="M319.8,288.1h-5.3v-0.7l2.8-3.1c0.4-0.5,0.7-0.8,0.9-1.1c0.2-0.3,0.2-0.6,0.2-0.9c0-0.4-0.1-0.8-0.4-1s-0.6-0.4-1-0.4
		c-0.5,0-0.9,0.1-1.2,0.4c-0.3,0.3-0.4,0.7-0.4,1.2h-1c0-0.7,0.2-1.3,0.7-1.8s1.1-0.7,1.9-0.7c0.8,0,1.3,0.2,1.8,0.6
		c0.4,0.4,0.7,0.9,0.7,1.6c0,0.8-0.5,1.7-1.5,2.9l-2.2,2.4h4.1L319.8,288.1L319.8,288.1z M324.9,280v0.9h-0.2
		c-0.8,0-1.4,0.3-1.9,0.7c-0.5,0.5-0.7,1.1-0.8,1.9c0.4-0.5,1-0.7,1.7-0.7s1.3,0.3,1.7,0.7c0.4,0.5,0.6,1.1,0.6,1.9
		c0,0.8-0.2,1.5-0.7,2c-0.5,0.5-1.1,0.7-1.8,0.7s-1.4-0.3-1.9-0.9c-0.5-0.6-0.7-1.4-0.7-2.3v-0.4c0-1.5,0.3-2.6,1-3.4
		c0.6-0.8,1.6-1.2,2.8-1.2L324.9,280L324.9,280z M323.5,283.7c-0.4,0-0.7,0.1-1,0.3c-0.3,0.2-0.5,0.5-0.6,0.8v0.4
		c0,0.7,0.1,1.2,0.5,1.6c0.3,0.4,0.7,0.6,1.1,0.6s0.8-0.2,1.1-0.5c0.3-0.3,0.4-0.8,0.4-1.3c0-0.6-0.1-1-0.4-1.3
		C324.3,283.8,324,283.7,323.5,283.7L323.5,283.7L323.5,283.7z"/>
</g>
<g>
	<path d="M319.6,313.9h0.8c0.5,0,0.9-0.1,1.1-0.4s0.4-0.6,0.4-1c0-0.9-0.5-1.4-1.4-1.4c-0.4,0-0.8,0.1-1.1,0.4
		c-0.3,0.3-0.4,0.6-0.4,1h-1c0-0.6,0.2-1.2,0.7-1.6c0.5-0.4,1.1-0.6,1.8-0.6c0.8,0,1.4,0.2,1.8,0.6c0.4,0.4,0.6,1,0.6,1.7
		c0,0.4-0.1,0.7-0.3,1c-0.2,0.3-0.5,0.6-0.9,0.7c0.4,0.1,0.8,0.4,1,0.7c0.2,0.3,0.4,0.7,0.4,1.2c0,0.7-0.2,1.3-0.7,1.7
		c-0.5,0.4-1.1,0.6-1.8,0.6s-1.4-0.2-1.9-0.6c-0.5-0.4-0.7-1-0.7-1.6h1c0,0.4,0.1,0.8,0.4,1c0.3,0.3,0.6,0.4,1.1,0.4
		c0.5,0,0.9-0.1,1.1-0.4c0.3-0.3,0.4-0.6,0.4-1.1c0-0.5-0.1-0.8-0.4-1.1c-0.3-0.3-0.7-0.4-1.2-0.4h-0.8L319.6,313.9L319.6,313.9z"/>
</g>
<g>
	<path d="M317.8,348.8h-1V342l-2.1,0.8v-0.9l2.9-1.1h0.2V348.8L317.8,348.8z M325.9,345.4c0,1.2-0.2,2.1-0.6,2.7
		c-0.4,0.6-1,0.9-1.9,0.9s-1.5-0.3-1.9-0.9c-0.4-0.6-0.6-1.4-0.6-2.6v-1.4c0-1.2,0.2-2.1,0.6-2.7c0.4-0.6,1.1-0.9,1.9-0.9
		s1.5,0.3,1.9,0.8c0.4,0.6,0.6,1.4,0.6,2.6L325.9,345.4L325.9,345.4L325.9,345.4z M324.9,344c0-0.9-0.1-1.5-0.4-1.9
		s-0.6-0.6-1.2-0.6c-0.5,0-0.9,0.2-1.2,0.6c-0.2,0.4-0.4,1-0.4,1.8v1.6c0,0.9,0.1,1.5,0.4,1.9c0.3,0.4,0.6,0.6,1.2,0.6
		s0.9-0.2,1.1-0.6c0.3-0.4,0.4-1,0.4-1.9L324.9,344L324.9,344z"/>
</g>
<g>
	<g>
		<path class="st1" d="M206.5,300.1h174.1c2.4,0,4.4,2,4.4,4.4v114.1c0,2.4-2,4.4-4.4,4.4H206.5c-2.4,0-4.4-2-4.4-4.4V304.5
			C202.1,302,204.1,300.1,206.5,300.1z"/>
	</g>
	<g class="st3">
		<path class="st4" d="M203.5,300.1h174.1c2.4,0,4.4,2,4.4,4.4v114.1c0,2.4-2,4.4-4.4,4.4H203.5c-2.4,0-4.4-2-4.4-4.4V304.5
			C199.1,302,201.1,300.1,203.5,300.1z"/>
	</g>
	<g>
		<path class="st1" d="M206.5,300.1h174.1c2.4,0,4.4,2,4.4,4.4v114.1c0,2.4-2,4.4-4.4,4.4H206.5c-2.4,0-4.4-2-4.4-4.4V304.5
			C202.1,302,204.1,300.1,206.5,300.1z"/>
	</g>
	<g>
		<g>
			<path class="st2" d="M254.5,331.1h-30.8c-4.6,0-8.4-3.8-8.4-8.4s3.8-8.4,8.4-8.4h30.8c4.6,0,8.4,3.8,8.4,8.4
				S259.2,331.1,254.5,331.1z M223.8,314.9c-4.3,0-7.8,3.5-7.8,7.8c0,4.3,3.5,7.8,7.8,7.8h30.8c4.3,0,7.8-3.5,7.8-7.8
				c0-4.3-3.5-7.8-7.8-7.8H223.8z"/>
		</g>
	</g>
	<g>
		<g>
			<path class="st2" d="M227.9,322.5c0-0.6,0.1-1.1,0.3-1.4c0.2-0.3,0.6-0.5,1.1-0.5c0.5,0,0.8,0.2,1.1,0.5s0.3,0.8,0.3,1.4
				c0,0.6-0.1,1.1-0.3,1.4c-0.2,0.3-0.6,0.5-1.1,0.5s-0.8-0.2-1.1-0.5C227.9,323.6,227.9,323.1,227.9,322.5z M230,322.5
				c0-0.3,0-0.5-0.1-0.7c0-0.2-0.1-0.4-0.2-0.5c-0.1-0.1-0.3-0.2-0.5-0.2s-0.4,0.1-0.5,0.2c-0.1,0.1-0.2,0.3-0.2,0.5
				c0,0.2-0.1,0.4-0.1,0.7c0,0.3,0,0.5,0.1,0.7c0,0.2,0.1,0.4,0.2,0.5c0.1,0.1,0.3,0.2,0.5,0.2s0.4-0.1,0.5-0.2
				c0.1-0.1,0.2-0.3,0.2-0.5C230,323,230,322.8,230,322.5z M233.6,321.1l-1.5,3.4h-0.6l1.5-3.3h-1.9v-0.5h2.5L233.6,321.1
				L233.6,321.1z M234.5,324.5c-0.1,0-0.2,0-0.3-0.1c-0.1-0.1-0.1-0.2-0.1-0.3c0-0.1,0-0.2,0.1-0.3c0.1-0.1,0.2-0.1,0.3-0.1
				c0.1,0,0.2,0,0.3,0.1c0.1,0.1,0.1,0.2,0.1,0.3c0,0.1,0,0.2-0.1,0.3C234.7,324.5,234.6,324.5,234.5,324.5z M234.5,322.3
				c-0.1,0-0.2,0-0.3-0.1c-0.1-0.1-0.1-0.2-0.1-0.3c0-0.1,0-0.2,0.1-0.3c0.1-0.1,0.2-0.1,0.3-0.1c0.1,0,0.2,0,0.3,0.1
				c0.1,0.1,0.1,0.2,0.1,0.3c0,0.1,0,0.2-0.1,0.3C234.7,322.3,234.6,322.3,234.5,322.3z M235.4,322.5c0-0.6,0.1-1.1,0.3-1.4
				c0.2-0.3,0.6-0.5,1.1-0.5c0.5,0,0.8,0.2,1.1,0.5s0.3,0.8,0.3,1.4c0,0.6-0.1,1.1-0.3,1.4c-0.2,0.3-0.6,0.5-1.1,0.5
				c-0.5,0-0.8-0.2-1.1-0.5C235.5,323.6,235.4,323.1,235.4,322.5z M237.6,322.5c0-0.3,0-0.5-0.1-0.7c0-0.2-0.1-0.4-0.2-0.5
				c-0.1-0.1-0.3-0.2-0.5-0.2c-0.2,0-0.4,0.1-0.5,0.2c-0.1,0.1-0.2,0.3-0.2,0.5c0,0.2-0.1,0.4-0.1,0.7c0,0.3,0,0.5,0.1,0.7
				c0,0.2,0.1,0.4,0.2,0.5c0.1,0.1,0.3,0.2,0.5,0.2c0.2,0,0.4-0.1,0.5-0.2c0.1-0.1,0.2-0.3,0.2-0.5
				C237.5,323,237.6,322.8,237.6,322.5z M238.8,322.5c0-0.6,0.1-1.1,0.3-1.4c0.2-0.3,0.6-0.5,1.1-0.5s0.8,0.2,1.1,0.5
				c0.2,0.3,0.3,0.8,0.3,1.4c0,0.6-0.1,1.1-0.3,1.4c-0.2,0.3-0.6,0.5-1.1,0.5s-0.8-0.2-1.1-0.5C238.9,323.6,238.8,323.1,238.8,322.5
				z M240.9,322.5c0-0.3,0-0.5-0.1-0.7c0-0.2-0.1-0.4-0.2-0.5c-0.1-0.1-0.3-0.2-0.5-0.2s-0.4,0.1-0.5,0.2c-0.1,0.1-0.2,0.3-0.2,0.5
				c0,0.2-0.1,0.4-0.1,0.7c0,0.3,0,0.5,0.1,0.7c0,0.2,0.1,0.4,0.2,0.5c0.1,0.1,0.3,0.2,0.5,0.2s0.4-0.1,0.5-0.2
				c0.1-0.1,0.2-0.3,0.2-0.5C240.9,323,240.9,322.8,240.9,322.5z M245.8,323.7h-1.5l-0.3,0.7h-0.6l1.3-3.6h0.7l1.3,3.6H246
				L245.8,323.7z M245.6,323.2l-0.6-1.7l-0.6,1.7H245.6z M251.1,320.8v3.6h-0.6V322l-1.1,2.5h-0.4l-1.1-2.5v2.5h-0.6v-3.6h0.6
				l1.3,2.9l1.3-2.9H251.1z"/>
		</g>
	</g>
	<g>
		<g>
			<path class="st2" d="M309.1,331.1h-30.8c-4.6,0-8.4-3.8-8.4-8.4s3.8-8.4,8.4-8.4h30.8c4.6,0,8.4,3.8,8.4,8.4
				C317.4,327.4,313.7,331.1,309.1,331.1z M278.3,314.9c-4.3,0-7.8,3.5-7.8,7.8c0,4.3,3.5,7.8,7.8,7.8h30.8c4.3,0,7.8-3.5,7.8-7.8
				c0-4.3-3.5-7.8-7.8-7.8H278.3z"/>
		</g>
	</g>
	<g>
		<g>
			<path class="st2" d="M282.4,322.2c0-0.6,0.1-1.1,0.3-1.4c0.2-0.3,0.6-0.5,1.1-0.5s0.8,0.2,1.1,0.5s0.3,0.8,0.3,1.4
				c0,0.6-0.1,1.1-0.3,1.4c-0.2,0.3-0.6,0.5-1.1,0.5s-0.8-0.2-1.1-0.5C282.5,323.3,282.4,322.8,282.4,322.2z M284.6,322.2
				c0-0.3,0-0.5-0.1-0.7c0-0.2-0.1-0.4-0.2-0.5c-0.1-0.1-0.3-0.2-0.5-0.2c-0.2,0-0.4,0.1-0.5,0.2c-0.1,0.1-0.2,0.3-0.2,0.5
				c0,0.2-0.1,0.4-0.1,0.7c0,0.3,0,0.5,0.1,0.7c0,0.2,0.1,0.4,0.2,0.5c0.1,0.1,0.3,0.2,0.5,0.2c0.2,0,0.4-0.1,0.5-0.2
				c0.1-0.1,0.2-0.3,0.2-0.5C284.5,322.7,284.6,322.5,284.6,322.2z M286.4,322.1c-0.4-0.2-0.5-0.5-0.5-0.9c0-0.2,0-0.4,0.1-0.5
				c0.1-0.2,0.2-0.3,0.4-0.4c0.2-0.1,0.4-0.1,0.7-0.1c0.3,0,0.5,0,0.7,0.1c0.2,0.1,0.3,0.2,0.4,0.4c0.1,0.2,0.1,0.3,0.1,0.5
				c0,0.2-0.1,0.4-0.2,0.5c-0.1,0.1-0.2,0.3-0.4,0.3c0.2,0.1,0.4,0.2,0.5,0.4c0.1,0.2,0.2,0.4,0.2,0.6c0,0.2-0.1,0.4-0.2,0.6
				c-0.1,0.2-0.3,0.3-0.5,0.4s-0.4,0.1-0.7,0.1c-0.3,0-0.5,0-0.7-0.1c-0.2-0.1-0.4-0.2-0.5-0.4c-0.1-0.2-0.2-0.4-0.2-0.6
				c0-0.2,0.1-0.4,0.2-0.6C286.1,322.3,286.2,322.2,286.4,322.1z M287.8,321.3c0-0.2-0.1-0.3-0.2-0.5c-0.1-0.1-0.3-0.2-0.5-0.2
				c-0.2,0-0.4,0.1-0.5,0.2c-0.1,0.1-0.2,0.3-0.2,0.5c0,0.2,0.1,0.3,0.2,0.4c0.1,0.1,0.3,0.2,0.5,0.2s0.4-0.1,0.5-0.2
				C287.8,321.7,287.8,321.5,287.8,321.3z M287.1,322.4c-0.2,0-0.4,0.1-0.6,0.2c-0.1,0.1-0.2,0.3-0.2,0.5c0,0.2,0.1,0.4,0.2,0.5
				c0.1,0.1,0.3,0.2,0.6,0.2c0.2,0,0.4-0.1,0.6-0.2c0.1-0.1,0.2-0.3,0.2-0.5c0-0.2-0.1-0.4-0.2-0.5
				C287.6,322.5,287.4,322.4,287.1,322.4z M289.4,324.2c-0.1,0-0.2,0-0.3-0.1c-0.1-0.1-0.1-0.2-0.1-0.3s0-0.2,0.1-0.3
				s0.2-0.1,0.3-0.1c0.1,0,0.2,0,0.3,0.1c0.1,0.1,0.1,0.2,0.1,0.3s0,0.2-0.1,0.3C289.6,324.1,289.5,324.2,289.4,324.2z M289.4,322
				c-0.1,0-0.2,0-0.3-0.1s-0.1-0.2-0.1-0.3c0-0.1,0-0.2,0.1-0.3s0.2-0.1,0.3-0.1c0.1,0,0.2,0,0.3,0.1c0.1,0.1,0.1,0.2,0.1,0.3
				c0,0.1,0,0.2-0.1,0.3C289.6,321.9,289.5,322,289.4,322z M290.4,322.2c0-0.6,0.1-1.1,0.3-1.4c0.2-0.3,0.6-0.5,1.1-0.5
				c0.5,0,0.8,0.2,1.1,0.5c0.2,0.3,0.3,0.8,0.3,1.4c0,0.6-0.1,1.1-0.3,1.4c-0.2,0.3-0.6,0.5-1.1,0.5c-0.5,0-0.8-0.2-1.1-0.5
				C290.5,323.3,290.4,322.8,290.4,322.2z M292.5,322.2c0-0.3,0-0.5-0.1-0.7c0-0.2-0.1-0.4-0.2-0.5c-0.1-0.1-0.3-0.2-0.5-0.2
				c-0.2,0-0.4,0.1-0.5,0.2c-0.1,0.1-0.2,0.3-0.2,0.5c0,0.2-0.1,0.4-0.1,0.7c0,0.3,0,0.5,0.1,0.7c0,0.2,0.1,0.4,0.2,0.5
				c0.1,0.1,0.3,0.2,0.5,0.2c0.2,0,0.4-0.1,0.5-0.2c0.1-0.1,0.2-0.3,0.2-0.5C292.5,322.7,292.5,322.5,292.5,322.2z M293.8,322.2
				c0-0.6,0.1-1.1,0.3-1.4c0.2-0.3,0.6-0.5,1.1-0.5c0.5,0,0.8,0.2,1.1,0.5s0.3,0.8,0.3,1.4c0,0.6-0.1,1.1-0.3,1.4
				c-0.2,0.3-0.6,0.5-1.1,0.5c-0.5,0-0.8-0.2-1.1-0.5C293.9,323.3,293.8,322.8,293.8,322.2z M295.9,322.2c0-0.3,0-0.5-0.1-0.7
				c0-0.2-0.1-0.4-0.2-0.5c-0.1-0.1-0.3-0.2-0.5-0.2c-0.2,0-0.4,0.1-0.5,0.2c-0.1,0.1-0.2,0.3-0.2,0.5c0,0.2-0.1,0.4-0.1,0.7
				c0,0.3,0,0.5,0.1,0.7s0.1,0.4,0.2,0.5c0.1,0.1,0.3,0.2,0.5,0.2c0.2,0,0.4-0.1,0.5-0.2c0.1-0.1,0.2-0.3,0.2-0.5
				C295.9,322.7,295.9,322.5,295.9,322.2z M300.8,323.4h-1.5l-0.3,0.7h-0.6l1.3-3.6h0.7l1.3,3.6H301L300.8,323.4z M300.6,322.9
				l-0.6-1.7l-0.6,1.7H300.6z M306,320.5v3.6h-0.6v-2.5l-1.1,2.5h-0.4l-1.1-2.5v2.5h-0.6v-3.6h0.6l1.3,2.9l1.3-2.9H306z"/>
		</g>
	</g>
	<g>
		<g>
			<path class="st2" d="M363.6,331.1h-30.8c-4.6,0-8.4-3.8-8.4-8.4s3.8-8.4,8.4-8.4h30.8c4.6,0,8.4,3.8,8.4,8.4
				C372,327.4,368.2,331.1,363.6,331.1z M332.8,314.9c-4.3,0-7.8,3.5-7.8,7.8c0,4.3,3.5,7.8,7.8,7.8h30.8c4.3,0,7.8-3.5,7.8-7.8
				c0-4.3-3.5-7.8-7.8-7.8H332.8z"/>
		</g>
	</g>
	<g>
		<g>
			<path class="st2" d="M336.3,322.5c0-0.6,0.1-1.1,0.3-1.4c0.2-0.3,0.6-0.5,1.1-0.5c0.5,0,0.8,0.2,1.1,0.5c0.2,0.3,0.3,0.8,0.3,1.4
				c0,0.6-0.1,1.1-0.3,1.4c-0.2,0.3-0.6,0.5-1.1,0.5c-0.5,0-0.8-0.2-1.1-0.5C336.4,323.6,336.3,323.1,336.3,322.5z M338.4,322.5
				c0-0.3,0-0.5-0.1-0.7c0-0.2-0.1-0.4-0.2-0.5c-0.1-0.1-0.3-0.2-0.5-0.2c-0.2,0-0.4,0.1-0.5,0.2c-0.1,0.1-0.2,0.3-0.2,0.5
				c0,0.2-0.1,0.4-0.1,0.7c0,0.3,0,0.5,0.1,0.7c0,0.2,0.1,0.4,0.2,0.5c0.1,0.1,0.3,0.2,0.5,0.2c0.2,0,0.4-0.1,0.5-0.2
				c0.1-0.1,0.2-0.3,0.2-0.5C338.4,323.1,338.4,322.8,338.4,322.5z M340.4,323.4c0,0.2,0.1,0.3,0.2,0.4c0.1,0.1,0.3,0.1,0.5,0.1
				c0.3,0,0.4-0.1,0.5-0.3c0.1-0.2,0.2-0.5,0.2-1c-0.1,0.1-0.2,0.2-0.4,0.3c-0.1,0.1-0.3,0.1-0.5,0.1c-0.2,0-0.4,0-0.6-0.1
				c-0.2-0.1-0.3-0.2-0.4-0.4c-0.1-0.2-0.2-0.4-0.2-0.7c0-0.4,0.1-0.7,0.3-0.9c0.2-0.2,0.5-0.3,0.9-0.3c0.5,0,0.8,0.2,1,0.5
				c0.2,0.3,0.3,0.8,0.3,1.5c0,0.5,0,0.8-0.1,1.1c-0.1,0.3-0.2,0.5-0.4,0.6c-0.2,0.1-0.4,0.2-0.8,0.2c-0.4,0-0.7-0.1-0.9-0.3
				c-0.2-0.2-0.3-0.4-0.3-0.7L340.4,323.4L340.4,323.4z M341,322.5c0.2,0,0.4-0.1,0.5-0.2c0.1-0.1,0.2-0.3,0.2-0.5
				c0-0.2-0.1-0.4-0.2-0.6c-0.1-0.1-0.3-0.2-0.5-0.2c-0.2,0-0.4,0.1-0.5,0.2c-0.1,0.1-0.2,0.3-0.2,0.5c0,0.2,0.1,0.4,0.2,0.5
				C340.6,322.5,340.8,322.5,341,322.5z M343.3,324.5c-0.1,0-0.2,0-0.3-0.1c-0.1-0.1-0.1-0.2-0.1-0.3c0-0.1,0-0.2,0.1-0.3
				c0.1-0.1,0.2-0.1,0.3-0.1s0.2,0,0.3,0.1c0.1,0.1,0.1,0.2,0.1,0.3c0,0.1,0,0.2-0.1,0.3C343.5,324.5,343.4,324.5,343.3,324.5z
				 M343.3,322.3c-0.1,0-0.2,0-0.3-0.1c-0.1-0.1-0.1-0.2-0.1-0.3s0-0.2,0.1-0.3c0.1-0.1,0.2-0.1,0.3-0.1s0.2,0,0.3,0.1
				c0.1,0.1,0.1,0.2,0.1,0.3s0,0.2-0.1,0.3C343.5,322.3,343.4,322.3,343.3,322.3z M344.2,322.5c0-0.6,0.1-1.1,0.3-1.4
				c0.2-0.3,0.6-0.5,1.1-0.5s0.8,0.2,1.1,0.5s0.3,0.8,0.3,1.4c0,0.6-0.1,1.1-0.3,1.4c-0.2,0.3-0.6,0.5-1.1,0.5s-0.8-0.2-1.1-0.5
				C344.3,323.6,344.2,323.1,344.2,322.5z M346.4,322.5c0-0.3,0-0.5-0.1-0.7c0-0.2-0.1-0.4-0.2-0.5c-0.1-0.1-0.3-0.2-0.5-0.2
				c-0.2,0-0.4,0.1-0.5,0.2c-0.1,0.1-0.2,0.3-0.2,0.5c0,0.2-0.1,0.4-0.1,0.7c0,0.3,0,0.5,0.1,0.7s0.1,0.4,0.2,0.5
				c0.1,0.1,0.3,0.2,0.5,0.2c0.2,0,0.4-0.1,0.5-0.2c0.1-0.1,0.2-0.3,0.2-0.5C346.4,323.1,346.4,322.8,346.4,322.5z M347.6,322.5
				c0-0.6,0.1-1.1,0.3-1.4c0.2-0.3,0.6-0.5,1.1-0.5c0.5,0,0.8,0.2,1.1,0.5s0.3,0.8,0.3,1.4c0,0.6-0.1,1.1-0.3,1.4
				c-0.2,0.3-0.6,0.5-1.1,0.5c-0.5,0-0.8-0.2-1.1-0.5C347.7,323.6,347.6,323.1,347.6,322.5z M349.7,322.5c0-0.3,0-0.5-0.1-0.7
				c0-0.2-0.1-0.4-0.2-0.5c-0.1-0.1-0.3-0.2-0.5-0.2c-0.2,0-0.4,0.1-0.5,0.2c-0.1,0.1-0.2,0.3-0.2,0.5c0,0.2-0.1,0.4-0.1,0.7
				c0,0.3,0,0.5,0.1,0.7c0,0.2,0.1,0.4,0.2,0.5c0.1,0.1,0.3,0.2,0.5,0.2c0.2,0,0.4-0.1,0.5-0.2c0.1-0.1,0.2-0.3,0.2-0.5
				C349.7,323.1,349.7,322.8,349.7,322.5z M354.6,323.7h-1.5l-0.3,0.7h-0.6l1.3-3.6h0.7l1.3,3.6h-0.6L354.6,323.7z M354.4,323.2
				l-0.6-1.7l-0.6,1.7H354.4z M359.9,320.8v3.6h-0.6V322l-1.1,2.5h-0.4l-1.1-2.5v2.5H356v-3.6h0.6l1.3,2.9l1.3-2.9H359.9z"/>
		</g>
	</g>
	<g>
		<g>
			<path class="st2" d="M254.5,355.8h-30.8c-4.6,0-8.4-3.8-8.4-8.4s3.8-8.4,8.4-8.4h30.8c4.6,0,8.4,3.8,8.4,8.4
				S259.2,355.8,254.5,355.8z M223.8,339.6c-4.3,0-7.8,3.5-7.8,7.8s3.5,7.8,7.8,7.8h30.8c4.3,0,7.8-3.5,7.8-7.8
				c0-4.3-3.5-7.8-7.8-7.8H223.8L223.8,339.6z"/>
		</g>
	</g>
	<g>
		<g>
			<path class="st2" d="M228.1,346.2v-0.5h1.1v3.8h-0.6v-3.3H228.1z M230,347.6c0-0.6,0.1-1.1,0.3-1.4c0.2-0.3,0.6-0.5,1.1-0.5
				c0.5,0,0.8,0.2,1.1,0.5s0.3,0.8,0.3,1.4c0,0.6-0.1,1.1-0.3,1.4c-0.2,0.3-0.6,0.5-1.1,0.5s-0.8-0.2-1.1-0.5
				C230.1,348.6,230,348.2,230,347.6z M232.2,347.6c0-0.3,0-0.5-0.1-0.7c0-0.2-0.1-0.4-0.2-0.5c-0.1-0.1-0.3-0.2-0.5-0.2
				s-0.4,0.1-0.5,0.2c-0.1,0.1-0.2,0.3-0.2,0.5c0,0.2-0.1,0.4-0.1,0.7c0,0.3,0,0.5,0.1,0.7c0,0.2,0.1,0.4,0.2,0.5
				c0.1,0.1,0.3,0.2,0.5,0.2s0.4-0.1,0.5-0.2c0.1-0.1,0.2-0.3,0.2-0.5C232.1,348.1,232.2,347.9,232.2,347.6z M233.7,349.6
				c-0.1,0-0.2,0-0.3-0.1c-0.1-0.1-0.1-0.2-0.1-0.3s0-0.2,0.1-0.3c0.1-0.1,0.2-0.1,0.3-0.1c0.1,0,0.2,0,0.3,0.1
				c0.1,0.1,0.1,0.2,0.1,0.3s0,0.2-0.1,0.3C233.9,349.5,233.8,349.6,233.7,349.6z M233.7,347.4c-0.1,0-0.2,0-0.3-0.1
				c-0.1-0.1-0.1-0.2-0.1-0.3c0-0.1,0-0.2,0.1-0.3c0.1-0.1,0.2-0.1,0.3-0.1c0.1,0,0.2,0,0.3,0.1c0.1,0.1,0.1,0.2,0.1,0.3
				c0,0.1,0,0.2-0.1,0.3C233.9,347.3,233.8,347.4,233.7,347.4z M234.7,347.6c0-0.6,0.1-1.1,0.3-1.4c0.2-0.3,0.6-0.5,1.1-0.5
				c0.5,0,0.8,0.2,1.1,0.5s0.3,0.8,0.3,1.4c0,0.6-0.1,1.1-0.3,1.4c-0.2,0.3-0.6,0.5-1.1,0.5c-0.5,0-0.8-0.2-1.1-0.5
				C234.8,348.6,234.7,348.2,234.7,347.6z M236.8,347.6c0-0.3,0-0.5-0.1-0.7c0-0.2-0.1-0.4-0.2-0.5c-0.1-0.1-0.3-0.2-0.5-0.2
				s-0.4,0.1-0.5,0.2c-0.1,0.1-0.2,0.3-0.2,0.5c0,0.2-0.1,0.4-0.1,0.7c0,0.3,0,0.5,0.1,0.7c0,0.2,0.1,0.4,0.2,0.5
				c0.1,0.1,0.3,0.2,0.5,0.2s0.4-0.1,0.5-0.2c0.1-0.1,0.2-0.3,0.2-0.5C236.8,348.1,236.8,347.9,236.8,347.6z M238,347.6
				c0-0.6,0.1-1.1,0.3-1.4c0.2-0.3,0.6-0.5,1.1-0.5s0.8,0.2,1.1,0.5c0.2,0.3,0.3,0.8,0.3,1.4c0,0.6-0.1,1.1-0.3,1.4
				c-0.2,0.3-0.6,0.5-1.1,0.5s-0.8-0.2-1.1-0.5C238.1,348.6,238,348.2,238,347.6z M240.2,347.6c0-0.3,0-0.5-0.1-0.7
				c0-0.2-0.1-0.4-0.2-0.5c-0.1-0.1-0.3-0.2-0.5-0.2s-0.4,0.1-0.5,0.2c-0.1,0.1-0.2,0.3-0.2,0.5c0,0.2-0.1,0.4-0.1,0.7
				c0,0.3,0,0.5,0.1,0.7c0,0.2,0.1,0.4,0.2,0.5c0.1,0.1,0.3,0.2,0.5,0.2s0.4-0.1,0.5-0.2c0.1-0.1,0.2-0.3,0.2-0.5
				C240.1,348.1,240.2,347.9,240.2,347.6z M245,348.8h-1.5l-0.3,0.7h-0.6l1.3-3.6h0.7l1.3,3.6h-0.6L245,348.8z M244.8,348.3
				l-0.6-1.7l-0.6,1.7H244.8z M250.3,345.9v3.6h-0.6V347l-1.1,2.5h-0.4l-1.1-2.5v2.5h-0.6v-3.6h0.6l1.3,2.9l1.3-2.9H250.3z"/>
		</g>
	</g>
	<g>
		<g>
			<path class="st2" d="M275.9,338h35.7c5.2,0,9.4,4.2,9.4,9.5s-4.2,9.5-9.4,9.5h-35.7c-5.2,0-9.4-4.2-9.4-9.5S270.7,338,275.9,338z
				"/>
		</g>
	</g>
	<g>
		<g>
			<path class="st1" d="M280.4,345.2v-0.8h1.6v5.4h-0.9v-4.7H280.4z M283,345.2v-0.8h1.6v5.4h-0.9v-4.7H283z M286.1,349.9
				c-0.2,0-0.3-0.1-0.4-0.2c-0.1-0.1-0.2-0.2-0.2-0.4c0-0.2,0.1-0.3,0.2-0.4c0.1-0.1,0.2-0.2,0.4-0.2c0.1,0,0.3,0.1,0.4,0.2
				s0.2,0.2,0.2,0.4c0,0.2-0.1,0.3-0.2,0.4C286.4,349.9,286.3,349.9,286.1,349.9z M286.1,346.8c-0.2,0-0.3-0.1-0.4-0.2
				c-0.1-0.1-0.2-0.2-0.2-0.4s0.1-0.3,0.2-0.4c0.1-0.1,0.2-0.2,0.4-0.2c0.1,0,0.3,0.1,0.4,0.2s0.2,0.2,0.2,0.4s-0.1,0.3-0.2,0.4
				C286.4,346.7,286.3,346.8,286.1,346.8z M287.5,347.1c0-0.9,0.1-1.5,0.4-2c0.3-0.5,0.8-0.7,1.5-0.7c0.7,0,1.2,0.2,1.5,0.7
				c0.3,0.5,0.4,1.2,0.4,2c0,0.9-0.1,1.6-0.4,2c-0.3,0.5-0.8,0.7-1.5,0.7c-0.7,0-1.2-0.2-1.5-0.7
				C287.6,348.6,287.5,347.9,287.5,347.1z M290.5,347.1c0-0.4,0-0.7-0.1-1c-0.1-0.3-0.2-0.5-0.3-0.7c-0.2-0.2-0.4-0.3-0.7-0.3
				s-0.5,0.1-0.7,0.3c-0.2,0.2-0.3,0.4-0.3,0.7c-0.1,0.3-0.1,0.6-0.1,1c0,0.4,0,0.8,0.1,1c0.1,0.3,0.2,0.5,0.3,0.7
				c0.2,0.2,0.4,0.3,0.7,0.3c0.3,0,0.5-0.1,0.7-0.3c0.2-0.2,0.3-0.4,0.3-0.7C290.5,347.8,290.5,347.5,290.5,347.1z M292.3,347.1
				c0-0.9,0.1-1.5,0.4-2c0.3-0.5,0.8-0.7,1.5-0.7s1.2,0.2,1.5,0.7c0.3,0.5,0.4,1.2,0.4,2c0,0.9-0.1,1.6-0.4,2
				c-0.3,0.5-0.8,0.7-1.5,0.7c-0.7,0-1.2-0.2-1.5-0.7C292.4,348.6,292.3,347.9,292.3,347.1z M295.3,347.1c0-0.4,0-0.7-0.1-1
				c-0.1-0.3-0.2-0.5-0.3-0.7c-0.2-0.2-0.4-0.3-0.7-0.3s-0.5,0.1-0.7,0.3c-0.2,0.2-0.3,0.4-0.3,0.7c-0.1,0.3-0.1,0.6-0.1,1
				c0,0.4,0,0.8,0.1,1c0.1,0.3,0.2,0.5,0.3,0.7c0.2,0.2,0.4,0.3,0.7,0.3c0.3,0,0.5-0.1,0.7-0.3c0.2-0.2,0.3-0.4,0.3-0.7
				C295.3,347.8,295.3,347.5,295.3,347.1z M302.2,348.8h-2.2l-0.4,1.1h-0.9l1.9-5.2h1l1.9,5.2h-0.9L302.2,348.8z M302,348.1
				l-0.8-2.4l-0.8,2.4H302z M309.7,344.7v5.2h-0.8v-3.5l-1.6,3.5h-0.6l-1.6-3.5v3.5h-0.8v-5.2h0.9l1.8,4.1l1.8-4.1H309.7z"/>
		</g>
	</g>
	<g>
		<g>
			<path class="st2" d="M363.6,355.8h-30.8c-4.6,0-8.4-3.8-8.4-8.4s3.8-8.4,8.4-8.4h30.8c4.6,0,8.4,3.8,8.4,8.4
				S368.2,355.8,363.6,355.8z M332.8,339.6c-4.3,0-7.8,3.5-7.8,7.8s3.5,7.8,7.8,7.8h30.8c4.3,0,7.8-3.5,7.8-7.8
				c0-4.3-3.5-7.8-7.8-7.8H332.8L332.8,339.6z"/>
		</g>
	</g>
	<g>
		<g>
			<path class="st2" d="M337.5,345.9v-0.5h1.1v3.8H338v-3.3H337.5z M339.8,348.3c0.3-0.3,0.6-0.5,0.8-0.7c0.2-0.2,0.4-0.4,0.5-0.6
				c0.1-0.2,0.2-0.4,0.2-0.6c0-0.2-0.1-0.4-0.2-0.5c-0.1-0.1-0.3-0.2-0.5-0.2c-0.2,0-0.4,0.1-0.5,0.2c-0.1,0.1-0.2,0.3-0.2,0.5h-0.6
				c0-0.4,0.1-0.7,0.4-0.9c0.2-0.2,0.5-0.3,0.9-0.3c0.4,0,0.7,0.1,0.9,0.3c0.2,0.2,0.3,0.5,0.3,0.8c0,0.3-0.1,0.5-0.2,0.7
				c-0.1,0.2-0.3,0.4-0.5,0.6c-0.2,0.2-0.4,0.4-0.7,0.6l-0.2,0.2h1.7v0.5h-2.5v-0.4L339.8,348.3z M342.8,349.2c-0.1,0-0.2,0-0.3-0.1
				c-0.1-0.1-0.1-0.2-0.1-0.3c0-0.1,0-0.2,0.1-0.3s0.2-0.1,0.3-0.1s0.2,0,0.3,0.1c0.1,0.1,0.1,0.2,0.1,0.3c0,0.1,0,0.2-0.1,0.3
				C343,349.1,342.9,349.2,342.8,349.2z M342.8,347c-0.1,0-0.2,0-0.3-0.1c-0.1-0.1-0.1-0.2-0.1-0.3s0-0.2,0.1-0.3s0.2-0.1,0.3-0.1
				s0.2,0,0.3,0.1c0.1,0.1,0.1,0.2,0.1,0.3s0,0.2-0.1,0.3C343,346.9,342.9,347,342.8,347z M343.7,347.2c0-0.6,0.1-1.1,0.3-1.4
				c0.2-0.3,0.6-0.5,1.1-0.5s0.8,0.2,1.1,0.5s0.3,0.8,0.3,1.4c0,0.6-0.1,1.1-0.3,1.4c-0.2,0.3-0.6,0.5-1.1,0.5s-0.8-0.2-1.1-0.5
				C343.8,348.3,343.7,347.8,343.7,347.2z M345.9,347.2c0-0.3,0-0.5-0.1-0.7c0-0.2-0.1-0.4-0.2-0.5c-0.1-0.1-0.3-0.2-0.5-0.2
				c-0.2,0-0.4,0.1-0.5,0.2c-0.1,0.1-0.2,0.3-0.2,0.5c0,0.2-0.1,0.4-0.1,0.7c0,0.3,0,0.5,0.1,0.7s0.1,0.4,0.2,0.5
				c0.1,0.1,0.3,0.2,0.5,0.2c0.2,0,0.4-0.1,0.5-0.2c0.1-0.1,0.2-0.3,0.2-0.5C345.9,347.7,345.9,347.5,345.9,347.2z M347.1,347.2
				c0-0.6,0.1-1.1,0.3-1.4c0.2-0.3,0.6-0.5,1.1-0.5c0.5,0,0.8,0.2,1.1,0.5s0.3,0.8,0.3,1.4c0,0.6-0.1,1.1-0.3,1.4
				c-0.2,0.3-0.6,0.5-1.1,0.5c-0.5,0-0.8-0.2-1.1-0.5C347.2,348.3,347.1,347.8,347.1,347.2z M349.2,347.2c0-0.3,0-0.5-0.1-0.7
				c0-0.2-0.1-0.4-0.2-0.5c-0.1-0.1-0.3-0.2-0.5-0.2c-0.2,0-0.4,0.1-0.5,0.2c-0.1,0.1-0.2,0.3-0.2,0.5c0,0.2-0.1,0.4-0.1,0.7
				c0,0.3,0,0.5,0.1,0.7s0.1,0.4,0.2,0.5c0.1,0.1,0.3,0.2,0.5,0.2c0.2,0,0.4-0.1,0.5-0.2c0.1-0.1,0.2-0.3,0.2-0.5
				C349.2,347.7,349.2,347.5,349.2,347.2z M354.1,348.4h-1.5l-0.3,0.7h-0.6l1.3-3.6h0.7l1.3,3.6h-0.6L354.1,348.4z M353.9,347.9
				l-0.6-1.7l-0.6,1.7H353.9z M359.4,345.5v3.6h-0.6v-2.5l-1.1,2.5h-0.4l-1.1-2.5v2.5h-0.6v-3.6h0.6l1.3,2.9l1.3-2.9H359.4z"/>
		</g>
	</g>
	<g>
		<g>
			<path class="st2" d="M254.5,381h-30.8c-4.6,0-8.4-3.8-8.4-8.4c0-4.6,3.8-8.4,8.4-8.4h30.8c4.6,0,8.4,3.8,8.4,8.4
				C262.9,377.2,259.2,381,254.5,381z M223.8,364.8c-4.3,0-7.8,3.5-7.8,7.8c0,4.3,3.5,7.8,7.8,7.8h30.8c4.3,0,7.8-3.5,7.8-7.8
				c0-4.3-3.5-7.8-7.8-7.8H223.8z"/>
		</g>
	</g>
	<g>
		<g>
			<path class="st2" d="M227.9,372.7c0-0.6,0.1-1.1,0.3-1.4c0.2-0.3,0.6-0.5,1.1-0.5c0.5,0,0.8,0.2,1.1,0.5s0.3,0.8,0.3,1.4
				c0,0.6-0.1,1.1-0.3,1.4c-0.2,0.3-0.6,0.5-1.1,0.5c-0.5,0-0.8-0.2-1.1-0.5C228,373.8,227.9,373.3,227.9,372.7z M230,372.7
				c0-0.3,0-0.5-0.1-0.7c0-0.2-0.1-0.4-0.2-0.5c-0.1-0.1-0.3-0.2-0.5-0.2s-0.4,0.1-0.5,0.2c-0.1,0.1-0.2,0.3-0.2,0.5
				c0,0.2-0.1,0.4-0.1,0.7c0,0.3,0,0.5,0.1,0.7c0,0.2,0.1,0.4,0.2,0.5c0.1,0.1,0.3,0.2,0.5,0.2s0.4-0.1,0.5-0.2
				c0.1-0.1,0.2-0.3,0.2-0.5C230,373.3,230,373,230,372.7z M231.1,371.4v-0.5h1.1v3.8h-0.6v-3.3H231.1z M233.4,374.7
				c-0.1,0-0.2,0-0.3-0.1c-0.1-0.1-0.1-0.2-0.1-0.3c0-0.1,0-0.2,0.1-0.3c0.1-0.1,0.2-0.1,0.3-0.1s0.2,0,0.3,0.1
				c0.1,0.1,0.1,0.2,0.1,0.3c0,0.1,0,0.2-0.1,0.3C233.6,374.7,233.5,374.7,233.4,374.7z M233.4,372.5c-0.1,0-0.2,0-0.3-0.1
				c-0.1-0.1-0.1-0.2-0.1-0.3c0-0.1,0-0.2,0.1-0.3c0.1-0.1,0.2-0.1,0.3-0.1s0.2,0,0.3,0.1c0.1,0.1,0.1,0.2,0.1,0.3
				c0,0.1,0,0.2-0.1,0.3C233.6,372.5,233.5,372.5,233.4,372.5z M234.3,372.7c0-0.6,0.1-1.1,0.3-1.4c0.2-0.3,0.6-0.5,1.1-0.5
				c0.5,0,0.8,0.2,1.1,0.5s0.3,0.8,0.3,1.4c0,0.6-0.1,1.1-0.3,1.4c-0.2,0.3-0.6,0.5-1.1,0.5c-0.5,0-0.8-0.2-1.1-0.5
				C234.4,373.8,234.3,373.3,234.3,372.7z M236.5,372.7c0-0.3,0-0.5-0.1-0.7c0-0.2-0.1-0.4-0.2-0.5c-0.1-0.1-0.3-0.2-0.5-0.2
				s-0.4,0.1-0.5,0.2c-0.1,0.1-0.2,0.3-0.2,0.5c0,0.2-0.1,0.4-0.1,0.7c0,0.3,0,0.5,0.1,0.7c0,0.2,0.1,0.4,0.2,0.5
				c0.1,0.1,0.3,0.2,0.5,0.2s0.4-0.1,0.5-0.2c0.1-0.1,0.2-0.3,0.2-0.5C236.5,373.3,236.5,373,236.5,372.7z M237.7,372.7
				c0-0.6,0.1-1.1,0.3-1.4c0.2-0.3,0.6-0.5,1.1-0.5c0.5,0,0.8,0.2,1.1,0.5s0.3,0.8,0.3,1.4c0,0.6-0.1,1.1-0.3,1.4
				c-0.2,0.3-0.6,0.5-1.1,0.5s-0.8-0.2-1.1-0.5C237.8,373.8,237.7,373.3,237.7,372.7z M239.8,372.7c0-0.3,0-0.5-0.1-0.7
				c0-0.2-0.1-0.4-0.2-0.5c-0.1-0.1-0.3-0.2-0.5-0.2s-0.4,0.1-0.5,0.2c-0.1,0.1-0.2,0.3-0.2,0.5c0,0.2-0.1,0.4-0.1,0.7
				c0,0.3,0,0.5,0.1,0.7c0,0.2,0.1,0.4,0.2,0.5c0.1,0.1,0.3,0.2,0.5,0.2s0.4-0.1,0.5-0.2c0.1-0.1,0.2-0.3,0.2-0.5
				C239.8,373.3,239.8,373,239.8,372.7z M245,372.1c0,0.2,0,0.4-0.1,0.5c-0.1,0.2-0.2,0.3-0.4,0.4c-0.2,0.1-0.4,0.2-0.7,0.2h-0.7
				v1.5h-0.6V371h1.3c0.3,0,0.5,0.1,0.7,0.1c0.2,0.1,0.3,0.2,0.4,0.4C245,371.7,245,371.9,245,372.1z M243.7,372.7
				c0.2,0,0.4-0.1,0.5-0.2s0.2-0.3,0.2-0.4c0-0.4-0.2-0.6-0.7-0.6h-0.7v1.2H243.7z M249.4,371v3.6h-0.6v-2.5l-1.1,2.5h-0.4l-1.1-2.5
				v2.5h-0.6V371h0.6l1.3,2.9l1.3-2.9H249.4z"/>
		</g>
	</g>
	<g>
		<g>
			<path class="st2" d="M309.1,381h-30.8c-4.6,0-8.4-3.8-8.4-8.4c0-4.6,3.8-8.4,8.4-8.4h30.8c4.6,0,8.4,3.8,8.4,8.4
				C317.4,377.2,313.7,381,309.1,381z M278.3,364.8c-4.3,0-7.8,3.5-7.8,7.8c0,4.3,3.5,7.8,7.8,7.8h30.8c4.3,0,7.8-3.5,7.8-7.8
				c0-4.3-3.5-7.8-7.8-7.8H278.3z"/>
		</g>
	</g>
	<g>
		<g>
			<path class="st2" d="M282.7,372c0-0.6,0.1-1.1,0.3-1.4c0.2-0.3,0.6-0.5,1.1-0.5c0.5,0,0.8,0.2,1.1,0.5s0.3,0.8,0.3,1.4
				c0,0.6-0.1,1.1-0.3,1.4c-0.2,0.3-0.6,0.5-1.1,0.5c-0.5,0-0.8-0.2-1.1-0.5C282.8,373.1,282.7,372.6,282.7,372z M284.8,372
				c0-0.3,0-0.5-0.1-0.7c0-0.2-0.1-0.4-0.2-0.5c-0.1-0.1-0.3-0.2-0.5-0.2c-0.2,0-0.4,0.1-0.5,0.2c-0.1,0.1-0.2,0.3-0.2,0.5
				c0,0.2-0.1,0.4-0.1,0.7c0,0.3,0,0.5,0.1,0.7s0.1,0.4,0.2,0.5c0.1,0.1,0.3,0.2,0.5,0.2c0.2,0,0.4-0.1,0.5-0.2
				c0.1-0.1,0.2-0.3,0.2-0.5C284.8,372.6,284.8,372.3,284.8,372z M286.4,373.2c0.3-0.3,0.6-0.5,0.8-0.7c0.2-0.2,0.4-0.4,0.5-0.6
				c0.1-0.2,0.2-0.4,0.2-0.6c0-0.2-0.1-0.4-0.2-0.5c-0.1-0.1-0.3-0.2-0.5-0.2c-0.2,0-0.4,0.1-0.5,0.2c-0.1,0.1-0.2,0.3-0.2,0.5H286
				c0-0.4,0.1-0.7,0.4-0.9c0.2-0.2,0.5-0.3,0.9-0.3c0.4,0,0.7,0.1,0.9,0.3c0.2,0.2,0.3,0.5,0.3,0.8c0,0.3-0.1,0.5-0.2,0.7
				c-0.1,0.2-0.3,0.4-0.5,0.6c-0.2,0.2-0.4,0.4-0.7,0.6l-0.2,0.2h1.7v0.5H286v-0.4L286.4,373.2z M289.4,374c-0.1,0-0.2,0-0.3-0.1
				c-0.1-0.1-0.1-0.2-0.1-0.3s0-0.2,0.1-0.3c0.1-0.1,0.2-0.1,0.3-0.1s0.2,0,0.3,0.1c0.1,0.1,0.1,0.2,0.1,0.3s0,0.2-0.1,0.3
				C289.6,374,289.5,374,289.4,374z M289.4,371.8c-0.1,0-0.2,0-0.3-0.1c-0.1-0.1-0.1-0.2-0.1-0.3c0-0.1,0-0.2,0.1-0.3
				c0.1-0.1,0.2-0.1,0.3-0.1s0.2,0,0.3,0.1c0.1,0.1,0.1,0.2,0.1,0.3c0,0.1,0,0.2-0.1,0.3C289.6,371.8,289.5,371.8,289.4,371.8z
				 M290.4,372c0-0.6,0.1-1.1,0.3-1.4c0.2-0.3,0.6-0.5,1.1-0.5c0.5,0,0.8,0.2,1.1,0.5s0.3,0.8,0.3,1.4c0,0.6-0.1,1.1-0.3,1.4
				c-0.2,0.3-0.6,0.5-1.1,0.5c-0.5,0-0.8-0.2-1.1-0.5C290.5,373.1,290.4,372.6,290.4,372z M292.5,372c0-0.3,0-0.5-0.1-0.7
				c0-0.2-0.1-0.4-0.2-0.5c-0.1-0.1-0.3-0.2-0.5-0.2c-0.2,0-0.4,0.1-0.5,0.2c-0.1,0.1-0.2,0.3-0.2,0.5c0,0.2-0.1,0.4-0.1,0.7
				c0,0.3,0,0.5,0.1,0.7s0.1,0.4,0.2,0.5c0.1,0.1,0.3,0.2,0.5,0.2c0.2,0,0.4-0.1,0.5-0.2c0.1-0.1,0.2-0.3,0.2-0.5
				C292.5,372.6,292.5,372.3,292.5,372z M293.7,372c0-0.6,0.1-1.1,0.3-1.4c0.2-0.3,0.6-0.5,1.1-0.5c0.5,0,0.8,0.2,1.1,0.5
				s0.3,0.8,0.3,1.4c0,0.6-0.1,1.1-0.3,1.4c-0.2,0.3-0.6,0.5-1.1,0.5c-0.5,0-0.8-0.2-1.1-0.5C293.8,373.1,293.7,372.6,293.7,372z
				 M295.9,372c0-0.3,0-0.5-0.1-0.7c0-0.2-0.1-0.4-0.2-0.5c-0.1-0.1-0.3-0.2-0.5-0.2c-0.2,0-0.4,0.1-0.5,0.2
				c-0.1,0.1-0.2,0.3-0.2,0.5c0,0.2-0.1,0.4-0.1,0.7c0,0.3,0,0.5,0.1,0.7s0.1,0.4,0.2,0.5c0.1,0.1,0.3,0.2,0.5,0.2
				c0.2,0,0.4-0.1,0.5-0.2c0.1-0.1,0.2-0.3,0.2-0.5C295.8,372.6,295.9,372.3,295.9,372z M301.1,371.4c0,0.2,0,0.4-0.1,0.5
				c-0.1,0.2-0.2,0.3-0.4,0.4c-0.2,0.1-0.4,0.2-0.7,0.2h-0.7v1.5h-0.6v-3.6h1.3c0.3,0,0.5,0.1,0.7,0.1c0.2,0.1,0.3,0.2,0.4,0.4
				C301,371.1,301.1,371.2,301.1,371.4z M299.8,372c0.2,0,0.4-0.1,0.5-0.2s0.2-0.3,0.2-0.4c0-0.4-0.2-0.6-0.7-0.6h-0.7v1.2H299.8z
				 M305.5,370.4v3.6h-0.6v-2.5l-1.1,2.5h-0.4l-1.1-2.5v2.5h-0.6v-3.6h0.6l1.3,2.9l1.3-2.9H305.5z"/>
		</g>
	</g>
	<g>
		<g>
			<path class="st5" d="M363.6,381h-30.8c-4.6,0-8.4-3.8-8.4-8.4c0-4.6,3.8-8.4,8.4-8.4h30.8c4.6,0,8.4,3.8,8.4,8.4
				C372,377.2,368.2,381,363.6,381z M332.8,364.8c-4.3,0-7.8,3.5-7.8,7.8c0,4.3,3.5,7.8,7.8,7.8h30.8c4.3,0,7.8-3.5,7.8-7.8
				c0-4.3-3.5-7.8-7.8-7.8H332.8z"/>
		</g>
	</g>
	<g>
		<g>
			<path class="st5" d="M338.2,372.7c0-0.6,0.1-1.1,0.3-1.4c0.2-0.3,0.6-0.5,1.1-0.5c0.5,0,0.8,0.2,1.1,0.5s0.3,0.8,0.3,1.4
				c0,0.6-0.1,1.1-0.3,1.4c-0.2,0.3-0.6,0.5-1.1,0.5c-0.5,0-0.8-0.2-1.1-0.5C338.3,373.8,338.2,373.3,338.2,372.7z M340.3,372.7
				c0-0.3,0-0.5-0.1-0.7c0-0.2-0.1-0.4-0.2-0.5c-0.1-0.1-0.3-0.2-0.5-0.2c-0.2,0-0.4,0.1-0.5,0.2c-0.1,0.1-0.2,0.3-0.2,0.5
				c0,0.2-0.1,0.4-0.1,0.7c0,0.3,0,0.5,0.1,0.7s0.1,0.4,0.2,0.5c0.1,0.1,0.3,0.2,0.5,0.2c0.2,0,0.4-0.1,0.5-0.2
				c0.1-0.1,0.2-0.3,0.2-0.5C340.3,373.3,340.3,373,340.3,372.7z M341.5,371.8c0-0.3,0.1-0.6,0.4-0.8c0.2-0.2,0.5-0.3,0.9-0.3
				c0.2,0,0.5,0,0.6,0.1c0.2,0.1,0.3,0.2,0.4,0.4c0.1,0.1,0.1,0.3,0.1,0.5c0,0.2-0.1,0.4-0.2,0.6c-0.1,0.2-0.3,0.3-0.4,0.3v0
				c0.2,0.1,0.4,0.2,0.5,0.3c0.1,0.2,0.2,0.4,0.2,0.6c0,0.2,0,0.4-0.1,0.5c-0.1,0.2-0.2,0.3-0.4,0.4c-0.2,0.1-0.4,0.1-0.7,0.1
				c-0.4,0-0.7-0.1-0.9-0.3c-0.2-0.2-0.4-0.5-0.4-0.8h0.6c0,0.2,0.1,0.3,0.2,0.5c0.1,0.1,0.3,0.2,0.5,0.2c0.2,0,0.4-0.1,0.5-0.2
				c0.1-0.1,0.2-0.3,0.2-0.5c0-0.2-0.1-0.4-0.2-0.5c-0.2-0.1-0.4-0.2-0.7-0.2h-0.1v-0.5h0.1c0.3,0,0.5-0.1,0.6-0.1
				c0.1-0.1,0.2-0.2,0.2-0.4c0-0.2-0.1-0.3-0.2-0.4c-0.1-0.1-0.3-0.2-0.5-0.2c-0.2,0-0.3,0.1-0.5,0.2c-0.1,0.1-0.2,0.2-0.2,0.4
				L341.5,371.8L341.5,371.8z M345,374.7c-0.1,0-0.2,0-0.3-0.1c-0.1-0.1-0.1-0.2-0.1-0.3c0-0.1,0-0.2,0.1-0.3
				c0.1-0.1,0.2-0.1,0.3-0.1s0.2,0,0.3,0.1c0.1,0.1,0.1,0.2,0.1,0.3c0,0.1,0,0.2-0.1,0.3C345.2,374.7,345.1,374.7,345,374.7z
				 M345,372.5c-0.1,0-0.2,0-0.3-0.1c-0.1-0.1-0.1-0.2-0.1-0.3c0-0.1,0-0.2,0.1-0.3c0.1-0.1,0.2-0.1,0.3-0.1s0.2,0,0.3,0.1
				c0.1,0.1,0.1,0.2,0.1,0.3c0,0.1,0,0.2-0.1,0.3C345.2,372.5,345.1,372.5,345,372.5z M345.9,372.7c0-0.6,0.1-1.1,0.3-1.4
				c0.2-0.3,0.6-0.5,1.1-0.5s0.8,0.2,1.1,0.5s0.3,0.8,0.3,1.4c0,0.6-0.1,1.1-0.3,1.4c-0.2,0.3-0.6,0.5-1.1,0.5s-0.8-0.2-1.1-0.5
				C346,373.8,345.9,373.3,345.9,372.7z M348.1,372.7c0-0.3,0-0.5-0.1-0.7c0-0.2-0.1-0.4-0.2-0.5c-0.1-0.1-0.3-0.2-0.5-0.2
				c-0.2,0-0.4,0.1-0.5,0.2c-0.1,0.1-0.2,0.3-0.2,0.5c0,0.2-0.1,0.4-0.1,0.7c0,0.3,0,0.5,0.1,0.7c0,0.2,0.1,0.4,0.2,0.5
				c0.1,0.1,0.3,0.2,0.5,0.2c0.2,0,0.4-0.1,0.5-0.2c0.1-0.1,0.2-0.3,0.2-0.5C348,373.3,348.1,373,348.1,372.7z M349.3,372.7
				c0-0.6,0.1-1.1,0.3-1.4c0.2-0.3,0.6-0.5,1.1-0.5c0.5,0,0.8,0.2,1.1,0.5s0.3,0.8,0.3,1.4c0,0.6-0.1,1.1-0.3,1.4
				c-0.2,0.3-0.6,0.5-1.1,0.5c-0.5,0-0.8-0.2-1.1-0.5C349.4,373.8,349.3,373.3,349.3,372.7z M351.4,372.7c0-0.3,0-0.5-0.1-0.7
				c0-0.2-0.1-0.4-0.2-0.5c-0.1-0.1-0.3-0.2-0.5-0.2c-0.2,0-0.4,0.1-0.5,0.2c-0.1,0.1-0.2,0.3-0.2,0.5c0,0.2-0.1,0.4-0.1,0.7
				c0,0.3,0,0.5,0.1,0.7s0.1,0.4,0.2,0.5c0.1,0.1,0.3,0.2,0.5,0.2c0.2,0,0.4-0.1,0.5-0.2c0.1-0.1,0.2-0.3,0.2-0.5
				C351.4,373.3,351.4,373,351.4,372.7z M356.6,372.1c0,0.2,0,0.4-0.1,0.5c-0.1,0.2-0.2,0.3-0.4,0.4c-0.2,0.1-0.4,0.2-0.7,0.2h-0.7
				v1.5h-0.6V371h1.3c0.3,0,0.5,0.1,0.7,0.1c0.2,0.1,0.3,0.2,0.4,0.4C356.6,371.7,356.6,371.9,356.6,372.1z M355.3,372.7
				c0.2,0,0.4-0.1,0.5-0.2c0.1-0.1,0.2-0.3,0.2-0.4c0-0.4-0.2-0.6-0.7-0.6h-0.7v1.2H355.3z M361,371v3.6h-0.6v-2.5l-1.1,2.5h-0.4
				l-1.1-2.5v2.5h-0.6V371h0.6l1.3,2.9l1.3-2.9H361z"/>
		</g>
	</g>
	<g>
		<g>
			<path class="st5" d="M254.5,405.7h-30.8c-4.6,0-8.4-3.8-8.4-8.4s3.8-8.4,8.4-8.4h30.8c4.6,0,8.4,3.8,8.4,8.4
				S259.2,405.7,254.5,405.7z M223.8,389.4c-4.3,0-7.8,3.5-7.8,7.8s3.5,7.8,7.8,7.8h30.8c4.3,0,7.8-3.5,7.8-7.8s-3.5-7.8-7.8-7.8
				H223.8z"/>
		</g>
	</g>
	<g>
		<g>
			<path class="st5" d="M226.9,397.1c0-0.6,0.1-1.1,0.3-1.4c0.2-0.3,0.6-0.5,1.1-0.5s0.8,0.2,1.1,0.5c0.2,0.3,0.3,0.8,0.3,1.4
				c0,0.6-0.1,1.1-0.3,1.4c-0.2,0.3-0.6,0.5-1.1,0.5s-0.8-0.2-1.1-0.5C227,398.1,226.9,397.7,226.9,397.1z M229,397.1
				c0-0.3,0-0.5-0.1-0.7c0-0.2-0.1-0.4-0.2-0.5c-0.1-0.1-0.3-0.2-0.5-0.2s-0.4,0.1-0.5,0.2c-0.1,0.1-0.2,0.3-0.2,0.5
				c0,0.2-0.1,0.4-0.1,0.7c0,0.3,0,0.5,0.1,0.7c0,0.2,0.1,0.4,0.2,0.5c0.1,0.1,0.3,0.2,0.5,0.2s0.4-0.1,0.5-0.2
				c0.1-0.1,0.2-0.3,0.2-0.5C229,397.6,229,397.3,229,397.1z M230.2,398.2v-0.5l1.8-2.5h0.7v2.5h0.5v0.5h-0.5v0.8h-0.6v-0.8H230.2z
				 M232.1,395.8l-1.2,1.8h1.2V395.8z M234,399c-0.1,0-0.2,0-0.3-0.1c-0.1-0.1-0.1-0.2-0.1-0.3c0-0.1,0-0.2,0.1-0.3
				c0.1-0.1,0.2-0.1,0.3-0.1c0.1,0,0.2,0,0.3,0.1c0.1,0.1,0.1,0.2,0.1,0.3c0,0.1,0,0.2-0.1,0.3C234.2,399,234.1,399,234,399z
				 M234,396.8c-0.1,0-0.2,0-0.3-0.1c-0.1-0.1-0.1-0.2-0.1-0.3c0-0.1,0-0.2,0.1-0.3c0.1-0.1,0.2-0.1,0.3-0.1c0.1,0,0.2,0,0.3,0.1
				c0.1,0.1,0.1,0.2,0.1,0.3s0,0.2-0.1,0.3C234.2,396.8,234.1,396.8,234,396.8z M234.9,397.1c0-0.6,0.1-1.1,0.3-1.4
				c0.2-0.3,0.6-0.5,1.1-0.5c0.5,0,0.8,0.2,1.1,0.5c0.2,0.3,0.3,0.8,0.3,1.4c0,0.6-0.1,1.1-0.3,1.4c-0.2,0.3-0.6,0.5-1.1,0.5
				c-0.5,0-0.8-0.2-1.1-0.5C235,398.1,234.9,397.7,234.9,397.1z M237.1,397.1c0-0.3,0-0.5-0.1-0.7c0-0.2-0.1-0.4-0.2-0.5
				c-0.1-0.1-0.3-0.2-0.5-0.2s-0.4,0.1-0.5,0.2c-0.1,0.1-0.2,0.3-0.2,0.5c0,0.2-0.1,0.4-0.1,0.7c0,0.3,0,0.5,0.1,0.7
				c0,0.2,0.1,0.4,0.2,0.5c0.1,0.1,0.3,0.2,0.5,0.2s0.4-0.1,0.5-0.2c0.1-0.1,0.2-0.3,0.2-0.5C237.1,397.6,237.1,397.3,237.1,397.1z
				 M238.3,397.1c0-0.6,0.1-1.1,0.3-1.4c0.2-0.3,0.6-0.5,1.1-0.5c0.5,0,0.8,0.2,1.1,0.5s0.3,0.8,0.3,1.4c0,0.6-0.1,1.1-0.3,1.4
				c-0.2,0.3-0.6,0.5-1.1,0.5c-0.5,0-0.8-0.2-1.1-0.5C238.4,398.1,238.3,397.7,238.3,397.1z M240.4,397.1c0-0.3,0-0.5-0.1-0.7
				c0-0.2-0.1-0.4-0.2-0.5c-0.1-0.1-0.3-0.2-0.5-0.2s-0.4,0.1-0.5,0.2c-0.1,0.1-0.2,0.3-0.2,0.5c0,0.2-0.1,0.4-0.1,0.7
				c0,0.3,0,0.5,0.1,0.7s0.1,0.4,0.2,0.5c0.1,0.1,0.3,0.2,0.5,0.2s0.4-0.1,0.5-0.2c0.1-0.1,0.2-0.3,0.2-0.5
				C240.4,397.6,240.4,397.3,240.4,397.1z M245.6,396.5c0,0.2,0,0.4-0.1,0.5c-0.1,0.2-0.2,0.3-0.4,0.4c-0.2,0.1-0.4,0.2-0.7,0.2
				h-0.7v1.5h-0.6v-3.6h1.3c0.3,0,0.5,0.1,0.7,0.1c0.2,0.1,0.3,0.2,0.4,0.4C245.6,396.1,245.6,396.2,245.6,396.5z M244.4,397
				c0.2,0,0.4-0.1,0.5-0.2c0.1-0.1,0.2-0.3,0.2-0.4c0-0.4-0.2-0.6-0.7-0.6h-0.7v1.2H244.4z M250,395.4v3.6h-0.6v-2.5l-1.1,2.5h-0.4
				l-1.1-2.5v2.5h-0.6v-3.6h0.6l1.3,2.9l1.3-2.9H250z"/>
		</g>
	</g>
	<g>
		<g>
			<path class="st2" d="M309.1,405.7h-30.8c-4.6,0-8.4-3.8-8.4-8.4s3.8-8.4,8.4-8.4h30.8c4.6,0,8.4,3.8,8.4,8.4
				S313.7,405.7,309.1,405.7z M278.3,389.4c-4.3,0-7.8,3.5-7.8,7.8s3.5,7.8,7.8,7.8h30.8c4.3,0,7.8-3.5,7.8-7.8s-3.5-7.8-7.8-7.8
				H278.3z"/>
		</g>
	</g>
	<g>
		<g>
			<path class="st2" d="M282.5,397.1c0-0.6,0.1-1.1,0.3-1.4c0.2-0.3,0.6-0.5,1.1-0.5c0.5,0,0.8,0.2,1.1,0.5s0.3,0.8,0.3,1.4
				c0,0.6-0.1,1.1-0.3,1.4c-0.2,0.3-0.6,0.5-1.1,0.5c-0.5,0-0.8-0.2-1.1-0.5C282.6,398.1,282.5,397.7,282.5,397.1z M284.6,397.1
				c0-0.3,0-0.5-0.1-0.7c0-0.2-0.1-0.4-0.2-0.5c-0.1-0.1-0.3-0.2-0.5-0.2c-0.2,0-0.4,0.1-0.5,0.2c-0.1,0.1-0.2,0.3-0.2,0.5
				c0,0.2-0.1,0.4-0.1,0.7c0,0.3,0,0.5,0.1,0.7c0,0.2,0.1,0.4,0.2,0.5c0.1,0.1,0.3,0.2,0.5,0.2c0.2,0,0.4-0.1,0.5-0.2
				c0.1-0.1,0.2-0.3,0.2-0.5C284.6,397.6,284.6,397.3,284.6,397.1z M288.3,395.7h-1.8v1c0.1-0.1,0.2-0.2,0.3-0.2
				c0.1-0.1,0.3-0.1,0.5-0.1c0.3,0,0.5,0.1,0.7,0.2c0.2,0.1,0.3,0.3,0.4,0.5c0.1,0.2,0.1,0.4,0.1,0.6c0,0.3-0.1,0.5-0.2,0.7
				c-0.1,0.2-0.2,0.4-0.4,0.5c-0.2,0.1-0.4,0.2-0.7,0.2c-0.4,0-0.7-0.1-0.9-0.3c-0.2-0.2-0.4-0.4-0.4-0.7h0.6c0,0.2,0.1,0.3,0.3,0.4
				c0.1,0.1,0.3,0.1,0.5,0.1c0.3,0,0.4-0.1,0.6-0.2c0.1-0.1,0.2-0.3,0.2-0.6s-0.1-0.4-0.2-0.6c-0.1-0.1-0.3-0.2-0.6-0.2
				c-0.2,0-0.3,0-0.4,0.1c-0.1,0.1-0.2,0.2-0.3,0.3H286v-2.2h2.3L288.3,395.7L288.3,395.7z M289.5,399c-0.1,0-0.2,0-0.3-0.1
				c-0.1-0.1-0.1-0.2-0.1-0.3c0-0.1,0-0.2,0.1-0.3c0.1-0.1,0.2-0.1,0.3-0.1s0.2,0,0.3,0.1c0.1,0.1,0.1,0.2,0.1,0.3
				c0,0.1,0,0.2-0.1,0.3C289.7,399,289.6,399,289.5,399z M289.5,396.8c-0.1,0-0.2,0-0.3-0.1c-0.1-0.1-0.1-0.2-0.1-0.3
				c0-0.1,0-0.2,0.1-0.3c0.1-0.1,0.2-0.1,0.3-0.1s0.2,0,0.3,0.1c0.1,0.1,0.1,0.2,0.1,0.3s0,0.2-0.1,0.3
				C289.7,396.8,289.6,396.8,289.5,396.8z M290.5,397.1c0-0.6,0.1-1.1,0.3-1.4c0.2-0.3,0.6-0.5,1.1-0.5c0.5,0,0.8,0.2,1.1,0.5
				s0.3,0.8,0.3,1.4c0,0.6-0.1,1.1-0.3,1.4c-0.2,0.3-0.6,0.5-1.1,0.5c-0.5,0-0.8-0.2-1.1-0.5C290.6,398.1,290.5,397.7,290.5,397.1z
				 M292.6,397.1c0-0.3,0-0.5-0.1-0.7c0-0.2-0.1-0.4-0.2-0.5c-0.1-0.1-0.3-0.2-0.5-0.2c-0.2,0-0.4,0.1-0.5,0.2
				c-0.1,0.1-0.2,0.3-0.2,0.5c0,0.2-0.1,0.4-0.1,0.7c0,0.3,0,0.5,0.1,0.7s0.1,0.4,0.2,0.5c0.1,0.1,0.3,0.2,0.5,0.2
				c0.2,0,0.4-0.1,0.5-0.2c0.1-0.1,0.2-0.3,0.2-0.5C292.6,397.6,292.6,397.3,292.6,397.1z M293.8,397.1c0-0.6,0.1-1.1,0.3-1.4
				c0.2-0.3,0.6-0.5,1.1-0.5c0.5,0,0.8,0.2,1.1,0.5c0.2,0.3,0.3,0.8,0.3,1.4c0,0.6-0.1,1.1-0.3,1.4c-0.2,0.3-0.6,0.5-1.1,0.5
				c-0.5,0-0.8-0.2-1.1-0.5C293.9,398.1,293.8,397.7,293.8,397.1z M296,397.1c0-0.3,0-0.5-0.1-0.7c0-0.2-0.1-0.4-0.2-0.5
				c-0.1-0.1-0.3-0.2-0.5-0.2c-0.2,0-0.4,0.1-0.5,0.2c-0.1,0.1-0.2,0.3-0.2,0.5c0,0.2-0.1,0.4-0.1,0.7c0,0.3,0,0.5,0.1,0.7
				s0.1,0.4,0.2,0.5c0.1,0.1,0.3,0.2,0.5,0.2c0.2,0,0.4-0.1,0.5-0.2c0.1-0.1,0.2-0.3,0.2-0.5C295.9,397.6,296,397.3,296,397.1z
				 M301.2,396.5c0,0.2,0,0.4-0.1,0.5c-0.1,0.2-0.2,0.3-0.4,0.4c-0.2,0.1-0.4,0.2-0.7,0.2h-0.7v1.5h-0.6v-3.6h1.3
				c0.3,0,0.5,0.1,0.7,0.1c0.2,0.1,0.3,0.2,0.4,0.4C301.1,396.1,301.2,396.2,301.2,396.5z M299.9,397c0.2,0,0.4-0.1,0.5-0.2
				c0.1-0.1,0.2-0.3,0.2-0.4c0-0.4-0.2-0.6-0.7-0.6h-0.7v1.2H299.9z M305.6,395.4v3.6H305v-2.5l-1.1,2.5h-0.4l-1.1-2.5v2.5h-0.6
				v-3.6h0.6l1.3,2.9l1.3-2.9H305.6z"/>
		</g>
	</g>
	<g>
		<g>
			<path class="st2" d="M363.6,405.7h-30.8c-4.6,0-8.4-3.8-8.4-8.4s3.8-8.4,8.4-8.4h30.8c4.6,0,8.4,3.8,8.4,8.4
				S368.2,405.7,363.6,405.7z M332.8,389.4c-4.3,0-7.8,3.5-7.8,7.8s3.5,7.8,7.8,7.8h30.8c4.3,0,7.8-3.5,7.8-7.8s-3.5-7.8-7.8-7.8
				H332.8z"/>
		</g>
	</g>
	<g>
		<g>
			<path class="st2" d="M338,397.4c0-0.6,0.1-1.1,0.3-1.4c0.2-0.3,0.6-0.5,1.1-0.5c0.5,0,0.8,0.2,1.1,0.5c0.2,0.3,0.3,0.8,0.3,1.4
				c0,0.6-0.1,1.1-0.3,1.4c-0.2,0.3-0.6,0.5-1.1,0.5c-0.5,0-0.8-0.2-1.1-0.5C338.1,398.5,338,398,338,397.4z M340.1,397.4
				c0-0.3,0-0.5-0.1-0.7c0-0.2-0.1-0.4-0.2-0.5c-0.1-0.1-0.3-0.2-0.5-0.2c-0.2,0-0.4,0.1-0.5,0.2c-0.1,0.1-0.2,0.3-0.2,0.5
				c0,0.2-0.1,0.4-0.1,0.7c0,0.3,0,0.5,0.1,0.7c0,0.2,0.1,0.4,0.2,0.5c0.1,0.1,0.3,0.2,0.5,0.2c0.2,0,0.4-0.1,0.5-0.2
				c0.1-0.1,0.2-0.3,0.2-0.5C340.1,397.9,340.1,397.7,340.1,397.4z M343.4,396.4c0-0.2-0.1-0.3-0.2-0.4c-0.1-0.1-0.2-0.1-0.4-0.1
				c-0.3,0-0.5,0.1-0.6,0.3s-0.2,0.6-0.2,1c0.1-0.2,0.2-0.3,0.4-0.4c0.2-0.1,0.4-0.1,0.6-0.1c0.2,0,0.4,0.1,0.6,0.2
				c0.2,0.1,0.3,0.2,0.4,0.4c0.1,0.2,0.2,0.4,0.2,0.7c0,0.2-0.1,0.5-0.1,0.7c-0.1,0.2-0.2,0.3-0.4,0.5c-0.2,0.1-0.4,0.2-0.7,0.2
				c-0.4,0-0.6-0.1-0.8-0.2s-0.3-0.4-0.4-0.7c-0.1-0.3-0.1-0.6-0.1-1.1c0-1.3,0.5-1.9,1.4-1.9c0.3,0,0.6,0.1,0.8,0.3
				c0.2,0.2,0.3,0.4,0.4,0.7L343.4,396.4L343.4,396.4z M342.8,397.3c-0.2,0-0.4,0.1-0.5,0.2c-0.1,0.1-0.2,0.3-0.2,0.5
				c0,0.2,0.1,0.4,0.2,0.6c0.1,0.1,0.3,0.2,0.6,0.2c0.2,0,0.4-0.1,0.5-0.2c0.1-0.1,0.2-0.3,0.2-0.5c0-0.2-0.1-0.4-0.2-0.6
				C343.2,397.4,343,397.3,342.8,397.3z M345,399.4c-0.1,0-0.2,0-0.3-0.1c-0.1-0.1-0.1-0.2-0.1-0.3c0-0.1,0-0.2,0.1-0.3
				c0.1-0.1,0.2-0.1,0.3-0.1c0.1,0,0.2,0,0.3,0.1c0.1,0.1,0.1,0.2,0.1,0.3c0,0.1,0,0.2-0.1,0.3C345.2,399.4,345.1,399.4,345,399.4z
				 M345,397.2c-0.1,0-0.2,0-0.3-0.1c-0.1-0.1-0.1-0.2-0.1-0.3c0-0.1,0-0.2,0.1-0.3c0.1-0.1,0.2-0.1,0.3-0.1c0.1,0,0.2,0,0.3,0.1
				c0.1,0.1,0.1,0.2,0.1,0.3c0,0.1,0,0.2-0.1,0.3C345.2,397.2,345.1,397.2,345,397.2z M346,397.4c0-0.6,0.1-1.1,0.3-1.4
				c0.2-0.3,0.6-0.5,1.1-0.5c0.5,0,0.8,0.2,1.1,0.5c0.2,0.3,0.3,0.8,0.3,1.4c0,0.6-0.1,1.1-0.3,1.4c-0.2,0.3-0.6,0.5-1.1,0.5
				c-0.5,0-0.8-0.2-1.1-0.5C346.1,398.5,346,398,346,397.4z M348.1,397.4c0-0.3,0-0.5-0.1-0.7c0-0.2-0.1-0.4-0.2-0.5
				c-0.1-0.1-0.3-0.2-0.5-0.2c-0.2,0-0.4,0.1-0.5,0.2c-0.1,0.1-0.2,0.3-0.2,0.5c0,0.2-0.1,0.4-0.1,0.7c0,0.3,0,0.5,0.1,0.7
				c0,0.2,0.1,0.4,0.2,0.5c0.1,0.1,0.3,0.2,0.5,0.2c0.2,0,0.4-0.1,0.5-0.2c0.1-0.1,0.2-0.3,0.2-0.5
				C348.1,397.9,348.1,397.7,348.1,397.4z M349.4,397.4c0-0.6,0.1-1.1,0.3-1.4c0.2-0.3,0.6-0.5,1.1-0.5c0.5,0,0.8,0.2,1.1,0.5
				c0.2,0.3,0.3,0.8,0.3,1.4c0,0.6-0.1,1.1-0.3,1.4c-0.2,0.3-0.6,0.5-1.1,0.5c-0.5,0-0.8-0.2-1.1-0.5
				C349.5,398.5,349.4,398,349.4,397.4z M351.5,397.4c0-0.3,0-0.5-0.1-0.7c0-0.2-0.1-0.4-0.2-0.5c-0.1-0.1-0.3-0.2-0.5-0.2
				c-0.2,0-0.4,0.1-0.5,0.2c-0.1,0.1-0.2,0.3-0.2,0.5c0,0.2-0.1,0.4-0.1,0.7c0,0.3,0,0.5,0.1,0.7c0,0.2,0.1,0.4,0.2,0.5
				c0.1,0.1,0.3,0.2,0.5,0.2c0.2,0,0.4-0.1,0.5-0.2c0.1-0.1,0.2-0.3,0.2-0.5C351.5,397.9,351.5,397.7,351.5,397.4z M356.7,396.8
				c0,0.2,0,0.4-0.1,0.5c-0.1,0.2-0.2,0.3-0.4,0.4c-0.2,0.1-0.4,0.2-0.7,0.2h-0.7v1.5h-0.6v-3.6h1.3c0.3,0,0.5,0.1,0.7,0.1
				s0.3,0.2,0.4,0.4C356.6,396.4,356.7,396.6,356.7,396.8z M355.4,397.4c0.2,0,0.4-0.1,0.5-0.2c0.1-0.1,0.2-0.3,0.2-0.4
				c0-0.4-0.2-0.6-0.7-0.6h-0.7v1.2H355.4z M361.1,395.7v3.6h-0.6v-2.5l-1.1,2.5H359l-1.1-2.5v2.5h-0.6v-3.6h0.6l1.3,2.9l1.3-2.9
				H361.1z"/>
		</g>
	</g>
</g>
<g>
	<g>
		<path class="st6" d="M79.6,124.1h1.2l1.8,3.6l1.8-3.6h1.2v5.6h-1v-4l-1.7,3.4h-0.7l-1.7-3.4v4h-1L79.6,124.1L79.6,124.1z"/>
	</g>
	<g>
		<path class="st6" d="M89.6,129.7v-0.5c-0.1,0.2-0.3,0.3-0.6,0.4s-0.5,0.1-0.8,0.1c-0.3,0-0.6-0.1-0.8-0.2
			c-0.2-0.1-0.4-0.3-0.5-0.5c-0.1-0.2-0.2-0.4-0.2-0.7c0-0.4,0.1-0.7,0.4-0.9c0.3-0.2,0.7-0.3,1.2-0.3h1.2V127
			c0-0.3-0.1-0.4-0.2-0.6c-0.2-0.1-0.4-0.2-0.7-0.2c-0.4,0-0.8,0.1-1.3,0.4l-0.4-0.7c0.3-0.2,0.6-0.3,0.9-0.4c0.3-0.1,0.6-0.1,1-0.1
			c0.6,0,1,0.1,1.3,0.4c0.3,0.3,0.5,0.6,0.5,1.1l0,2.8L89.6,129.7L89.6,129.7z M89.2,128.7c0.2-0.1,0.3-0.3,0.4-0.5v-0.4h-1.1
			c-0.3,0-0.5,0-0.6,0.1c-0.1,0.1-0.2,0.2-0.2,0.4c0,0.2,0.1,0.3,0.2,0.4c0.1,0.1,0.3,0.2,0.6,0.2C88.8,128.9,89,128.8,89.2,128.7z"
			/>
	</g>
	<g>
		<path class="st6" d="M93.4,125.6c0.2-0.1,0.5-0.2,0.9-0.2v1c-0.4,0-0.8,0.1-1.1,0.3c-0.3,0.2-0.4,0.5-0.4,0.9v2.1h-1v-4.3h1v0.8
			C93,125.9,93.1,125.7,93.4,125.6z"/>
	</g>
	<g>
		<path class="st6" d="M96.8,126.3c-0.3,0-0.6,0.1-0.8,0.3c-0.2,0.2-0.3,0.5-0.3,0.9c0,0.4,0.1,0.7,0.3,0.9c0.2,0.2,0.5,0.3,0.8,0.3
			c0.5,0,0.9-0.2,1.1-0.5l0.6,0.5c-0.2,0.3-0.4,0.5-0.8,0.6c-0.3,0.1-0.7,0.2-1.1,0.2c-0.4,0-0.8-0.1-1.1-0.3
			c-0.3-0.2-0.6-0.4-0.8-0.8c-0.2-0.3-0.3-0.7-0.3-1.1c0-0.4,0.1-0.8,0.3-1.1c0.2-0.3,0.4-0.6,0.8-0.8c0.3-0.2,0.7-0.3,1.1-0.3
			c0.4,0,0.7,0.1,1,0.2c0.3,0.1,0.6,0.3,0.7,0.6l-0.6,0.6C97.6,126.4,97.3,126.3,96.8,126.3z"/>
	</g>
	<g>
		<path class="st6" d="M103.2,125.8c0.3,0.3,0.4,0.7,0.4,1.2v2.7h-1v-2.4c0-0.3-0.1-0.5-0.3-0.7c-0.2-0.2-0.4-0.3-0.7-0.3
			c-0.3,0-0.6,0.1-0.8,0.3c-0.2,0.2-0.3,0.5-0.3,0.9v2.1h-1v-5.9h1v2.5c0.3-0.6,0.8-0.8,1.5-0.8C102.6,125.4,103,125.5,103.2,125.8z
			"/>
	</g>
	<g>
		<path class="st6" d="M110.5,128.7v0.9h-4.1v-0.8l2.1-2.2c0.2-0.2,0.4-0.4,0.5-0.6c0.1-0.2,0.2-0.4,0.2-0.5c0-0.2-0.1-0.4-0.2-0.5
			c-0.2-0.1-0.4-0.2-0.7-0.2c-0.2,0-0.5,0.1-0.8,0.2c-0.3,0.1-0.5,0.3-0.8,0.5l-0.4-0.8c0.3-0.3,0.7-0.5,1-0.6
			c0.4-0.1,0.7-0.2,1.1-0.2c0.4,0,0.7,0.1,1,0.2c0.3,0.1,0.5,0.3,0.7,0.5c0.2,0.2,0.2,0.5,0.2,0.7c0,0.3-0.1,0.6-0.3,0.9
			c-0.2,0.3-0.4,0.6-0.8,1l-1.4,1.4H110.5z"/>
	</g>
	<g>
		<path class="st6" d="M115.4,124.8c0.4,0.5,0.6,1.2,0.6,2.1c0,0.9-0.2,1.6-0.6,2.1c-0.4,0.5-1,0.7-1.8,0.7s-1.4-0.2-1.8-0.7
			c-0.4-0.5-0.6-1.2-0.6-2.1c0-0.9,0.2-1.6,0.6-2.1c0.4-0.5,1-0.7,1.8-0.7S115,124.3,115.4,124.8z M112.7,125.4
			c-0.2,0.3-0.3,0.8-0.3,1.5c0,0.7,0.1,1.2,0.3,1.5c0.2,0.3,0.5,0.5,1,0.5c0.4,0,0.8-0.2,1-0.5s0.3-0.8,0.3-1.5
			c0-0.7-0.1-1.2-0.3-1.5c-0.2-0.3-0.5-0.5-1-0.5C113.2,124.9,112.9,125,112.7,125.4z"/>
	</g>
	<g>
		<path class="st6" d="M120.9,128.7v0.9h-4.1v-0.8l2.1-2.2c0.2-0.2,0.4-0.4,0.5-0.6c0.1-0.2,0.2-0.4,0.2-0.5c0-0.2-0.1-0.4-0.2-0.5
			c-0.2-0.1-0.4-0.2-0.7-0.2c-0.2,0-0.5,0.1-0.8,0.2c-0.3,0.1-0.5,0.3-0.8,0.5l-0.4-0.8c0.3-0.3,0.7-0.5,1-0.6
			c0.4-0.1,0.7-0.2,1.1-0.2c0.4,0,0.7,0.1,1,0.2c0.3,0.1,0.5,0.3,0.7,0.5c0.2,0.2,0.2,0.5,0.2,0.7c0,0.3-0.1,0.6-0.3,0.9
			c-0.2,0.3-0.4,0.6-0.8,1l-1.4,1.4H120.9z"/>
	</g>
	<g>
		<path class="st6" d="M125.5,128.7v0.9h-4.1v-0.8l2.1-2.2c0.2-0.2,0.4-0.4,0.5-0.6c0.1-0.2,0.2-0.4,0.2-0.5c0-0.2-0.1-0.4-0.2-0.5
			c-0.2-0.1-0.4-0.2-0.7-0.2c-0.2,0-0.5,0.1-0.8,0.2c-0.3,0.1-0.5,0.3-0.8,0.5l-0.4-0.8c0.3-0.3,0.7-0.5,1-0.6
			c0.4-0.1,0.7-0.2,1.1-0.2s0.7,0.1,1,0.2s0.5,0.3,0.7,0.5c0.2,0.2,0.2,0.5,0.2,0.7c0,0.3-0.1,0.6-0.3,0.9c-0.2,0.3-0.4,0.6-0.8,1
			l-1.4,1.4H125.5z"/>
	</g>
</g>
<g>
	<g>
		<path class="st6" d="M79.4,160.3c-0.1,0.1-0.1,0.2-0.1,0.3c0,0.1,0.1,0.2,0.1,0.3c0.1,0.1,0.3,0.1,0.7,0.2
			c0.4,0.1,0.6,0.2,0.8,0.4s0.3,0.4,0.3,0.8c0,0.3-0.1,0.6-0.4,0.8c-0.3,0.2-0.6,0.3-1,0.3c-0.6,0-1.1-0.2-1.6-0.7l0.5-0.6
			c0.4,0.4,0.8,0.5,1.1,0.5c0.2,0,0.3,0,0.4-0.1c0.1-0.1,0.1-0.2,0.1-0.3c0-0.1,0-0.2-0.1-0.3c-0.1-0.1-0.3-0.1-0.5-0.2
			c-0.4-0.1-0.8-0.2-1-0.4c-0.2-0.2-0.3-0.4-0.3-0.8s0.1-0.6,0.4-0.8c0.3-0.2,0.6-0.3,1-0.3c0.3,0,0.5,0,0.7,0.1
			c0.3,0.1,0.5,0.2,0.6,0.4l-0.4,0.6c-0.3-0.2-0.7-0.4-1-0.4C79.5,160.1,79.4,160.2,79.4,160.3z"/>
	</g>
	<g>
		<path class="st6" d="M82.9,162.3c0.1,0.2,0.3,0.3,0.6,0.3c0.2,0,0.4-0.1,0.6-0.3c0.1-0.2,0.2-0.4,0.2-0.7v-2.1H85v2.1
			c0,0.5-0.1,1-0.5,1.2c-0.3,0.3-0.7,0.4-1.1,0.4s-0.8-0.1-1.1-0.4c-0.3-0.3-0.5-0.7-0.5-1.2v-2.1h0.8v2.1
			C82.7,161.9,82.7,162.1,82.9,162.3z"/>
	</g>
	<g>
		<path class="st6" d="M88.5,159.5h0.8v3.7h-0.8l-1.8-2.3v2.3h-0.8v-3.7h0.8l1.8,2.4C88.5,161.9,88.5,159.5,88.5,159.5z"/>
	</g>
</g>
<g>
	<g>
		<path class="st6" d="M124.8,160.9l-1,2h-0.5l-1-2v2.3h-0.8v-3.7h1.1l1,2l1-2h1.1v3.7h-0.8L124.8,160.9L124.8,160.9z"/>
	</g>
	<g>
		<path class="st6" d="M129.7,162.8c-0.4,0.4-0.8,0.6-1.4,0.6c-0.6,0-1-0.2-1.4-0.6c-0.4-0.4-0.6-0.8-0.6-1.4s0.2-1,0.6-1.4
			c0.4-0.4,0.8-0.6,1.4-0.6c0.6,0,1,0.2,1.4,0.6s0.6,0.8,0.6,1.4C130.3,161.9,130.1,162.4,129.7,162.8z M129.4,161.4
			c0-0.3-0.1-0.6-0.3-0.8c-0.2-0.2-0.5-0.4-0.8-0.4c-0.3,0-0.6,0.1-0.8,0.4c-0.2,0.2-0.3,0.5-0.3,0.8c0,0.3,0.1,0.6,0.3,0.8
			s0.5,0.3,0.8,0.3c0.3,0,0.6-0.1,0.8-0.3C129.3,162,129.4,161.7,129.4,161.4z"/>
	</g>
	<g>
		<path class="st6" d="M133.6,159.6h0.8v3.7h-0.8l-1.8-2.3v2.3H131v-3.7h0.8l1.8,2.4V159.6L133.6,159.6z"/>
	</g>
</g>
<g>
	<g>
		<path class="st6" d="M160.9,160.2v3h-0.8v-3H159v-0.7h2.9v0.7H160.9z"/>
	</g>
	<g>
		<path class="st6" d="M163.6,162.3c0.1,0.2,0.3,0.3,0.6,0.3c0.2,0,0.4-0.1,0.6-0.3c0.1-0.2,0.2-0.4,0.2-0.7v-2.1h0.8v2.1
			c0,0.5-0.1,1-0.5,1.2c-0.3,0.3-0.7,0.4-1.1,0.4s-0.8-0.1-1.1-0.4c-0.3-0.3-0.5-0.7-0.5-1.2v-2.1h0.8v2.1
			C163.4,161.9,163.4,162.1,163.6,162.3z"/>
	</g>
	<g>
		<path class="st6" d="M169.3,159.5v0.7h-1.9v0.8h1.7v0.7h-1.7v0.8h1.9v0.7h-2.7v-3.7L169.3,159.5L169.3,159.5z"/>
	</g>
	<g>
		<path class="st6" d="M170.9,160.3c-0.1,0.1-0.1,0.2-0.1,0.3c0,0.1,0.1,0.2,0.1,0.3c0.1,0.1,0.3,0.1,0.7,0.2
			c0.4,0.1,0.6,0.2,0.8,0.4c0.2,0.2,0.3,0.4,0.3,0.8c0,0.3-0.1,0.6-0.4,0.8c-0.3,0.2-0.6,0.3-1,0.3c-0.6,0-1.1-0.2-1.6-0.7l0.5-0.6
			c0.4,0.4,0.8,0.5,1.1,0.5c0.2,0,0.3,0,0.4-0.1c0.1-0.1,0.1-0.2,0.1-0.3c0-0.1,0-0.2-0.1-0.3c-0.1-0.1-0.3-0.1-0.5-0.2
			c-0.4-0.1-0.8-0.2-1-0.4c-0.2-0.2-0.3-0.4-0.3-0.8s0.1-0.6,0.4-0.8c0.3-0.2,0.6-0.3,1-0.3c0.3,0,0.5,0,0.7,0.1
			c0.3,0.1,0.5,0.2,0.6,0.4l-0.4,0.6c-0.3-0.2-0.7-0.4-1-0.4C171.1,160.1,171,160.2,170.9,160.3z"/>
	</g>
</g>
<g>
	<g>
		<path class="st2" d="M165.9,230.5v1.9h-0.5v-1.9h-0.6V230h1.8v0.5H165.9z"/>
	</g>
	<g>
		<path class="st2" d="M168.7,232.1c-0.2,0.2-0.5,0.4-0.8,0.4c-0.3,0-0.6-0.1-0.8-0.4c-0.2-0.2-0.3-0.5-0.3-0.9s0.1-0.6,0.3-0.9
			c0.2-0.2,0.5-0.4,0.8-0.4c0.3,0,0.6,0.1,0.8,0.4c0.2,0.2,0.3,0.5,0.3,0.9S169,231.8,168.7,232.1z M168.6,231.2
			c0-0.2-0.1-0.4-0.2-0.5c-0.1-0.2-0.3-0.2-0.5-0.2s-0.4,0.1-0.5,0.2c-0.1,0.1-0.2,0.3-0.2,0.5s0.1,0.4,0.2,0.5
			c0.1,0.1,0.3,0.2,0.5,0.2s0.4-0.1,0.5-0.2C168.5,231.6,168.6,231.4,168.6,231.2z"/>
	</g>
	<g>
		<path class="st2" d="M171.3,230.3c0.2,0.2,0.3,0.5,0.3,0.9s-0.1,0.7-0.3,0.9c-0.2,0.2-0.5,0.3-1,0.3h-0.8V230h0.8
			C170.7,230,171,230.1,171.3,230.3z M170.9,231.7c0.1-0.1,0.2-0.3,0.2-0.5c0-0.2-0.1-0.4-0.2-0.5c-0.1-0.1-0.3-0.2-0.6-0.2H170v1.5
			h0.3C170.6,231.9,170.8,231.8,170.9,231.7z"/>
	</g>
	<g>
		<path class="st2" d="M173.6,232.4l-0.2-0.5h-1l-0.2,0.5h-0.5l1-2.4h0.5l1,2.4H173.6z M172.9,230.7l-0.3,0.7h0.6L172.9,230.7z"/>
	</g>
	<g>
		<path class="st2" d="M175.2,232.4h-0.5v-0.9l-0.8-1.4h0.6l0.5,0.9l0.5-0.9h0.6l-0.8,1.4L175.2,232.4L175.2,232.4z"/>
	</g>
</g>
<g>
	<g>
		<path class="st6" d="M203,161.6l0.7-2.1h0.9l0.7,2.1l0.7-2.1h0.9l-1.3,3.7h-0.6l-0.8-2.6l-0.8,2.6h-0.6l-1.3-3.7h0.9L203,161.6z"
			/>
	</g>
	<g>
		<path class="st6" d="M209.9,159.5v0.7h-1.9v0.8h1.7v0.7h-1.7v0.8h1.9v0.7h-2.7v-3.7L209.9,159.5L209.9,159.5z"/>
	</g>
	<g>
		<path class="st6" d="M213.6,160c0.4,0.3,0.5,0.8,0.5,1.4c0,0.6-0.2,1-0.5,1.4c-0.3,0.3-0.9,0.5-1.6,0.5h-1.3v-3.7h1.3
			C212.7,159.5,213.2,159.7,213.6,160z M213,162.2c0.2-0.2,0.3-0.5,0.3-0.8c0-0.4-0.1-0.6-0.3-0.8c-0.2-0.2-0.5-0.3-0.9-0.3h-0.5
			v2.3h0.5C212.4,162.5,212.7,162.4,213,162.2z"/>
	</g>
</g>
<g>
	<g>
		<path class="st6" d="M244.4,160.2v3h-0.8v-3h-1.1v-0.7h2.9v0.7H244.4z"/>
	</g>
	<g>
		<path class="st6" d="M248.4,159.5h0.8v3.7h-0.8v-1.5h-1.5v1.5h-0.8v-3.7h0.8v1.6h1.5V159.5z"/>
	</g>
	<g>
		<path class="st6" d="M251.1,162.3c0.1,0.2,0.3,0.3,0.6,0.3c0.2,0,0.4-0.1,0.6-0.3c0.1-0.2,0.2-0.4,0.2-0.7v-2.1h0.8v2.1
			c0,0.5-0.1,1-0.5,1.2c-0.3,0.3-0.7,0.4-1.1,0.4c-0.5,0-0.8-0.1-1.2-0.4s-0.5-0.7-0.5-1.2v-2.1h0.8v2.1
			C250.9,161.9,251,162.1,251.1,162.3z"/>
	</g>
	<g>
		<path class="st6" d="M257.1,160.7c0,0.6-0.2,1-0.7,1.2l0.9,1.3h-1l-0.8-1.2H255v1.2h-0.8v-3.7h1.4c0.6,0,1,0.1,1.2,0.3
			S257.1,160.3,257.1,160.7z M256.1,161.2c0.1-0.1,0.2-0.2,0.2-0.4s-0.1-0.3-0.2-0.4c-0.1-0.1-0.3-0.1-0.6-0.1h-0.6v1.1h0.6
			C255.8,161.3,256,161.3,256.1,161.2z"/>
	</g>
	<g>
		<path class="st6" d="M258.9,160.3c-0.1,0.1-0.1,0.2-0.1,0.3c0,0.1,0.1,0.2,0.1,0.3c0.1,0.1,0.3,0.1,0.7,0.2
			c0.4,0.1,0.6,0.2,0.8,0.4s0.3,0.4,0.3,0.8c0,0.3-0.1,0.6-0.4,0.8c-0.3,0.2-0.6,0.3-1,0.3c-0.6,0-1.1-0.2-1.6-0.7l0.5-0.6
			c0.4,0.4,0.8,0.5,1.1,0.5c0.2,0,0.3,0,0.4-0.1c0.1-0.1,0.1-0.2,0.1-0.3c0-0.1,0-0.2-0.1-0.3c-0.1-0.1-0.3-0.1-0.5-0.2
			c-0.4-0.1-0.8-0.2-1-0.4c-0.2-0.2-0.3-0.4-0.3-0.8s0.1-0.6,0.4-0.8c0.3-0.2,0.6-0.3,1-0.3c0.3,0,0.5,0,0.7,0.1
			c0.3,0.1,0.5,0.2,0.6,0.4l-0.4,0.6c-0.3-0.2-0.7-0.4-1-0.4C259.1,160.1,258.9,160.2,258.9,160.3z"/>
	</g>
</g>
<g>
	<g>
		<path class="st6" d="M285.9,159.5v0.7h-1.7v0.8h1.6v0.7h-1.6v1.5h-0.8v-3.7L285.9,159.5L285.9,159.5z"/>
	</g>
	<g>
		<path class="st6" d="M289.6,160.7c0,0.6-0.2,1-0.7,1.2l0.9,1.3h-1L288,162h-0.6v1.2h-0.8v-3.7h1.4c0.6,0,1,0.1,1.2,0.3
			S289.6,160.3,289.6,160.7z M288.6,161.2c0.1-0.1,0.2-0.2,0.2-0.4s-0.1-0.3-0.2-0.4c-0.1-0.1-0.3-0.1-0.6-0.1h-0.6v1.1h0.6
			C288.3,161.3,288.5,161.3,288.6,161.2z"/>
	</g>
	<g>
		<path class="st6" d="M290.5,159.5h0.8v3.7h-0.8V159.5z"/>
	</g>
	<g>
		<path class="st6" d="M295.1,160c0.4,0.3,0.5,0.8,0.5,1.4c0,0.6-0.2,1-0.5,1.4c-0.3,0.3-0.9,0.5-1.6,0.5h-1.3v-3.7h1.3
			C294.2,159.5,294.7,159.7,295.1,160z M294.5,162.2c0.2-0.2,0.3-0.5,0.3-0.8c0-0.4-0.1-0.6-0.3-0.8c-0.2-0.2-0.5-0.3-0.9-0.3h-0.5
			v2.3h0.5C294,162.5,294.2,162.4,294.5,162.2z"/>
	</g>
</g>
<g>
	<g>
		<path class="st6" d="M315,160.3c-0.1,0.1-0.1,0.2-0.1,0.3c0,0.1,0.1,0.2,0.1,0.3c0.1,0.1,0.3,0.1,0.7,0.2c0.4,0.1,0.6,0.2,0.8,0.4
			s0.3,0.4,0.3,0.8c0,0.3-0.1,0.6-0.4,0.8c-0.3,0.2-0.6,0.3-1,0.3c-0.6,0-1.1-0.2-1.6-0.7l0.5-0.6c0.4,0.4,0.8,0.5,1.1,0.5
			c0.2,0,0.3,0,0.4-0.1c0.1-0.1,0.1-0.2,0.1-0.3c0-0.1,0-0.2-0.1-0.3c-0.1-0.1-0.3-0.1-0.5-0.2c-0.4-0.1-0.8-0.2-1-0.4
			c-0.2-0.2-0.3-0.4-0.3-0.8s0.1-0.6,0.4-0.8c0.3-0.2,0.6-0.3,1-0.3c0.3,0,0.5,0,0.7,0.1c0.3,0.1,0.5,0.2,0.6,0.4l-0.4,0.6
			c-0.3-0.2-0.7-0.4-1-0.4C315.2,160.1,315.1,160.2,315,160.3z"/>
	</g>
	<g>
		<path class="st6" d="M320.1,163.2l-0.3-0.8h-1.6l-0.3,0.8H317l1.6-3.7h0.8l1.6,3.7H320.1z M319,160.6l-0.5,1.1h0.9L319,160.6z"/>
	</g>
	<g>
		<path class="st6" d="M322.7,160.2v3h-0.8v-3h-1.1v-0.7h2.9v0.7H322.7z"/>
	</g>
</g>
</svg>
