<?xml version="1.0" encoding="utf-8"?>
<!-- Generator: Adobe Illustrator 27.3.1, SVG Export Plug-In . SVG Version: 6.00 Build 0)  -->
<svg version="1.1" id="Capa_1" xmlns="http://www.w3.org/2000/svg" xmlns:xlink="http://www.w3.org/1999/xlink" x="0px" y="0px"
	 viewBox="0 0 431 432" style="enable-background:new 0 0 431 432;" xml:space="preserve">
<style type="text/css">
	.st0{fill:#232C61;}
	.st1{fill:#FFFFFF;}
	.st2{fill:#266392;}
	.st3{opacity:0.15;}
	.st4{fill:#404041;}
	.st5{fill:#C1C1C1;}
	.st6{fill:#4D4D4D;}
</style>
<path class="st0" d="M31.3,30.8l2.4-2.4c0.3-0.3,0.3-0.7,0-1l-14-13.9c-0.3-0.3-0.7-0.3-1,0l-2.4,2.4c-0.3,0.3-0.3,0.7,0,1l14,13.9
	C30.5,31.1,31,31.1,31.3,30.8z"/>
<path class="st0" d="M88.3,16.1l-2.4-2.4c-0.3-0.3-0.7-0.3-1,0l-14,13.9c-0.3,0.3-0.3,0.7,0,1l2.4,2.4c0.3,0.3,0.7,0.3,1,0l14-13.9
	C88.6,16.8,88.6,16.3,88.3,16.1z"/>
<path class="st0" d="M3.4,47.6v3.4c0,0.4,0.3,0.7,0.7,0.7h19.8c0.4,0,0.7-0.3,0.7-0.7v-3.4c0-0.4-0.3-0.7-0.7-0.7H4.1
	C3.7,46.8,3.4,47.2,3.4,47.6z"/>
<path class="st0" d="M16.4,82.5l2.4,2.4c0.3,0.3,0.7,0.3,1,0l14-13.9c0.3-0.3,0.3-0.7,0-1l-2.4-2.4c-0.3-0.3-0.7-0.3-1,0l-14,13.9
	C16.1,81.7,16.1,82.2,16.4,82.5z"/>
<path class="st0" d="M53.4,0H50c-0.4,0-0.7,0.3-0.7,0.7v19.7c0,0.4,0.3,0.7,0.7,0.7h3.4c0.4,0,0.7-0.3,0.7-0.7V0.7
	C54.1,0.3,53.8,0,53.4,0z"/>
<g>
	<path class="st1" d="M365,58.2H46.4c-2.2,0-3.9,1.3-3.9,3v299.1c0,1.7,1.8,3,3.9,3H365c2.2,0,3.9-1.3,3.9-3V61.2
		C369,59.5,367.2,58.2,365,58.2z"/>
</g>
<g>
	<path class="st2" d="M369,108.9V42.5c0-2.3-1.8-4.2-3.9-4.2H46c-2.2,0-3.9,1.9-3.9,4.2v66.4H369L369,108.9z"/>
</g>
<g>
	<path class="st1" d="M96.1,66.8h8.5v1.9h-6.3v2.9h5.6v1.9h-5.6v2.9h6.5v1.9h-8.7V66.8z"/>
	<path class="st1" d="M112.5,68.9c-0.6-0.2-1.2-0.3-1.6-0.3c-0.5,0-1,0.1-1.3,0.3s-0.5,0.5-0.5,0.8c0,0.3,0.1,0.6,0.3,0.8
		c0.2,0.2,0.5,0.4,0.8,0.5c0.3,0.1,0.8,0.3,1.3,0.5c0.8,0.2,1.4,0.5,1.9,0.7c0.5,0.2,0.9,0.6,1.3,1c0.4,0.5,0.5,1,0.5,1.8
		c0,0.7-0.2,1.3-0.6,1.8c-0.4,0.5-0.9,0.9-1.6,1.2c-0.7,0.3-1.4,0.4-2.3,0.4c-0.9,0-1.8-0.2-2.6-0.5c-0.9-0.3-1.6-0.8-2.3-1.3
		l0.9-1.9c0.6,0.5,1.2,1,2,1.3s1.4,0.5,2,0.5c0.6,0,1.1-0.1,1.5-0.4c0.4-0.2,0.5-0.6,0.5-1c0-0.3-0.1-0.6-0.3-0.8
		c-0.2-0.2-0.5-0.4-0.8-0.5c-0.3-0.1-0.8-0.3-1.4-0.4c-0.8-0.2-1.4-0.5-1.9-0.7c-0.5-0.2-0.9-0.6-1.3-1c-0.4-0.4-0.5-1-0.5-1.8
		c0-0.7,0.2-1.3,0.5-1.8c0.4-0.5,0.9-0.9,1.5-1.2c0.7-0.3,1.4-0.4,2.3-0.4c0.8,0,1.5,0.1,2.2,0.3c0.7,0.2,1.4,0.5,2,0.9l-0.9,1.9
		C113.7,69.4,113.1,69.1,112.5,68.9z"/>
	<path class="st1" d="M124.4,69c-0.6-0.3-1.1-0.4-1.7-0.4c-0.7,0-1.4,0.2-2,0.5c-0.6,0.3-1.1,0.8-1.4,1.4c-0.3,0.6-0.5,1.3-0.5,2
		c0,0.7,0.2,1.4,0.5,2c0.3,0.6,0.8,1.1,1.4,1.4s1.3,0.5,2,0.5c0.6,0,1.1-0.1,1.7-0.4s1-0.6,1.5-1l1.3,1.5c-0.6,0.6-1.3,1.1-2.1,1.5
		s-1.6,0.5-2.4,0.5c-1.1,0-2.1-0.3-3.1-0.8c-0.9-0.5-1.7-1.3-2.2-2.2c-0.5-0.9-0.8-1.9-0.8-3c0-1.1,0.3-2.1,0.8-3
		c0.5-0.9,1.3-1.6,2.2-2.1c0.9-0.5,2-0.8,3.1-0.8c0.8,0,1.6,0.2,2.4,0.5c0.8,0.3,1.5,0.8,2,1.4l-1.3,1.6
		C125.4,69.6,125,69.3,124.4,69z"/>
	<path class="st1" d="M137.1,67.4c0.9,0.5,1.7,1.2,2.2,2.1c0.5,0.9,0.8,1.9,0.8,3c0,1.1-0.3,2.1-0.8,3c-0.5,0.9-1.3,1.6-2.2,2.2
		c-0.9,0.5-2,0.8-3.1,0.8s-2.2-0.3-3.1-0.8c-0.9-0.5-1.7-1.3-2.2-2.2c-0.5-0.9-0.8-1.9-0.8-3c0-1.1,0.3-2.1,0.8-3
		c0.5-0.9,1.3-1.6,2.2-2.1c0.9-0.5,2-0.8,3.1-0.8S136.2,66.9,137.1,67.4z M132.1,69.1c-0.6,0.3-1.1,0.8-1.4,1.4
		c-0.4,0.6-0.5,1.3-0.5,2s0.2,1.4,0.5,2c0.4,0.6,0.8,1.1,1.4,1.4c0.6,0.4,1.3,0.5,2,0.5c0.7,0,1.3-0.2,1.9-0.5
		c0.6-0.3,1.1-0.8,1.4-1.4c0.3-0.6,0.5-1.3,0.5-2c0-0.7-0.2-1.4-0.5-2c-0.3-0.6-0.8-1.1-1.4-1.4c-0.6-0.3-1.2-0.5-1.9-0.5
		C133.3,68.6,132.7,68.8,132.1,69.1z"/>
	<path class="st1" d="M142.1,66.8h2.2v9.6h5v2h-7.2V66.8z"/>
	<path class="st1" d="M151.1,66.8h2.2v4.9h5.8v-4.9h2.2v11.6h-2.2v-4.7h-5.8v4.7h-2.2V66.8z"/>
	<path class="st1" d="M164.2,66.8h8.5v1.9h-6.3v2.9h5.6v1.9h-5.6v2.9h6.5v1.9h-8.7V66.8z"/>
	<path class="st1" d="M182.4,78.4l-2-3.4c-0.1,0-0.2,0-0.4,0h-2.6v3.4h-2.2V66.8h4.8c1.5,0,2.7,0.3,3.5,1s1.2,1.7,1.2,2.9
		c0,0.9-0.2,1.7-0.6,2.3c-0.4,0.6-1,1.1-1.7,1.4l2.6,3.8H182.4z M177.3,73h2.6c0.8,0,1.5-0.2,1.9-0.5c0.4-0.4,0.7-0.9,0.7-1.6
		c0-0.7-0.2-1.2-0.7-1.6c-0.4-0.4-1.1-0.5-1.9-0.5h-2.6V73z"/>
	<path class="st1" d="M199.1,67.5c0.9,0.5,1.6,1.2,2.2,2.1s0.8,1.9,0.8,3s-0.3,2.1-0.8,3c-0.5,0.9-1.3,1.6-2.2,2.1
		c-0.9,0.5-2,0.7-3.2,0.7h-4.7V66.8h4.8C197.1,66.8,198.2,67,199.1,67.5z M197.9,75.9c0.6-0.3,1-0.8,1.3-1.4c0.3-0.6,0.5-1.2,0.5-2
		c0-0.7-0.2-1.4-0.5-2c-0.3-0.6-0.8-1-1.4-1.4c-0.6-0.3-1.2-0.5-1.9-0.5h-2.6v7.7h2.6C196.7,76.4,197.4,76.2,197.9,75.9z"/>
	<path class="st1" d="M204,66.8h2.2v11.6H204V66.8z"/>
	<path class="st1" d="M217.6,78.4l-1-2.4h-5.7l-1,2.4h-2.3l5.1-11.6h2.3l5,11.6H217.6z M211.7,74h4.1l-2-4.9L211.7,74z"/>
	<path class="st1" d="M225.5,66.8h8.5v1.9h-6.3v2.9h5.6v1.9h-5.6v2.9h6.5v1.9h-8.7L225.5,66.8L225.5,66.8z"/>
	<path class="st1" d="M240.5,66.8h2.2v4.9h5.8v-4.9h2.2v11.6h-2.2v-4.7h-5.8v4.7h-2.2V66.8z"/>
	<path class="st1" d="M261.9,67.4c0.9,0.5,1.7,1.2,2.2,2.1c0.5,0.9,0.8,1.9,0.8,3c0,1.1-0.3,2.1-0.8,3c-0.5,0.9-1.3,1.6-2.2,2.2
		c-0.9,0.5-2,0.8-3.1,0.8c-1.1,0-2.2-0.3-3.1-0.8c-0.9-0.5-1.7-1.3-2.2-2.2c-0.5-0.9-0.8-1.9-0.8-3c0-1.1,0.3-2.1,0.8-3
		c0.5-0.9,1.3-1.6,2.2-2.1c0.9-0.5,2-0.8,3.1-0.8C260,66.6,261,66.9,261.9,67.4z M256.9,69.1c-0.6,0.3-1.1,0.8-1.4,1.4
		c-0.4,0.6-0.5,1.3-0.5,2s0.2,1.4,0.5,2c0.4,0.6,0.8,1.1,1.4,1.4c0.6,0.4,1.3,0.5,2,0.5c0.7,0,1.3-0.2,1.9-0.5
		c0.6-0.3,1.1-0.8,1.4-1.4c0.3-0.6,0.5-1.3,0.5-2c0-0.7-0.2-1.4-0.5-2c-0.3-0.6-0.8-1.1-1.4-1.4c-0.6-0.3-1.2-0.5-1.9-0.5
		C258.1,68.6,257.5,68.8,256.9,69.1z"/>
	<path class="st1" d="M274.2,78.4l-2-3.4c-0.1,0-0.2,0-0.4,0h-2.6v3.4h-2.2V66.8h4.8c1.5,0,2.7,0.3,3.5,1s1.2,1.7,1.2,2.9
		c0,0.9-0.2,1.7-0.6,2.3c-0.4,0.6-1,1.1-1.7,1.4l2.6,3.8H274.2z M269.2,73h2.6c0.8,0,1.5-0.2,1.9-0.5c0.4-0.4,0.7-0.9,0.7-1.6
		c0-0.7-0.2-1.2-0.7-1.6c-0.4-0.4-1.1-0.5-1.9-0.5h-2.6V73z"/>
	<path class="st1" d="M287.5,78.4l-1-2.4h-5.7l-1,2.4h-2.3l5.1-11.6h2.3l5,11.6H287.5z M281.6,74h4.1l-2-4.9L281.6,74z M284.3,63.3
		l2.1,0.8l-2.1,1.7l-1.7-0.2L284.3,63.3z"/>
	<path class="st1" d="M298.5,78.4l-2-3.4c-0.1,0-0.2,0-0.4,0h-2.6v3.4h-2.2V66.8h4.8c1.5,0,2.7,0.3,3.5,1s1.2,1.7,1.2,2.9
		c0,0.9-0.2,1.7-0.6,2.3c-0.4,0.6-1,1.1-1.7,1.4l2.6,3.8H298.5z M293.5,73h2.6c0.8,0,1.5-0.2,1.9-0.5s0.7-0.9,0.7-1.6
		c0-0.7-0.2-1.2-0.7-1.6c-0.4-0.4-1.1-0.5-1.9-0.5h-2.6V73z"/>
	<path class="st1" d="M303.3,66.8h2.2v11.6h-2.2V66.8z"/>
	<path class="st1" d="M316.7,67.4c0.9,0.5,1.7,1.2,2.2,2.1c0.5,0.9,0.8,1.9,0.8,3c0,1.1-0.3,2.1-0.8,3c-0.5,0.9-1.3,1.6-2.2,2.2
		c-0.9,0.5-2,0.8-3.1,0.8c-1.1,0-2.2-0.3-3.1-0.8c-0.9-0.5-1.7-1.3-2.2-2.2c-0.5-0.9-0.8-1.9-0.8-3c0-1.1,0.3-2.1,0.8-3
		c0.5-0.9,1.3-1.6,2.2-2.1c0.9-0.5,2-0.8,3.1-0.8C314.7,66.6,315.8,66.9,316.7,67.4z M311.7,69.1c-0.6,0.3-1.1,0.8-1.4,1.4
		c-0.4,0.6-0.5,1.3-0.5,2s0.2,1.4,0.5,2c0.4,0.6,0.8,1.1,1.4,1.4c0.6,0.4,1.3,0.5,2,0.5c0.7,0,1.3-0.2,1.9-0.5
		c0.6-0.3,1.1-0.8,1.4-1.4c0.3-0.6,0.5-1.3,0.5-2c0-0.7-0.2-1.4-0.5-2c-0.3-0.6-0.8-1.1-1.4-1.4c-0.6-0.3-1.2-0.5-1.9-0.5
		C312.9,68.6,312.3,68.8,311.7,69.1z"/>
</g>
<g>
	<path d="M239.3,126.1l4.8,4.8l4.8-4.8H239.3L239.3,126.1z"/>
</g>
<g>
	<path d="M270.9,128.5l1.3,1.3l5.3-5.3v11.6h1.9v-11.6l5.3,5.3l1.4-1.4l-7.6-7.6L270.9,128.5L270.9,128.5z"/>
</g>
<g>
	<path d="M332,128.5l-1.3-1.3l-5.3,5.3v-11.6h-1.9v11.6l-5.3-5.3l-1.4,1.4l7.6,7.6L332,128.5L332,128.5L332,128.5z"/>
</g>
<g>
	<path d="M81.9,192.7h0.8c0.5,0,0.9-0.1,1.2-0.4c0.3-0.3,0.4-0.6,0.4-1c0-1-0.5-1.4-1.4-1.4c-0.4,0-0.8,0.1-1.1,0.4
		c-0.3,0.3-0.4,0.6-0.4,1h-1c0-0.6,0.2-1.2,0.7-1.6c0.5-0.4,1.1-0.6,1.8-0.6c0.8,0,1.4,0.2,1.8,0.6c0.4,0.4,0.7,1,0.7,1.7
		c0,0.4-0.1,0.7-0.3,1c-0.2,0.3-0.5,0.6-0.9,0.7c0.4,0.1,0.8,0.4,1,0.7c0.2,0.3,0.4,0.7,0.4,1.2c0,0.7-0.2,1.3-0.7,1.7
		c-0.5,0.4-1.1,0.6-1.9,0.6s-1.4-0.2-1.9-0.6c-0.5-0.4-0.7-1-0.7-1.6h1c0,0.4,0.1,0.8,0.4,1c0.3,0.3,0.7,0.4,1.1,0.4
		c0.5,0,0.9-0.1,1.1-0.4c0.3-0.3,0.4-0.6,0.4-1.1c0-0.5-0.1-0.8-0.4-1.1c-0.3-0.3-0.7-0.4-1.3-0.4h-0.8L81.9,192.7L81.9,192.7
		L81.9,192.7z M91.9,193.8c0,1.2-0.2,2.1-0.6,2.7c-0.4,0.6-1.1,0.9-1.9,0.9s-1.5-0.3-1.9-0.9c-0.4-0.6-0.6-1.4-0.6-2.6v-1.4
		c0-1.2,0.2-2.1,0.6-2.7c0.4-0.6,1.1-0.9,1.9-0.9c0.9,0,1.5,0.3,1.9,0.8c0.4,0.6,0.6,1.4,0.6,2.6L91.9,193.8L91.9,193.8L91.9,193.8z
		 M90.9,192.4c0-0.9-0.1-1.5-0.4-1.9c-0.2-0.4-0.6-0.6-1.2-0.6c-0.5,0-0.9,0.2-1.2,0.6c-0.2,0.4-0.4,1-0.4,1.8v1.7
		c0,0.9,0.1,1.5,0.4,1.9c0.3,0.4,0.6,0.6,1.2,0.6c0.5,0,0.9-0.2,1.1-0.6c0.3-0.4,0.4-1,0.4-1.9L90.9,192.4L90.9,192.4L90.9,192.4z"
		/>
</g>
<g>
	<path d="M88.1,219.7v0.9h-0.2c-0.8,0-1.4,0.3-1.9,0.7c-0.5,0.5-0.8,1.1-0.8,1.9c0.4-0.5,1-0.7,1.8-0.7s1.3,0.3,1.7,0.8
		c0.4,0.5,0.6,1.1,0.6,1.9c0,0.8-0.2,1.5-0.7,2c-0.5,0.5-1.1,0.8-1.8,0.8c-0.8,0-1.4-0.3-1.9-0.9c-0.5-0.6-0.7-1.4-0.7-2.3v-0.4
		c0-1.5,0.3-2.6,1-3.4c0.6-0.8,1.6-1.2,2.9-1.2L88.1,219.7L88.1,219.7z M86.8,223.4c-0.4,0-0.7,0.1-1,0.3c-0.3,0.2-0.5,0.5-0.6,0.8
		v0.4c0,0.7,0.1,1.2,0.5,1.6c0.3,0.4,0.7,0.6,1.1,0.6s0.8-0.2,1.1-0.5c0.3-0.3,0.4-0.8,0.4-1.3s-0.1-1-0.4-1.4
		C87.6,223.6,87.2,223.4,86.8,223.4z"/>
</g>
<g>
	<path d="M83.8,258.4h-1v-6.9l-2.1,0.8v-0.9l3-1.1h0.2V258.4L83.8,258.4z M88.3,253.9h0.8c0.5,0,0.9-0.1,1.2-0.4
		c0.3-0.3,0.4-0.6,0.4-1c0-1-0.5-1.4-1.4-1.4c-0.4,0-0.8,0.1-1.1,0.4c-0.3,0.3-0.4,0.6-0.4,1h-1c0-0.6,0.2-1.2,0.7-1.6
		c0.5-0.4,1.1-0.6,1.8-0.6c0.8,0,1.4,0.2,1.8,0.6c0.4,0.4,0.7,1,0.7,1.7c0,0.4-0.1,0.7-0.3,1c-0.2,0.3-0.5,0.6-0.9,0.7
		c0.4,0.1,0.8,0.4,1,0.7c0.2,0.3,0.4,0.7,0.4,1.2c0,0.7-0.2,1.3-0.7,1.7c-0.5,0.4-1.1,0.6-1.9,0.6s-1.4-0.2-1.9-0.6
		c-0.5-0.4-0.7-1-0.7-1.6h1c0,0.4,0.1,0.8,0.4,1c0.3,0.3,0.7,0.4,1.1,0.4c0.5,0,0.9-0.1,1.1-0.4c0.3-0.3,0.4-0.6,0.4-1.1
		s-0.1-0.8-0.4-1.1c-0.3-0.3-0.7-0.4-1.3-0.4h-0.8L88.3,253.9L88.3,253.9z"/>
</g>
<g>
	<path d="M85.7,289h-5.3v-0.7l2.8-3.1c0.4-0.5,0.7-0.9,0.9-1.2c0.2-0.3,0.2-0.6,0.2-0.9c0-0.4-0.1-0.8-0.4-1c-0.3-0.3-0.6-0.4-1-0.4
		c-0.5,0-0.9,0.1-1.2,0.4c-0.3,0.3-0.4,0.7-0.4,1.2h-1c0-0.8,0.2-1.4,0.7-1.8s1.1-0.7,1.9-0.7c0.8,0,1.4,0.2,1.8,0.6
		s0.7,0.9,0.7,1.6c0,0.8-0.5,1.8-1.5,2.9l-2.2,2.4h4.1V289L85.7,289z M91.9,285.5c0,1.2-0.2,2.1-0.6,2.7c-0.4,0.6-1.1,0.9-1.9,0.9
		s-1.5-0.3-1.9-0.9c-0.4-0.6-0.6-1.4-0.6-2.6v-1.4c0-1.2,0.2-2.1,0.6-2.7c0.4-0.6,1.1-0.9,1.9-0.9c0.9,0,1.5,0.3,1.9,0.8
		c0.4,0.6,0.6,1.4,0.6,2.6L91.9,285.5L91.9,285.5L91.9,285.5z M90.9,284.1c0-0.9-0.1-1.5-0.4-1.9c-0.2-0.4-0.6-0.6-1.2-0.6
		c-0.5,0-0.9,0.2-1.2,0.6c-0.2,0.4-0.4,1-0.4,1.8v1.7c0,0.9,0.1,1.5,0.4,1.9c0.3,0.4,0.6,0.6,1.2,0.6c0.5,0,0.9-0.2,1.1-0.6
		s0.4-1,0.4-1.9L90.9,284.1L90.9,284.1L90.9,284.1z"/>
</g>
<g>
	<path d="M85.7,319.6h-5.3v-0.7l2.8-3.1c0.4-0.5,0.7-0.9,0.9-1.2c0.2-0.3,0.2-0.6,0.2-0.9c0-0.4-0.1-0.8-0.4-1
		c-0.3-0.3-0.6-0.4-1-0.4c-0.5,0-0.9,0.1-1.2,0.4c-0.3,0.3-0.4,0.7-0.4,1.2h-1c0-0.8,0.2-1.4,0.7-1.8c0.5-0.5,1.1-0.7,1.9-0.7
		c0.8,0,1.4,0.2,1.8,0.6s0.7,0.9,0.7,1.6c0,0.8-0.5,1.8-1.5,2.9l-2.2,2.4h4.1V319.6L85.7,319.6z M92.1,312l-3.4,7.6h-1.1l3.4-7.3
		h-4.4v-0.8h5.5V312z"/>
</g>
<g>
	<path d="M88.4,347.4h1.1v0.8h-1.1v1.9h-1v-1.9h-3.7v-0.6l3.6-5.6h1.1L88.4,347.4L88.4,347.4L88.4,347.4z M84.9,347.4h2.5v-4
		l-0.1,0.2L84.9,347.4L84.9,347.4z"/>
</g>
<g>
	<path d="M123.8,192.7h0.8c0.5,0,0.9-0.1,1.2-0.4c0.3-0.3,0.4-0.6,0.4-1c0-1-0.5-1.4-1.4-1.4c-0.4,0-0.8,0.1-1.1,0.4
		c-0.3,0.3-0.4,0.6-0.4,1h-1c0-0.6,0.2-1.2,0.7-1.6c0.5-0.4,1.1-0.6,1.8-0.6c0.8,0,1.4,0.2,1.8,0.6c0.4,0.4,0.7,1,0.7,1.7
		c0,0.4-0.1,0.7-0.3,1c-0.2,0.3-0.5,0.6-0.9,0.7c0.4,0.1,0.8,0.4,1,0.7c0.2,0.3,0.4,0.7,0.4,1.2c0,0.7-0.2,1.3-0.7,1.7
		c-0.5,0.4-1.1,0.6-1.9,0.6c-0.8,0-1.4-0.2-1.9-0.6c-0.5-0.4-0.7-1-0.7-1.6h1c0,0.4,0.1,0.8,0.4,1c0.3,0.3,0.7,0.4,1.1,0.4
		c0.5,0,0.9-0.1,1.1-0.4c0.3-0.3,0.4-0.6,0.4-1.1c0-0.5-0.1-0.8-0.4-1.1c-0.3-0.3-0.7-0.4-1.3-0.4h-0.8L123.8,192.7L123.8,192.7z
		 M132.1,197.3h-1v-6.9l-2.1,0.8v-0.9l3-1.1h0.2V197.3L132.1,197.3z"/>
</g>
<g>
	<path d="M131.2,220.3l-3.4,7.6h-1.1l3.4-7.3h-4.4v-0.8h5.5L131.2,220.3L131.2,220.3z"/>
</g>
<g>
	<path d="M125.7,258.4h-1v-6.9l-2.1,0.8v-0.9l3-1.1h0.2V258.4L125.7,258.4z M133.1,255.7h1.1v0.8h-1.1v1.9h-1v-1.9h-3.7v-0.6
		l3.6-5.6h1.1L133.1,255.7L133.1,255.7L133.1,255.7z M129.5,255.7h2.5v-4l-0.1,0.2L129.5,255.7L129.5,255.7z"/>
</g>
<g>
	<path d="M127.6,289h-5.3v-0.7l2.8-3.1c0.4-0.5,0.7-0.9,0.9-1.2c0.2-0.3,0.2-0.6,0.2-0.9c0-0.4-0.1-0.8-0.4-1
		c-0.3-0.3-0.6-0.4-1-0.4c-0.5,0-0.9,0.1-1.2,0.4c-0.3,0.3-0.4,0.7-0.4,1.2h-1c0-0.8,0.2-1.4,0.7-1.8s1.1-0.7,1.9-0.7
		c0.8,0,1.4,0.2,1.8,0.6c0.4,0.4,0.7,0.9,0.7,1.6c0,0.8-0.5,1.8-1.5,2.9l-2.2,2.4h4.1V289L127.6,289z M132.1,289h-1v-6.9l-2.1,0.8
		v-0.9l3-1.1h0.2V289L132.1,289z"/>
</g>
<g>
	<path d="M127.6,319.6h-5.3v-0.7l2.8-3.1c0.4-0.5,0.7-0.9,0.9-1.2c0.2-0.3,0.2-0.6,0.2-0.9c0-0.4-0.1-0.8-0.4-1
		c-0.3-0.3-0.6-0.4-1-0.4c-0.5,0-0.9,0.1-1.2,0.4c-0.3,0.3-0.4,0.7-0.4,1.2h-1c0-0.8,0.2-1.4,0.7-1.8c0.5-0.5,1.1-0.7,1.9-0.7
		c0.8,0,1.4,0.2,1.8,0.6c0.4,0.4,0.7,0.9,0.7,1.6c0,0.8-0.5,1.8-1.5,2.9l-2.2,2.4h4.1V319.6L127.6,319.6z M133.7,313.5
		c0,0.4-0.1,0.8-0.3,1.1c-0.2,0.3-0.5,0.6-0.9,0.7c0.4,0.2,0.8,0.4,1,0.8c0.3,0.3,0.4,0.7,0.4,1.2c0,0.7-0.2,1.3-0.7,1.7
		c-0.5,0.4-1.1,0.6-1.9,0.6s-1.4-0.2-1.9-0.6c-0.5-0.4-0.7-1-0.7-1.7c0-0.4,0.1-0.8,0.4-1.2c0.2-0.4,0.6-0.6,1-0.8
		c-0.4-0.2-0.6-0.4-0.9-0.7c-0.2-0.3-0.3-0.7-0.3-1.1c0-0.7,0.2-1.2,0.7-1.6c0.4-0.4,1-0.6,1.7-0.6c0.7,0,1.3,0.2,1.7,0.6
		C133.4,312.3,133.7,312.9,133.7,313.5L133.7,313.5z M132.8,317.3c0-0.5-0.1-0.8-0.4-1.1c-0.3-0.3-0.7-0.4-1.1-0.4
		c-0.5,0-0.8,0.1-1.1,0.4c-0.3,0.3-0.4,0.7-0.4,1.1c0,0.5,0.1,0.8,0.4,1.1c0.3,0.3,0.7,0.4,1.1,0.4s0.9-0.1,1.1-0.4
		C132.7,318.2,132.8,317.8,132.8,317.3L132.8,317.3L132.8,317.3z M131.3,312.2c-0.4,0-0.7,0.1-1,0.4c-0.3,0.2-0.4,0.6-0.4,1
		c0,0.4,0.1,0.8,0.4,1c0.3,0.3,0.6,0.4,1,0.4c0.4,0,0.7-0.1,1-0.4c0.3-0.3,0.4-0.6,0.4-1c0-0.4-0.1-0.8-0.4-1
		S131.6,312.1,131.3,312.2L131.3,312.2L131.3,312.2z"/>
</g>
<g>
	<path d="M126.4,346l0.4-4.1h4.2v1h-3.3l-0.2,2.2c0.4-0.2,0.8-0.3,1.4-0.3c0.7,0,1.3,0.2,1.8,0.7c0.4,0.5,0.7,1.2,0.7,2
		c0,0.8-0.2,1.5-0.7,2c-0.5,0.5-1.1,0.7-1.9,0.7c-0.7,0-1.3-0.2-1.8-0.6c-0.5-0.4-0.7-1-0.8-1.7h1c0.1,0.5,0.2,0.8,0.5,1.1
		c0.3,0.2,0.6,0.3,1.1,0.3c0.5,0,0.9-0.2,1.1-0.5c0.3-0.3,0.4-0.8,0.4-1.4c0-0.5-0.1-1-0.4-1.3c-0.3-0.3-0.7-0.5-1.2-0.5
		c-0.5,0-0.8,0.1-1.1,0.3l-0.3,0.2L126.4,346L126.4,346z"/>
</g>
<g>
	<path d="M170.1,197.3h-1v-6.9l-2.1,0.8v-0.9l3-1.1h0.2V197.3L170.1,197.3z"/>
</g>
<g>
	<path d="M171.7,221.8c0,0.4-0.1,0.8-0.3,1.1c-0.2,0.3-0.5,0.6-0.9,0.7c0.4,0.2,0.8,0.4,1,0.8c0.3,0.3,0.4,0.7,0.4,1.2
		c0,0.7-0.2,1.3-0.7,1.7c-0.5,0.4-1.1,0.6-1.9,0.6s-1.4-0.2-1.9-0.6c-0.5-0.4-0.7-1-0.7-1.7c0-0.4,0.1-0.8,0.4-1.2
		c0.2-0.4,0.6-0.6,1-0.8c-0.4-0.2-0.6-0.4-0.9-0.7c-0.2-0.3-0.3-0.7-0.3-1.1c0-0.7,0.2-1.2,0.7-1.6c0.4-0.4,1-0.6,1.7-0.6
		c0.7,0,1.3,0.2,1.7,0.6C171.5,220.6,171.7,221.2,171.7,221.8L171.7,221.8z M170.8,225.6c0-0.5-0.1-0.8-0.4-1.1
		c-0.3-0.3-0.7-0.4-1.1-0.4c-0.5,0-0.8,0.1-1.1,0.4c-0.3,0.3-0.4,0.7-0.4,1.1c0,0.5,0.1,0.8,0.4,1.1c0.3,0.3,0.7,0.4,1.1,0.4
		s0.9-0.1,1.1-0.4C170.7,226.5,170.8,226.1,170.8,225.6L170.8,225.6L170.8,225.6z M169.3,220.5c-0.4,0-0.7,0.1-1,0.4
		c-0.3,0.2-0.4,0.6-0.4,1c0,0.4,0.1,0.8,0.4,1c0.3,0.3,0.6,0.4,1,0.4s0.7-0.1,1-0.4c0.3-0.3,0.4-0.6,0.4-1c0-0.4-0.1-0.8-0.4-1
		S169.7,220.4,169.3,220.5L169.3,220.5z"/>
</g>
<g>
	<path d="M166.4,258.4h-1v-6.9l-2.1,0.8v-0.9l3-1.1h0.2V258.4L166.4,258.4z M170,254.3l0.4-4.1h4.2v1h-3.3l-0.2,2.2
		c0.4-0.2,0.8-0.3,1.4-0.3c0.7,0,1.3,0.2,1.8,0.7c0.4,0.5,0.7,1.2,0.7,2c0,0.8-0.2,1.5-0.7,2c-0.5,0.5-1.1,0.7-1.9,0.7
		c-0.7,0-1.3-0.2-1.8-0.6c-0.5-0.4-0.7-1-0.8-1.7h1c0.1,0.5,0.2,0.8,0.5,1.1c0.3,0.2,0.6,0.3,1.1,0.3c0.5,0,0.9-0.2,1.1-0.5
		c0.3-0.3,0.4-0.8,0.4-1.4c0-0.5-0.1-1-0.4-1.3c-0.3-0.3-0.7-0.5-1.2-0.5c-0.5,0-0.8,0.1-1.1,0.3l-0.3,0.2L170,254.3L170,254.3
		L170,254.3z"/>
</g>
<g>
	<path d="M168.4,289H163v-0.7l2.8-3.1c0.4-0.5,0.7-0.9,0.9-1.2c0.2-0.3,0.2-0.6,0.2-0.9c0-0.4-0.1-0.8-0.4-1c-0.3-0.3-0.6-0.4-1-0.4
		c-0.5,0-0.9,0.1-1.2,0.4c-0.3,0.3-0.4,0.7-0.4,1.2h-1c0-0.8,0.2-1.4,0.7-1.8c0.5-0.5,1.1-0.7,1.9-0.7c0.8,0,1.4,0.2,1.8,0.6
		c0.4,0.4,0.7,0.9,0.7,1.6c0,0.8-0.5,1.8-1.5,2.9l-2.2,2.4h4.1V289L168.4,289z M174.8,289h-5.3v-0.7l2.8-3.1
		c0.4-0.5,0.7-0.9,0.9-1.2c0.2-0.3,0.2-0.6,0.2-0.9c0-0.4-0.1-0.8-0.4-1c-0.3-0.3-0.6-0.4-1-0.4c-0.5,0-0.9,0.1-1.2,0.4
		c-0.3,0.3-0.4,0.7-0.4,1.2h-1c0-0.8,0.2-1.4,0.7-1.8s1.1-0.7,1.9-0.7c0.8,0,1.4,0.2,1.8,0.6c0.4,0.4,0.7,0.9,0.7,1.6
		c0,0.8-0.5,1.8-1.5,2.9l-2.2,2.4h4.1V289L174.8,289z"/>
</g>
<g>
	<path d="M168.4,319.6H163v-0.7l2.8-3.1c0.4-0.5,0.7-0.9,0.9-1.2c0.2-0.3,0.2-0.6,0.2-0.9c0-0.4-0.1-0.8-0.4-1
		c-0.3-0.3-0.6-0.4-1-0.4c-0.5,0-0.9,0.1-1.2,0.4c-0.3,0.3-0.4,0.7-0.4,1.2h-1c0-0.8,0.2-1.4,0.7-1.8c0.5-0.5,1.1-0.7,1.9-0.7
		c0.8,0,1.4,0.2,1.8,0.6c0.4,0.4,0.7,0.9,0.7,1.6c0,0.8-0.5,1.8-1.5,2.9l-2.2,2.4h4.1V319.6L168.4,319.6z M173.4,316
		c-0.2,0.3-0.5,0.5-0.8,0.6c-0.3,0.2-0.6,0.2-1,0.2c-0.5,0-0.9-0.1-1.2-0.3c-0.3-0.2-0.6-0.6-0.8-1c-0.2-0.4-0.3-0.9-0.3-1.4
		c0-0.5,0.1-1,0.3-1.5c0.2-0.4,0.5-0.8,0.9-1c0.4-0.2,0.8-0.3,1.3-0.3c0.8,0,1.4,0.3,1.9,0.9c0.5,0.6,0.7,1.4,0.7,2.5v0.3
		c0,1.6-0.3,2.7-0.9,3.5c-0.6,0.7-1.6,1.1-2.8,1.1h-0.2v-0.9h0.2c0.9,0,1.5-0.2,2-0.7C173.2,317.6,173.4,316.9,173.4,316L173.4,316
		L173.4,316z M171.8,316c0.3,0,0.7-0.1,1-0.3c0.3-0.2,0.5-0.5,0.6-0.8v-0.4c0-0.7-0.1-1.2-0.4-1.7c-0.3-0.4-0.7-0.6-1.1-0.6
		s-0.8,0.2-1.1,0.5s-0.4,0.8-0.4,1.4c0,0.6,0.1,1,0.4,1.4C171,315.8,171.4,316,171.8,316z"/>
</g>
<g>
	<path d="M170.8,342v0.9h-0.2c-0.8,0-1.4,0.3-1.9,0.7c-0.5,0.5-0.8,1.1-0.8,1.9c0.4-0.5,1-0.7,1.8-0.7c0.7,0,1.3,0.3,1.7,0.8
		c0.4,0.5,0.6,1.1,0.6,1.9c0,0.8-0.2,1.5-0.7,2c-0.5,0.5-1.1,0.8-1.8,0.8c-0.8,0-1.4-0.3-1.9-0.9c-0.5-0.6-0.7-1.4-0.7-2.3v-0.4
		c0-1.5,0.3-2.6,1-3.4c0.6-0.8,1.6-1.2,2.9-1.2L170.8,342L170.8,342z M169.4,345.7c-0.4,0-0.7,0.1-1,0.3c-0.3,0.2-0.5,0.5-0.6,0.8
		v0.4c0,0.7,0.1,1.2,0.5,1.6c0.3,0.4,0.7,0.6,1.1,0.6c0.5,0,0.8-0.2,1.1-0.5c0.3-0.3,0.4-0.8,0.4-1.3c0-0.6-0.1-1-0.4-1.4
		C170.3,345.8,169.9,345.7,169.4,345.7L169.4,345.7L169.4,345.7z"/>
</g>
<g>
	<path d="M211.7,197.3h-5.3v-0.7l2.8-3.1c0.4-0.5,0.7-0.9,0.9-1.2c0.2-0.3,0.2-0.6,0.2-0.9c0-0.4-0.1-0.8-0.4-1
		c-0.3-0.3-0.6-0.4-1-0.4c-0.5,0-0.9,0.1-1.2,0.4c-0.3,0.3-0.4,0.7-0.4,1.2h-1c0-0.8,0.2-1.4,0.7-1.8c0.5-0.5,1.1-0.7,1.9-0.7
		c0.8,0,1.4,0.2,1.8,0.6c0.4,0.4,0.7,0.9,0.7,1.6c0,0.8-0.5,1.8-1.5,2.9l-2.2,2.4h4.1L211.7,197.3L211.7,197.3z"/>
</g>
<g>
	<path d="M210.3,224.3c-0.2,0.3-0.5,0.5-0.8,0.6c-0.3,0.2-0.6,0.2-1,0.2c-0.5,0-0.9-0.1-1.2-0.3c-0.3-0.2-0.6-0.6-0.8-1
		c-0.2-0.4-0.3-0.9-0.3-1.4c0-0.5,0.1-1,0.3-1.5c0.2-0.4,0.5-0.8,0.9-1c0.4-0.2,0.8-0.3,1.3-0.3c0.8,0,1.4,0.3,1.9,0.9
		s0.7,1.4,0.7,2.5v0.3c0,1.6-0.3,2.7-0.9,3.5c-0.6,0.7-1.6,1.1-2.8,1.1h-0.2V227h0.2c0.9,0,1.5-0.2,2-0.7
		C210.1,225.9,210.3,225.2,210.3,224.3L210.3,224.3L210.3,224.3z M208.7,224.3c0.3,0,0.7-0.1,1-0.3c0.3-0.2,0.5-0.5,0.6-0.8v-0.4
		c0-0.7-0.1-1.2-0.4-1.7c-0.3-0.4-0.7-0.6-1.1-0.6s-0.8,0.2-1.1,0.5c-0.3,0.3-0.4,0.8-0.4,1.4c0,0.6,0.1,1,0.4,1.4
		C207.9,224.1,208.3,224.3,208.7,224.3z"/>
</g>
<g>
	<path d="M206.1,258.4h-1v-6.9l-2.1,0.8v-0.9l3-1.1h0.2V258.4L206.1,258.4z M213.2,250.3v0.9H213c-0.8,0-1.4,0.3-1.9,0.7
		c-0.5,0.5-0.8,1.1-0.8,1.9c0.4-0.5,1-0.7,1.8-0.7s1.3,0.3,1.7,0.8c0.4,0.5,0.6,1.1,0.6,1.9c0,0.8-0.2,1.5-0.7,2
		c-0.5,0.5-1.1,0.8-1.8,0.8c-0.8,0-1.4-0.3-1.9-0.9c-0.5-0.6-0.7-1.4-0.7-2.3v-0.4c0-1.5,0.3-2.6,1-3.4c0.6-0.8,1.6-1.2,2.9-1.2
		L213.2,250.3L213.2,250.3z M211.8,253.9c-0.4,0-0.7,0.1-1,0.3c-0.3,0.2-0.5,0.5-0.6,0.8v0.4c0,0.7,0.1,1.2,0.5,1.6
		c0.3,0.4,0.7,0.6,1.1,0.6s0.8-0.2,1.1-0.5c0.3-0.3,0.4-0.8,0.4-1.3c0-0.6-0.1-1-0.4-1.4C212.6,254.1,212.3,253.9,211.8,253.9
		L211.8,253.9L211.8,253.9z"/>
</g>
<g>
	<path d="M208,289h-5.3v-0.7l2.8-3.1c0.4-0.5,0.7-0.9,0.9-1.2c0.2-0.3,0.2-0.6,0.2-0.9c0-0.4-0.1-0.8-0.4-1c-0.3-0.3-0.6-0.4-1-0.4
		c-0.5,0-0.9,0.1-1.2,0.4c-0.3,0.3-0.4,0.7-0.4,1.2h-1c0-0.8,0.2-1.4,0.7-1.8c0.5-0.5,1.1-0.7,1.9-0.7c0.8,0,1.4,0.2,1.8,0.6
		c0.4,0.4,0.7,0.9,0.7,1.6c0,0.8-0.5,1.8-1.5,2.9l-2.2,2.4h4.1L208,289L208,289z M210.6,284.4h0.8c0.5,0,0.9-0.1,1.2-0.4
		c0.3-0.3,0.4-0.6,0.4-1c0-1-0.5-1.4-1.4-1.4c-0.4,0-0.8,0.1-1.1,0.4c-0.3,0.3-0.4,0.6-0.4,1h-1c0-0.6,0.2-1.2,0.7-1.6
		c0.5-0.4,1.1-0.6,1.8-0.6c0.8,0,1.4,0.2,1.8,0.6c0.4,0.4,0.7,1,0.7,1.7c0,0.4-0.1,0.7-0.3,1c-0.2,0.3-0.5,0.6-0.9,0.7
		c0.4,0.1,0.8,0.4,1,0.7c0.2,0.3,0.4,0.7,0.4,1.2c0,0.7-0.2,1.3-0.7,1.7c-0.5,0.4-1.1,0.6-1.9,0.6c-0.8,0-1.4-0.2-1.9-0.6
		c-0.5-0.4-0.7-1-0.7-1.6h1c0,0.4,0.1,0.8,0.4,1c0.3,0.3,0.7,0.4,1.1,0.4c0.5,0,0.9-0.1,1.1-0.4c0.3-0.3,0.4-0.6,0.4-1.1
		c0-0.5-0.1-0.8-0.4-1.1c-0.3-0.3-0.7-0.4-1.3-0.4h-0.8L210.6,284.4L210.6,284.4z"/>
</g>
<g>
	<path d="M204.2,315h0.8c0.5,0,0.9-0.1,1.2-0.4c0.3-0.3,0.4-0.6,0.4-1c0-1-0.5-1.4-1.4-1.4c-0.4,0-0.8,0.1-1.1,0.4
		c-0.3,0.3-0.4,0.6-0.4,1h-1c0-0.6,0.2-1.2,0.7-1.6c0.5-0.4,1.1-0.6,1.8-0.6c0.8,0,1.4,0.2,1.8,0.6c0.4,0.4,0.7,1,0.7,1.7
		c0,0.4-0.1,0.7-0.3,1c-0.2,0.3-0.5,0.6-0.9,0.7c0.4,0.1,0.8,0.4,1,0.7c0.2,0.3,0.4,0.7,0.4,1.2c0,0.7-0.2,1.3-0.7,1.7
		c-0.5,0.4-1.1,0.6-1.9,0.6c-0.8,0-1.4-0.2-1.9-0.6c-0.5-0.4-0.7-1-0.7-1.6h1c0,0.4,0.1,0.8,0.4,1c0.3,0.3,0.7,0.4,1.1,0.4
		c0.5,0,0.9-0.1,1.1-0.4c0.3-0.3,0.4-0.6,0.4-1.1s-0.1-0.8-0.4-1.1c-0.3-0.3-0.7-0.4-1.3-0.4h-0.8L204.2,315L204.2,315z
		 M214.2,316.1c0,1.2-0.2,2.1-0.6,2.7c-0.4,0.6-1.1,0.9-1.9,0.9c-0.9,0-1.5-0.3-1.9-0.9c-0.4-0.6-0.6-1.4-0.6-2.6v-1.4
		c0-1.2,0.2-2.1,0.6-2.7c0.4-0.6,1.1-0.9,1.9-0.9s1.5,0.3,1.9,0.8s0.6,1.4,0.6,2.6L214.2,316.1L214.2,316.1L214.2,316.1z
		 M213.2,314.7c0-0.9-0.1-1.5-0.4-1.9c-0.2-0.4-0.6-0.6-1.2-0.6c-0.5,0-0.9,0.2-1.2,0.6c-0.2,0.4-0.4,1-0.4,1.8v1.7
		c0,0.9,0.1,1.5,0.4,1.9c0.3,0.4,0.6,0.6,1.2,0.6s0.9-0.2,1.1-0.6c0.3-0.4,0.4-1,0.4-1.9L213.2,314.7L213.2,314.7z"/>
</g>
<g>
	<path d="M211.6,342.6l-3.4,7.6h-1.1l3.4-7.3h-4.4V342h5.5L211.6,342.6L211.6,342.6z"/>
</g>
<g>
	<path d="M249.2,192.7h0.8c0.5,0,0.9-0.1,1.2-0.4c0.3-0.3,0.4-0.6,0.4-1c0-1-0.5-1.4-1.4-1.4c-0.4,0-0.8,0.1-1.1,0.4
		c-0.3,0.3-0.4,0.6-0.4,1h-1c0-0.6,0.2-1.2,0.7-1.6c0.5-0.4,1.1-0.6,1.8-0.6c0.8,0,1.4,0.2,1.8,0.6c0.4,0.4,0.7,1,0.7,1.7
		c0,0.4-0.1,0.7-0.3,1c-0.2,0.3-0.5,0.6-0.9,0.7c0.4,0.1,0.8,0.4,1,0.7c0.2,0.3,0.4,0.7,0.4,1.2c0,0.7-0.2,1.3-0.7,1.7
		c-0.5,0.4-1.1,0.6-1.9,0.6c-0.8,0-1.4-0.2-1.9-0.6c-0.5-0.4-0.7-1-0.7-1.6h1c0,0.4,0.1,0.8,0.4,1c0.3,0.3,0.7,0.4,1.1,0.4
		c0.5,0,0.9-0.1,1.1-0.4c0.3-0.3,0.4-0.6,0.4-1.1c0-0.5-0.1-0.8-0.4-1.1c-0.3-0.3-0.7-0.4-1.3-0.4h-0.8L249.2,192.7L249.2,192.7z"/>
</g>
<g>
	<path d="M247.4,227.9h-1V221l-2.1,0.8v-0.9l3-1.1h0.2V227.9L247.4,227.9z M255.6,224.4c0,1.2-0.2,2.1-0.6,2.7
		c-0.4,0.6-1.1,0.9-1.9,0.9c-0.9,0-1.5-0.3-1.9-0.9c-0.4-0.6-0.6-1.4-0.6-2.6v-1.4c0-1.2,0.2-2.1,0.6-2.7c0.4-0.6,1.1-0.9,1.9-0.9
		s1.5,0.3,1.9,0.8c0.4,0.6,0.6,1.4,0.6,2.6L255.6,224.4L255.6,224.4L255.6,224.4z M254.5,223c0-0.9-0.1-1.5-0.4-1.9
		c-0.2-0.4-0.6-0.6-1.2-0.6c-0.5,0-0.9,0.2-1.2,0.6c-0.2,0.4-0.4,1-0.4,1.8v1.7c0,0.9,0.1,1.5,0.4,1.9c0.3,0.4,0.6,0.6,1.2,0.6
		c0.5,0,0.9-0.2,1.1-0.6c0.3-0.4,0.4-1,0.4-1.9L254.5,223L254.5,223z"/>
</g>
<g>
	<path class="st2" d="M249.7,236.3c10,0,18.1,8.1,18.1,18.1c0,10-8.1,18.1-18.1,18.1c-10,0-18.1-8.1-18.1-18.1
		C231.6,244.5,239.7,236.3,249.7,236.3z"/>
</g>
<g>
	<path class="st1" d="M245.8,260.7h-1.7v-11l-3.4,1.2v-1.5l4.9-1.8h0.3V260.7L245.8,260.7z M259.3,248.7l-5.5,12H252l5.5-11.6h-7.2
		v-1.3h9L259.3,248.7L259.3,248.7z"/>
</g>
<g>
	<path d="M249.3,289H244v-0.7l2.8-3.1c0.4-0.5,0.7-0.9,0.9-1.2c0.2-0.3,0.2-0.6,0.2-0.9c0-0.4-0.1-0.8-0.4-1c-0.3-0.3-0.6-0.4-1-0.4
		c-0.5,0-0.9,0.1-1.2,0.4c-0.3,0.3-0.4,0.7-0.4,1.2h-1c0-0.8,0.2-1.4,0.7-1.8c0.5-0.5,1.1-0.7,1.9-0.7c0.8,0,1.4,0.2,1.8,0.6
		c0.4,0.4,0.7,0.9,0.7,1.6c0,0.8-0.5,1.8-1.5,2.9l-2.2,2.4h4.1L249.3,289L249.3,289z M254.8,286.3h1.1v0.8h-1.1v1.9h-1v-1.9h-3.7
		v-0.6l3.6-5.6h1.1L254.8,286.3L254.8,286.3L254.8,286.3z M251.2,286.3h2.5v-4l-0.1,0.2L251.2,286.3L251.2,286.3z"/>
</g>
<g>
	<path d="M251.1,319.6h-1v-6.9l-2.1,0.8v-0.9l3-1.1h0.2V319.6L251.1,319.6z"/>
</g>
<g>
	<path d="M252.6,344.1c0,0.4-0.1,0.8-0.3,1.1c-0.2,0.3-0.5,0.6-0.9,0.7c0.4,0.2,0.8,0.4,1,0.8c0.3,0.3,0.4,0.7,0.4,1.2
		c0,0.7-0.2,1.3-0.7,1.7c-0.5,0.4-1.1,0.6-1.9,0.6s-1.4-0.2-1.9-0.6c-0.5-0.4-0.7-1-0.7-1.7c0-0.4,0.1-0.8,0.4-1.2
		c0.2-0.4,0.6-0.6,1-0.8c-0.4-0.2-0.6-0.4-0.9-0.7c-0.2-0.3-0.3-0.7-0.3-1.1c0-0.7,0.2-1.2,0.7-1.6c0.4-0.4,1-0.6,1.7-0.6
		c0.7,0,1.3,0.2,1.7,0.6C252.4,342.9,252.6,343.4,252.6,344.1L252.6,344.1z M251.8,347.9c0-0.5-0.1-0.8-0.4-1.1
		c-0.3-0.3-0.7-0.4-1.1-0.4c-0.5,0-0.8,0.1-1.1,0.4c-0.3,0.3-0.4,0.7-0.4,1.1s0.1,0.8,0.4,1.1c0.3,0.3,0.7,0.4,1.1,0.4
		c0.5,0,0.9-0.1,1.1-0.4C251.7,348.7,251.8,348.3,251.8,347.9L251.8,347.9L251.8,347.9z M250.2,342.7c-0.4,0-0.7,0.1-1,0.4
		c-0.3,0.2-0.4,0.6-0.4,1c0,0.4,0.1,0.8,0.4,1c0.3,0.3,0.6,0.4,1,0.4c0.4,0,0.7-0.1,1-0.4c0.3-0.3,0.4-0.6,0.4-1s-0.1-0.8-0.4-1
		C251,342.8,250.6,342.7,250.2,342.7L250.2,342.7z"/>
</g>
<g>
	<path d="M289.4,194.6h1.1v0.8h-1.1v1.9h-1v-1.9h-3.7v-0.6l3.6-5.6h1.1L289.4,194.6L289.4,194.6L289.4,194.6z M285.9,194.6h2.5v-4
		l-0.1,0.2L285.9,194.6L285.9,194.6z"/>
</g>
<g>
	<path d="M284.8,227.9h-1V221l-2.1,0.8v-0.9l3-1.1h0.2V227.9L284.8,227.9z M291.2,227.9h-1V221l-2.1,0.8v-0.9l3-1.1h0.2V227.9
		L291.2,227.9z"/>
</g>
<g>
	<path d="M284.8,258.4h-1v-6.9l-2.1,0.8v-0.9l3-1.1h0.2V258.4L284.8,258.4z M292.7,252.4c0,0.4-0.1,0.8-0.3,1.1
		c-0.2,0.3-0.5,0.6-0.9,0.7c0.4,0.2,0.8,0.4,1,0.8c0.3,0.3,0.4,0.7,0.4,1.2c0,0.7-0.2,1.3-0.7,1.7c-0.5,0.4-1.1,0.6-1.9,0.6
		s-1.4-0.2-1.9-0.6c-0.5-0.4-0.7-1-0.7-1.7c0-0.4,0.1-0.8,0.4-1.2c0.2-0.4,0.6-0.6,1-0.8c-0.4-0.2-0.6-0.4-0.9-0.7
		c-0.2-0.3-0.3-0.7-0.3-1.1c0-0.7,0.2-1.2,0.7-1.6c0.4-0.4,1-0.6,1.7-0.6s1.3,0.2,1.7,0.6C292.5,251.2,292.7,251.7,292.7,252.4
		L292.7,252.4z M291.9,256.2c0-0.5-0.1-0.8-0.4-1.1c-0.3-0.3-0.7-0.4-1.1-0.4c-0.5,0-0.8,0.1-1.1,0.4c-0.3,0.3-0.4,0.7-0.4,1.1
		c0,0.5,0.1,0.8,0.4,1.1c0.3,0.3,0.7,0.4,1.1,0.4s0.9-0.1,1.1-0.4C291.7,257,291.9,256.7,291.9,256.2L291.9,256.2L291.9,256.2z
		 M290.3,251c-0.4,0-0.7,0.1-1,0.4c-0.3,0.2-0.4,0.6-0.4,1c0,0.4,0.1,0.8,0.4,1c0.3,0.3,0.6,0.4,1,0.4s0.7-0.1,1-0.4
		c0.3-0.3,0.4-0.6,0.4-1c0-0.4-0.1-0.8-0.4-1S290.7,251,290.3,251L290.3,251L290.3,251z"/>
</g>
<g>
	<path d="M286.7,289h-5.3v-0.7l2.8-3.1c0.4-0.5,0.7-0.9,0.9-1.2c0.2-0.3,0.2-0.6,0.2-0.9c0-0.4-0.1-0.8-0.4-1
		c-0.3-0.3-0.6-0.4-1-0.4c-0.5,0-0.9,0.1-1.2,0.4c-0.3,0.3-0.4,0.7-0.4,1.2h-1c0-0.8,0.2-1.4,0.7-1.8s1.1-0.7,1.9-0.7
		c0.8,0,1.4,0.2,1.8,0.6s0.7,0.9,0.7,1.6c0,0.8-0.5,1.8-1.5,2.9l-2.2,2.4h4.1V289L286.7,289z M288.3,284.9l0.4-4.1h4.2v1h-3.3
		l-0.2,2.2c0.4-0.2,0.8-0.3,1.4-0.3c0.7,0,1.3,0.2,1.8,0.7c0.4,0.5,0.7,1.2,0.7,2s-0.2,1.5-0.7,2c-0.5,0.5-1.1,0.7-1.9,0.7
		c-0.7,0-1.3-0.2-1.8-0.6c-0.5-0.4-0.7-1-0.8-1.7h1c0.1,0.5,0.2,0.8,0.5,1.1c0.3,0.2,0.6,0.3,1.1,0.3c0.5,0,0.9-0.2,1.1-0.5
		s0.4-0.8,0.4-1.4c0-0.5-0.1-1-0.4-1.3c-0.3-0.3-0.7-0.5-1.2-0.5c-0.5,0-0.8,0.1-1.1,0.3l-0.3,0.2L288.3,284.9L288.3,284.9
		L288.3,284.9z"/>
</g>
<g>
	<path d="M290.4,319.6h-5.3v-0.7l2.8-3.1c0.4-0.5,0.7-0.9,0.9-1.2c0.2-0.3,0.2-0.6,0.2-0.9c0-0.4-0.1-0.8-0.4-1
		c-0.3-0.3-0.6-0.4-1-0.4c-0.5,0-0.9,0.1-1.2,0.4c-0.3,0.3-0.4,0.7-0.4,1.2h-1c0-0.8,0.2-1.4,0.7-1.8c0.5-0.5,1.1-0.7,1.9-0.7
		c0.8,0,1.4,0.2,1.8,0.6c0.4,0.4,0.7,0.9,0.7,1.6c0,0.8-0.5,1.8-1.5,2.9l-2.2,2.4h4.1L290.4,319.6L290.4,319.6z"/>
</g>
<g>
	<path d="M289,346.6c-0.2,0.3-0.5,0.5-0.8,0.6c-0.3,0.2-0.6,0.2-1,0.2c-0.5,0-0.9-0.1-1.2-0.3s-0.6-0.6-0.8-1
		c-0.2-0.4-0.3-0.9-0.3-1.4c0-0.5,0.1-1,0.3-1.5c0.2-0.4,0.5-0.8,0.9-1c0.4-0.2,0.8-0.3,1.3-0.3c0.8,0,1.4,0.3,1.9,0.9
		c0.5,0.6,0.7,1.4,0.7,2.5v0.3c0,1.6-0.3,2.7-0.9,3.5c-0.6,0.7-1.6,1.1-2.8,1.1h-0.2v-0.9h0.2c0.9,0,1.5-0.2,2-0.7
		C288.8,348.2,289,347.5,289,346.6L289,346.6z M287.4,346.6c0.3,0,0.7-0.1,1-0.3c0.3-0.2,0.5-0.5,0.6-0.8V345c0-0.7-0.1-1.2-0.4-1.7
		c-0.3-0.4-0.7-0.6-1.1-0.6s-0.8,0.2-1.1,0.5c-0.3,0.3-0.4,0.8-0.4,1.4c0,0.6,0.1,1,0.4,1.4C286.6,346.4,287,346.6,287.4,346.6
		L287.4,346.6z"/>
</g>
<g>
	<path d="M318.4,193.2l0.4-4.1h4.2v1h-3.3l-0.2,2.2c0.4-0.2,0.8-0.3,1.4-0.3c0.7,0,1.3,0.2,1.8,0.7c0.4,0.5,0.7,1.2,0.7,2
		c0,0.8-0.2,1.5-0.7,2c-0.5,0.5-1.1,0.7-1.9,0.7c-0.7,0-1.3-0.2-1.8-0.6c-0.5-0.4-0.7-1-0.8-1.7h1c0.1,0.5,0.2,0.8,0.5,1.1
		s0.6,0.3,1.1,0.3c0.5,0,0.9-0.2,1.1-0.5c0.3-0.3,0.4-0.8,0.4-1.4c0-0.5-0.1-1-0.4-1.3c-0.3-0.3-0.7-0.5-1.2-0.5
		c-0.5,0-0.8,0.1-1.1,0.3l-0.3,0.2L318.4,193.2L318.4,193.2z"/>
</g>
<g>
	<path d="M317.6,227.9h-1V221l-2.1,0.8v-0.9l3-1.1h0.2V227.9L317.6,227.9z M326,227.9h-5.3v-0.7l2.8-3.1c0.4-0.5,0.7-0.9,0.9-1.2
		c0.2-0.3,0.2-0.6,0.2-0.9c0-0.4-0.1-0.8-0.4-1c-0.3-0.3-0.6-0.4-1-0.4c-0.5,0-0.9,0.1-1.2,0.4c-0.3,0.3-0.4,0.7-0.4,1.2h-1
		c0-0.8,0.2-1.4,0.7-1.8c0.5-0.5,1.1-0.7,1.9-0.7c0.8,0,1.4,0.2,1.8,0.6c0.4,0.4,0.7,0.9,0.7,1.6c0,0.8-0.5,1.8-1.5,2.9l-2.2,2.4
		h4.1L326,227.9L326,227.9z"/>
</g>
<g>
	<path d="M317.6,258.4h-1v-6.9l-2.1,0.8v-0.9l3-1.1h0.2V258.4L317.6,258.4z M324.6,254.9c-0.2,0.3-0.5,0.5-0.8,0.6
		c-0.3,0.2-0.6,0.2-1,0.2c-0.5,0-0.9-0.1-1.2-0.3c-0.3-0.2-0.6-0.6-0.8-1c-0.2-0.4-0.3-0.9-0.3-1.4c0-0.5,0.1-1,0.3-1.5
		c0.2-0.4,0.5-0.8,0.9-1c0.4-0.2,0.8-0.3,1.3-0.3c0.8,0,1.4,0.3,1.9,0.9c0.5,0.6,0.7,1.4,0.7,2.5v0.3c0,1.6-0.3,2.7-0.9,3.5
		c-0.6,0.7-1.6,1.1-2.8,1.1h-0.2v-0.9h0.2c0.9,0,1.5-0.2,2-0.7C324.3,256.5,324.6,255.8,324.6,254.9L324.6,254.9z M323,254.9
		c0.3,0,0.7-0.1,1-0.3c0.3-0.2,0.5-0.5,0.6-0.8v-0.4c0-0.7-0.1-1.2-0.4-1.7c-0.3-0.4-0.7-0.6-1.1-0.6c-0.4,0-0.8,0.2-1.1,0.5
		c-0.3,0.3-0.4,0.8-0.4,1.4c0,0.6,0.1,1,0.4,1.4C322.2,254.7,322.6,254.9,323,254.9z"/>
</g>
<g>
	<path d="M319.5,289h-5.3v-0.7l2.8-3.1c0.4-0.5,0.7-0.9,0.9-1.2c0.2-0.3,0.2-0.6,0.2-0.9c0-0.4-0.1-0.8-0.4-1
		c-0.3-0.3-0.6-0.4-1-0.4c-0.5,0-0.9,0.1-1.2,0.4c-0.3,0.3-0.4,0.7-0.4,1.2h-1c0-0.8,0.2-1.4,0.7-1.8c0.5-0.5,1.1-0.7,1.9-0.7
		c0.8,0,1.4,0.2,1.8,0.6c0.4,0.4,0.7,0.9,0.7,1.6c0,0.8-0.5,1.8-1.5,2.9l-2.2,2.4h4.1L319.5,289L319.5,289z M324.7,280.8v0.9h-0.2
		c-0.8,0-1.4,0.3-1.9,0.7c-0.5,0.5-0.8,1.1-0.8,1.9c0.4-0.5,1-0.7,1.8-0.7c0.7,0,1.3,0.3,1.7,0.8c0.4,0.5,0.6,1.1,0.6,1.9
		c0,0.8-0.2,1.5-0.7,2c-0.5,0.5-1.1,0.8-1.8,0.8s-1.4-0.3-1.9-0.9c-0.5-0.6-0.7-1.4-0.7-2.3v-0.4c0-1.5,0.3-2.6,1-3.4
		c0.6-0.8,1.6-1.2,2.9-1.2L324.7,280.8L324.7,280.8z M323.3,284.5c-0.4,0-0.7,0.1-1,0.3c-0.3,0.2-0.5,0.5-0.6,0.8v0.4
		c0,0.7,0.1,1.2,0.5,1.6c0.3,0.4,0.7,0.6,1.1,0.6c0.5,0,0.8-0.2,1.1-0.5c0.3-0.3,0.4-0.8,0.4-1.3c0-0.6-0.1-1-0.4-1.4
		C324.2,284.7,323.8,284.5,323.3,284.5L323.3,284.5L323.3,284.5z"/>
</g>
<g>
	<path d="M319.4,315h0.8c0.5,0,0.9-0.1,1.2-0.4c0.3-0.3,0.4-0.6,0.4-1c0-1-0.5-1.4-1.4-1.4c-0.4,0-0.8,0.1-1.1,0.4
		c-0.3,0.3-0.4,0.6-0.4,1h-1c0-0.6,0.2-1.2,0.7-1.6c0.5-0.4,1.1-0.6,1.8-0.6c0.8,0,1.4,0.2,1.8,0.6c0.4,0.4,0.7,1,0.7,1.7
		c0,0.4-0.1,0.7-0.3,1c-0.2,0.3-0.5,0.6-0.9,0.7c0.4,0.1,0.8,0.4,1,0.7c0.2,0.3,0.4,0.7,0.4,1.2c0,0.7-0.2,1.3-0.7,1.7
		c-0.5,0.4-1.1,0.6-1.9,0.6s-1.4-0.2-1.9-0.6c-0.5-0.4-0.7-1-0.7-1.6h1c0,0.4,0.1,0.8,0.4,1c0.3,0.3,0.7,0.4,1.1,0.4
		c0.5,0,0.9-0.1,1.1-0.4c0.3-0.3,0.4-0.6,0.4-1.1s-0.1-0.8-0.4-1.1c-0.3-0.3-0.7-0.4-1.3-0.4h-0.8L319.4,315L319.4,315z"/>
</g>
<g>
	<path d="M317.6,350.1h-1v-6.9l-2.1,0.8v-0.9l3-1.1h0.2V350.1L317.6,350.1z M325.8,346.7c0,1.2-0.2,2.1-0.6,2.7
		c-0.4,0.6-1.1,0.9-1.9,0.9c-0.9,0-1.5-0.3-1.9-0.9c-0.4-0.6-0.6-1.4-0.6-2.6v-1.4c0-1.2,0.2-2.1,0.6-2.7c0.4-0.6,1.1-0.9,1.9-0.9
		s1.5,0.3,1.9,0.8c0.4,0.6,0.6,1.4,0.6,2.6L325.8,346.7L325.8,346.7L325.8,346.7z M324.7,345.2c0-0.9-0.1-1.5-0.4-1.9
		c-0.2-0.4-0.6-0.6-1.2-0.6c-0.5,0-0.9,0.2-1.2,0.6c-0.2,0.4-0.4,1-0.4,1.8v1.7c0,0.9,0.1,1.5,0.4,1.9c0.3,0.4,0.6,0.6,1.2,0.6
		c0.5,0,0.9-0.2,1.1-0.6c0.3-0.4,0.4-1,0.4-1.9L324.7,345.2L324.7,345.2z"/>
</g>
<g class="st3">
	<path class="st4" d="M201.8,301.3H377c2.4,0,4.4,2,4.4,4.4v114.9c0,2.4-2,4.4-4.4,4.4H201.8c-2.4,0-4.4-2-4.4-4.4V305.8
		C197.3,303.3,199.3,301.3,201.8,301.3z"/>
</g>
<g>
	<path class="st1" d="M205.3,300.7h175.3c2.4,0,4.4,2,4.4,4.4V420c0,2.4-2,4.4-4.4,4.4H205.3c-2.4,0-4.4-2-4.4-4.4V305.1
		C200.9,302.7,202.8,300.7,205.3,300.7z"/>
</g>
<g>
	<path class="st2" d="M253.6,332h-31c-4.7,0-8.4-3.8-8.4-8.4s3.8-8.4,8.4-8.4h31c4.7,0,8.4,3.8,8.4,8.4S258.3,332,253.6,332z
		 M222.7,315.6c-4.4,0-7.9,3.5-7.9,7.9c0,4.3,3.5,7.9,7.9,7.9h31c4.4,0,7.9-3.5,7.9-7.9c0-4.3-3.5-7.9-7.9-7.9H222.7z"/>
</g>
<g>
	<path class="st2" d="M226.8,323.3c0-0.6,0.1-1.1,0.3-1.4c0.2-0.3,0.6-0.5,1.1-0.5c0.5,0,0.9,0.2,1.1,0.5c0.2,0.3,0.3,0.8,0.3,1.4
		c0,0.6-0.1,1.1-0.3,1.4c-0.2,0.3-0.6,0.5-1.1,0.5c-0.5,0-0.9-0.2-1.1-0.5C226.9,324.4,226.8,323.9,226.8,323.3z M228.9,323.3
		c0-0.3,0-0.5-0.1-0.7c0-0.2-0.1-0.4-0.2-0.5c-0.1-0.1-0.3-0.2-0.5-0.2s-0.4,0.1-0.5,0.2c-0.1,0.1-0.2,0.3-0.2,0.5
		c0,0.2-0.1,0.4-0.1,0.7c0,0.3,0,0.5,0.1,0.7c0,0.2,0.1,0.4,0.2,0.5c0.1,0.1,0.3,0.2,0.5,0.2s0.4-0.1,0.5-0.2
		c0.1-0.1,0.2-0.3,0.2-0.5C228.9,323.8,228.9,323.6,228.9,323.3z M232.6,321.9l-1.5,3.4h-0.6l1.5-3.3H230v-0.5h2.5L232.6,321.9
		L232.6,321.9z M233.4,325.3c-0.1,0-0.2,0-0.3-0.1c-0.1-0.1-0.1-0.2-0.1-0.3c0-0.1,0-0.2,0.1-0.3c0.1-0.1,0.2-0.1,0.3-0.1
		s0.2,0,0.3,0.1c0.1,0.1,0.1,0.2,0.1,0.3c0,0.1,0,0.2-0.1,0.3C233.6,325.2,233.5,325.3,233.4,325.3z M233.4,323.1
		c-0.1,0-0.2,0-0.3-0.1s-0.1-0.2-0.1-0.3c0-0.1,0-0.2,0.1-0.3c0.1-0.1,0.2-0.1,0.3-0.1s0.2,0,0.3,0.1c0.1,0.1,0.1,0.2,0.1,0.3
		c0,0.1,0,0.2-0.1,0.3C233.6,323,233.5,323.1,233.4,323.1z M234.4,323.3c0-0.6,0.1-1.1,0.3-1.4c0.2-0.3,0.6-0.5,1.1-0.5
		c0.5,0,0.9,0.2,1.1,0.5c0.2,0.3,0.3,0.8,0.3,1.4c0,0.6-0.1,1.1-0.3,1.4c-0.2,0.3-0.6,0.5-1.1,0.5c-0.5,0-0.9-0.2-1.1-0.5
		C234.5,324.4,234.4,323.9,234.4,323.3z M236.5,323.3c0-0.3,0-0.5-0.1-0.7c0-0.2-0.1-0.4-0.2-0.5c-0.1-0.1-0.3-0.2-0.5-0.2
		s-0.4,0.1-0.5,0.2c-0.1,0.1-0.2,0.3-0.2,0.5c0,0.2-0.1,0.4-0.1,0.7c0,0.3,0,0.5,0.1,0.7c0,0.2,0.1,0.4,0.2,0.5
		c0.1,0.1,0.3,0.2,0.5,0.2s0.4-0.1,0.5-0.2c0.1-0.1,0.2-0.3,0.2-0.5C236.5,323.8,236.5,323.6,236.5,323.3z M237.8,323.3
		c0-0.6,0.1-1.1,0.3-1.4c0.2-0.3,0.6-0.5,1.1-0.5s0.9,0.2,1.1,0.5c0.2,0.3,0.3,0.8,0.3,1.4c0,0.6-0.1,1.1-0.3,1.4
		c-0.2,0.3-0.6,0.5-1.1,0.5s-0.9-0.2-1.1-0.5C237.9,324.4,237.8,323.9,237.8,323.3z M239.9,323.3c0-0.3,0-0.5-0.1-0.7
		c0-0.2-0.1-0.4-0.2-0.5c-0.1-0.1-0.3-0.2-0.5-0.2s-0.4,0.1-0.5,0.2c-0.1,0.1-0.2,0.3-0.2,0.5c0,0.2-0.1,0.4-0.1,0.7
		c0,0.3,0,0.5,0.1,0.7c0,0.2,0.1,0.4,0.2,0.5c0.1,0.1,0.3,0.2,0.5,0.2s0.4-0.1,0.5-0.2c0.1-0.1,0.2-0.3,0.2-0.5
		C239.9,323.8,239.9,323.6,239.9,323.3z M244.8,324.5h-1.5l-0.3,0.8h-0.6l1.3-3.7h0.7l1.3,3.7h-0.6L244.8,324.5z M244.6,324
		l-0.6-1.7l-0.6,1.7H244.6z M250.1,321.6v3.7h-0.6v-2.5l-1.1,2.5H248l-1.1-2.5v2.5h-0.6v-3.7h0.6l1.3,2.9l1.3-2.9H250.1z"/>
</g>
<g>
	<path class="st2" d="M308.5,332h-31c-4.7,0-8.4-3.8-8.4-8.4s3.8-8.4,8.4-8.4h31c4.7,0,8.4,3.8,8.4,8.4S313.2,332,308.5,332z
		 M277.6,315.6c-4.4,0-7.9,3.5-7.9,7.9c0,4.3,3.5,7.9,7.9,7.9h31c4.4,0,7.9-3.5,7.9-7.9c0-4.3-3.5-7.9-7.9-7.9H277.6z"/>
</g>
<g>
	<path class="st2" d="M281.7,322.9c0-0.6,0.1-1.1,0.3-1.4c0.2-0.3,0.6-0.5,1.1-0.5c0.5,0,0.9,0.2,1.1,0.5c0.2,0.3,0.3,0.8,0.3,1.4
		c0,0.6-0.1,1.1-0.3,1.4c-0.2,0.3-0.6,0.5-1.1,0.5c-0.5,0-0.9-0.2-1.1-0.5C281.8,324,281.7,323.6,281.7,322.9z M283.9,322.9
		c0-0.3,0-0.5-0.1-0.7c0-0.2-0.1-0.4-0.2-0.5c-0.1-0.1-0.3-0.2-0.5-0.2s-0.4,0.1-0.5,0.2c-0.1,0.1-0.2,0.3-0.2,0.5
		c0,0.2-0.1,0.4-0.1,0.7c0,0.3,0,0.5,0.1,0.7c0,0.2,0.1,0.4,0.2,0.5c0.1,0.1,0.3,0.2,0.5,0.2s0.4-0.1,0.5-0.2
		c0.1-0.1,0.2-0.3,0.2-0.5C283.8,323.5,283.9,323.2,283.9,322.9z M285.7,322.9c-0.4-0.2-0.6-0.5-0.6-0.9c0-0.2,0-0.4,0.1-0.5
		c0.1-0.2,0.2-0.3,0.4-0.4c0.2-0.1,0.4-0.1,0.7-0.1c0.3,0,0.5,0,0.7,0.1c0.2,0.1,0.3,0.2,0.4,0.4c0.1,0.2,0.1,0.3,0.1,0.5
		s-0.1,0.4-0.2,0.5c-0.1,0.1-0.2,0.3-0.4,0.3c0.2,0.1,0.4,0.2,0.5,0.4c0.1,0.2,0.2,0.4,0.2,0.6c0,0.2-0.1,0.4-0.2,0.6
		c-0.1,0.2-0.3,0.3-0.5,0.4s-0.4,0.1-0.7,0.1c-0.3,0-0.5,0-0.7-0.1c-0.2-0.1-0.4-0.2-0.5-0.4c-0.1-0.2-0.2-0.4-0.2-0.6
		c0-0.2,0.1-0.4,0.2-0.6C285.4,323.1,285.5,323,285.7,322.9z M287.1,322.1c0-0.2-0.1-0.3-0.2-0.5c-0.1-0.1-0.3-0.2-0.5-0.2
		s-0.4,0.1-0.5,0.2c-0.1,0.1-0.2,0.3-0.2,0.5c0,0.2,0.1,0.3,0.2,0.4c0.1,0.1,0.3,0.2,0.5,0.2c0.2,0,0.4-0.1,0.5-0.2
		C287.1,322.4,287.1,322.3,287.1,322.1z M286.5,323.2c-0.2,0-0.4,0.1-0.6,0.2c-0.1,0.1-0.2,0.3-0.2,0.5c0,0.2,0.1,0.4,0.2,0.5
		c0.1,0.1,0.3,0.2,0.6,0.2c0.2,0,0.4-0.1,0.6-0.2c0.1-0.1,0.2-0.3,0.2-0.5c0-0.2-0.1-0.4-0.2-0.5
		C286.9,323.2,286.7,323.2,286.5,323.2z M288.8,324.9c-0.1,0-0.2,0-0.3-0.1c-0.1-0.1-0.1-0.2-0.1-0.3c0-0.1,0-0.2,0.1-0.3
		c0.1-0.1,0.2-0.1,0.3-0.1c0.1,0,0.2,0,0.3,0.1c0.1,0.1,0.1,0.2,0.1,0.3c0,0.1,0,0.2-0.1,0.3C289,324.9,288.9,324.9,288.8,324.9z
		 M288.8,322.7c-0.1,0-0.2,0-0.3-0.1c-0.1-0.1-0.1-0.2-0.1-0.3c0-0.1,0-0.2,0.1-0.3c0.1-0.1,0.2-0.1,0.3-0.1c0.1,0,0.2,0,0.3,0.1
		c0.1,0.1,0.1,0.2,0.1,0.3c0,0.1,0,0.2-0.1,0.3C289,322.7,288.9,322.7,288.8,322.7z M289.7,322.9c0-0.6,0.1-1.1,0.3-1.4
		c0.2-0.3,0.6-0.5,1.1-0.5c0.5,0,0.9,0.2,1.1,0.5c0.2,0.3,0.3,0.8,0.3,1.4c0,0.6-0.1,1.1-0.3,1.4c-0.2,0.3-0.6,0.5-1.1,0.5
		c-0.5,0-0.9-0.2-1.1-0.5C289.8,324,289.7,323.6,289.7,322.9z M291.9,322.9c0-0.3,0-0.5-0.1-0.7c0-0.2-0.1-0.4-0.2-0.5
		c-0.1-0.1-0.3-0.2-0.5-0.2c-0.2,0-0.4,0.1-0.5,0.2c-0.1,0.1-0.2,0.3-0.2,0.5c0,0.2-0.1,0.4-0.1,0.7c0,0.3,0,0.5,0.1,0.7
		c0,0.2,0.1,0.4,0.2,0.5c0.1,0.1,0.3,0.2,0.5,0.2c0.2,0,0.4-0.1,0.5-0.2c0.1-0.1,0.2-0.3,0.2-0.5
		C291.9,323.5,291.9,323.2,291.9,322.9z M293.1,322.9c0-0.6,0.1-1.1,0.3-1.4c0.2-0.3,0.6-0.5,1.1-0.5c0.5,0,0.9,0.2,1.1,0.5
		c0.2,0.3,0.3,0.8,0.3,1.4c0,0.6-0.1,1.1-0.3,1.4c-0.2,0.3-0.6,0.5-1.1,0.5s-0.9-0.2-1.1-0.5C293.2,324,293.1,323.6,293.1,322.9z
		 M295.3,322.9c0-0.3,0-0.5-0.1-0.7c0-0.2-0.1-0.4-0.2-0.5c-0.1-0.1-0.3-0.2-0.5-0.2c-0.2,0-0.4,0.1-0.5,0.2
		c-0.1,0.1-0.2,0.3-0.2,0.5c0,0.2-0.1,0.4-0.1,0.7c0,0.3,0,0.5,0.1,0.7c0,0.2,0.1,0.4,0.2,0.5c0.1,0.1,0.3,0.2,0.5,0.2
		c0.2,0,0.4-0.1,0.5-0.2c0.1-0.1,0.2-0.3,0.2-0.5C295.3,323.5,295.3,323.2,295.3,322.9z M300.2,324.2h-1.5l-0.3,0.8h-0.6l1.3-3.7
		h0.7l1.3,3.7h-0.6L300.2,324.2z M300,323.7l-0.6-1.7l-0.6,1.7H300z M305.5,321.2v3.7h-0.6v-2.5l-1.1,2.5h-0.4l-1.1-2.5v2.5h-0.6
		v-3.7h0.6l1.3,2.9l1.3-2.9H305.5z"/>
</g>
<g>
	<path class="st2" d="M363.4,332h-31c-4.7,0-8.4-3.8-8.4-8.4s3.8-8.4,8.4-8.4h31c4.7,0,8.4,3.8,8.4,8.4S368.1,332,363.4,332z
		 M332.5,315.6c-4.4,0-7.9,3.5-7.9,7.9c0,4.3,3.5,7.9,7.9,7.9h31c4.4,0,7.9-3.5,7.9-7.9c0-4.3-3.5-7.9-7.9-7.9H332.5z"/>
</g>
<g>
	<path class="st2" d="M335.9,323.3c0-0.6,0.1-1.1,0.3-1.4c0.2-0.3,0.6-0.5,1.1-0.5c0.5,0,0.9,0.2,1.1,0.5c0.2,0.3,0.3,0.8,0.3,1.4
		c0,0.6-0.1,1.1-0.3,1.4c-0.2,0.3-0.6,0.5-1.1,0.5c-0.5,0-0.9-0.2-1.1-0.5C336,324.4,335.9,323.9,335.9,323.3z M338.1,323.3
		c0-0.3,0-0.5-0.1-0.7c0-0.2-0.1-0.4-0.2-0.5c-0.1-0.1-0.3-0.2-0.5-0.2s-0.4,0.1-0.5,0.2c-0.1,0.1-0.2,0.3-0.2,0.5
		c0,0.2-0.1,0.4-0.1,0.7c0,0.3,0,0.5,0.1,0.7c0,0.2,0.1,0.4,0.2,0.5c0.1,0.1,0.3,0.2,0.5,0.2s0.4-0.1,0.5-0.2
		c0.1-0.1,0.2-0.3,0.2-0.5C338.1,323.8,338.1,323.6,338.1,323.3z M340.1,324.2c0,0.2,0.1,0.3,0.2,0.4c0.1,0.1,0.3,0.1,0.5,0.1
		c0.3,0,0.4-0.1,0.6-0.3c0.1-0.2,0.2-0.5,0.2-1c-0.1,0.1-0.2,0.2-0.4,0.3c-0.1,0.1-0.3,0.1-0.5,0.1c-0.2,0-0.4,0-0.6-0.1
		c-0.2-0.1-0.3-0.2-0.4-0.4c-0.1-0.2-0.2-0.4-0.2-0.7c0-0.4,0.1-0.7,0.3-0.9c0.2-0.2,0.5-0.3,0.9-0.3c0.5,0,0.8,0.2,1,0.5
		c0.2,0.3,0.3,0.8,0.3,1.5c0,0.5,0,0.8-0.1,1.1c-0.1,0.3-0.2,0.5-0.4,0.7c-0.2,0.1-0.4,0.2-0.8,0.2c-0.4,0-0.7-0.1-0.9-0.3
		c-0.2-0.2-0.3-0.4-0.3-0.7L340.1,324.2L340.1,324.2z M340.7,323.3c0.2,0,0.4-0.1,0.5-0.2c0.1-0.1,0.2-0.3,0.2-0.5
		c0-0.2-0.1-0.4-0.2-0.6c-0.1-0.1-0.3-0.2-0.5-0.2c-0.2,0-0.4,0.1-0.5,0.2c-0.1,0.1-0.2,0.3-0.2,0.5c0,0.2,0.1,0.4,0.2,0.5
		C340.3,323.2,340.5,323.3,340.7,323.3z M343,325.3c-0.1,0-0.2,0-0.3-0.1c-0.1-0.1-0.1-0.2-0.1-0.3c0-0.1,0-0.2,0.1-0.3
		s0.2-0.1,0.3-0.1c0.1,0,0.2,0,0.3,0.1c0.1,0.1,0.1,0.2,0.1,0.3c0,0.1,0,0.2-0.1,0.3C343.2,325.2,343.1,325.3,343,325.3z M343,323.1
		c-0.1,0-0.2,0-0.3-0.1c-0.1-0.1-0.1-0.2-0.1-0.3c0-0.1,0-0.2,0.1-0.3s0.2-0.1,0.3-0.1c0.1,0,0.2,0,0.3,0.1c0.1,0.1,0.1,0.2,0.1,0.3
		c0,0.1,0,0.2-0.1,0.3C343.2,323,343.1,323.1,343,323.1z M344,323.3c0-0.6,0.1-1.1,0.3-1.4c0.2-0.3,0.6-0.5,1.1-0.5s0.9,0.2,1.1,0.5
		c0.2,0.3,0.3,0.8,0.3,1.4c0,0.6-0.1,1.1-0.3,1.4c-0.2,0.3-0.6,0.5-1.1,0.5s-0.9-0.2-1.1-0.5C344.1,324.4,344,323.9,344,323.3z
		 M346.1,323.3c0-0.3,0-0.5-0.1-0.7c0-0.2-0.1-0.4-0.2-0.5c-0.1-0.1-0.3-0.2-0.5-0.2c-0.2,0-0.4,0.1-0.5,0.2
		c-0.1,0.1-0.2,0.3-0.2,0.5c0,0.2-0.1,0.4-0.1,0.7c0,0.3,0,0.5,0.1,0.7c0,0.2,0.1,0.4,0.2,0.5c0.1,0.1,0.3,0.2,0.5,0.2
		c0.2,0,0.4-0.1,0.5-0.2c0.1-0.1,0.2-0.3,0.2-0.5C346.1,323.8,346.1,323.6,346.1,323.3z M347.3,323.3c0-0.6,0.1-1.1,0.3-1.4
		c0.2-0.3,0.6-0.5,1.1-0.5c0.5,0,0.9,0.2,1.1,0.5c0.2,0.3,0.3,0.8,0.3,1.4c0,0.6-0.1,1.1-0.3,1.4c-0.2,0.3-0.6,0.5-1.1,0.5
		s-0.9-0.2-1.1-0.5S347.3,323.9,347.3,323.3z M349.5,323.3c0-0.3,0-0.5-0.1-0.7c0-0.2-0.1-0.4-0.2-0.5c-0.1-0.1-0.3-0.2-0.5-0.2
		c-0.2,0-0.4,0.1-0.5,0.2c-0.1,0.1-0.2,0.3-0.2,0.5c0,0.2-0.1,0.4-0.1,0.7c0,0.3,0,0.5,0.1,0.7c0,0.2,0.1,0.4,0.2,0.5
		c0.1,0.1,0.3,0.2,0.5,0.2c0.2,0,0.4-0.1,0.5-0.2c0.1-0.1,0.2-0.3,0.2-0.5C349.5,323.8,349.5,323.6,349.5,323.3z M354.4,324.5h-1.5
		l-0.3,0.8h-0.6l1.3-3.7h0.7l1.3,3.7h-0.6L354.4,324.5z M354.2,324l-0.6-1.7L353,324H354.2z M359.7,321.6v3.7h-0.6v-2.5l-1.1,2.5
		h-0.4l-1.1-2.5v2.5h-0.6v-3.7h0.6l1.3,2.9l1.3-2.9H359.7z"/>
</g>
<g>
	<path class="st2" d="M253.6,356.8h-31c-4.7,0-8.4-3.8-8.4-8.4s3.8-8.4,8.4-8.4h31c4.7,0,8.4,3.8,8.4,8.4
		C262.1,353,258.3,356.8,253.6,356.8z M222.7,340.5c-4.4,0-7.9,3.5-7.9,7.9s3.5,7.9,7.9,7.9h31c4.4,0,7.9-3.5,7.9-7.9
		c0-4.4-3.5-7.9-7.9-7.9L222.7,340.5L222.7,340.5z"/>
</g>
<g>
	<path class="st2" d="M227,347.2v-0.6h1.1v3.8h-0.6v-3.3H227z M228.9,348.5c0-0.6,0.1-1.1,0.3-1.4c0.2-0.3,0.6-0.5,1.1-0.5
		s0.9,0.2,1.1,0.5c0.2,0.3,0.3,0.8,0.3,1.4c0,0.6-0.1,1.1-0.3,1.4c-0.2,0.3-0.6,0.5-1.1,0.5s-0.9-0.2-1.1-0.5
		C229,349.6,228.9,349.1,228.9,348.5z M231.1,348.5c0-0.3,0-0.5-0.1-0.7c0-0.2-0.1-0.4-0.2-0.5c-0.1-0.1-0.3-0.2-0.5-0.2
		c-0.2,0-0.4,0.1-0.5,0.2c-0.1,0.1-0.2,0.3-0.2,0.5c0,0.2-0.1,0.4-0.1,0.7c0,0.3,0,0.5,0.1,0.7c0,0.2,0.1,0.4,0.2,0.5
		c0.1,0.1,0.3,0.2,0.5,0.2c0.2,0,0.4-0.1,0.5-0.2c0.1-0.1,0.2-0.3,0.2-0.5C231.1,349,231.1,348.8,231.1,348.5z M232.6,350.5
		c-0.1,0-0.2,0-0.3-0.1c-0.1-0.1-0.1-0.2-0.1-0.3s0-0.2,0.1-0.3c0.1-0.1,0.2-0.1,0.3-0.1c0.1,0,0.2,0,0.3,0.1
		c0.1,0.1,0.1,0.2,0.1,0.3s0,0.2-0.1,0.3C232.8,350.5,232.7,350.5,232.6,350.5z M232.6,348.3c-0.1,0-0.2,0-0.3-0.1
		c-0.1-0.1-0.1-0.2-0.1-0.3c0-0.1,0-0.2,0.1-0.3c0.1-0.1,0.2-0.1,0.3-0.1c0.1,0,0.2,0,0.3,0.1c0.1,0.1,0.1,0.2,0.1,0.3
		c0,0.1,0,0.2-0.1,0.3C232.8,348.3,232.7,348.3,232.6,348.3z M233.6,348.5c0-0.6,0.1-1.1,0.3-1.4c0.2-0.3,0.6-0.5,1.1-0.5
		c0.5,0,0.9,0.2,1.1,0.5c0.2,0.3,0.3,0.8,0.3,1.4c0,0.6-0.1,1.1-0.3,1.4c-0.2,0.3-0.6,0.5-1.1,0.5c-0.5,0-0.9-0.2-1.1-0.5
		C233.7,349.6,233.6,349.1,233.6,348.5z M235.8,348.5c0-0.3,0-0.5-0.1-0.7c0-0.2-0.1-0.4-0.2-0.5c-0.1-0.1-0.3-0.2-0.5-0.2
		c-0.2,0-0.4,0.1-0.5,0.2c-0.1,0.1-0.2,0.3-0.2,0.5c0,0.2-0.1,0.4-0.1,0.7c0,0.3,0,0.5,0.1,0.7c0,0.2,0.1,0.4,0.2,0.5
		c0.1,0.1,0.3,0.2,0.5,0.2c0.2,0,0.4-0.1,0.5-0.2c0.1-0.1,0.2-0.3,0.2-0.5C235.8,349,235.8,348.8,235.8,348.5z M237,348.5
		c0-0.6,0.1-1.1,0.3-1.4c0.2-0.3,0.6-0.5,1.1-0.5s0.9,0.2,1.1,0.5c0.2,0.3,0.3,0.8,0.3,1.4c0,0.6-0.1,1.1-0.3,1.4
		c-0.2,0.3-0.6,0.5-1.1,0.5s-0.9-0.2-1.1-0.5C237.1,349.6,237,349.1,237,348.5z M239.1,348.5c0-0.3,0-0.5-0.1-0.7
		c0-0.2-0.1-0.4-0.2-0.5c-0.1-0.1-0.3-0.2-0.5-0.2c-0.2,0-0.4,0.1-0.5,0.2c-0.1,0.1-0.2,0.3-0.2,0.5c0,0.2-0.1,0.4-0.1,0.7
		c0,0.3,0,0.5,0.1,0.7c0,0.2,0.1,0.4,0.2,0.5c0.1,0.1,0.3,0.2,0.5,0.2c0.2,0,0.4-0.1,0.5-0.2c0.1-0.1,0.2-0.3,0.2-0.5
		C239.1,349,239.1,348.8,239.1,348.5z M244,349.7h-1.5l-0.3,0.8h-0.6l1.3-3.7h0.7l1.3,3.7h-0.6L244,349.7z M243.9,349.2l-0.6-1.7
		l-0.6,1.7H243.9z M249.4,346.8v3.7h-0.6V348l-1.1,2.5h-0.4l-1.1-2.5v2.5h-0.6v-3.7h0.6l1.3,2.9l1.3-2.9H249.4z"/>
</g>
<g>
	<path class="st2" d="M275.1,338.9h35.9c5.2,0,9.5,4.3,9.5,9.5s-4.2,9.5-9.5,9.5h-35.9c-5.2,0-9.5-4.3-9.5-9.5
		S269.9,338.9,275.1,338.9z"/>
</g>
<g>
	<path class="st1" d="M279.6,346.1v-0.8h1.6v5.5h-0.9v-4.7H279.6z M282.3,346.1v-0.8h1.6v5.5H283v-4.7H282.3z M285.4,350.9
		c-0.2,0-0.3-0.1-0.4-0.2c-0.1-0.1-0.2-0.2-0.2-0.4s0.1-0.3,0.2-0.4c0.1-0.1,0.2-0.2,0.4-0.2c0.1,0,0.3,0.1,0.4,0.2
		c0.1,0.1,0.2,0.2,0.2,0.4s-0.1,0.3-0.2,0.4C285.7,350.8,285.6,350.9,285.4,350.9z M285.4,347.7c-0.2,0-0.3-0.1-0.4-0.2
		c-0.1-0.1-0.2-0.2-0.2-0.4c0-0.2,0.1-0.3,0.2-0.4c0.1-0.1,0.2-0.2,0.4-0.2c0.1,0,0.3,0.1,0.4,0.2c0.1,0.1,0.2,0.2,0.2,0.4
		s-0.1,0.3-0.2,0.4C285.7,347.7,285.6,347.7,285.4,347.7z M286.8,348c0-0.9,0.1-1.5,0.4-2c0.3-0.5,0.8-0.7,1.5-0.7
		c0.7,0,1.2,0.2,1.5,0.7c0.3,0.5,0.4,1.2,0.4,2c0,0.9-0.1,1.6-0.4,2.1c-0.3,0.5-0.8,0.7-1.5,0.7c-0.7,0-1.2-0.2-1.5-0.7
		C287,349.6,286.8,348.9,286.8,348z M289.9,348c0-0.4,0-0.7-0.1-1c-0.1-0.3-0.2-0.5-0.3-0.7c-0.2-0.2-0.4-0.3-0.7-0.3
		s-0.6,0.1-0.7,0.3c-0.2,0.2-0.3,0.4-0.3,0.7c-0.1,0.3-0.1,0.6-0.1,1c0,0.4,0,0.8,0.1,1.1s0.2,0.5,0.3,0.7c0.2,0.2,0.4,0.3,0.7,0.3
		s0.6-0.1,0.7-0.3c0.2-0.2,0.3-0.4,0.3-0.7C289.9,348.8,289.9,348.4,289.9,348z M291.6,348c0-0.9,0.1-1.5,0.4-2
		c0.3-0.5,0.8-0.7,1.5-0.7c0.7,0,1.2,0.2,1.5,0.7c0.3,0.5,0.4,1.2,0.4,2c0,0.9-0.1,1.6-0.4,2.1c-0.3,0.5-0.8,0.7-1.5,0.7
		c-0.7,0-1.2-0.2-1.5-0.7C291.8,349.6,291.6,348.9,291.6,348z M294.7,348c0-0.4,0-0.7-0.1-1c-0.1-0.3-0.2-0.5-0.3-0.7
		c-0.2-0.2-0.4-0.3-0.7-0.3s-0.6,0.1-0.7,0.3c-0.2,0.2-0.3,0.4-0.3,0.7c-0.1,0.3-0.1,0.6-0.1,1c0,0.4,0,0.8,0.1,1.1s0.2,0.5,0.3,0.7
		c0.2,0.2,0.4,0.3,0.7,0.3c0.3,0,0.6-0.1,0.7-0.3c0.2-0.2,0.3-0.4,0.3-0.7S294.7,348.4,294.7,348z M301.6,349.7h-2.2l-0.4,1.1h-0.9
		l1.9-5.2h1l1.9,5.2H302L301.6,349.7z M301.4,349l-0.8-2.4l-0.9,2.4H301.4z M309.2,345.6v5.2h-0.9v-3.6l-1.6,3.6h-0.6l-1.6-3.6v3.6
		h-0.9v-5.2h0.9l1.8,4.1l1.8-4.1H309.2z"/>
</g>
<g>
	<path class="st2" d="M363.4,356.8h-31c-4.7,0-8.4-3.8-8.4-8.4s3.8-8.4,8.4-8.4h31c4.7,0,8.4,3.8,8.4,8.4
		C371.9,353,368.1,356.8,363.4,356.8z M332.5,340.5c-4.4,0-7.9,3.5-7.9,7.9s3.5,7.9,7.9,7.9h31c4.4,0,7.9-3.5,7.9-7.9
		c0-4.4-3.5-7.9-7.9-7.9L332.5,340.5L332.5,340.5z"/>
</g>
<g>
	<path class="st2" d="M337.2,346.8v-0.6h1.1v3.8h-0.6v-3.3H337.2z M339.5,349.3c0.3-0.3,0.6-0.5,0.8-0.7c0.2-0.2,0.4-0.4,0.5-0.6
		c0.1-0.2,0.2-0.4,0.2-0.6c0-0.2-0.1-0.4-0.2-0.5c-0.1-0.1-0.3-0.2-0.5-0.2c-0.2,0-0.4,0.1-0.5,0.2c-0.1,0.1-0.2,0.3-0.2,0.5h-0.6
		c0-0.4,0.1-0.7,0.4-0.9c0.2-0.2,0.5-0.3,0.9-0.3c0.4,0,0.7,0.1,0.9,0.3c0.2,0.2,0.3,0.5,0.3,0.8c0,0.3-0.1,0.5-0.2,0.7
		c-0.1,0.2-0.3,0.4-0.5,0.6c-0.2,0.2-0.4,0.4-0.7,0.6l-0.2,0.2h1.7v0.5h-2.6v-0.4L339.5,349.3z M342.5,350.1c-0.1,0-0.2,0-0.3-0.1
		s-0.1-0.2-0.1-0.3c0-0.1,0-0.2,0.1-0.3c0.1-0.1,0.2-0.1,0.3-0.1c0.1,0,0.2,0,0.3,0.1c0.1,0.1,0.1,0.2,0.1,0.3c0,0.1,0,0.2-0.1,0.3
		C342.7,350.1,342.6,350.1,342.5,350.1z M342.5,347.9c-0.1,0-0.2,0-0.3-0.1c-0.1-0.1-0.1-0.2-0.1-0.3s0-0.2,0.1-0.3
		c0.1-0.1,0.2-0.1,0.3-0.1c0.1,0,0.2,0,0.3,0.1c0.1,0.1,0.1,0.2,0.1,0.3s0,0.2-0.1,0.3C342.7,347.9,342.6,347.9,342.5,347.9z
		 M343.5,348.1c0-0.6,0.1-1.1,0.3-1.4c0.2-0.3,0.6-0.5,1.1-0.5c0.5,0,0.9,0.2,1.1,0.5c0.2,0.3,0.3,0.8,0.3,1.4
		c0,0.6-0.1,1.1-0.3,1.4c-0.2,0.3-0.6,0.5-1.1,0.5c-0.5,0-0.9-0.2-1.1-0.5C343.6,349.2,343.5,348.7,343.5,348.1z M345.6,348.1
		c0-0.3,0-0.5-0.1-0.7c0-0.2-0.1-0.4-0.2-0.5c-0.1-0.1-0.3-0.2-0.5-0.2s-0.4,0.1-0.5,0.2c-0.1,0.1-0.2,0.3-0.2,0.5
		c0,0.2-0.1,0.4-0.1,0.7c0,0.3,0,0.5,0.1,0.7c0,0.2,0.1,0.4,0.2,0.5c0.1,0.1,0.3,0.2,0.5,0.2s0.4-0.1,0.5-0.2
		c0.1-0.1,0.2-0.3,0.2-0.5C345.6,348.7,345.6,348.4,345.6,348.1z M346.8,348.1c0-0.6,0.1-1.1,0.3-1.4c0.2-0.3,0.6-0.5,1.1-0.5
		c0.5,0,0.9,0.2,1.1,0.5c0.2,0.3,0.3,0.8,0.3,1.4c0,0.6-0.1,1.1-0.3,1.4c-0.2,0.3-0.6,0.5-1.1,0.5s-0.9-0.2-1.1-0.5
		C346.9,349.2,346.8,348.7,346.8,348.1z M349,348.1c0-0.3,0-0.5-0.1-0.7c0-0.2-0.1-0.4-0.2-0.5c-0.1-0.1-0.3-0.2-0.5-0.2
		s-0.4,0.1-0.5,0.2c-0.1,0.1-0.2,0.3-0.2,0.5c0,0.2-0.1,0.4-0.1,0.7c0,0.3,0,0.5,0.1,0.7c0,0.2,0.1,0.4,0.2,0.5
		c0.1,0.1,0.3,0.2,0.5,0.2s0.4-0.1,0.5-0.2c0.1-0.1,0.2-0.3,0.2-0.5C349,348.7,349,348.4,349,348.1z M353.9,349.3h-1.5l-0.3,0.8
		h-0.6l1.3-3.7h0.7l1.3,3.7h-0.6L353.9,349.3z M353.7,348.9l-0.6-1.7l-0.6,1.7H353.7z M359.2,346.4v3.7h-0.6v-2.5l-1.1,2.5h-0.4
		l-1.1-2.5v2.5h-0.6v-3.7h0.6l1.3,2.9l1.3-2.9H359.2z"/>
</g>
<g>
	<path class="st2" d="M253.6,382.2h-31c-4.7,0-8.4-3.8-8.4-8.4c0-4.7,3.8-8.4,8.4-8.4h31c4.7,0,8.4,3.8,8.4,8.4
		C262.1,378.4,258.3,382.2,253.6,382.2z M222.7,365.8c-4.4,0-7.9,3.5-7.9,7.9c0,4.3,3.5,7.9,7.9,7.9h31c4.4,0,7.9-3.5,7.9-7.9
		c0-4.3-3.5-7.9-7.9-7.9H222.7z"/>
</g>
<g>
	<path class="st2" d="M226.8,373.8c0-0.6,0.1-1.1,0.3-1.4c0.2-0.3,0.6-0.5,1.1-0.5s0.9,0.2,1.1,0.5c0.2,0.3,0.3,0.8,0.3,1.4
		c0,0.6-0.1,1.1-0.3,1.4c-0.2,0.3-0.6,0.5-1.1,0.5s-0.9-0.2-1.1-0.5C226.9,374.9,226.8,374.4,226.8,373.8z M228.9,373.8
		c0-0.3,0-0.5-0.1-0.7c0-0.2-0.1-0.4-0.2-0.5c-0.1-0.1-0.3-0.2-0.5-0.2s-0.4,0.1-0.5,0.2c-0.1,0.1-0.2,0.3-0.2,0.5
		c0,0.2-0.1,0.4-0.1,0.7c0,0.3,0,0.5,0.1,0.7c0,0.2,0.1,0.4,0.2,0.5c0.1,0.1,0.3,0.2,0.5,0.2s0.4-0.1,0.5-0.2
		c0.1-0.1,0.2-0.3,0.2-0.5C228.9,374.4,228.9,374.1,228.9,373.8z M230.1,372.5V372h1.1v3.8h-0.6v-3.3H230.1z M232.3,375.8
		c-0.1,0-0.2,0-0.3-0.1c-0.1-0.1-0.1-0.2-0.1-0.3c0-0.1,0-0.2,0.1-0.3c0.1-0.1,0.2-0.1,0.3-0.1s0.2,0,0.3,0.1
		c0.1,0.1,0.1,0.2,0.1,0.3c0,0.1,0,0.2-0.1,0.3C232.5,375.8,232.4,375.8,232.3,375.8z M232.3,373.6c-0.1,0-0.2,0-0.3-0.1
		c-0.1-0.1-0.1-0.2-0.1-0.3c0-0.1,0-0.2,0.1-0.3c0.1-0.1,0.2-0.1,0.3-0.1s0.2,0,0.3,0.1c0.1,0.1,0.1,0.2,0.1,0.3
		c0,0.1,0,0.2-0.1,0.3C232.5,373.6,232.4,373.6,232.3,373.6z M233.3,373.8c0-0.6,0.1-1.1,0.3-1.4c0.2-0.3,0.6-0.5,1.1-0.5
		c0.5,0,0.9,0.2,1.1,0.5c0.2,0.3,0.3,0.8,0.3,1.4c0,0.6-0.1,1.1-0.3,1.4c-0.2,0.3-0.6,0.5-1.1,0.5c-0.5,0-0.9-0.2-1.1-0.5
		C233.4,374.9,233.3,374.4,233.3,373.8z M235.4,373.8c0-0.3,0-0.5-0.1-0.7c0-0.2-0.1-0.4-0.2-0.5c-0.1-0.1-0.3-0.2-0.5-0.2
		c-0.2,0-0.4,0.1-0.5,0.2c-0.1,0.1-0.2,0.3-0.2,0.5c0,0.2-0.1,0.4-0.1,0.7c0,0.3,0,0.5,0.1,0.7c0,0.2,0.1,0.4,0.2,0.5
		c0.1,0.1,0.3,0.2,0.5,0.2c0.2,0,0.4-0.1,0.5-0.2c0.1-0.1,0.2-0.3,0.2-0.5C235.4,374.4,235.4,374.1,235.4,373.8z M236.7,373.8
		c0-0.6,0.1-1.1,0.3-1.4c0.2-0.3,0.6-0.5,1.1-0.5c0.5,0,0.9,0.2,1.1,0.5c0.2,0.3,0.3,0.8,0.3,1.4c0,0.6-0.1,1.1-0.3,1.4
		c-0.2,0.3-0.6,0.5-1.1,0.5c-0.5,0-0.9-0.2-1.1-0.5C236.8,374.9,236.7,374.4,236.7,373.8z M238.8,373.8c0-0.3,0-0.5-0.1-0.7
		c0-0.2-0.1-0.4-0.2-0.5c-0.1-0.1-0.3-0.2-0.5-0.2c-0.2,0-0.4,0.1-0.5,0.2c-0.1,0.1-0.2,0.3-0.2,0.5c0,0.2-0.1,0.4-0.1,0.7
		c0,0.3,0,0.5,0.1,0.7c0,0.2,0.1,0.4,0.2,0.5c0.1,0.1,0.3,0.2,0.5,0.2c0.2,0,0.4-0.1,0.5-0.2c0.1-0.1,0.2-0.3,0.2-0.5
		C238.8,374.4,238.8,374.1,238.8,373.8z M244.1,373.2c0,0.2,0,0.4-0.1,0.5c-0.1,0.2-0.2,0.3-0.4,0.4c-0.2,0.1-0.4,0.2-0.7,0.2h-0.7
		v1.5h-0.6v-3.7h1.3c0.3,0,0.5,0.1,0.7,0.1c0.2,0.1,0.3,0.2,0.4,0.4C244,372.8,244.1,373,244.1,373.2z M242.8,373.8
		c0.2,0,0.4-0.1,0.5-0.2c0.1-0.1,0.2-0.3,0.2-0.4c0-0.4-0.2-0.6-0.7-0.6h-0.7v1.2H242.8z M248.5,372.1v3.7h-0.6v-2.5l-1.1,2.5h-0.4
		l-1.1-2.5v2.5h-0.6v-3.7h0.6l1.3,2.9l1.3-2.9H248.5z"/>
</g>
<g>
	<path class="st2" d="M308.5,382.2h-31c-4.7,0-8.4-3.8-8.4-8.4c0-4.7,3.8-8.4,8.4-8.4h31c4.7,0,8.4,3.8,8.4,8.4
		C317,378.4,313.2,382.2,308.5,382.2z M277.6,365.8c-4.4,0-7.9,3.5-7.9,7.9c0,4.3,3.5,7.9,7.9,7.9h31c4.4,0,7.9-3.5,7.9-7.9
		c0-4.3-3.5-7.9-7.9-7.9H277.6z"/>
</g>
<g>
	<path class="st2" d="M282,373.1c0-0.6,0.1-1.1,0.3-1.4c0.2-0.3,0.6-0.5,1.1-0.5c0.5,0,0.9,0.2,1.1,0.5c0.2,0.3,0.3,0.8,0.3,1.4
		c0,0.6-0.1,1.1-0.3,1.4c-0.2,0.3-0.6,0.5-1.1,0.5s-0.9-0.2-1.1-0.5C282.1,374.2,282,373.8,282,373.1z M284.1,373.1
		c0-0.3,0-0.5-0.1-0.7c0-0.2-0.1-0.4-0.2-0.5c-0.1-0.1-0.3-0.2-0.5-0.2s-0.4,0.1-0.5,0.2c-0.1,0.1-0.2,0.3-0.2,0.5
		c0,0.2-0.1,0.4-0.1,0.7c0,0.3,0,0.5,0.1,0.7c0,0.2,0.1,0.4,0.2,0.5c0.1,0.1,0.3,0.2,0.5,0.2s0.4-0.1,0.5-0.2
		c0.1-0.1,0.2-0.3,0.2-0.5C284.1,373.7,284.1,373.4,284.1,373.1z M285.7,374.3c0.3-0.3,0.6-0.5,0.8-0.7c0.2-0.2,0.4-0.4,0.5-0.6
		c0.1-0.2,0.2-0.4,0.2-0.6c0-0.2-0.1-0.4-0.2-0.5c-0.1-0.1-0.3-0.2-0.5-0.2c-0.2,0-0.4,0.1-0.5,0.2c-0.1,0.1-0.2,0.3-0.2,0.5h-0.6
		c0-0.4,0.1-0.7,0.4-0.9c0.2-0.2,0.5-0.3,0.9-0.3c0.4,0,0.7,0.1,0.9,0.3c0.2,0.2,0.3,0.5,0.3,0.8c0,0.3-0.1,0.5-0.2,0.7
		c-0.1,0.2-0.3,0.4-0.5,0.6c-0.2,0.2-0.4,0.4-0.7,0.6l-0.2,0.2h1.7v0.5h-2.6v-0.4L285.7,374.3z M288.7,375.2c-0.1,0-0.2,0-0.3-0.1
		c-0.1-0.1-0.1-0.2-0.1-0.3s0-0.2,0.1-0.3s0.2-0.1,0.3-0.1c0.1,0,0.2,0,0.3,0.1c0.1,0.1,0.1,0.2,0.1,0.3s0,0.2-0.1,0.3
		C288.9,375.1,288.8,375.2,288.7,375.2z M288.7,372.9c-0.1,0-0.2,0-0.3-0.1c-0.1-0.1-0.1-0.2-0.1-0.3c0-0.1,0-0.2,0.1-0.3
		s0.2-0.1,0.3-0.1c0.1,0,0.2,0,0.3,0.1c0.1,0.1,0.1,0.2,0.1,0.3c0,0.1,0,0.2-0.1,0.3C288.9,372.9,288.8,372.9,288.7,372.9z
		 M289.7,373.1c0-0.6,0.1-1.1,0.3-1.4c0.2-0.3,0.6-0.5,1.1-0.5c0.5,0,0.9,0.2,1.1,0.5c0.2,0.3,0.3,0.8,0.3,1.4
		c0,0.6-0.1,1.1-0.3,1.4c-0.2,0.3-0.6,0.5-1.1,0.5c-0.5,0-0.9-0.2-1.1-0.5C289.8,374.2,289.7,373.8,289.7,373.1z M291.9,373.1
		c0-0.3,0-0.5-0.1-0.7c0-0.2-0.1-0.4-0.2-0.5c-0.1-0.1-0.3-0.2-0.5-0.2s-0.4,0.1-0.5,0.2c-0.1,0.1-0.2,0.3-0.2,0.5
		c0,0.2-0.1,0.4-0.1,0.7c0,0.3,0,0.5,0.1,0.7c0,0.2,0.1,0.4,0.2,0.5c0.1,0.1,0.3,0.2,0.5,0.2s0.4-0.1,0.5-0.2
		c0.1-0.1,0.2-0.3,0.2-0.5C291.8,373.7,291.9,373.4,291.9,373.1z M293.1,373.1c0-0.6,0.1-1.1,0.3-1.4c0.2-0.3,0.6-0.5,1.1-0.5
		s0.9,0.2,1.1,0.5c0.2,0.3,0.3,0.8,0.3,1.4c0,0.6-0.1,1.1-0.3,1.4c-0.2,0.3-0.6,0.5-1.1,0.5s-0.9-0.2-1.1-0.5
		C293.2,374.2,293.1,373.8,293.1,373.1z M295.2,373.1c0-0.3,0-0.5-0.1-0.7c0-0.2-0.1-0.4-0.2-0.5c-0.1-0.1-0.3-0.2-0.5-0.2
		s-0.4,0.1-0.5,0.2c-0.1,0.1-0.2,0.3-0.2,0.5c0,0.2-0.1,0.4-0.1,0.7c0,0.3,0,0.5,0.1,0.7c0,0.2,0.1,0.4,0.2,0.5
		c0.1,0.1,0.3,0.2,0.5,0.2s0.4-0.1,0.5-0.2c0.1-0.1,0.2-0.3,0.2-0.5C295.2,373.7,295.2,373.4,295.2,373.1z M300.5,372.5
		c0,0.2,0,0.4-0.1,0.5c-0.1,0.2-0.2,0.3-0.4,0.4c-0.2,0.1-0.4,0.2-0.7,0.2h-0.7v1.5h-0.6v-3.7h1.3c0.3,0,0.5,0.1,0.7,0.1
		c0.2,0.1,0.3,0.2,0.4,0.4C300.4,372.2,300.5,372.3,300.5,372.5z M299.2,373.1c0.2,0,0.4-0.1,0.5-0.2s0.2-0.3,0.2-0.4
		c0-0.4-0.2-0.6-0.7-0.6h-0.7v1.2H299.2z M304.9,371.4v3.7h-0.6v-2.5l-1.1,2.5h-0.4l-1.1-2.5v2.5h-0.6v-3.7h0.6l1.3,2.9l1.3-2.9
		H304.9z"/>
</g>
<g>
	<path class="st5" d="M363.4,382.2h-31c-4.7,0-8.4-3.8-8.4-8.4c0-4.7,3.8-8.4,8.4-8.4h31c4.7,0,8.4,3.8,8.4,8.4
		C371.9,378.4,368.1,382.2,363.4,382.2z M332.5,365.8c-4.4,0-7.9,3.5-7.9,7.9c0,4.3,3.5,7.9,7.9,7.9h31c4.4,0,7.9-3.5,7.9-7.9
		c0-4.3-3.5-7.9-7.9-7.9H332.5z"/>
</g>
<g>
	<path class="st5" d="M337.8,373.8c0-0.6,0.1-1.1,0.3-1.4c0.2-0.3,0.6-0.5,1.1-0.5c0.5,0,0.9,0.2,1.1,0.5c0.2,0.3,0.3,0.8,0.3,1.4
		c0,0.6-0.1,1.1-0.3,1.4c-0.2,0.3-0.6,0.5-1.1,0.5c-0.5,0-0.9-0.2-1.1-0.5C337.9,374.9,337.8,374.4,337.8,373.8z M340,373.8
		c0-0.3,0-0.5-0.1-0.7c0-0.2-0.1-0.4-0.2-0.5c-0.1-0.1-0.3-0.2-0.5-0.2s-0.4,0.1-0.5,0.2c-0.1,0.1-0.2,0.3-0.2,0.5
		c0,0.2-0.1,0.4-0.1,0.7c0,0.3,0,0.5,0.1,0.7c0,0.2,0.1,0.4,0.2,0.5c0.1,0.1,0.3,0.2,0.5,0.2s0.4-0.1,0.5-0.2
		c0.1-0.1,0.2-0.3,0.2-0.5C340,374.4,340,374.1,340,373.8z M341.2,372.9c0-0.3,0.1-0.6,0.4-0.8c0.2-0.2,0.5-0.3,0.9-0.3
		c0.2,0,0.5,0,0.6,0.1c0.2,0.1,0.3,0.2,0.4,0.4s0.1,0.3,0.1,0.5c0,0.2-0.1,0.4-0.2,0.6c-0.1,0.2-0.3,0.3-0.4,0.3v0
		c0.2,0.1,0.4,0.2,0.5,0.3s0.2,0.4,0.2,0.6c0,0.2,0,0.4-0.1,0.6c-0.1,0.2-0.2,0.3-0.4,0.4c-0.2,0.1-0.4,0.1-0.7,0.1
		c-0.4,0-0.7-0.1-0.9-0.3c-0.2-0.2-0.4-0.5-0.4-0.8h0.6c0,0.2,0.1,0.3,0.2,0.5c0.1,0.1,0.3,0.2,0.5,0.2c0.2,0,0.4-0.1,0.5-0.2
		c0.1-0.1,0.2-0.3,0.2-0.5c0-0.2-0.1-0.4-0.2-0.5c-0.2-0.1-0.4-0.2-0.7-0.2h-0.1v-0.5h0.1c0.3,0,0.5-0.1,0.6-0.1
		c0.1-0.1,0.2-0.2,0.2-0.4c0-0.2-0.1-0.3-0.2-0.4c-0.1-0.1-0.3-0.2-0.5-0.2c-0.2,0-0.3,0.1-0.5,0.2c-0.1,0.1-0.2,0.2-0.2,0.4
		L341.2,372.9L341.2,372.9z M344.7,375.8c-0.1,0-0.2,0-0.3-0.1s-0.1-0.2-0.1-0.3c0-0.1,0-0.2,0.1-0.3c0.1-0.1,0.2-0.1,0.3-0.1
		c0.1,0,0.2,0,0.3,0.1c0.1,0.1,0.1,0.2,0.1,0.3c0,0.1,0,0.2-0.1,0.3C344.9,375.8,344.8,375.8,344.7,375.8z M344.7,373.6
		c-0.1,0-0.2,0-0.3-0.1s-0.1-0.2-0.1-0.3c0-0.1,0-0.2,0.1-0.3c0.1-0.1,0.2-0.1,0.3-0.1c0.1,0,0.2,0,0.3,0.1c0.1,0.1,0.1,0.2,0.1,0.3
		c0,0.1,0,0.2-0.1,0.3C344.9,373.6,344.8,373.6,344.7,373.6z M345.7,373.8c0-0.6,0.1-1.1,0.3-1.4c0.2-0.3,0.6-0.5,1.1-0.5
		c0.5,0,0.9,0.2,1.1,0.5c0.2,0.3,0.3,0.8,0.3,1.4c0,0.6-0.1,1.1-0.3,1.4c-0.2,0.3-0.6,0.5-1.1,0.5c-0.5,0-0.9-0.2-1.1-0.5
		C345.8,374.9,345.7,374.4,345.7,373.8z M347.8,373.8c0-0.3,0-0.5-0.1-0.7c0-0.2-0.1-0.4-0.2-0.5c-0.1-0.1-0.3-0.2-0.5-0.2
		s-0.4,0.1-0.5,0.2c-0.1,0.1-0.2,0.3-0.2,0.5c0,0.2-0.1,0.4-0.1,0.7c0,0.3,0,0.5,0.1,0.7c0,0.2,0.1,0.4,0.2,0.5
		c0.1,0.1,0.3,0.2,0.5,0.2s0.4-0.1,0.5-0.2c0.1-0.1,0.2-0.3,0.2-0.5C347.8,374.4,347.8,374.1,347.8,373.8z M349,373.8
		c0-0.6,0.1-1.1,0.3-1.4c0.2-0.3,0.6-0.5,1.1-0.5c0.5,0,0.9,0.2,1.1,0.5c0.2,0.3,0.3,0.8,0.3,1.4c0,0.6-0.1,1.1-0.3,1.4
		c-0.2,0.3-0.6,0.5-1.1,0.5s-0.9-0.2-1.1-0.5C349.1,374.9,349,374.4,349,373.8z M351.2,373.8c0-0.3,0-0.5-0.1-0.7
		c0-0.2-0.1-0.4-0.2-0.5c-0.1-0.1-0.3-0.2-0.5-0.2s-0.4,0.1-0.5,0.2c-0.1,0.1-0.2,0.3-0.2,0.5c0,0.2-0.1,0.4-0.1,0.7
		c0,0.3,0,0.5,0.1,0.7c0,0.2,0.1,0.4,0.2,0.5c0.1,0.1,0.3,0.2,0.5,0.2s0.4-0.1,0.5-0.2c0.1-0.1,0.2-0.3,0.2-0.5
		C351.2,374.4,351.2,374.1,351.2,373.8z M356.4,373.2c0,0.2,0,0.4-0.1,0.5c-0.1,0.2-0.2,0.3-0.4,0.4c-0.2,0.1-0.4,0.2-0.7,0.2h-0.7
		v1.5h-0.6v-3.7h1.3c0.3,0,0.5,0.1,0.7,0.1s0.3,0.2,0.4,0.4C356.4,372.8,356.4,373,356.4,373.2z M355.1,373.8c0.2,0,0.4-0.1,0.5-0.2
		c0.1-0.1,0.2-0.3,0.2-0.4c0-0.4-0.2-0.6-0.7-0.6h-0.7v1.2H355.1z M360.9,372.1v3.7h-0.6v-2.5l-1.1,2.5h-0.4l-1.1-2.5v2.5H357v-3.7
		h0.6l1.3,2.9l1.3-2.9H360.9z"/>
</g>
<g>
	<path class="st5" d="M253.6,407h-31c-4.7,0-8.4-3.8-8.4-8.4c0-4.7,3.8-8.4,8.4-8.4h31c4.7,0,8.4,3.8,8.4,8.4
		C262.1,403.2,258.3,407,253.6,407z M222.7,390.7c-4.4,0-7.9,3.5-7.9,7.9c0,4.4,3.5,7.9,7.9,7.9h31c4.4,0,7.9-3.5,7.9-7.9
		c0-4.3-3.5-7.9-7.9-7.9H222.7z"/>
</g>
<g>
	<path class="st5" d="M225.8,398.3c0-0.6,0.1-1.1,0.3-1.4c0.2-0.3,0.6-0.5,1.1-0.5s0.9,0.2,1.1,0.5c0.2,0.3,0.3,0.8,0.3,1.4
		c0,0.6-0.1,1.1-0.3,1.4c-0.2,0.3-0.6,0.5-1.1,0.5s-0.9-0.2-1.1-0.5C225.9,399.4,225.8,398.9,225.8,398.3z M228,398.3
		c0-0.3,0-0.5-0.1-0.7c0-0.2-0.1-0.4-0.2-0.5c-0.1-0.1-0.3-0.2-0.5-0.2c-0.2,0-0.4,0.1-0.5,0.2c-0.1,0.1-0.2,0.3-0.2,0.5
		c0,0.2-0.1,0.4-0.1,0.7c0,0.3,0,0.5,0.1,0.7c0,0.2,0.1,0.4,0.2,0.5c0.1,0.1,0.3,0.2,0.5,0.2c0.2,0,0.4-0.1,0.5-0.2
		c0.1-0.1,0.2-0.3,0.2-0.5C227.9,398.9,228,398.6,228,398.3z M229.1,399.5v-0.5l1.8-2.5h0.7v2.5h0.5v0.5h-0.5v0.8H231v-0.8H229.1z
		 M231.1,397.1l-1.2,1.9h1.2V397.1z M232.9,400.3c-0.1,0-0.2,0-0.3-0.1c-0.1-0.1-0.1-0.2-0.1-0.3c0-0.1,0-0.2,0.1-0.3
		c0.1-0.1,0.2-0.1,0.3-0.1c0.1,0,0.2,0,0.3,0.1c0.1,0.1,0.1,0.2,0.1,0.3c0,0.1,0,0.2-0.1,0.3C233.1,400.3,233,400.3,232.9,400.3z
		 M232.9,398.1c-0.1,0-0.2,0-0.3-0.1c-0.1-0.1-0.1-0.2-0.1-0.3c0-0.1,0-0.2,0.1-0.3c0.1-0.1,0.2-0.1,0.3-0.1c0.1,0,0.2,0,0.3,0.1
		c0.1,0.1,0.1,0.2,0.1,0.3c0,0.1,0,0.2-0.1,0.3C233.1,398.1,233,398.1,232.9,398.1z M233.9,398.3c0-0.6,0.1-1.1,0.3-1.4
		c0.2-0.3,0.6-0.5,1.1-0.5c0.5,0,0.9,0.2,1.1,0.5c0.2,0.3,0.3,0.8,0.3,1.4c0,0.6-0.1,1.1-0.3,1.4c-0.2,0.3-0.6,0.5-1.1,0.5
		c-0.5,0-0.9-0.2-1.1-0.5C234,399.4,233.9,398.9,233.9,398.3z M236,398.3c0-0.3,0-0.5-0.1-0.7c0-0.2-0.1-0.4-0.2-0.5
		c-0.1-0.1-0.3-0.2-0.5-0.2c-0.2,0-0.4,0.1-0.5,0.2c-0.1,0.1-0.2,0.3-0.2,0.5c0,0.2-0.1,0.4-0.1,0.7c0,0.3,0,0.5,0.1,0.7
		c0,0.2,0.1,0.4,0.2,0.5c0.1,0.1,0.3,0.2,0.5,0.2c0.2,0,0.4-0.1,0.5-0.2c0.1-0.1,0.2-0.3,0.2-0.5C236,398.9,236,398.6,236,398.3z
		 M237.3,398.3c0-0.6,0.1-1.1,0.3-1.4c0.2-0.3,0.6-0.5,1.1-0.5c0.5,0,0.9,0.2,1.1,0.5c0.2,0.3,0.3,0.8,0.3,1.4
		c0,0.6-0.1,1.1-0.3,1.4c-0.2,0.3-0.6,0.5-1.1,0.5c-0.5,0-0.9-0.2-1.1-0.5C237.4,399.4,237.3,398.9,237.3,398.3z M239.4,398.3
		c0-0.3,0-0.5-0.1-0.7c0-0.2-0.1-0.4-0.2-0.5c-0.1-0.1-0.3-0.2-0.5-0.2c-0.2,0-0.4,0.1-0.5,0.2c-0.1,0.1-0.2,0.3-0.2,0.5
		c0,0.2-0.1,0.4-0.1,0.7c0,0.3,0,0.5,0.1,0.7c0,0.2,0.1,0.4,0.2,0.5c0.1,0.1,0.3,0.2,0.5,0.2c0.2,0,0.4-0.1,0.5-0.2
		c0.1-0.1,0.2-0.3,0.2-0.5C239.4,398.9,239.4,398.6,239.4,398.3z M244.7,397.7c0,0.2,0,0.4-0.1,0.5c-0.1,0.2-0.2,0.3-0.4,0.4
		c-0.2,0.1-0.4,0.2-0.7,0.2h-0.7v1.5h-0.6v-3.7h1.3c0.3,0,0.5,0.1,0.7,0.1c0.2,0.1,0.3,0.2,0.4,0.4
		C244.6,397.3,244.7,397.5,244.7,397.7z M243.4,398.3c0.2,0,0.4-0.1,0.5-0.2s0.2-0.3,0.2-0.4c0-0.4-0.2-0.6-0.7-0.6h-0.7v1.2H243.4z
		 M249.1,396.6v3.7h-0.6v-2.5l-1.1,2.5H247l-1.1-2.5v2.5h-0.6v-3.7h0.6l1.3,2.9l1.3-2.9H249.1z"/>
</g>
<g>
	<path class="st2" d="M308.5,407h-31c-4.7,0-8.4-3.8-8.4-8.4c0-4.7,3.8-8.4,8.4-8.4h31c4.7,0,8.4,3.8,8.4,8.4
		C317,403.2,313.2,407,308.5,407z M277.6,390.7c-4.4,0-7.9,3.5-7.9,7.9c0,4.4,3.5,7.9,7.9,7.9h31c4.4,0,7.9-3.5,7.9-7.9
		c0-4.3-3.5-7.9-7.9-7.9H277.6z"/>
</g>
<g>
	<path class="st2" d="M281.8,398.3c0-0.6,0.1-1.1,0.3-1.4c0.2-0.3,0.6-0.5,1.1-0.5c0.5,0,0.9,0.2,1.1,0.5c0.2,0.3,0.3,0.8,0.3,1.4
		c0,0.6-0.1,1.1-0.3,1.4c-0.2,0.3-0.6,0.5-1.1,0.5c-0.5,0-0.9-0.2-1.1-0.5C281.9,399.4,281.8,398.9,281.8,398.3z M283.9,398.3
		c0-0.3,0-0.5-0.1-0.7c0-0.2-0.1-0.4-0.2-0.5c-0.1-0.1-0.3-0.2-0.5-0.2c-0.2,0-0.4,0.1-0.5,0.2c-0.1,0.1-0.2,0.3-0.2,0.5
		c0,0.2-0.1,0.4-0.1,0.7c0,0.3,0,0.5,0.1,0.7c0,0.2,0.1,0.4,0.2,0.5c0.1,0.1,0.3,0.2,0.5,0.2c0.2,0,0.4-0.1,0.5-0.2
		c0.1-0.1,0.2-0.3,0.2-0.5C283.9,398.9,283.9,398.6,283.9,398.3z M287.6,397h-1.8v1c0.1-0.1,0.2-0.2,0.3-0.2
		c0.1-0.1,0.3-0.1,0.5-0.1c0.3,0,0.5,0.1,0.7,0.2c0.2,0.1,0.3,0.3,0.4,0.5s0.1,0.4,0.1,0.6c0,0.3-0.1,0.5-0.2,0.7
		c-0.1,0.2-0.2,0.4-0.4,0.5c-0.2,0.1-0.4,0.2-0.7,0.2c-0.4,0-0.7-0.1-0.9-0.3c-0.2-0.2-0.4-0.4-0.4-0.8h0.6c0,0.2,0.1,0.3,0.3,0.4
		c0.1,0.1,0.3,0.1,0.5,0.1c0.3,0,0.4-0.1,0.6-0.2c0.1-0.1,0.2-0.3,0.2-0.6s-0.1-0.4-0.2-0.6c-0.1-0.1-0.3-0.2-0.6-0.2
		c-0.2,0-0.3,0-0.4,0.1c-0.1,0.1-0.2,0.2-0.3,0.3h-0.6v-2.2h2.3L287.6,397L287.6,397z M288.8,400.3c-0.1,0-0.2,0-0.3-0.1
		c-0.1-0.1-0.1-0.2-0.1-0.3c0-0.1,0-0.2,0.1-0.3s0.2-0.1,0.3-0.1c0.1,0,0.2,0,0.3,0.1c0.1,0.1,0.1,0.2,0.1,0.3c0,0.1,0,0.2-0.1,0.3
		C289,400.3,288.9,400.3,288.8,400.3z M288.8,398.1c-0.1,0-0.2,0-0.3-0.1c-0.1-0.1-0.1-0.2-0.1-0.3c0-0.1,0-0.2,0.1-0.3
		s0.2-0.1,0.3-0.1c0.1,0,0.2,0,0.3,0.1c0.1,0.1,0.1,0.2,0.1,0.3c0,0.1,0,0.2-0.1,0.3C289,398.1,288.9,398.1,288.8,398.1z
		 M289.8,398.3c0-0.6,0.1-1.1,0.3-1.4c0.2-0.3,0.6-0.5,1.1-0.5c0.5,0,0.9,0.2,1.1,0.5c0.2,0.3,0.3,0.8,0.3,1.4
		c0,0.6-0.1,1.1-0.3,1.4c-0.2,0.3-0.6,0.5-1.1,0.5s-0.9-0.2-1.1-0.5C289.9,399.4,289.8,398.9,289.8,398.3z M292,398.3
		c0-0.3,0-0.5-0.1-0.7c0-0.2-0.1-0.4-0.2-0.5c-0.1-0.1-0.3-0.2-0.5-0.2s-0.4,0.1-0.5,0.2c-0.1,0.1-0.2,0.3-0.2,0.5
		c0,0.2-0.1,0.4-0.1,0.7c0,0.3,0,0.5,0.1,0.7c0,0.2,0.1,0.4,0.2,0.5c0.1,0.1,0.3,0.2,0.5,0.2s0.4-0.1,0.5-0.2
		c0.1-0.1,0.2-0.3,0.2-0.5C291.9,398.9,292,398.6,292,398.3z M293.2,398.3c0-0.6,0.1-1.1,0.3-1.4c0.2-0.3,0.6-0.5,1.1-0.5
		c0.5,0,0.9,0.2,1.1,0.5c0.2,0.3,0.3,0.8,0.3,1.4c0,0.6-0.1,1.1-0.3,1.4c-0.2,0.3-0.6,0.5-1.1,0.5c-0.5,0-0.9-0.2-1.1-0.5
		C293.3,399.4,293.2,398.9,293.2,398.3z M295.3,398.3c0-0.3,0-0.5-0.1-0.7c0-0.2-0.1-0.4-0.2-0.5c-0.1-0.1-0.3-0.2-0.5-0.2
		c-0.2,0-0.4,0.1-0.5,0.2c-0.1,0.1-0.2,0.3-0.2,0.5c0,0.2-0.1,0.4-0.1,0.7c0,0.3,0,0.5,0.1,0.7c0,0.2,0.1,0.4,0.2,0.5
		c0.1,0.1,0.3,0.2,0.5,0.2c0.2,0,0.4-0.1,0.5-0.2c0.1-0.1,0.2-0.3,0.2-0.5C295.3,398.9,295.3,398.6,295.3,398.3z M300.6,397.7
		c0,0.2,0,0.4-0.1,0.5c-0.1,0.2-0.2,0.3-0.4,0.4c-0.2,0.1-0.4,0.2-0.7,0.2h-0.7v1.5H298v-3.7h1.3c0.3,0,0.5,0.1,0.7,0.1
		c0.2,0.1,0.3,0.2,0.4,0.4C300.5,397.3,300.6,397.5,300.6,397.7z M299.3,398.3c0.2,0,0.4-0.1,0.5-0.2s0.2-0.3,0.2-0.4
		c0-0.4-0.2-0.6-0.7-0.6h-0.7v1.2H299.3z M305,396.6v3.7h-0.6v-2.5l-1.1,2.5h-0.4l-1.1-2.5v2.5h-0.6v-3.7h0.6l1.3,2.9l1.3-2.9H305z"
		/>
</g>
<g>
	<path class="st2" d="M363.4,407h-31c-4.7,0-8.4-3.8-8.4-8.4c0-4.7,3.8-8.4,8.4-8.4h31c4.7,0,8.4,3.8,8.4,8.4
		C371.9,403.2,368.1,407,363.4,407z M332.5,390.7c-4.4,0-7.9,3.5-7.9,7.9c0,4.4,3.5,7.9,7.9,7.9h31c4.4,0,7.9-3.5,7.9-7.9
		c0-4.3-3.5-7.9-7.9-7.9H332.5z"/>
</g>
<g>
	<path class="st2" d="M337.7,398.7c0-0.6,0.1-1.1,0.3-1.4c0.2-0.3,0.6-0.5,1.1-0.5c0.5,0,0.9,0.2,1.1,0.5c0.2,0.3,0.3,0.8,0.3,1.4
		c0,0.6-0.1,1.1-0.3,1.4c-0.2,0.3-0.6,0.5-1.1,0.5s-0.9-0.2-1.1-0.5C337.8,399.8,337.7,399.3,337.7,398.7z M339.8,398.7
		c0-0.3,0-0.5-0.1-0.7c0-0.2-0.1-0.4-0.2-0.5c-0.1-0.1-0.3-0.2-0.5-0.2c-0.2,0-0.4,0.1-0.5,0.2c-0.1,0.1-0.2,0.3-0.2,0.5
		c0,0.2-0.1,0.4-0.1,0.7c0,0.3,0,0.5,0.1,0.7c0,0.2,0.1,0.4,0.2,0.5c0.1,0.1,0.3,0.2,0.5,0.2c0.2,0,0.4-0.1,0.5-0.2
		c0.1-0.1,0.2-0.3,0.2-0.5C339.8,399.2,339.8,399,339.8,398.7z M343.1,397.7c0-0.2-0.1-0.3-0.2-0.4c-0.1-0.1-0.2-0.1-0.4-0.1
		c-0.3,0-0.5,0.1-0.6,0.3c-0.1,0.2-0.2,0.6-0.2,1.1c0.1-0.2,0.2-0.3,0.4-0.4c0.2-0.1,0.4-0.1,0.6-0.1c0.2,0,0.4,0.1,0.6,0.2
		c0.2,0.1,0.3,0.2,0.4,0.4c0.1,0.2,0.2,0.4,0.2,0.7c0,0.2-0.1,0.5-0.1,0.7c-0.1,0.2-0.2,0.3-0.4,0.5c-0.2,0.1-0.4,0.2-0.7,0.2
		c-0.4,0-0.6-0.1-0.9-0.2c-0.2-0.2-0.3-0.4-0.4-0.7c-0.1-0.3-0.1-0.7-0.1-1.1c0-1.3,0.5-1.9,1.4-1.9c0.3,0,0.6,0.1,0.8,0.3
		c0.2,0.2,0.3,0.4,0.4,0.7L343.1,397.7L343.1,397.7z M342.5,398.6c-0.2,0-0.4,0.1-0.6,0.2c-0.1,0.1-0.2,0.3-0.2,0.6s0.1,0.4,0.2,0.6
		c0.1,0.1,0.3,0.2,0.6,0.2c0.2,0,0.4-0.1,0.5-0.2c0.1-0.1,0.2-0.3,0.2-0.6c0-0.2-0.1-0.4-0.2-0.6
		C342.9,398.7,342.7,398.6,342.5,398.6z M344.8,400.7c-0.1,0-0.2,0-0.3-0.1c-0.1-0.1-0.1-0.2-0.1-0.3c0-0.1,0-0.2,0.1-0.3
		s0.2-0.1,0.3-0.1c0.1,0,0.2,0,0.3,0.1c0.1,0.1,0.1,0.2,0.1,0.3c0,0.1,0,0.2-0.1,0.3C344.9,400.6,344.9,400.7,344.8,400.7z
		 M344.8,398.5c-0.1,0-0.2,0-0.3-0.1c-0.1-0.1-0.1-0.2-0.1-0.3c0-0.1,0-0.2,0.1-0.3s0.2-0.1,0.3-0.1c0.1,0,0.2,0,0.3,0.1
		c0.1,0.1,0.1,0.2,0.1,0.3c0,0.1,0,0.2-0.1,0.3C344.9,398.4,344.9,398.5,344.8,398.5z M345.7,398.7c0-0.6,0.1-1.1,0.3-1.4
		c0.2-0.3,0.6-0.5,1.1-0.5c0.5,0,0.9,0.2,1.1,0.5c0.2,0.3,0.3,0.8,0.3,1.4c0,0.6-0.1,1.1-0.3,1.4c-0.2,0.3-0.6,0.5-1.1,0.5
		s-0.9-0.2-1.1-0.5C345.8,399.8,345.7,399.3,345.7,398.7z M347.9,398.7c0-0.3,0-0.5-0.1-0.7c0-0.2-0.1-0.4-0.2-0.5
		c-0.1-0.1-0.3-0.2-0.5-0.2c-0.2,0-0.4,0.1-0.5,0.2c-0.1,0.1-0.2,0.3-0.2,0.5c0,0.2-0.1,0.4-0.1,0.7c0,0.3,0,0.5,0.1,0.7
		c0,0.2,0.1,0.4,0.2,0.5c0.1,0.1,0.3,0.2,0.5,0.2c0.2,0,0.4-0.1,0.5-0.2c0.1-0.1,0.2-0.3,0.2-0.5C347.9,399.2,347.9,399,347.9,398.7
		z M349.1,398.7c0-0.6,0.1-1.1,0.3-1.4c0.2-0.3,0.6-0.5,1.1-0.5s0.9,0.2,1.1,0.5c0.2,0.3,0.3,0.8,0.3,1.4c0,0.6-0.1,1.1-0.3,1.4
		c-0.2,0.3-0.6,0.5-1.1,0.5s-0.9-0.2-1.1-0.5C349.2,399.8,349.1,399.3,349.1,398.7z M351.3,398.7c0-0.3,0-0.5-0.1-0.7
		c0-0.2-0.1-0.4-0.2-0.5c-0.1-0.1-0.3-0.2-0.5-0.2c-0.2,0-0.4,0.1-0.5,0.2c-0.1,0.1-0.2,0.3-0.2,0.5c0,0.2-0.1,0.4-0.1,0.7
		c0,0.3,0,0.5,0.1,0.7c0,0.2,0.1,0.4,0.2,0.5c0.1,0.1,0.3,0.2,0.5,0.2c0.2,0,0.4-0.1,0.5-0.2c0.1-0.1,0.2-0.3,0.2-0.5
		C351.2,399.2,351.3,399,351.3,398.7z M356.5,398.1c0,0.2,0,0.4-0.1,0.5c-0.1,0.2-0.2,0.3-0.4,0.4c-0.2,0.1-0.4,0.2-0.7,0.2h-0.7
		v1.5h-0.6V397h1.3c0.3,0,0.5,0.1,0.7,0.1c0.2,0.1,0.3,0.2,0.4,0.4S356.5,397.9,356.5,398.1z M355.2,398.7c0.2,0,0.4-0.1,0.5-0.2
		s0.2-0.3,0.2-0.4c0-0.4-0.2-0.6-0.7-0.6h-0.7v1.2H355.2z M360.9,397v3.7h-0.6v-2.5l-1.1,2.5h-0.4l-1.1-2.5v2.5h-0.6V397h0.6
		l1.3,2.9l1.3-2.9H360.9z"/>
</g>
<g>
	<path class="st6" d="M76.4,122.9h1.2l1.9,3.6l1.8-3.6h1.2v5.6h-1v-4l-1.7,3.4h-0.7l-1.8-3.4v4h-1L76.4,122.9L76.4,122.9z"/>
	<path class="st6" d="M88.1,128.5l-0.5-1.2h-2.7l-0.5,1.2h-1.1l2.5-5.6h1.1l2.4,5.6H88.1z M85.2,126.4h2l-1-2.4L85.2,126.4z"/>
	<path class="st6" d="M93.4,128.5l-1-1.7c0,0-0.1,0-0.2,0H91v1.7h-1.1v-5.6h2.3c0.7,0,1.3,0.2,1.7,0.5s0.6,0.8,0.6,1.4
		c0,0.4-0.1,0.8-0.3,1.1c-0.2,0.3-0.5,0.5-0.8,0.7l1.2,1.9L93.4,128.5L93.4,128.5z M91,125.9h1.3c0.4,0,0.7-0.1,0.9-0.3
		c0.2-0.2,0.3-0.4,0.3-0.8s-0.1-0.6-0.3-0.8c-0.2-0.2-0.5-0.3-0.9-0.3H91V125.9z"/>
	<path class="st6" d="M99.5,128.3c-0.3,0.2-0.7,0.3-1,0.3l-0.1,0.4c0.2,0,0.4,0.1,0.5,0.2c0.1,0.1,0.2,0.3,0.2,0.4
		c0,0.2-0.1,0.4-0.3,0.5c-0.2,0.1-0.4,0.2-0.7,0.2c-0.3,0-0.5-0.1-0.8-0.2l0.2-0.6c0.2,0.1,0.3,0.1,0.5,0.1c0.1,0,0.2,0,0.2-0.1
		c0.1,0,0.1-0.1,0.1-0.1c0-0.1,0-0.1-0.1-0.1c-0.1,0-0.2-0.1-0.3-0.1h-0.2l0.2-0.7c-0.5-0.1-0.9-0.2-1.3-0.5c-0.4-0.3-0.7-0.6-0.9-1
		c-0.2-0.4-0.3-0.9-0.3-1.4c0-0.5,0.1-1,0.4-1.5c0.3-0.4,0.6-0.8,1.1-1c0.5-0.3,1-0.4,1.5-0.4c0.4,0,0.8,0.1,1.2,0.2
		c0.4,0.2,0.7,0.4,1,0.7l-0.6,0.8c-0.2-0.2-0.4-0.4-0.7-0.5c-0.3-0.1-0.5-0.2-0.8-0.2c-0.3,0-0.7,0.1-1,0.2
		c-0.3,0.2-0.5,0.4-0.7,0.7c-0.2,0.3-0.2,0.6-0.2,1s0.1,0.7,0.2,1c0.2,0.3,0.4,0.5,0.7,0.7c0.3,0.2,0.6,0.3,1,0.3
		c0.3,0,0.5-0.1,0.8-0.2c0.3-0.1,0.5-0.3,0.7-0.5l0.6,0.7C100.2,127.9,99.9,128.1,99.5,128.3z"/>
	<path class="st6" d="M105.3,123.2c0.5,0.3,0.8,0.6,1.1,1c0.3,0.4,0.4,0.9,0.4,1.5s-0.1,1-0.4,1.5c-0.3,0.4-0.6,0.8-1.1,1
		c-0.5,0.3-1,0.4-1.5,0.4c-0.6,0-1.1-0.1-1.5-0.4c-0.5-0.3-0.8-0.6-1.1-1c-0.3-0.4-0.4-0.9-0.4-1.5c0-0.5,0.1-1,0.4-1.5
		c0.3-0.4,0.6-0.8,1.1-1c0.5-0.3,1-0.4,1.5-0.4C104.3,122.9,104.8,123,105.3,123.2z M102.8,124.1c-0.3,0.2-0.5,0.4-0.7,0.7
		c-0.2,0.3-0.3,0.6-0.3,1s0.1,0.7,0.3,1c0.2,0.3,0.4,0.5,0.7,0.7c0.3,0.2,0.6,0.3,1,0.3c0.3,0,0.6-0.1,0.9-0.3
		c0.3-0.2,0.5-0.4,0.7-0.7c0.2-0.3,0.3-0.6,0.3-1s-0.1-0.7-0.3-1c-0.2-0.3-0.4-0.5-0.7-0.7c-0.3-0.2-0.6-0.3-0.9-0.3
		C103.4,123.8,103.1,123.9,102.8,124.1z"/>
	<path class="st6" d="M113.4,127.6v0.9h-4.2v-0.8l2.1-2.2c0.2-0.2,0.4-0.4,0.5-0.6s0.2-0.4,0.2-0.5c0-0.2-0.1-0.4-0.2-0.5
		c-0.2-0.1-0.4-0.2-0.7-0.2c-0.2,0-0.5,0.1-0.8,0.2c-0.3,0.1-0.5,0.3-0.8,0.5l-0.4-0.8c0.3-0.3,0.7-0.5,1-0.6
		c0.4-0.1,0.7-0.2,1.1-0.2s0.7,0.1,1,0.2c0.3,0.1,0.5,0.3,0.7,0.5c0.2,0.2,0.2,0.5,0.2,0.8c0,0.3-0.1,0.6-0.3,0.9
		c-0.2,0.3-0.4,0.6-0.8,1l-1.4,1.4H113.4z"/>
	<path class="st6" d="M118.3,123.6c0.4,0.5,0.6,1.2,0.6,2.1c0,0.9-0.2,1.6-0.6,2.1c-0.4,0.5-1,0.7-1.8,0.7s-1.4-0.2-1.8-0.7
		c-0.4-0.5-0.6-1.2-0.6-2.1c0-0.9,0.2-1.6,0.6-2.1c0.4-0.5,1-0.7,1.8-0.7S117.9,123.1,118.3,123.6z M115.5,124.2
		c-0.2,0.3-0.3,0.8-0.3,1.5c0,0.7,0.1,1.2,0.3,1.5c0.2,0.3,0.5,0.5,1,0.5s0.8-0.2,1-0.5c0.2-0.3,0.3-0.8,0.3-1.5
		c0-0.7-0.1-1.2-0.3-1.5c-0.2-0.3-0.5-0.5-1-0.5C116.1,123.7,115.7,123.9,115.5,124.2z"/>
	<path class="st6" d="M123.8,127.6v0.9h-4.2v-0.8l2.1-2.2c0.2-0.2,0.4-0.4,0.5-0.6s0.2-0.4,0.2-0.5c0-0.2-0.1-0.4-0.2-0.5
		c-0.2-0.1-0.4-0.2-0.7-0.2c-0.2,0-0.5,0.1-0.8,0.2c-0.3,0.1-0.5,0.3-0.8,0.5l-0.4-0.8c0.3-0.3,0.7-0.5,1-0.6
		c0.4-0.1,0.7-0.2,1.1-0.2c0.4,0,0.7,0.1,1,0.2c0.3,0.1,0.5,0.3,0.7,0.5c0.2,0.2,0.2,0.5,0.2,0.8c0,0.3-0.1,0.6-0.3,0.9
		c-0.2,0.3-0.4,0.6-0.8,1l-1.4,1.4H123.8z"/>
	<path class="st6" d="M128.5,127.6v0.9h-4.2v-0.8l2.1-2.2c0.2-0.2,0.4-0.4,0.5-0.6s0.2-0.4,0.2-0.5c0-0.2-0.1-0.4-0.2-0.5
		c-0.2-0.1-0.4-0.2-0.7-0.2c-0.2,0-0.5,0.1-0.8,0.2c-0.3,0.1-0.5,0.3-0.8,0.5l-0.4-0.8c0.3-0.3,0.7-0.5,1-0.6
		c0.4-0.1,0.7-0.2,1.1-0.2c0.4,0,0.7,0.1,1,0.2c0.3,0.1,0.5,0.3,0.7,0.5c0.2,0.2,0.2,0.5,0.2,0.8c0,0.3-0.1,0.6-0.3,0.9
		c-0.2,0.3-0.4,0.6-0.8,1l-1.4,1.4H128.5z"/>
</g>
<g>
	<path class="st6" d="M79.5,160c0.4,0.3,0.5,0.8,0.5,1.4s-0.2,1-0.5,1.4c-0.3,0.3-0.9,0.5-1.6,0.5h-1.3v-3.8h1.3
		C78.6,159.5,79.1,159.7,79.5,160z M78.8,162.2c0.2-0.2,0.3-0.5,0.3-0.8c0-0.4-0.1-0.7-0.3-0.8c-0.2-0.2-0.5-0.3-0.9-0.3h-0.5v2.3
		H78C78.3,162.5,78.6,162.4,78.8,162.2z"/>
	<path class="st6" d="M83.9,162.7c-0.4,0.4-0.8,0.6-1.4,0.6c-0.6,0-1-0.2-1.4-0.6c-0.4-0.4-0.6-0.8-0.6-1.4s0.2-1,0.6-1.4
		c0.4-0.4,0.8-0.6,1.4-0.6c0.6,0,1,0.2,1.4,0.6c0.4,0.4,0.6,0.8,0.6,1.4C84.4,161.9,84.3,162.4,83.9,162.7z M83.6,161.3
		c0-0.3-0.1-0.6-0.3-0.9c-0.2-0.2-0.5-0.4-0.8-0.4c-0.3,0-0.6,0.1-0.8,0.4c-0.2,0.2-0.3,0.5-0.3,0.9s0.1,0.6,0.3,0.9
		c0.2,0.2,0.5,0.3,0.8,0.3c0.3,0,0.6-0.1,0.8-0.3C83.5,162,83.6,161.7,83.6,161.3z"/>
	<path class="st6" d="M88.5,160.9l-1,2H87l-1-2v2.4h-0.8v-3.8h1.1l1,2.1l1-2.1h1.1v3.8h-0.8V160.9z"/>
</g>
<g>
	<path class="st6" d="M123.5,160.3c-0.1,0.1-0.1,0.2-0.1,0.3c0,0.1,0.1,0.2,0.1,0.3c0.1,0.1,0.3,0.1,0.7,0.2
		c0.4,0.1,0.6,0.2,0.8,0.4c0.2,0.2,0.3,0.4,0.3,0.8s-0.1,0.6-0.4,0.8s-0.6,0.3-1,0.3c-0.6,0-1.1-0.2-1.6-0.7l0.5-0.6
		c0.4,0.4,0.8,0.5,1.1,0.5c0.2,0,0.3,0,0.4-0.1c0.1-0.1,0.1-0.2,0.1-0.3c0-0.1,0-0.2-0.1-0.3c-0.1-0.1-0.3-0.1-0.6-0.2
		c-0.4-0.1-0.8-0.2-1-0.4c-0.2-0.2-0.3-0.4-0.3-0.8c0-0.4,0.1-0.6,0.4-0.8c0.3-0.2,0.6-0.3,1-0.3c0.3,0,0.5,0,0.8,0.1
		c0.3,0.1,0.5,0.2,0.7,0.4l-0.4,0.6c-0.3-0.2-0.7-0.4-1-0.4C123.6,160.2,123.5,160.3,123.5,160.3z"/>
	<path class="st6" d="M128.7,159.6v0.7h-1.9v0.8h1.7v0.7h-1.7v0.8h1.9v0.7H126v-3.8L128.7,159.6L128.7,159.6z"/>
	<path class="st6" d="M132,161.4h0.8v1.3c-0.4,0.4-0.9,0.6-1.5,0.6c-0.6,0-1-0.2-1.4-0.5c-0.4-0.4-0.6-0.8-0.6-1.4
		c0-0.6,0.2-1,0.6-1.4c0.4-0.4,0.8-0.6,1.4-0.6s1,0.2,1.4,0.5l-0.4,0.6c-0.2-0.1-0.3-0.2-0.5-0.3s-0.3-0.1-0.5-0.1
		c-0.3,0-0.6,0.1-0.8,0.3c-0.2,0.2-0.3,0.5-0.3,0.9c0,0.4,0.1,0.6,0.3,0.8c0.2,0.2,0.5,0.3,0.8,0.3c0.3,0,0.5-0.1,0.7-0.2L132,161.4
		L132,161.4z"/>
</g>
<g>
	<path class="st6" d="M164.9,160.2v3h-0.8v-3H163v-0.7h3v0.7H164.9z"/>
	<path class="st6" d="M169.3,159.5v0.7h-1.9v0.8h1.7v0.7h-1.7v0.8h1.9v0.7h-2.8v-3.8L169.3,159.5L169.3,159.5z"/>
	<path class="st6" d="M173.2,160.7c0,0.6-0.2,1-0.7,1.2l1,1.3h-1l-0.8-1.2H171v1.2h-0.8v-3.8h1.4c0.6,0,1,0.1,1.3,0.3
		C173,160,173.2,160.3,173.2,160.7z M172.1,161.2c0.1-0.1,0.2-0.2,0.2-0.4s-0.1-0.3-0.2-0.4c-0.1-0.1-0.3-0.1-0.6-0.1h-0.6v1.1h0.6
		C171.8,161.3,172,161.3,172.1,161.2z"/>
</g>
<g>
	<path class="st2" d="M165.8,230.5h0.5v2.4h-0.5v-0.9h-0.9v0.9h-0.5v-2.4h0.5v1h0.9V230.5z"/>
	<path class="st2" d="M168.8,232.5c-0.2,0.2-0.5,0.4-0.9,0.4s-0.6-0.1-0.9-0.4c-0.2-0.2-0.3-0.5-0.3-0.9s0.1-0.6,0.3-0.9
		s0.5-0.4,0.9-0.4s0.6,0.1,0.9,0.4c0.2,0.2,0.3,0.5,0.3,0.9C169.1,232,169,232.3,168.8,232.5z M168.6,231.7c0-0.2-0.1-0.4-0.2-0.6
		s-0.3-0.2-0.5-0.2s-0.4,0.1-0.5,0.2c-0.1,0.1-0.2,0.3-0.2,0.6s0.1,0.4,0.2,0.5c0.1,0.1,0.3,0.2,0.5,0.2s0.4-0.1,0.5-0.2
		C168.5,232.1,168.6,231.9,168.6,231.7z"/>
	<path class="st2" d="M169.6,230.9v-0.5h1.2v1.6c0,0.3-0.1,0.5-0.2,0.6c-0.1,0.1-0.3,0.2-0.5,0.2c-0.3,0-0.5-0.1-0.7-0.3l0.3-0.4
		c0.1,0.2,0.3,0.2,0.4,0.2c0.1,0,0.1,0,0.2-0.1c0.1-0.1,0.1-0.1,0.1-0.3v-1.1H169.6z"/>
	<path class="st2" d="M173,230.5v0.5h-1.1v0.5h1v0.5h-1v0.5h1.2v0.5h-1.7v-2.4H173z"/>
</g>
<g>
	<path class="st6" d="M204.5,161.3c0,0.4-0.1,0.7-0.3,1s-0.5,0.5-0.8,0.7c0,0.1,0.1,0.1,0.2,0.1s0.1,0.1,0.2,0.1c0.1,0,0.1,0,0.2,0
		c0.1,0,0.1-0.1,0.2-0.1c0.1-0.1,0.2-0.1,0.2-0.2l0.4,0.5c-0.3,0.3-0.7,0.5-1.2,0.5c-0.2,0-0.4-0.1-0.6-0.2
		c-0.2-0.1-0.4-0.3-0.5-0.5c-0.6,0-1-0.2-1.4-0.6c-0.4-0.4-0.6-0.8-0.6-1.4s0.2-1,0.6-1.4c0.4-0.4,0.8-0.6,1.4-0.6
		c0.6,0,1,0.2,1.4,0.6C204.3,160.3,204.5,160.8,204.5,161.3z M203.6,161.3c0-0.3-0.1-0.6-0.3-0.9c-0.2-0.2-0.5-0.4-0.8-0.4
		s-0.6,0.1-0.8,0.4c-0.2,0.2-0.3,0.5-0.3,0.9s0.1,0.6,0.3,0.9c0.2,0.2,0.5,0.3,0.8,0.3s0.6-0.1,0.8-0.3
		C203.5,162,203.6,161.7,203.6,161.3z"/>
	<path class="st6" d="M206.2,162.3c0.1,0.2,0.3,0.3,0.6,0.3s0.4-0.1,0.6-0.3c0.1-0.2,0.2-0.4,0.2-0.7v-2.1h0.8v2.1
		c0,0.5-0.1,1-0.5,1.3c-0.3,0.3-0.7,0.4-1.2,0.4s-0.9-0.1-1.2-0.4c-0.3-0.3-0.5-0.7-0.5-1.3v-2.1h0.8v2.1
		C206,161.9,206.1,162.1,206.2,162.3z"/>
	<path class="st6" d="M211.8,163.2l-0.3-0.8h-1.6l-0.3,0.8h-0.9l1.6-3.8h0.8l1.6,3.8H211.8z M210.7,160.6l-0.5,1.1h0.9L210.7,160.6z
		"/>
</g>
<g>
	<path class="st6" d="M245.8,161.3c0,0.4-0.1,0.7-0.3,1s-0.5,0.5-0.8,0.7c0,0.1,0.1,0.1,0.2,0.1c0.1,0,0.1,0.1,0.2,0.1
		c0.1,0,0.1,0,0.2,0c0.1,0,0.1-0.1,0.2-0.1c0.1-0.1,0.2-0.1,0.2-0.2l0.4,0.5c-0.3,0.3-0.7,0.5-1.2,0.5c-0.2,0-0.4-0.1-0.6-0.2
		s-0.4-0.3-0.5-0.5c-0.6,0-1-0.2-1.4-0.6c-0.4-0.4-0.6-0.8-0.6-1.4s0.2-1,0.6-1.4c0.4-0.4,0.8-0.6,1.4-0.6s1,0.2,1.4,0.6
		C245.6,160.3,245.8,160.8,245.8,161.3z M244.9,161.3c0-0.3-0.1-0.6-0.3-0.9c-0.2-0.2-0.5-0.4-0.8-0.4s-0.6,0.1-0.8,0.4
		c-0.2,0.2-0.3,0.5-0.3,0.9s0.1,0.6,0.3,0.9c0.2,0.2,0.5,0.3,0.8,0.3s0.6-0.1,0.8-0.3S244.9,161.7,244.9,161.3z"/>
	<path class="st6" d="M247.5,162.3c0.1,0.2,0.3,0.3,0.6,0.3c0.2,0,0.4-0.1,0.6-0.3c0.1-0.2,0.2-0.4,0.2-0.7v-2.1h0.8v2.1
		c0,0.5-0.1,1-0.5,1.3c-0.3,0.3-0.7,0.4-1.2,0.4c-0.5,0-0.9-0.1-1.2-0.4c-0.3-0.3-0.5-0.7-0.5-1.3v-2.1h0.8v2.1
		C247.3,161.9,247.4,162.1,247.5,162.3z"/>
	<path class="st6" d="M250.5,159.5h0.8v3.8h-0.8V159.5z"/>
</g>
<g>
	<path class="st6" d="M283.7,160.2c-0.1,0.1-0.1,0.2-0.1,0.3s0.1,0.2,0.1,0.3c0.1,0.1,0.3,0.1,0.7,0.2c0.4,0.1,0.6,0.2,0.8,0.4
		s0.3,0.4,0.3,0.8c0,0.3-0.1,0.6-0.4,0.8c-0.3,0.2-0.6,0.3-1,0.3c-0.6,0-1.1-0.2-1.6-0.7l0.5-0.6c0.4,0.4,0.8,0.5,1.1,0.5
		c0.2,0,0.3,0,0.4-0.1c0.1-0.1,0.1-0.2,0.1-0.3c0-0.1,0-0.2-0.1-0.3s-0.3-0.1-0.6-0.2c-0.4-0.1-0.8-0.2-1-0.4
		c-0.2-0.2-0.3-0.4-0.3-0.8c0-0.4,0.1-0.6,0.4-0.8c0.3-0.2,0.6-0.3,1-0.3c0.3,0,0.5,0,0.8,0.1s0.5,0.2,0.7,0.4l-0.4,0.6
		c-0.3-0.2-0.7-0.4-1-0.4C283.9,160.1,283.8,160.2,283.7,160.2z"/>
	<path class="st6" d="M289,159.5v0.7h-1.9v0.8h1.7v0.7h-1.7v0.8h1.9v0.7h-2.8v-3.8L289,159.5L289,159.5z"/>
	<path class="st6" d="M291.9,159.5h1l-1.2,1.8l1.3,1.9h-1l-0.8-1.2l-0.8,1.2h-1l1.3-1.9l-1.2-1.8h1l0.7,1.1L291.9,159.5z"/>
</g>
<g>
	<path class="st6" d="M314.7,160.2c-0.1,0.1-0.1,0.2-0.1,0.3s0.1,0.2,0.1,0.3c0.1,0.1,0.3,0.1,0.7,0.2c0.4,0.1,0.6,0.2,0.8,0.4
		s0.3,0.4,0.3,0.8c0,0.3-0.1,0.6-0.4,0.8c-0.3,0.2-0.6,0.3-1,0.3c-0.6,0-1.1-0.2-1.6-0.7l0.5-0.6c0.4,0.4,0.8,0.5,1.1,0.5
		c0.2,0,0.3,0,0.4-0.1c0.1-0.1,0.1-0.2,0.1-0.3c0-0.1,0-0.2-0.1-0.3s-0.3-0.1-0.6-0.2c-0.4-0.1-0.8-0.2-1-0.4
		c-0.2-0.2-0.3-0.4-0.3-0.8c0-0.4,0.1-0.6,0.4-0.8c0.3-0.2,0.6-0.3,1-0.3c0.3,0,0.5,0,0.8,0.1s0.5,0.2,0.7,0.4l-0.4,0.6
		c-0.3-0.2-0.7-0.4-1-0.4C314.9,160.1,314.8,160.2,314.7,160.2z"/>
	<path class="st6" d="M319.9,163.2l-0.3-0.8H318l-0.3,0.8h-0.9l1.6-3.8h0.8l1.6,3.8H319.9z M318.8,160.6l-0.5,1.1h0.9L318.8,160.6z"
		/>
	<path class="st6" d="M322.9,163.2h-1.6v-3.8h1.5c0.3,0,0.5,0,0.7,0.1s0.3,0.1,0.4,0.2c0.2,0.2,0.3,0.4,0.3,0.7
		c0,0.3-0.1,0.5-0.3,0.7c-0.1,0.1-0.1,0.1-0.1,0.1c0,0-0.1,0-0.1,0.1c0.2,0.1,0.4,0.2,0.6,0.3c0.1,0.2,0.2,0.4,0.2,0.6
		c0,0.3-0.1,0.5-0.3,0.7C323.7,163.1,323.4,163.2,322.9,163.2z M322.1,161h0.4c0.2,0,0.4,0,0.5-0.1c0.1-0.1,0.2-0.2,0.2-0.3
		s-0.1-0.3-0.2-0.3c-0.1-0.1-0.3-0.1-0.5-0.1h-0.4V161z M322.1,162.5h0.6c0.2,0,0.4,0,0.5-0.1s0.2-0.2,0.2-0.3
		c0-0.2-0.1-0.3-0.2-0.3c-0.1-0.1-0.3-0.1-0.6-0.1h-0.5L322.1,162.5L322.1,162.5z"/>
</g>
</svg>
