<?xml version="1.0" encoding="utf-8"?>
<!-- Generator: Adobe Illustrator 27.1.1, SVG Export Plug-In . SVG Version: 6.00 Build 0)  -->
<svg version="1.1" id="Capa_1" xmlns="http://www.w3.org/2000/svg" xmlns:xlink="http://www.w3.org/1999/xlink" x="0px" y="0px"
	 viewBox="0 0 759.63 717" style="enable-background:new 0 0 759.63 717;" xml:space="preserve">
<style type="text/css">
	.st0{opacity:0.15;}
	.st1{fill:#E0E0E0;}
	.st2{fill:none;}
	.st3{fill:#404041;}
	.st4{fill:#FFFFFF;}
	.st5{fill:#F0F1F5;}
	.st6{fill:#3097E6;}
	.st7{fill:#E7E7E7;}
	.st8{clip-path:url(#SVGID_00000012469643019063829810000013585235956709689770_);}
	.st9{fill:#ED6568;}
	.st10{fill:#53B0E5;}
	.st11{fill:#E7C365;}
	.st12{fill:#7C61AA;}
</style>
<g class="st0">
	<g>
		<path class="st1" d="M374.5,717C176.79,717,16,556.15,16,358.5S176.85,0,374.5,0S733,160.85,733,358.5S572.28,717,374.5,717z
			 M374.5,5.05c-194.85,0-353.37,158.52-353.37,353.38S179.72,711.82,374.5,711.82S727.88,553.3,727.88,358.43
			S569.43,5.05,374.5,5.05z"/>
	</g>
	<g>
		<path class="st1" d="M374.5,645.8c-158.46,0-287.37-128.91-287.37-287.37S216.11,71.06,374.5,71.06s287.44,128.93,287.44,287.37
			C661.94,516.88,533.02,645.8,374.5,645.8z M374.5,76.25c-155.59,0-282.19,126.58-282.19,282.19
			c0,155.6,126.66,282.17,282.19,282.17s282.19-126.58,282.19-282.17S530.17,76.25,374.5,76.25z"/>
	</g>
	<g>
		<path class="st1" d="M374.5,574.61c-119.2,0-216.18-96.97-216.18-216.17c0-119.2,97.04-216.18,216.18-216.18
			s216.18,96.97,216.18,216.18C590.68,477.64,493.77,574.61,374.5,574.61z M374.5,147.44c-55.93,0.08-109.54,22.34-149.08,61.89
			s-61.78,93.17-61.85,149.1c0,116.33,94.66,210.99,210.99,210.99c55.97,0,109.64-22.23,149.22-61.81s61.81-93.25,61.81-149.22
			s-22.23-109.64-61.81-149.22s-93.25-61.81-149.22-61.81L374.5,147.44z"/>
	</g>
	<g>
		<path class="st1" d="M374.5,503.42c-28.68,0-56.72-8.51-80.57-24.44c-23.85-15.94-42.44-38.59-53.41-65.09
			c-10.98-26.5-13.85-55.66-8.25-83.79c5.6-28.13,19.41-53.98,39.69-74.26c20.28-20.28,46.12-34.1,74.26-39.69
			c28.13-5.6,57.29-2.72,83.8,8.25c26.5,10.98,49.15,29.57,65.09,53.42c15.94,23.85,24.44,51.89,24.44,80.57
			c-0.03,38.46-15.32,75.33-42.51,102.52C449.83,488.1,412.95,503.39,374.5,503.42z M374.5,218.64c-27.65,0-54.68,8.2-77.67,23.56
			c-22.99,15.36-40.91,37.19-51.49,62.74c-10.58,25.54-13.35,53.65-7.96,80.77c5.39,27.12,18.71,52.03,38.26,71.58
			c19.55,19.55,44.46,32.87,71.58,38.26c27.12,5.39,55.23,2.63,80.77-7.95c25.55-10.58,47.38-28.5,62.74-51.49
			c15.36-22.99,23.56-50.02,23.56-77.67c-0.04-37.06-14.79-72.6-40.99-98.8C447.1,233.42,411.56,218.68,374.5,218.64z"/>
	</g>
	<g>
		<path class="st1" d="M374.5,432.22c-14.59,0-28.86-4.33-40.99-12.44c-12.13-8.11-21.59-19.63-27.18-33.11
			c-5.58-13.48-7.05-28.32-4.2-42.63c2.85-14.31,9.87-27.46,20.19-37.78s23.47-17.35,37.78-20.19c14.31-2.85,29.15-1.39,42.63,4.2
			c13.48,5.58,25.01,15.04,33.11,27.18c8.11,12.13,12.43,26.4,12.43,40.99c-0.02,19.56-7.8,38.32-21.63,52.15
			C412.82,424.42,394.06,432.2,374.5,432.22z M374.5,289.83c-13.57,0-26.83,4.02-38.12,11.56c-11.28,7.54-20.07,18.25-25.27,30.79
			c-5.19,12.54-6.55,26.33-3.9,39.64s9.18,25.53,18.77,35.13c9.6,9.59,21.82,16.13,35.13,18.78c13.31,2.65,27.1,1.29,39.64-3.9
			c12.54-5.19,23.25-13.99,30.79-25.27c7.54-11.28,11.56-24.55,11.56-38.11c-0.02-18.19-7.26-35.63-20.12-48.49
			S392.69,289.85,374.5,289.83z"/>
	</g>
</g>
<g>
	<rect x="329" y="72" class="st2" width="425" height="213"/>
</g>
<g>
	<g class="st0">
		<g>
			<path class="st3" d="M735.72,76.28H342.36c-7.38,0-13.36,6-13.36,13.41v181.9c0,7.41,5.98,13.41,13.36,13.41h393.36
				c7.38,0,13.36-6,13.36-13.41V89.69C749.09,82.29,743.1,76.28,735.72,76.28z"/>
		</g>
	</g>
	<g>
		<path class="st4" d="M740.64,72H347.28c-7.38,0-13.36,6-13.36,13.41v181.9c0,7.4,5.98,13.41,13.36,13.41h393.36
			c7.38,0,13.36-6,13.36-13.41V85.41C754,78,748.02,72,740.64,72z"/>
	</g>
	<g>
		<path class="st5" d="M732.66,241.41H391.71V117.7h340.95V241.41z M393.25,239.86h337.87V119.25H393.25V239.86z"/>
	</g>
	<g>
		<path class="st5" d="M487.66,118.25h-2.69V239.5h2.69V118.25z"/>
	</g>
	<g>
		<path class="st5" d="M536.27,118.25h-2.69V239.5h2.69V118.25z"/>
	</g>
	<g>
		<path class="st5" d="M586,118.25h-2.69V239.5H586V118.25z"/>
	</g>
	<g>
		<path class="st5" d="M634.87,118.93h-2.69v121.25h2.69V118.93z"/>
	</g>
	<g>
		<path class="st5" d="M683.54,118.93h-2.69v121.25h2.69V118.93z"/>
	</g>
	<g>
		<path class="st5" d="M437.04,118.25h-2.69V239.5h2.69V118.25z"/>
	</g>
	<g>
		<path class="st3" d="M681.94,211.67h-0.02c-0.13-0.01-0.25-0.08-0.31-0.18l-48.42-80.33l-48.3,10.99
			c-0.03,0.01-0.06,0.01-0.08,0.01h-98.34l-50.43,24c-0.11,0.05-0.24,0.05-0.35-0.01l-43.39-24.04c-0.18-0.11-0.25-0.34-0.15-0.53
			c0.1-0.19,0.33-0.25,0.52-0.15l43.21,23.95l50.33-23.96c0.05-0.02,0.11-0.04,0.17-0.04h98.39l48.52-11.04
			c0.16-0.04,0.33,0.04,0.42,0.18l48.27,80.07l50.82-69.06c0.13-0.17,0.36-0.21,0.54-0.08c0.17,0.13,0.21,0.37,0.08,0.54
			l-51.16,69.52C682.19,211.62,682.07,211.67,681.94,211.67L681.94,211.67z"/>
	</g>
	<g>
		<path class="st6" d="M392.48,145.54c2,0,3.62-1.63,3.62-3.63c0-2.01-1.62-3.63-3.62-3.63c-2,0-3.62,1.63-3.62,3.63
			C388.86,143.91,390.48,145.54,392.48,145.54z"/>
	</g>
	<g>
		<path class="st6" d="M541.5,97.73c2,0,3.62-1.63,3.62-3.63s-1.62-3.63-3.62-3.63s-3.62,1.63-3.62,3.63S539.5,97.73,541.5,97.73z"
			/>
	</g>
	<g>
		<path class="st6" d="M435.69,169.24c2,0,3.62-1.63,3.62-3.63c0-2.01-1.62-3.63-3.62-3.63s-3.62,1.63-3.62,3.63
			C432.07,167.61,433.69,169.24,435.69,169.24z"/>
	</g>
	<g>
		<path class="st6" d="M534.93,145.21c2,0,3.62-1.63,3.62-3.63c0-2.01-1.62-3.63-3.62-3.63s-3.62,1.63-3.62,3.63
			C531.31,143.58,532.93,145.21,534.93,145.21z"/>
	</g>
	<g>
		<path class="st6" d="M584.66,145.21c2,0,3.62-1.63,3.62-3.63c0-2.01-1.62-3.63-3.62-3.63s-3.62,1.63-3.62,3.63
			C581.04,143.58,582.66,145.21,584.66,145.21z"/>
	</g>
	<g>
		<path class="st6" d="M633.53,134.35c2,0,3.62-1.63,3.62-3.63c0-2.01-1.62-3.63-3.62-3.63s-3.62,1.63-3.62,3.63
			C629.91,132.72,631.53,134.35,633.53,134.35z"/>
	</g>
	<g>
		<path class="st6" d="M682.19,214.92c2,0,3.62-1.63,3.62-3.63c0-2.01-1.62-3.63-3.62-3.63s-3.62,1.63-3.62,3.63
			C678.57,213.29,680.19,214.92,682.19,214.92z"/>
	</g>
	<g>
		<path class="st6" d="M734.41,142.98c2,0,3.62-1.63,3.62-3.63c0-2.01-1.62-3.63-3.62-3.63s-3.62,1.63-3.62,3.63
			C730.79,141.35,732.41,142.98,734.41,142.98z"/>
	</g>
	<g>
		<path class="st6" d="M486.31,145.21c2,0,3.62-1.63,3.62-3.63c0-2.01-1.62-3.63-3.62-3.63c-2,0-3.62,1.63-3.62,3.63
			C482.69,143.58,484.31,145.21,486.31,145.21z"/>
	</g>
	<g>
		<path class="st6" d="M350.49,118.29h2.11v5.83h-0.93v-4.95h-1.18V118.29z"/>
	</g>
	<g>
		<path class="st6" d="M354.5,123.36c-0.39-0.55-0.59-1.28-0.59-2.2s0.2-1.65,0.59-2.2c0.39-0.55,0.98-0.82,1.78-0.82
			c0.79,0,1.39,0.27,1.78,0.82c0.39,0.55,0.59,1.28,0.59,2.2s-0.2,1.65-0.59,2.2c-0.39,0.55-0.99,0.82-1.78,0.82
			C355.49,124.19,354.89,123.91,354.5,123.36z M355.2,119.59c-0.23,0.4-0.35,0.93-0.35,1.57s0.11,1.18,0.35,1.57
			c0.23,0.4,0.59,0.6,1.08,0.6c0.49,0,0.84-0.2,1.07-0.6c0.22-0.4,0.33-0.92,0.33-1.58c0-0.66-0.11-1.18-0.33-1.58
			c-0.22-0.4-0.58-0.6-1.07-0.6C355.79,119,355.43,119.2,355.2,119.59L355.2,119.59z"/>
	</g>
	<g>
		<path class="st6" d="M360.22,123.36c-0.39-0.55-0.59-1.28-0.59-2.2s0.2-1.65,0.59-2.2c0.39-0.55,0.98-0.82,1.78-0.82
			c0.79,0,1.39,0.27,1.78,0.82c0.39,0.55,0.59,1.28,0.59,2.2s-0.2,1.65-0.59,2.2c-0.39,0.55-0.98,0.82-1.78,0.82
			C361.2,124.19,360.61,123.91,360.22,123.36z M360.92,119.59c-0.23,0.4-0.35,0.93-0.35,1.57s0.11,1.18,0.35,1.57
			c0.23,0.4,0.59,0.6,1.08,0.6c0.49,0,0.84-0.2,1.07-0.6c0.22-0.4,0.34-0.92,0.34-1.58c0-0.66-0.11-1.18-0.34-1.58
			c-0.22-0.4-0.58-0.6-1.07-0.6C361.51,119,361.15,119.2,360.92,119.59L360.92,119.59z"/>
	</g>
	<g>
		<path class="st6" d="M358.49,167.62v0.89h-2.45v1.43c0.24-0.13,0.52-0.2,0.83-0.2c0.54,0,1.01,0.16,1.4,0.49
			c0.39,0.33,0.59,0.77,0.59,1.34c0,0.56-0.2,1.03-0.61,1.4c-0.41,0.37-0.92,0.56-1.51,0.56c-0.78,0-1.4-0.26-1.87-0.78l0.52-0.72
			c0.04,0.05,0.1,0.1,0.18,0.16c0.07,0.06,0.23,0.14,0.46,0.25c0.23,0.1,0.49,0.15,0.77,0.15c0.28,0,0.53-0.08,0.75-0.25
			c0.23-0.17,0.34-0.41,0.34-0.73c0-0.32-0.12-0.57-0.36-0.74c-0.24-0.17-0.55-0.26-0.91-0.26c-0.37,0-0.72,0.09-1.05,0.28
			l-0.42-0.45v-2.8L358.49,167.62L358.49,167.62z"/>
	</g>
	<g>
		<path class="st6" d="M360.34,172.71c-0.39-0.55-0.59-1.28-0.59-2.2c0-0.91,0.2-1.65,0.59-2.2c0.39-0.55,0.99-0.82,1.78-0.82
			c0.79,0,1.39,0.27,1.78,0.82c0.39,0.55,0.59,1.28,0.59,2.2c0,0.92-0.2,1.65-0.59,2.2c-0.39,0.55-0.99,0.82-1.78,0.82
			C361.33,173.53,360.73,173.25,360.34,172.71z M361.04,168.93c-0.23,0.4-0.35,0.93-0.35,1.58c0,0.65,0.12,1.18,0.35,1.57
			c0.23,0.4,0.59,0.6,1.08,0.6c0.49,0,0.84-0.2,1.07-0.59c0.22-0.4,0.33-0.92,0.33-1.58c0-0.66-0.11-1.18-0.33-1.58
			c-0.22-0.4-0.58-0.59-1.07-0.59C361.64,168.34,361.27,168.54,361.04,168.93L361.04,168.93z"/>
	</g>
	<g>
		<path class="st6" d="M362.23,240.08c-0.39-0.55-0.59-1.28-0.59-2.2c0-0.91,0.2-1.65,0.59-2.2c0.39-0.55,0.99-0.82,1.78-0.82
			c0.79,0,1.39,0.27,1.78,0.82c0.39,0.55,0.59,1.28,0.59,2.2c0,0.92-0.2,1.65-0.59,2.2c-0.39,0.55-0.98,0.82-1.78,0.82
			C363.21,240.91,362.62,240.63,362.23,240.08z M362.93,236.31c-0.23,0.4-0.35,0.93-0.35,1.57c0,0.65,0.12,1.18,0.35,1.58
			c0.23,0.4,0.59,0.6,1.08,0.6c0.49,0,0.84-0.2,1.07-0.6c0.22-0.4,0.34-0.92,0.34-1.58c0-0.66-0.11-1.18-0.34-1.58
			c-0.22-0.4-0.58-0.6-1.07-0.6C363.52,235.72,363.16,235.92,362.93,236.31L362.93,236.31z"/>
	</g>
	<g>
		<path class="st6" d="M392.94,249.4h3.37v9.31h-1.49v-7.91h-1.89L392.94,249.4L392.94,249.4z"/>
	</g>
	<g>
		<path class="st6" d="M405.18,247.82h1.33l-5.75,12.36h-1.33L405.18,247.82z"/>
	</g>
	<g>
		<path class="st6" d="M407.24,249.31h3.37v9.31h-1.49v-7.92h-1.89L407.24,249.31L407.24,249.31z"/>
	</g>
	<g>
		<path class="st6" d="M413.64,257.42c-0.63-0.88-0.94-2.05-0.94-3.51c0-1.46,0.32-2.64,0.94-3.51c0.63-0.88,1.57-1.31,2.84-1.31
			s2.21,0.44,2.84,1.31c0.63,0.88,0.94,2.05,0.94,3.51c0,1.46-0.32,2.64-0.94,3.51c-0.63,0.88-1.57,1.31-2.84,1.31
			S414.27,258.29,413.64,257.42z M414.76,251.39c-0.37,0.64-0.55,1.48-0.55,2.52c0,1.04,0.18,1.88,0.55,2.52
			c0.36,0.64,0.94,0.96,1.72,0.96s1.35-0.32,1.7-0.95c0.36-0.63,0.54-1.48,0.54-2.53s-0.18-1.89-0.54-2.52
			c-0.36-0.63-0.93-0.95-1.7-0.95S415.13,250.74,414.76,251.39L414.76,251.39z"/>
	</g>
	<g>
		<path class="st6" d="M614.6,249.37h3.37v9.31h-1.49v-7.92h-1.89L614.6,249.37L614.6,249.37z"/>
	</g>
	<g>
		<path class="st6" d="M625.73,249.35v1.43h-3.92v2.29c0.39-0.21,0.83-0.32,1.33-0.32c0.87,0,1.62,0.26,2.24,0.79
			c0.63,0.53,0.94,1.24,0.94,2.13c0,0.9-0.33,1.64-0.98,2.23c-0.65,0.59-1.46,0.88-2.42,0.88c-1.25,0-2.24-0.42-2.99-1.25l0.83-1.15
			c0.07,0.07,0.17,0.15,0.29,0.26c0.12,0.1,0.37,0.23,0.74,0.39c0.37,0.17,0.78,0.25,1.22,0.25c0.44,0,0.85-0.14,1.21-0.4
			c0.36-0.27,0.55-0.66,0.55-1.17c0-0.51-0.19-0.91-0.58-1.19c-0.38-0.28-0.87-0.42-1.46-0.42s-1.15,0.15-1.68,0.44l-0.66-0.72
			v-4.47L625.73,249.35L625.73,249.35z"/>
	</g>
	<g>
		<path class="st6" d="M632.9,247.88h1.33l-5.75,12.36h-1.33L632.9,247.88z"/>
	</g>
	<g>
		<path class="st6" d="M634.96,249.37h3.37v9.31h-1.49v-7.92h-1.89L634.96,249.37L634.96,249.37z"/>
	</g>
	<g>
		<path class="st6" d="M641.35,257.47c-0.63-0.88-0.94-2.05-0.94-3.51c0-1.46,0.32-2.64,0.94-3.51c0.63-0.88,1.57-1.31,2.84-1.31
			s2.21,0.44,2.84,1.31c0.63,0.88,0.94,2.05,0.94,3.51c0,1.46-0.32,2.64-0.94,3.51c-0.63,0.88-1.57,1.31-2.84,1.31
			S641.98,258.35,641.35,257.47z M642.47,251.45c-0.37,0.64-0.55,1.48-0.55,2.52c0,1.04,0.18,1.88,0.55,2.52
			c0.37,0.64,0.94,0.96,1.72,0.96s1.35-0.32,1.71-0.95c0.36-0.63,0.54-1.47,0.54-2.52s-0.18-1.89-0.54-2.52
			c-0.36-0.63-0.93-0.95-1.71-0.95C643.42,250.48,642.84,250.8,642.47,251.45L642.47,251.45z"/>
	</g>
	<g>
		<path class="st3" d="M394.66,94.6l-1.11,3.37h-1.43l3.64-10.72h1.67l3.66,10.72h-1.48l-1.14-3.37H394.66z M398.17,93.52
			l-1.05-3.08c-0.24-0.7-0.4-1.34-0.56-1.96h-0.03c-0.16,0.64-0.33,1.29-0.54,1.94l-1.05,3.1H398.17z"/>
		<path class="st3" d="M402.82,90.28l1.51,4.32c0.25,0.7,0.46,1.34,0.62,1.97h0.05c0.17-0.64,0.4-1.27,0.65-1.97l1.5-4.32h1.46
			l-3.02,7.7h-1.34l-2.92-7.7H402.82z"/>
		<path class="st3" d="M410.55,94.38c0.03,1.89,1.24,2.67,2.64,2.67c1,0,1.61-0.17,2.13-0.4l0.24,1c-0.49,0.22-1.34,0.48-2.56,0.48
			c-2.37,0-3.78-1.56-3.78-3.88c0-2.32,1.37-4.15,3.61-4.15c2.51,0,3.18,2.21,3.18,3.62c0,0.29-0.03,0.51-0.05,0.65H410.55z
			 M414.65,93.38c0.02-0.89-0.37-2.27-1.94-2.27c-1.42,0-2.04,1.3-2.15,2.27H414.65z"/>
		<path class="st3" d="M417.74,92.68c0-0.91-0.02-1.69-0.06-2.4h1.22l0.05,1.51h0.06c0.35-1.03,1.19-1.69,2.13-1.69
			c0.16,0,0.27,0.02,0.4,0.05v1.32c-0.14-0.03-0.29-0.05-0.48-0.05c-0.99,0-1.69,0.75-1.88,1.8c-0.03,0.19-0.06,0.41-0.06,0.65v4.1
			h-1.38V92.68z"/>
		<path class="st3" d="M427.12,97.97L427.01,97h-0.05c-0.43,0.6-1.26,1.14-2.35,1.14c-1.56,0-2.35-1.1-2.35-2.21
			c0-1.86,1.65-2.88,4.63-2.86v-0.16c0-0.64-0.17-1.78-1.75-1.78c-0.72,0-1.46,0.22-2,0.57l-0.32-0.92
			c0.64-0.41,1.56-0.68,2.53-0.68c2.35,0,2.93,1.61,2.93,3.15v2.88c0,0.67,0.03,1.32,0.13,1.84H427.12z M426.91,94.05
			c-1.53-0.03-3.26,0.24-3.26,1.73c0,0.91,0.6,1.34,1.32,1.34c1,0,1.64-0.64,1.86-1.29c0.05-0.14,0.08-0.3,0.08-0.45V94.05z"/>
		<path class="st3" d="M437.16,90.28c-0.03,0.56-0.06,1.18-0.06,2.11v4.47c0,1.76-0.35,2.85-1.1,3.51c-0.75,0.7-1.83,0.92-2.8,0.92
			c-0.92,0-1.94-0.22-2.56-0.64l0.35-1.07c0.51,0.32,1.3,0.6,2.26,0.6c1.43,0,2.48-0.75,2.48-2.69v-0.86h-0.03
			c-0.43,0.72-1.26,1.29-2.45,1.29c-1.91,0-3.28-1.62-3.28-3.75c0-2.61,1.7-4.09,3.47-4.09c1.34,0,2.07,0.7,2.4,1.34h0.03l0.06-1.16
			H437.16z M435.71,93.32c0-0.24-0.02-0.45-0.08-0.64c-0.25-0.81-0.94-1.48-1.96-1.48c-1.33,0-2.29,1.13-2.29,2.91
			c0,1.51,0.76,2.77,2.27,2.77c0.86,0,1.64-0.54,1.94-1.43c0.08-0.24,0.11-0.51,0.11-0.75V93.32z"/>
		<path class="st3" d="M440.2,94.38c0.03,1.89,1.24,2.67,2.64,2.67c1,0,1.61-0.17,2.13-0.4l0.24,1c-0.49,0.22-1.34,0.48-2.56,0.48
			c-2.37,0-3.78-1.56-3.78-3.88c0-2.32,1.37-4.15,3.61-4.15c2.51,0,3.18,2.21,3.18,3.62c0,0.29-0.03,0.51-0.05,0.65H440.2z
			 M444.3,93.38c0.02-0.89-0.37-2.27-1.94-2.27c-1.42,0-2.04,1.3-2.15,2.27H444.3z"/>
		<path class="st3" d="M450.57,96.54c0.41,0.27,1.14,0.56,1.84,0.56c1.02,0,1.49-0.51,1.49-1.14c0-0.67-0.4-1.03-1.43-1.42
			c-1.38-0.49-2.04-1.26-2.04-2.18c0-1.24,1-2.26,2.66-2.26c0.78,0,1.46,0.22,1.89,0.48l-0.35,1.02c-0.3-0.19-0.86-0.44-1.57-0.44
			c-0.83,0-1.29,0.48-1.29,1.05c0,0.64,0.46,0.92,1.46,1.3c1.34,0.51,2.02,1.18,2.02,2.32c0,1.35-1.05,2.31-2.88,2.31
			c-0.84,0-1.62-0.21-2.16-0.52L450.57,96.54z"/>
		<path class="st3" d="M457.83,94.38c0.03,1.89,1.24,2.67,2.64,2.67c1,0,1.61-0.17,2.13-0.4l0.24,1c-0.49,0.22-1.34,0.48-2.56,0.48
			c-2.37,0-3.78-1.56-3.78-3.88c0-2.32,1.37-4.15,3.61-4.15c2.51,0,3.18,2.21,3.18,3.62c0,0.29-0.03,0.51-0.05,0.65H457.83z
			 M461.94,93.38c0.02-0.89-0.37-2.27-1.94-2.27c-1.42,0-2.04,1.3-2.15,2.27H461.94z"/>
		<path class="st3" d="M465.03,92.68c0-0.91-0.02-1.69-0.06-2.4h1.22l0.05,1.51h0.06c0.35-1.03,1.19-1.69,2.13-1.69
			c0.16,0,0.27,0.02,0.4,0.05v1.32c-0.14-0.03-0.29-0.05-0.48-0.05c-0.99,0-1.69,0.75-1.88,1.8c-0.03,0.19-0.06,0.41-0.06,0.65v4.1
			h-1.38V92.68z"/>
		<path class="st3" d="M471.17,90.28l1.51,4.32c0.25,0.7,0.46,1.34,0.62,1.97h0.05c0.17-0.64,0.4-1.27,0.65-1.97l1.5-4.32h1.46
			l-3.02,7.7h-1.34l-2.92-7.7H471.17z"/>
		<path class="st3" d="M479.83,88.12c0.02,0.48-0.33,0.86-0.89,0.86c-0.49,0-0.84-0.38-0.84-0.86c0-0.49,0.37-0.87,0.88-0.87
			C479.5,87.24,479.83,87.62,479.83,88.12z M478.28,97.97v-7.7h1.4v7.7H478.28z"/>
		<path class="st3" d="M482,92.36c0-0.79-0.02-1.45-0.06-2.08h1.24l0.08,1.27h0.03c0.38-0.73,1.27-1.45,2.54-1.45
			c1.07,0,2.72,0.64,2.72,3.27v4.6h-1.4v-4.44c0-1.24-0.46-2.27-1.78-2.27c-0.92,0-1.64,0.65-1.88,1.43
			c-0.06,0.17-0.1,0.41-0.1,0.65v4.63H482V92.36z"/>
		<path class="st3" d="M497.46,90.28c-0.03,0.56-0.06,1.18-0.06,2.11v4.47c0,1.76-0.35,2.85-1.1,3.51c-0.75,0.7-1.83,0.92-2.8,0.92
			c-0.92,0-1.94-0.22-2.56-0.64l0.35-1.07c0.51,0.32,1.3,0.6,2.26,0.6c1.43,0,2.48-0.75,2.48-2.69v-0.86h-0.03
			c-0.43,0.72-1.26,1.29-2.45,1.29c-1.91,0-3.28-1.62-3.28-3.75c0-2.61,1.7-4.09,3.47-4.09c1.34,0,2.07,0.7,2.4,1.34h0.03l0.06-1.16
			H497.46z M496.01,93.32c0-0.24-0.02-0.45-0.08-0.64c-0.25-0.81-0.94-1.48-1.96-1.48c-1.33,0-2.29,1.13-2.29,2.91
			c0,1.51,0.76,2.77,2.27,2.77c0.86,0,1.64-0.54,1.94-1.43c0.08-0.24,0.11-0.51,0.11-0.75V93.32z"/>
		<path class="st3" d="M504.77,88.07v2.21h2v1.06h-2v4.15c0,0.95,0.27,1.49,1.05,1.49c0.37,0,0.64-0.05,0.81-0.1l0.06,1.05
			c-0.27,0.11-0.7,0.19-1.24,0.19c-0.65,0-1.18-0.21-1.51-0.59c-0.4-0.41-0.54-1.1-0.54-2v-4.2h-1.19v-1.06h1.19v-1.84L504.77,88.07
			z"/>
		<path class="st3" d="M509.91,88.12c0.02,0.48-0.33,0.86-0.89,0.86c-0.49,0-0.84-0.38-0.84-0.86c0-0.49,0.37-0.87,0.88-0.87
			C509.58,87.24,509.91,87.62,509.91,88.12z M508.35,97.97v-7.7h1.4v7.7H508.35z"/>
		<path class="st3" d="M512.08,92.36c0-0.79-0.02-1.45-0.06-2.08h1.22l0.06,1.24h0.05c0.43-0.73,1.14-1.42,2.42-1.42
			c1.05,0,1.84,0.64,2.18,1.54h0.03c0.24-0.43,0.54-0.76,0.86-1c0.46-0.35,0.97-0.54,1.7-0.54c1.02,0,2.53,0.67,2.53,3.34v4.53
			h-1.37v-4.36c0-1.48-0.54-2.37-1.67-2.37c-0.79,0-1.42,0.59-1.65,1.27c-0.06,0.19-0.11,0.45-0.11,0.7v4.75h-1.37v-4.61
			c0-1.22-0.54-2.11-1.61-2.11c-0.87,0-1.51,0.7-1.73,1.4c-0.08,0.21-0.11,0.44-0.11,0.68v4.64h-1.37V92.36z"/>
		<path class="st3" d="M526.12,94.38c0.03,1.89,1.24,2.67,2.64,2.67c1,0,1.61-0.17,2.13-0.4l0.24,1c-0.49,0.22-1.34,0.48-2.56,0.48
			c-2.37,0-3.78-1.56-3.78-3.88c0-2.32,1.37-4.15,3.61-4.15c2.51,0,3.18,2.21,3.18,3.62c0,0.29-0.03,0.51-0.05,0.65H526.12z
			 M530.22,93.38c0.02-0.89-0.37-2.27-1.94-2.27c-1.42,0-2.04,1.3-2.15,2.27H530.22z"/>
	</g>
	<g>
		<path class="st6" d="M712.17,251.97c0.64,0.34,1.14,0.82,1.5,1.44c0.36,0.62,0.54,1.31,0.54,2.09c0,0.78-0.18,1.47-0.55,2.08
			c-0.37,0.61-0.87,1.09-1.52,1.44c-0.65,0.35-1.38,0.52-2.21,0.52h-3.3v-8.08H710C710.8,251.45,711.53,251.62,712.17,251.97z
			 M711.36,257.83c0.4-0.23,0.71-0.54,0.93-0.95s0.33-0.86,0.33-1.38c0-0.52-0.12-0.98-0.35-1.39c-0.23-0.41-0.55-0.73-0.95-0.96
			c-0.4-0.23-0.86-0.34-1.36-0.34h-1.79v5.36h1.85C710.52,258.17,710.97,258.06,711.36,257.83z"/>
		<path class="st6" d="M719.15,259.54v-0.75c-0.22,0.27-0.49,0.47-0.83,0.61c-0.34,0.14-0.73,0.21-1.17,0.21
			c-0.43,0-0.81-0.08-1.14-0.25c-0.33-0.17-0.58-0.39-0.76-0.69c-0.18-0.29-0.27-0.62-0.27-0.98c0-0.58,0.2-1.03,0.61-1.36
			c0.41-0.33,0.99-0.49,1.73-0.5h1.8v-0.16c0-0.36-0.12-0.64-0.36-0.84c-0.24-0.2-0.59-0.3-1.04-0.3c-0.58,0-1.2,0.19-1.84,0.58
			l-0.54-1.04c0.49-0.27,0.93-0.46,1.32-0.58c0.4-0.12,0.86-0.18,1.39-0.18c0.8,0,1.42,0.19,1.87,0.58
			c0.44,0.39,0.67,0.92,0.68,1.62l0.01,4.04H719.15z M718.62,258.15c0.31-0.2,0.48-0.46,0.52-0.76v-0.55h-1.56
			c-0.4,0-0.7,0.06-0.88,0.18s-0.28,0.31-0.28,0.58c0,0.26,0.1,0.47,0.29,0.62c0.2,0.15,0.46,0.23,0.8,0.23
			C717.94,258.45,718.31,258.35,718.62,258.15z"/>
		<path class="st6" d="M723.98,261.46c-0.36,0.26-0.78,0.39-1.28,0.39c-0.3,0-0.57-0.04-0.81-0.13c-0.24-0.09-0.48-0.23-0.72-0.42
			l0.65-1.14c0.15,0.11,0.28,0.19,0.4,0.24c0.12,0.05,0.25,0.08,0.39,0.08c0.41,0,0.71-0.21,0.9-0.62l0.18-0.4l-2.55-6.07h1.56
			l1.75,4.49l1.61-4.49h1.51l-2.77,6.95C724.61,260.82,724.33,261.2,723.98,261.46z"/>
		<path class="st6" d="M731.1,254.62c-0.32-0.1-0.61-0.15-0.88-0.15c-0.25,0-0.46,0.04-0.61,0.13c-0.15,0.09-0.22,0.23-0.22,0.41
			c0,0.19,0.09,0.34,0.28,0.44c0.19,0.1,0.49,0.21,0.9,0.33c0.43,0.13,0.79,0.26,1.06,0.39s0.52,0.32,0.72,0.57
			c0.2,0.25,0.31,0.58,0.31,0.99c0,0.6-0.23,1.06-0.69,1.39s-1.04,0.48-1.74,0.48c-0.48,0-0.94-0.07-1.4-0.23
			c-0.45-0.15-0.84-0.36-1.15-0.64l0.52-1.05c0.28,0.24,0.61,0.43,0.99,0.56c0.38,0.13,0.75,0.2,1.1,0.2c0.28,0,0.5-0.05,0.66-0.14
			c0.17-0.1,0.25-0.24,0.25-0.43c0-0.22-0.1-0.38-0.29-0.48s-0.5-0.23-0.94-0.36c-0.42-0.12-0.75-0.24-1.02-0.36
			c-0.26-0.12-0.49-0.3-0.68-0.54c-0.19-0.24-0.29-0.56-0.29-0.95c0-0.61,0.22-1.07,0.66-1.39c0.44-0.32,1-0.48,1.67-0.48
			c0.41,0,0.81,0.06,1.21,0.17c0.4,0.12,0.75,0.28,1.06,0.48l-0.54,1.09C731.73,254.86,731.42,254.72,731.1,254.62z"/>
	</g>
</g>
<g>
	<rect x="158" y="313" class="st2" width="446" height="349"/>
</g>
<g>
	<g class="st0">
		<g>
			<path class="st3" d="M589.72,318.11H167c-4.97,0-9,4.03-9,8.99v325.91c0,4.97,4.03,8.99,9,8.99h422.71
				c4.97,0,9.01-4.03,9.01-8.99V327.1C598.72,322.13,594.69,318.11,589.72,318.11z"/>
		</g>
	</g>
	<g>
		<path class="st4" d="M594.99,313H172.28c-4.97,0-9,4.03-9,8.99V647.9c0,4.97,4.03,8.99,9,8.99h422.71c4.97,0,9.01-4.03,9.01-8.99
			V321.99C604,317.03,599.97,313,594.99,313z"/>
	</g>
	<g>
		<path class="st6" d="M398.03,394.83h-39.34V606.9h39.34V394.83z"/>
	</g>
	<g>
		<path class="st6" d="M231.72,335.67h-39.34v15.63h39.34V335.67z"/>
	</g>
	<g>
		<path class="st7" d="M437.37,394.83h-39.34V606.9h39.34V394.83z"/>
	</g>
	<g>
		<path class="st6" d="M491.49,483.89h-39.34v123h39.34V483.89z"/>
	</g>
	<g>
		<path class="st7" d="M530.83,499.87h-39.34V606.9h39.34V499.87z"/>
	</g>
	<g>
		<path class="st6" d="M308.88,448.62h-39.34V606.9h39.34V448.62z"/>
	</g>
	<g>
		<path class="st7" d="M348.22,468.2h-39.34v138.7h39.34V468.2z"/>
	</g>
	<g>
		<path class="st6" d="M381.18,624.98h3.36v9.25h-1.49v-7.86h-1.88L381.18,624.98L381.18,624.98z"/>
	</g>
	<g>
		<path class="st6" d="M392.28,624.96v1.42h-3.91v2.28c0.39-0.21,0.83-0.32,1.32-0.32c0.87,0,1.61,0.26,2.24,0.78
			c0.63,0.52,0.94,1.23,0.94,2.11s-0.33,1.63-0.98,2.22s-1.46,0.88-2.41,0.88c-1.24,0-2.24-0.41-2.98-1.24l0.83-1.14
			c0.07,0.07,0.17,0.15,0.29,0.25c0.12,0.1,0.36,0.23,0.74,0.39c0.37,0.17,0.78,0.25,1.22,0.25c0.44,0,0.84-0.13,1.2-0.4
			c0.36-0.27,0.54-0.65,0.54-1.16c0-0.51-0.19-0.9-0.58-1.18c-0.38-0.28-0.87-0.42-1.46-0.42c-0.59,0-1.15,0.14-1.68,0.44
			l-0.66-0.72v-4.44L392.28,624.96L392.28,624.96z"/>
	</g>
	<g>
		<path class="st6" d="M399.44,623.49h1.33l-5.74,12.28h-1.32L399.44,623.49z"/>
	</g>
	<g>
		<path class="st6" d="M401.49,624.98h3.36v9.25h-1.49v-7.86h-1.88L401.49,624.98L401.49,624.98z"/>
	</g>
	<g>
		<path class="st6" d="M407.88,633.03c-0.63-0.87-0.94-2.03-0.94-3.49s0.31-2.62,0.94-3.49s1.57-1.3,2.83-1.3
			c1.26,0,2.21,0.43,2.84,1.3c0.63,0.87,0.94,2.03,0.94,3.49s-0.31,2.62-0.94,3.49c-0.63,0.87-1.57,1.3-2.84,1.3
			C409.45,634.33,408.5,633.9,407.88,633.03z M408.99,627.04c-0.37,0.64-0.55,1.47-0.55,2.5s0.18,1.87,0.55,2.5
			c0.37,0.64,0.94,0.95,1.72,0.95c0.78,0,1.35-0.31,1.7-0.95c0.36-0.63,0.54-1.47,0.54-2.51c0-1.04-0.18-1.88-0.54-2.51
			c-0.36-0.63-0.93-0.95-1.7-0.95C409.93,626.09,409.36,626.41,408.99,627.04L408.99,627.04z"/>
	</g>
	<g>
		<path class="st6" d="M193.88,407.32h3.36v9.25h-1.49v-7.86h-1.88L193.88,407.32L193.88,407.32z"/>
	</g>
	<g>
		<path class="st6" d="M200.27,415.37c-0.63-0.87-0.94-2.03-0.94-3.49c0-1.45,0.31-2.62,0.94-3.49c0.63-0.87,1.57-1.3,2.83-1.3
			c1.26,0,2.21,0.43,2.84,1.3c0.63,0.87,0.94,2.03,0.94,3.49c0,1.46-0.31,2.62-0.94,3.49c-0.63,0.87-1.57,1.3-2.84,1.3
			C201.84,416.67,200.9,416.23,200.27,415.37z M201.39,409.38c-0.37,0.64-0.55,1.47-0.55,2.5c0,1.03,0.18,1.87,0.55,2.5
			c0.37,0.64,0.94,0.95,1.72,0.95c0.78,0,1.35-0.31,1.7-0.95c0.36-0.63,0.54-1.47,0.54-2.51c0-1.04-0.18-1.88-0.54-2.51
			c-0.36-0.63-0.93-0.94-1.7-0.94C202.32,408.43,201.75,408.75,201.39,409.38L201.39,409.38z"/>
	</g>
	<g>
		<path class="st6" d="M209.38,415.37c-0.63-0.87-0.94-2.03-0.94-3.49c0-1.45,0.32-2.62,0.94-3.49c0.63-0.87,1.57-1.3,2.84-1.3
			c1.26,0,2.21,0.43,2.83,1.3c0.63,0.87,0.94,2.03,0.94,3.49c0,1.46-0.31,2.62-0.94,3.49c-0.63,0.87-1.57,1.3-2.83,1.3
			C210.95,416.67,210.01,416.23,209.38,415.37z M210.5,409.38c-0.37,0.64-0.55,1.47-0.55,2.5c0,1.03,0.18,1.87,0.55,2.5
			c0.37,0.64,0.94,0.95,1.72,0.95c0.78,0,1.35-0.31,1.7-0.95c0.36-0.63,0.54-1.47,0.54-2.51c0-1.04-0.18-1.88-0.54-2.51
			c-0.36-0.63-0.93-0.94-1.7-0.94C211.44,408.43,210.87,408.75,210.5,409.38L210.5,409.38z"/>
	</g>
	<g>
		<path class="st7" d="M359.45,335.67h-39.34v15.63h39.34V335.67z"/>
	</g>
	<g>
		<path class="st6" d="M207.03,490.26v1.42h-3.91v2.28c0.39-0.21,0.83-0.32,1.32-0.32c0.87,0,1.61,0.26,2.24,0.78
			c0.63,0.52,0.94,1.23,0.94,2.11c0,0.89-0.33,1.63-0.98,2.22c-0.65,0.59-1.46,0.88-2.41,0.88c-1.24,0-2.24-0.41-2.98-1.24
			l0.83-1.14c0.07,0.07,0.16,0.15,0.28,0.25c0.12,0.1,0.36,0.23,0.74,0.39c0.37,0.16,0.78,0.24,1.22,0.24c0.44,0,0.84-0.13,1.2-0.4
			c0.36-0.27,0.54-0.65,0.54-1.16c0-0.51-0.19-0.9-0.57-1.18c-0.38-0.28-0.87-0.42-1.46-0.42c-0.59,0-1.15,0.15-1.68,0.44
			l-0.66-0.72v-4.44L207.03,490.26L207.03,490.26z"/>
	</g>
	<g>
		<path class="st6" d="M209.98,498.33c-0.63-0.87-0.94-2.03-0.94-3.49s0.31-2.62,0.94-3.49c0.63-0.87,1.57-1.3,2.83-1.3
			c1.26,0,2.21,0.43,2.84,1.3c0.63,0.87,0.94,2.03,0.94,3.49s-0.31,2.62-0.94,3.49c-0.63,0.87-1.57,1.3-2.84,1.3
			C211.55,499.63,210.61,499.2,209.98,498.33z M211.1,492.34c-0.37,0.64-0.55,1.47-0.55,2.5s0.18,1.87,0.55,2.5
			c0.37,0.63,0.94,0.95,1.71,0.95c0.78,0,1.35-0.31,1.7-0.95c0.36-0.63,0.53-1.47,0.53-2.51s-0.18-1.88-0.53-2.51
			c-0.36-0.63-0.93-0.95-1.7-0.95C212.04,491.39,211.47,491.71,211.1,492.34L211.1,492.34z"/>
	</g>
	<g>
		<path class="st6" d="M212.99,605.23c-0.63-0.87-0.94-2.03-0.94-3.49s0.31-2.62,0.94-3.49c0.63-0.87,1.57-1.3,2.84-1.3
			c1.26,0,2.21,0.44,2.83,1.3c0.63,0.87,0.94,2.03,0.94,3.49s-0.31,2.62-0.94,3.49c-0.63,0.87-1.57,1.3-2.83,1.3
			C214.56,606.54,213.62,606.1,212.99,605.23z M214.11,599.25c-0.37,0.64-0.55,1.47-0.55,2.5c0,1.03,0.18,1.87,0.55,2.5
			c0.37,0.63,0.94,0.95,1.72,0.95c0.78,0,1.35-0.31,1.7-0.95c0.36-0.63,0.54-1.47,0.54-2.51c0-1.04-0.18-1.88-0.54-2.51
			c-0.36-0.63-0.93-0.95-1.7-0.95C215.05,598.3,214.48,598.62,214.11,599.25L214.11,599.25z"/>
	</g>
	<g>
		<path class="st5" d="M258.43,376.17h-0.95V606.9h0.95V376.17z"/>
	</g>
	<g>
		<path class="st5" d="M574.9,606.13H257.95v0.95H574.9V606.13z"/>
	</g>
	<g>
		<path class="st3" d="M242.94,346.84l-0.91,2.07h-1.64l4-9.09h1.64l4,9.09h-1.64l-0.91-2.07H242.94z M246.87,345.42l-1.65-3.74
			l-1.65,3.74H246.87z"/>
		<path class="st3" d="M251.62,348.02c-0.65-0.66-0.98-1.53-0.98-2.6s0.33-1.93,1-2.57c0.67-0.64,1.46-0.96,2.39-0.96
			c0.92,0,1.67,0.39,2.23,1.17v-3.8h1.46v9.65h-1.46v-1.04c-0.54,0.76-1.32,1.14-2.35,1.14
			C253.04,349.01,252.27,348.68,251.62,348.02z M252.11,345.48c0,0.66,0.21,1.2,0.64,1.62s0.92,0.62,1.5,0.62
			c0.57,0,1.06-0.21,1.46-0.63c0.4-0.42,0.6-0.96,0.6-1.62s-0.2-1.21-0.6-1.65c-0.4-0.44-0.89-0.66-1.47-0.66
			c-0.58,0-1.08,0.22-1.5,0.66S252.11,344.82,252.11,345.48z"/>
		<path class="st3" d="M261.28,345.16v3.74h-1.46v-6.92h1.46v1.26c0.21-0.42,0.52-0.76,0.94-1c0.42-0.24,0.87-0.36,1.36-0.36
			c1.09,0,1.83,0.45,2.22,1.35c0.68-0.9,1.54-1.35,2.56-1.35c0.78,0,1.41,0.24,1.89,0.71c0.48,0.48,0.72,1.17,0.72,2.07v4.24h-1.46
			v-3.8c0-1.27-0.53-1.91-1.59-1.91c-0.49,0-0.93,0.16-1.29,0.47s-0.56,0.78-0.58,1.38v3.85h-1.46v-3.8c0-0.66-0.12-1.14-0.35-1.45
			c-0.23-0.31-0.6-0.46-1.1-0.46c-0.5,0-0.94,0.17-1.31,0.5C261.47,344.03,261.28,344.52,261.28,345.16z"/>
		<path class="st3" d="M273.1,340.61c-0.18-0.18-0.27-0.4-0.27-0.65s0.09-0.47,0.27-0.65s0.4-0.27,0.65-0.27s0.47,0.09,0.65,0.27
			s0.27,0.4,0.27,0.65s-0.09,0.47-0.27,0.65c-0.18,0.18-0.4,0.27-0.65,0.27S273.28,340.79,273.1,340.61z M274.47,348.91h-1.46v-6.92
			h1.46V348.91z"/>
		<path class="st3" d="M281.5,346.84c0,0.66-0.24,1.19-0.71,1.58c-0.48,0.39-1.09,0.59-1.83,0.59c-0.5,0-1.02-0.09-1.57-0.27
			c-0.54-0.18-1.02-0.44-1.44-0.77l0.7-1.13c0.81,0.61,1.59,0.91,2.34,0.91c0.33,0,0.59-0.08,0.78-0.23
			c0.19-0.15,0.29-0.34,0.29-0.58c0-0.35-0.46-0.66-1.38-0.94c-0.07-0.03-0.12-0.04-0.16-0.05c-1.44-0.39-2.16-1.04-2.16-1.95
			c0-0.64,0.25-1.15,0.75-1.54c0.5-0.39,1.15-0.58,1.94-0.58s1.55,0.23,2.26,0.7l-0.55,1.08c-0.56-0.37-1.17-0.56-1.83-0.56
			c-0.35,0-0.63,0.06-0.85,0.19c-0.22,0.13-0.33,0.31-0.33,0.57c0,0.23,0.11,0.39,0.34,0.49c0.16,0.08,0.37,0.15,0.66,0.22
			c0.28,0.07,0.53,0.14,0.75,0.21c0.22,0.07,0.43,0.15,0.63,0.23c0.2,0.09,0.42,0.21,0.66,0.36
			C281.27,345.7,281.5,346.18,281.5,346.84z"/>
		<path class="st3" d="M288.08,346.84c0,0.66-0.24,1.19-0.71,1.58c-0.48,0.39-1.09,0.59-1.83,0.59c-0.5,0-1.02-0.09-1.57-0.27
			c-0.54-0.18-1.02-0.44-1.44-0.77l0.7-1.13c0.81,0.61,1.59,0.91,2.34,0.91c0.33,0,0.59-0.08,0.78-0.23
			c0.19-0.15,0.29-0.34,0.29-0.58c0-0.35-0.46-0.66-1.38-0.94c-0.07-0.03-0.12-0.04-0.16-0.05c-1.44-0.39-2.16-1.04-2.16-1.95
			c0-0.64,0.25-1.15,0.75-1.54c0.5-0.39,1.15-0.58,1.94-0.58s1.55,0.23,2.26,0.7l-0.55,1.08c-0.56-0.37-1.17-0.56-1.83-0.56
			c-0.35,0-0.63,0.06-0.85,0.19c-0.22,0.13-0.33,0.31-0.33,0.57c0,0.23,0.11,0.39,0.34,0.49c0.16,0.08,0.37,0.15,0.66,0.22
			c0.28,0.07,0.53,0.14,0.75,0.21c0.22,0.07,0.43,0.15,0.63,0.23c0.2,0.09,0.42,0.21,0.66,0.36
			C287.85,345.7,288.08,346.18,288.08,346.84z"/>
		<path class="st3" d="M289.82,340.61c-0.18-0.18-0.27-0.4-0.27-0.65s0.09-0.47,0.27-0.65s0.4-0.27,0.65-0.27s0.47,0.09,0.65,0.27
			s0.27,0.4,0.27,0.65s-0.09,0.47-0.27,0.65c-0.18,0.18-0.4,0.27-0.65,0.27S290,340.79,289.82,340.61z M291.19,348.91h-1.46v-6.92
			h1.46V348.91z"/>
		<path class="st3" d="M299.08,347.98c-0.69,0.69-1.56,1.03-2.6,1.03s-1.91-0.34-2.6-1.03s-1.04-1.53-1.04-2.53
			c0-1,0.35-1.84,1.04-2.53c0.69-0.69,1.56-1.03,2.6-1.03s1.91,0.34,2.6,1.03c0.69,0.69,1.04,1.53,1.04,2.53
			C300.12,346.45,299.77,347.29,299.08,347.98z M294.91,347.08c0.41,0.42,0.93,0.63,1.57,0.63s1.15-0.21,1.57-0.63
			c0.41-0.42,0.62-0.96,0.62-1.63c0-0.67-0.21-1.21-0.62-1.63c-0.41-0.42-0.93-0.63-1.57-0.63s-1.15,0.21-1.57,0.63
			c-0.41,0.42-0.62,0.96-0.62,1.63C294.29,346.12,294.5,346.66,294.91,347.08z"/>
		<path class="st3" d="M303.23,345.16v3.74h-1.46v-6.92h1.46v1.26c0.23-0.42,0.56-0.76,0.97-1c0.41-0.24,0.86-0.36,1.33-0.36
			c0.78,0,1.41,0.24,1.89,0.71c0.48,0.48,0.72,1.17,0.72,2.07v4.24h-1.46v-3.8c0-1.27-0.53-1.91-1.59-1.91
			c-0.5,0-0.94,0.17-1.31,0.5C303.41,344.03,303.23,344.52,303.23,345.16z"/>
	</g>
	<g>
		<path class="st3" d="M370.12,341.02c-0.45,0-0.81,0.09-1.1,0.27c-0.29,0.18-0.43,0.46-0.43,0.83s0.14,0.65,0.43,0.84
			c0.29,0.2,0.9,0.41,1.83,0.63s1.63,0.54,2.11,0.95c0.47,0.41,0.71,1.01,0.71,1.8c0,0.79-0.3,1.44-0.9,1.93
			c-0.6,0.49-1.38,0.74-2.35,0.74c-1.42,0-2.68-0.49-3.78-1.47l0.96-1.16c0.92,0.8,1.87,1.2,2.86,1.2c0.49,0,0.89-0.11,1.18-0.32
			c0.29-0.21,0.44-0.49,0.44-0.85s-0.14-0.62-0.41-0.82c-0.27-0.2-0.74-0.37-1.41-0.53c-0.67-0.16-1.17-0.31-1.52-0.44
			s-0.65-0.31-0.92-0.53c-0.54-0.41-0.81-1.03-0.81-1.87c0-0.84,0.31-1.49,0.92-1.94c0.61-0.45,1.37-0.68,2.27-0.68
			c0.58,0,1.16,0.1,1.73,0.29c0.57,0.19,1.07,0.46,1.48,0.81l-0.82,1.16c-0.27-0.24-0.63-0.44-1.09-0.6
			C371.02,341.09,370.57,341.02,370.12,341.02z"/>
		<path class="st3" d="M381.79,346.09h-5.42c0.03,0.5,0.26,0.91,0.69,1.22s0.91,0.46,1.46,0.46c0.87,0,1.53-0.27,1.98-0.82
			l0.83,0.91c-0.75,0.77-1.72,1.16-2.91,1.16c-0.97,0-1.8-0.32-2.48-0.97c-0.68-0.65-1.02-1.51-1.02-2.6c0-1.09,0.35-1.95,1.04-2.59
			c0.69-0.64,1.51-0.96,2.45-0.96s1.74,0.28,2.4,0.85c0.66,0.57,0.99,1.35,0.99,2.35V346.09z M376.37,344.94h3.97
			c0-0.58-0.18-1.03-0.55-1.34c-0.36-0.31-0.81-0.47-1.35-0.47s-1.01,0.16-1.44,0.49C376.58,343.95,376.37,344.39,376.37,344.94z"/>
		<path class="st3" d="M387.02,343.36c-0.72,0-1.26,0.23-1.62,0.7c-0.36,0.47-0.55,1.1-0.55,1.89v2.96h-1.46v-6.92h1.46v1.39
			c0.23-0.43,0.55-0.79,0.96-1.07c0.4-0.28,0.83-0.42,1.28-0.43l0.01,1.47C387.07,343.36,387.04,343.36,387.02,343.36z"/>
		<path class="st3" d="M390.39,348.91l-2.78-6.92h1.51l2.11,5.23l2.11-5.23h1.51l-2.78,6.92H390.39z"/>
		<path class="st3" d="M396.08,340.61c-0.18-0.18-0.27-0.4-0.27-0.65s0.09-0.47,0.27-0.65c0.18-0.18,0.4-0.27,0.65-0.27
			c0.25,0,0.47,0.09,0.65,0.27c0.18,0.18,0.27,0.4,0.27,0.65s-0.09,0.47-0.27,0.65c-0.18,0.18-0.4,0.27-0.65,0.27
			C396.48,340.89,396.26,340.79,396.08,340.61z M397.45,348.91h-1.46v-6.92h1.46V348.91z"/>
		<path class="st3" d="M402.62,349.01c-0.96,0-1.79-0.33-2.48-0.98s-1.04-1.51-1.04-2.57c0-1.06,0.36-1.92,1.08-2.58
			s1.61-0.99,2.65-0.99c1.04,0,1.92,0.36,2.64,1.08l-0.86,1.05c-0.6-0.52-1.2-0.78-1.81-0.78s-1.13,0.2-1.58,0.6
			s-0.67,0.92-0.67,1.56c0,0.64,0.22,1.18,0.66,1.62c0.44,0.44,0.99,0.66,1.63,0.66c0.65,0,1.25-0.29,1.83-0.88l0.86,0.94
			C404.69,348.59,403.72,349.01,402.62,349.01z"/>
		<path class="st3" d="M413.48,346.09h-5.42c0.03,0.5,0.26,0.91,0.69,1.22c0.42,0.31,0.91,0.46,1.46,0.46
			c0.87,0,1.53-0.27,1.98-0.82l0.83,0.91c-0.75,0.77-1.72,1.16-2.91,1.16c-0.97,0-1.8-0.32-2.48-0.97c-0.68-0.65-1.02-1.51-1.02-2.6
			c0-1.09,0.35-1.95,1.04-2.59c0.69-0.64,1.51-0.96,2.45-0.96c0.94,0,1.74,0.28,2.4,0.85c0.66,0.57,0.99,1.35,0.99,2.35V346.09z
			 M408.05,344.94h3.97c0-0.58-0.18-1.03-0.55-1.34c-0.36-0.31-0.81-0.47-1.35-0.47c-0.53,0-1.01,0.16-1.44,0.49
			C408.27,343.95,408.05,344.39,408.05,344.94z"/>
		<path class="st3" d="M420,346.84c0,0.66-0.24,1.19-0.71,1.58c-0.48,0.39-1.09,0.59-1.83,0.59c-0.5,0-1.02-0.09-1.57-0.27
			s-1.02-0.44-1.44-0.77l0.7-1.13c0.81,0.61,1.59,0.91,2.34,0.91c0.33,0,0.59-0.08,0.78-0.23c0.19-0.15,0.29-0.34,0.29-0.58
			c0-0.35-0.46-0.66-1.38-0.94c-0.07-0.03-0.12-0.04-0.16-0.05c-1.44-0.39-2.16-1.04-2.16-1.95c0-0.64,0.25-1.15,0.75-1.54
			c0.5-0.39,1.15-0.58,1.94-0.58c0.8,0,1.55,0.23,2.26,0.7l-0.55,1.08c-0.56-0.37-1.17-0.56-1.83-0.56c-0.35,0-0.63,0.06-0.84,0.19
			c-0.22,0.13-0.33,0.31-0.33,0.57c0,0.23,0.11,0.39,0.34,0.49c0.16,0.08,0.38,0.15,0.66,0.22c0.28,0.07,0.53,0.14,0.75,0.21
			c0.22,0.07,0.43,0.15,0.63,0.23c0.2,0.09,0.42,0.21,0.66,0.36C419.77,345.7,420,346.18,420,346.84z"/>
	</g>
	<g>
		<path class="st6" d="M549.9,619.26c0.69,0.37,1.23,0.89,1.62,1.55c0.39,0.66,0.58,1.41,0.58,2.25c0,0.84-0.2,1.59-0.59,2.25
			c-0.39,0.66-0.94,1.18-1.64,1.55c-0.7,0.37-1.49,0.56-2.38,0.56h-3.56v-8.71h3.62C548.43,618.71,549.21,618.89,549.9,619.26z
			 M549.04,625.58c0.43-0.24,0.76-0.58,1-1.02c0.24-0.44,0.36-0.93,0.36-1.49s-0.12-1.06-0.37-1.5c-0.25-0.44-0.59-0.79-1.03-1.03
			c-0.44-0.25-0.92-0.37-1.46-0.37h-1.93v5.77h1.99C548.13,625.95,548.61,625.83,549.04,625.58z"/>
		<path class="st6" d="M557.43,627.42v-0.81c-0.23,0.29-0.53,0.51-0.9,0.66s-0.78,0.22-1.26,0.22c-0.46,0-0.87-0.09-1.23-0.27
			c-0.35-0.18-0.62-0.42-0.81-0.74c-0.19-0.32-0.29-0.67-0.29-1.06c0-0.62,0.22-1.11,0.66-1.46c0.44-0.35,1.06-0.53,1.87-0.54h1.94
			v-0.17c0-0.39-0.13-0.69-0.39-0.91c-0.26-0.22-0.63-0.32-1.12-0.32c-0.63,0-1.29,0.21-1.98,0.62l-0.58-1.12
			c0.52-0.29,1-0.5,1.43-0.63c0.43-0.13,0.93-0.19,1.5-0.19c0.86,0,1.53,0.21,2.01,0.62c0.48,0.42,0.72,1,0.73,1.74l0.01,4.36
			H557.43z M556.86,625.92c0.33-0.22,0.52-0.49,0.56-0.82v-0.6h-1.68c-0.43,0-0.75,0.06-0.95,0.19c-0.2,0.13-0.3,0.34-0.3,0.63
			c0,0.28,0.11,0.51,0.32,0.67s0.5,0.25,0.87,0.25C556.13,626.25,556.53,626.14,556.86,625.92z"/>
		<path class="st6" d="M562.63,629.49c-0.39,0.28-0.84,0.42-1.38,0.42c-0.32,0-0.62-0.05-0.88-0.14c-0.26-0.09-0.52-0.25-0.78-0.45
			l0.7-1.23c0.16,0.12,0.3,0.2,0.44,0.26c0.13,0.05,0.27,0.08,0.42,0.08c0.44,0,0.76-0.22,0.97-0.67l0.2-0.44l-2.75-6.55h1.68
			l1.89,4.84l1.73-4.84h1.63l-2.99,7.49C563.31,628.8,563.01,629.21,562.63,629.49z"/>
		<path class="st6" d="M570.3,622.12c-0.34-0.11-0.66-0.16-0.95-0.16c-0.27,0-0.49,0.05-0.65,0.14c-0.16,0.09-0.24,0.24-0.24,0.44
			c0,0.21,0.1,0.37,0.3,0.48c0.2,0.11,0.52,0.23,0.96,0.35c0.46,0.14,0.85,0.28,1.14,0.42s0.56,0.34,0.78,0.61
			c0.22,0.27,0.33,0.62,0.33,1.06c0,0.65-0.25,1.15-0.75,1.49c-0.5,0.35-1.12,0.52-1.88,0.52c-0.51,0-1.02-0.08-1.51-0.24
			c-0.49-0.16-0.9-0.39-1.24-0.69l0.56-1.13c0.3,0.26,0.66,0.46,1.07,0.6c0.42,0.15,0.81,0.22,1.18,0.22c0.3,0,0.54-0.05,0.72-0.16
			s0.27-0.26,0.27-0.47c0-0.23-0.1-0.41-0.31-0.52c-0.21-0.12-0.54-0.25-1.01-0.39c-0.45-0.13-0.81-0.26-1.09-0.39
			c-0.28-0.13-0.53-0.32-0.73-0.58c-0.21-0.26-0.31-0.6-0.31-1.03c0-0.66,0.24-1.16,0.72-1.5c0.48-0.34,1.08-0.52,1.8-0.52
			c0.44,0,0.87,0.06,1.3,0.19c0.43,0.12,0.81,0.3,1.14,0.52l-0.58,1.17C570.98,622.37,570.65,622.22,570.3,622.12z"/>
	</g>
</g>
<g>
	<defs>
		<rect id="SVGID_1_" y="90" width="287" height="192"/>
	</defs>
	<clipPath id="SVGID_00000119098263959138136690000017622706765246504839_">
		<use xlink:href="#SVGID_1_"  style="overflow:visible;"/>
	</clipPath>
	<g style="clip-path:url(#SVGID_00000119098263959138136690000017622706765246504839_);">
		<g class="st0">
			<g>
				<path class="st3" d="M272.28,90H14.04C6.29,90,0,96.3,0,104.07v163.87C0,275.7,6.29,282,14.04,282h258.23
					c7.76,0,14.04-6.3,14.04-14.07V104.07C286.32,96.3,280.03,90,272.28,90z"/>
			</g>
		</g>
		<g>
			<g>
				<path class="st4" d="M272.95,90H17.22c-7.76,0-14.04,6.3-14.04,14.07v161.47c0,7.77,6.29,14.07,14.04,14.07h255.73
					c7.76,0,14.04-6.3,14.04-14.07V104.07C287,96.3,280.71,90,272.95,90z"/>
			</g>
		</g>
		<g>
			<g>
				<path class="st9" d="M169.09,177.41c1.71,0,3.09-1.39,3.09-3.1s-1.38-3.1-3.09-3.1c-1.71,0-3.09,1.39-3.09,3.1
					S167.38,177.41,169.09,177.41z"/>
			</g>
		</g>
		<g>
			<g>
				<path class="st10" d="M169.09,197.05c1.71,0,3.09-1.39,3.09-3.1s-1.38-3.1-3.09-3.1c-1.71,0-3.09,1.39-3.09,3.1
					S167.38,197.05,169.09,197.05z"/>
			</g>
		</g>
		<g>
			<g>
				<path class="st11" d="M169.09,215.44c1.71,0,3.09-1.39,3.09-3.1s-1.38-3.1-3.09-3.1c-1.71,0-3.09,1.39-3.09,3.1
					S167.38,215.44,169.09,215.44z"/>
			</g>
		</g>
		<g>
			<g>
				<path class="st12" d="M169.09,235.16c1.71,0,3.09-1.39,3.09-3.1s-1.38-3.1-3.09-3.1c-1.71,0-3.09,1.39-3.09,3.1
					S167.38,235.16,169.09,235.16z"/>
			</g>
		</g>
		<g>
			<g>
				<path class="st10" d="M144.14,218l-24.25-8.4c1.2-3.48,1.81-7.13,1.81-10.86c0-18.3-14.86-33.19-33.14-33.19v-25.71
					c32.43,0,58.8,26.42,58.8,58.89C147.36,205.33,146.27,211.82,144.14,218L144.14,218z"/>
			</g>
		</g>
		<g>
			<g>
				<path class="st11" d="M88.56,257.63c-8.98,0-17.6-1.98-25.63-5.88l11.2-23.13c4.51,2.19,9.37,3.3,14.43,3.3
					c14.12,0,26.71-8.97,31.33-22.33l24.25,8.4C135.95,241.71,113.61,257.63,88.56,257.63z"/>
			</g>
		</g>
		<g>
			<g>
				<path class="st12" d="M62.93,251.76c-12.27-5.96-22.16-16.08-27.84-28.5l23.33-10.71c3.21,7.01,8.79,12.72,15.71,16.08
					L62.93,251.76L62.93,251.76z"/>
			</g>
		</g>
		<g>
			<g>
				<path class="st9" d="M35.08,223.26c-3.53-7.72-5.33-15.97-5.33-24.52c0-32.47,26.38-58.89,58.8-58.89v25.71
					c-18.27,0-33.14,14.89-33.14,33.19c0,4.82,1.01,9.47,2.99,13.81L35.08,223.26z"/>
			</g>
		</g>
		<g>
			<g>
				<path class="st3" d="M183.12,176.01c0.53,0,0.98-0.09,1.36-0.27c0.38-0.18,0.78-0.46,1.2-0.85l0.99,1.01
					c-0.96,1.07-2.13,1.6-3.5,1.6c-1.37,0-2.51-0.44-3.42-1.33c-0.91-0.88-1.36-2-1.36-3.35c0-1.35,0.46-2.48,1.38-3.38
					c0.92-0.9,2.09-1.35,3.5-1.35c1.41,0,2.58,0.52,3.53,1.56l-0.98,1.07c-0.43-0.42-0.84-0.71-1.23-0.87
					c-0.39-0.16-0.84-0.25-1.36-0.25c-0.92,0-1.69,0.3-2.31,0.89s-0.94,1.35-0.94,2.28c0,0.92,0.31,1.69,0.93,2.31
					C181.54,175.71,182.27,176.01,183.12,176.01z"/>
			</g>
			<g>
				<path class="st3" d="M193.93,176.48c-0.69,0.69-1.56,1.03-2.6,1.03s-1.91-0.34-2.6-1.03s-1.04-1.53-1.04-2.53
					c0-1,0.35-1.84,1.04-2.53c0.69-0.69,1.56-1.03,2.6-1.03s1.91,0.34,2.6,1.03c0.69,0.69,1.04,1.53,1.04,2.53
					C194.97,174.94,194.62,175.79,193.93,176.48z M189.76,175.58c0.41,0.42,0.93,0.63,1.57,0.63s1.15-0.21,1.57-0.63
					c0.41-0.42,0.62-0.96,0.62-1.63c0-0.67-0.21-1.21-0.62-1.63c-0.41-0.42-0.93-0.63-1.57-0.63s-1.15,0.21-1.57,0.63
					c-0.41,0.42-0.62,0.96-0.62,1.63C189.14,174.62,189.35,175.16,189.76,175.58z"/>
			</g>
			<g>
				<path class="st3" d="M198.07,173.66v3.74h-1.46v-6.92h1.46v1.26c0.23-0.42,0.56-0.76,0.97-1c0.41-0.24,0.86-0.36,1.33-0.36
					c0.78,0,1.41,0.24,1.89,0.71c0.48,0.48,0.72,1.17,0.72,2.07v4.24h-1.46v-3.8c0-1.27-0.53-1.91-1.59-1.91
					c-0.5,0-0.94,0.17-1.31,0.5C198.26,172.53,198.07,173.02,198.07,173.66z"/>
			</g>
			<g>
				<path class="st3" d="M209.94,175.34c0,0.66-0.24,1.19-0.71,1.58c-0.48,0.39-1.09,0.59-1.83,0.59c-0.5,0-1.02-0.09-1.57-0.27
					c-0.54-0.18-1.02-0.44-1.44-0.77l0.7-1.13c0.81,0.61,1.59,0.91,2.34,0.91c0.33,0,0.59-0.08,0.78-0.23
					c0.19-0.15,0.29-0.34,0.29-0.58c0-0.35-0.46-0.66-1.38-0.94c-0.07-0.03-0.12-0.04-0.16-0.05c-1.44-0.39-2.16-1.04-2.16-1.95
					c0-0.64,0.25-1.15,0.75-1.54c0.5-0.39,1.15-0.58,1.94-0.58s1.55,0.23,2.26,0.7l-0.55,1.08c-0.56-0.37-1.17-0.56-1.83-0.56
					c-0.35,0-0.63,0.06-0.85,0.19c-0.22,0.13-0.33,0.31-0.33,0.57c0,0.23,0.11,0.39,0.34,0.49c0.16,0.08,0.37,0.15,0.66,0.22
					c0.28,0.07,0.53,0.14,0.75,0.21c0.22,0.07,0.43,0.15,0.63,0.23c0.2,0.09,0.42,0.21,0.66,0.36
					C209.71,174.19,209.94,174.68,209.94,175.34z"/>
			</g>
			<g>
				<path class="st3" d="M216.43,174.23v-3.74h1.46v6.92h-1.46v-1.26c-0.23,0.42-0.56,0.76-0.97,1c-0.41,0.24-0.86,0.36-1.33,0.36
					c-0.78,0-1.41-0.24-1.89-0.71s-0.72-1.17-0.72-2.07v-4.24h1.46v3.8c0,1.27,0.53,1.91,1.59,1.91c0.5,0,0.94-0.17,1.31-0.5
					C216.24,175.36,216.43,174.88,216.43,174.23z"/>
			</g>
			<g>
				<path class="st3" d="M221.45,177.41h-1.46v-9.65h1.46V177.41z"/>
			</g>
			<g>
				<path class="st3" d="M225.35,171.66v3.51c0,0.33,0.09,0.59,0.26,0.79c0.17,0.2,0.42,0.29,0.73,0.29s0.61-0.15,0.9-0.46l0.6,1.03
					c-0.51,0.46-1.08,0.69-1.7,0.69s-1.15-0.21-1.59-0.64c-0.44-0.43-0.66-1.01-0.66-1.74v-3.47h-0.87v-1.17h0.87v-2.17h1.46v2.17
					h1.82v1.17H225.35z"/>
			</g>
			<g>
				<path class="st3" d="M234.59,177.41h-1.33v-0.92c-0.57,0.68-1.34,1.03-2.3,1.03c-0.72,0-1.32-0.2-1.79-0.61
					c-0.47-0.41-0.71-0.95-0.71-1.63c0-0.68,0.25-1.19,0.75-1.53c0.5-0.34,1.18-0.51,2.04-0.51h1.89v-0.26
					c0-0.92-0.51-1.38-1.53-1.38c-0.64,0-1.31,0.23-2,0.7l-0.65-0.91c0.84-0.67,1.79-1,2.86-1c0.81,0,1.48,0.21,2,0.62
					s0.77,1.06,0.77,1.94V177.41z M233.14,174.83v-0.58h-1.64c-1.05,0-1.57,0.33-1.57,0.99c0,0.34,0.13,0.6,0.39,0.77
					c0.26,0.18,0.62,0.27,1.09,0.27c0.46,0,0.87-0.13,1.22-0.39C232.96,175.62,233.14,175.27,233.14,174.83z"/>
			</g>
			<g>
				<path class="st3" d="M238.34,171.66v3.51c0,0.33,0.09,0.59,0.26,0.79c0.17,0.2,0.42,0.29,0.73,0.29s0.61-0.15,0.9-0.46l0.6,1.03
					c-0.51,0.46-1.08,0.69-1.7,0.69s-1.15-0.21-1.59-0.64c-0.44-0.43-0.66-1.01-0.66-1.74v-3.47h-0.87v-1.17h0.87v-2.17h1.46v2.17
					h1.82v1.17H238.34z"/>
			</g>
			<g>
				<path class="st3" d="M242.07,169.11c-0.18-0.18-0.27-0.4-0.27-0.65s0.09-0.47,0.27-0.65s0.4-0.27,0.65-0.27s0.47,0.09,0.65,0.27
					s0.27,0.4,0.27,0.65s-0.09,0.47-0.27,0.65c-0.18,0.18-0.4,0.27-0.65,0.27S242.25,169.29,242.07,169.11z M243.43,177.41h-1.46
					v-6.92h1.46V177.41z"/>
			</g>
			<g>
				<path class="st3" d="M251.33,176.48c-0.69,0.69-1.56,1.03-2.6,1.03s-1.91-0.34-2.6-1.03s-1.04-1.53-1.04-2.53
					c0-1,0.35-1.84,1.04-2.53c0.69-0.69,1.56-1.03,2.6-1.03s1.91,0.34,2.6,1.03c0.69,0.69,1.04,1.53,1.04,2.53
					C252.37,174.94,252.02,175.79,251.33,176.48z M247.16,175.58c0.41,0.42,0.93,0.63,1.57,0.63s1.15-0.21,1.57-0.63
					c0.41-0.42,0.62-0.96,0.62-1.63c0-0.67-0.21-1.21-0.62-1.63c-0.41-0.42-0.93-0.63-1.57-0.63s-1.15,0.21-1.57,0.63
					c-0.41,0.42-0.62,0.96-0.62,1.63C246.54,174.62,246.75,175.16,247.16,175.58z"/>
			</g>
			<g>
				<path class="st3" d="M255.47,173.66v3.74h-1.46v-6.92h1.46v1.26c0.23-0.42,0.56-0.76,0.97-1c0.41-0.24,0.86-0.36,1.33-0.36
					c0.78,0,1.41,0.24,1.89,0.71c0.48,0.48,0.72,1.17,0.72,2.07v4.24h-1.46v-3.8c0-1.27-0.53-1.91-1.59-1.91
					c-0.5,0-0.94,0.17-1.31,0.5C255.66,172.53,255.47,173.02,255.47,173.66z"/>
			</g>
		</g>
		<g>
			<g>
				<path class="st3" d="M119.19,109.76h10.3v2.15h-3.93v10.48h-2.43V111.9h-3.93V109.76z"/>
			</g>
			<g>
				<path class="st3" d="M133.22,108.98c0.25,0.26,0.38,0.6,0.38,1.01c0,0.4-0.13,0.73-0.38,0.99c-0.25,0.26-0.57,0.4-0.96,0.4
					s-0.7-0.13-0.96-0.4c-0.25-0.26-0.38-0.6-0.38-0.99c0-0.41,0.13-0.75,0.38-1.01c0.25-0.26,0.57-0.4,0.96-0.4
					S132.97,108.72,133.22,108.98z M131.11,112.73h2.34v9.65h-2.34V112.73z"/>
			</g>
			<g>
				<path class="st3" d="M140.47,114.72c-0.78,0-1.42,0.26-1.9,0.79c-0.49,0.53-0.73,1.21-0.73,2.06c0,0.87,0.24,1.56,0.73,2.09
					c0.49,0.53,1.12,0.79,1.9,0.79c1.15,0,2.02-0.38,2.6-1.14l1.46,1.21c-0.43,0.62-1,1.11-1.71,1.44c-0.71,0.34-1.53,0.5-2.47,0.5
					c-0.95,0-1.79-0.2-2.53-0.61s-1.31-0.98-1.72-1.72c-0.41-0.74-0.61-1.59-0.61-2.55c0-0.97,0.21-1.83,0.62-2.58
					c0.42-0.75,0.99-1.32,1.73-1.73c0.74-0.41,1.59-0.61,2.55-0.61c0.88,0,1.66,0.15,2.35,0.46s1.25,0.74,1.69,1.31l-1.42,1.35
					C142.35,115.07,141.5,114.72,140.47,114.72z"/>
			</g>
			<g>
				<path class="st3" d="M153.06,122.38l-2.62-4.22l-1.48,1.55v2.67h-2.34V109h2.34v7.75l3.97-4h2.71l-3.57,3.72l3.79,5.92H153.06z"
					/>
			</g>
			<g>
				<path class="st3" d="M164.47,113.98c0.78,0.88,1.16,2.11,1.16,3.7c0,0.31-0.01,0.55-0.02,0.7h-7.12
					c0.16,0.69,0.48,1.22,0.96,1.61c0.49,0.39,1.08,0.59,1.79,0.59c0.49,0,0.96-0.09,1.42-0.28c0.45-0.19,0.84-0.45,1.18-0.8
					l1.26,1.32c-0.48,0.53-1.07,0.94-1.76,1.23s-1.46,0.43-2.3,0.43c-0.99,0-1.85-0.2-2.61-0.61c-0.75-0.41-1.33-0.98-1.74-1.72
					c-0.41-0.74-0.61-1.59-0.61-2.55c0-0.96,0.21-1.81,0.62-2.56c0.42-0.75,0.99-1.33,1.74-1.74c0.75-0.42,1.59-0.62,2.54-0.62
					C162.53,112.66,163.69,113.1,164.47,113.98z M163.48,116.81c-0.02-0.71-0.26-1.27-0.7-1.7c-0.45-0.42-1.03-0.63-1.77-0.63
					c-0.69,0-1.26,0.21-1.72,0.62c-0.46,0.42-0.75,0.98-0.86,1.7H163.48z"/>
			</g>
			<g>
				<path class="st3" d="M173.29,121.79c-0.77,0.47-1.58,0.7-2.42,0.7c-0.83,0-1.51-0.24-2.04-0.73c-0.53-0.49-0.79-1.21-0.79-2.16
					v-4.76h-1.35l-0.02-1.71h1.37v-2.65h2.33v2.65h2.76v1.71h-2.76v4.35c0,0.44,0.08,0.76,0.25,0.95c0.17,0.19,0.42,0.28,0.76,0.28
					c0.36,0,0.82-0.13,1.37-0.4L173.29,121.79z"/>
			</g>
			<g>
				<path class="st3" d="M179.4,114.7c-0.5-0.16-0.96-0.23-1.38-0.23c-0.4,0-0.71,0.07-0.95,0.21s-0.35,0.35-0.35,0.64
					c0,0.3,0.15,0.53,0.44,0.69c0.29,0.16,0.76,0.33,1.4,0.51c0.67,0.2,1.23,0.41,1.66,0.6c0.43,0.2,0.81,0.49,1.13,0.88
					c0.32,0.39,0.48,0.91,0.48,1.54c0,0.94-0.36,1.66-1.08,2.16c-0.72,0.51-1.63,0.76-2.72,0.76c-0.75,0-1.47-0.12-2.18-0.35
					c-0.71-0.23-1.31-0.57-1.8-1l0.81-1.64c0.43,0.37,0.95,0.66,1.55,0.87s1.17,0.32,1.71,0.32c0.43,0,0.78-0.07,1.04-0.23
					c0.26-0.15,0.39-0.38,0.39-0.68c0-0.34-0.15-0.59-0.45-0.76c-0.3-0.17-0.79-0.35-1.46-0.56c-0.65-0.19-1.18-0.38-1.59-0.57
					s-0.76-0.47-1.06-0.85s-0.45-0.87-0.45-1.49c0-0.95,0.35-1.67,1.04-2.17c0.69-0.5,1.56-0.75,2.61-0.75
					c0.64,0,1.27,0.09,1.88,0.27c0.62,0.18,1.17,0.43,1.65,0.76l-0.85,1.7C180.38,115.07,179.9,114.85,179.4,114.7z"/>
			</g>
		</g>
		<g>
			<g>
				<path class="st3" d="M181.66,197.05h-1.46v-9.65h1.46V197.05z"/>
			</g>
			<g>
				<path class="st3" d="M189.55,196.12c-0.69,0.69-1.56,1.03-2.6,1.03s-1.91-0.34-2.6-1.03s-1.04-1.53-1.04-2.53
					c0-1,0.35-1.84,1.04-2.53c0.69-0.69,1.56-1.03,2.6-1.03s1.91,0.34,2.6,1.03c0.69,0.69,1.04,1.53,1.04,2.53
					C190.59,194.59,190.25,195.43,189.55,196.12z M185.39,195.23c0.41,0.42,0.93,0.63,1.57,0.63s1.15-0.21,1.57-0.63
					c0.41-0.42,0.62-0.96,0.62-1.63c0-0.67-0.21-1.21-0.62-1.63c-0.41-0.42-0.93-0.63-1.57-0.63s-1.15,0.21-1.57,0.63
					c-0.41,0.42-0.62,0.96-0.62,1.63C184.77,194.26,184.97,194.81,185.39,195.23z"/>
			</g>
			<g>
				<path class="st3" d="M197.85,197.05h-1.33v-0.92c-0.57,0.68-1.34,1.03-2.3,1.03c-0.72,0-1.32-0.2-1.79-0.61
					c-0.47-0.41-0.71-0.95-0.71-1.63c0-0.68,0.25-1.19,0.75-1.53c0.5-0.34,1.18-0.51,2.04-0.51h1.89v-0.26
					c0-0.92-0.51-1.38-1.53-1.38c-0.64,0-1.31,0.23-2,0.7l-0.65-0.91c0.84-0.67,1.79-1,2.86-1c0.81,0,1.48,0.21,2,0.62
					s0.77,1.06,0.77,1.94V197.05z M196.39,194.48v-0.58h-1.64c-1.05,0-1.57,0.33-1.57,0.99c0,0.34,0.13,0.6,0.39,0.77
					c0.26,0.18,0.62,0.27,1.09,0.27c0.46,0,0.87-0.13,1.22-0.39C196.22,195.27,196.39,194.92,196.39,194.48z"/>
			</g>
			<g>
				<path class="st3" d="M201.33,193.31v3.74h-1.46v-6.92h1.46v1.26c0.23-0.42,0.56-0.76,0.97-1c0.41-0.24,0.86-0.36,1.33-0.36
					c0.78,0,1.41,0.24,1.89,0.71c0.48,0.48,0.72,1.17,0.72,2.07v4.24h-1.46v-3.8c0-1.27-0.53-1.91-1.59-1.91
					c-0.5,0-0.94,0.17-1.31,0.5C201.52,192.18,201.33,192.67,201.33,193.31z"/>
			</g>
			<g>
				<path class="st3" d="M213.2,194.98c0,0.66-0.24,1.19-0.71,1.58c-0.48,0.39-1.09,0.59-1.83,0.59c-0.5,0-1.02-0.09-1.57-0.27
					c-0.54-0.18-1.02-0.44-1.44-0.77l0.7-1.13c0.81,0.61,1.59,0.91,2.34,0.91c0.33,0,0.59-0.08,0.78-0.23
					c0.19-0.15,0.29-0.34,0.29-0.58c0-0.35-0.46-0.66-1.38-0.94c-0.07-0.03-0.12-0.04-0.16-0.05c-1.44-0.39-2.16-1.04-2.16-1.95
					c0-0.64,0.25-1.15,0.75-1.54c0.5-0.39,1.15-0.58,1.94-0.58s1.55,0.23,2.26,0.7l-0.55,1.08c-0.56-0.37-1.17-0.56-1.83-0.56
					c-0.35,0-0.63,0.06-0.85,0.19c-0.22,0.13-0.33,0.31-0.33,0.57c0,0.23,0.11,0.39,0.34,0.49c0.16,0.08,0.37,0.15,0.66,0.22
					c0.28,0.07,0.53,0.14,0.75,0.21c0.22,0.07,0.43,0.15,0.63,0.23c0.2,0.09,0.42,0.21,0.66,0.36
					C212.97,193.84,213.2,194.33,213.2,194.98z"/>
			</g>
		</g>
		<g>
			<g>
				<path class="st3" d="M180.54,207.03h1.53v9.09h-1.53V207.03z"/>
			</g>
			<g>
				<path class="st3" d="M185.78,212.38v3.74h-1.46v-6.92h1.46v1.26c0.23-0.42,0.56-0.76,0.97-1c0.41-0.24,0.86-0.36,1.33-0.36
					c0.78,0,1.41,0.24,1.89,0.71c0.48,0.48,0.72,1.17,0.72,2.07v4.24h-1.46v-3.8c0-1.27-0.53-1.91-1.59-1.91
					c-0.5,0-0.94,0.17-1.31,0.5C185.97,211.25,185.78,211.74,185.78,212.38z"/>
			</g>
			<g>
				<path class="st3" d="M194.48,216.12l-2.78-6.92h1.51l2.11,5.23l2.11-5.23h1.51l-2.78,6.92H194.48z"/>
			</g>
			<g>
				<path class="st3" d="M206.52,213.3h-5.42c0.03,0.5,0.26,0.91,0.69,1.22c0.42,0.31,0.91,0.46,1.46,0.46
					c0.87,0,1.53-0.27,1.98-0.82l0.83,0.91c-0.75,0.77-1.72,1.16-2.91,1.16c-0.97,0-1.8-0.32-2.48-0.97
					c-0.68-0.65-1.02-1.51-1.02-2.6c0-1.09,0.35-1.95,1.04-2.59c0.69-0.64,1.51-0.96,2.45-0.96c0.94,0,1.74,0.28,2.4,0.85
					s0.99,1.35,0.99,2.35V213.3z M201.1,212.16h3.97c0-0.58-0.18-1.03-0.55-1.34c-0.36-0.31-0.81-0.47-1.35-0.47
					c-0.53,0-1.01,0.16-1.44,0.49C201.31,211.16,201.1,211.6,201.1,212.16z"/>
			</g>
			<g>
				<path class="st3" d="M213.05,214.05c0,0.66-0.24,1.19-0.71,1.58c-0.48,0.39-1.09,0.59-1.83,0.59c-0.5,0-1.02-0.09-1.57-0.27
					c-0.54-0.18-1.02-0.44-1.44-0.77l0.7-1.13c0.81,0.61,1.59,0.91,2.34,0.91c0.33,0,0.59-0.08,0.78-0.23
					c0.19-0.15,0.29-0.34,0.29-0.58c0-0.35-0.46-0.66-1.38-0.94c-0.07-0.03-0.12-0.04-0.16-0.05c-1.44-0.39-2.16-1.04-2.16-1.95
					c0-0.64,0.25-1.15,0.75-1.54c0.5-0.39,1.15-0.58,1.94-0.58s1.55,0.23,2.26,0.7l-0.55,1.08c-0.56-0.37-1.17-0.56-1.83-0.56
					c-0.35,0-0.63,0.06-0.85,0.19c-0.22,0.13-0.33,0.31-0.33,0.57c0,0.23,0.11,0.39,0.34,0.49c0.16,0.08,0.37,0.15,0.66,0.22
					c0.28,0.07,0.53,0.14,0.75,0.21c0.22,0.07,0.43,0.15,0.63,0.23c0.2,0.09,0.42,0.21,0.66,0.36
					C212.81,212.91,213.05,213.4,213.05,214.05z"/>
			</g>
			<g>
				<path class="st3" d="M216.49,210.37v3.51c0,0.33,0.09,0.59,0.26,0.79c0.17,0.2,0.42,0.29,0.73,0.29s0.61-0.15,0.9-0.46l0.6,1.03
					c-0.51,0.46-1.08,0.69-1.7,0.69s-1.15-0.21-1.59-0.64c-0.44-0.43-0.66-1.01-0.66-1.74v-3.47h-0.87v-1.17h0.87v-2.17h1.46v2.17
					h1.82v1.17H216.49z"/>
			</g>
			<g>
				<path class="st3" d="M221.59,212.38v3.74h-1.46v-6.92h1.46v1.26c0.21-0.42,0.52-0.76,0.94-1c0.42-0.24,0.87-0.36,1.36-0.36
					c1.09,0,1.83,0.45,2.22,1.35c0.68-0.9,1.54-1.35,2.56-1.35c0.78,0,1.41,0.24,1.89,0.71c0.48,0.48,0.72,1.17,0.72,2.07v4.24
					h-1.46v-3.8c0-1.27-0.53-1.91-1.59-1.91c-0.49,0-0.93,0.16-1.29,0.47s-0.56,0.78-0.58,1.38v3.85h-1.46v-3.8
					c0-0.66-0.12-1.14-0.35-1.45c-0.23-0.31-0.6-0.46-1.1-0.46c-0.5,0-0.94,0.17-1.31,0.5
					C221.77,211.25,221.59,211.74,221.59,212.38z"/>
			</g>
			<g>
				<path class="st3" d="M239.75,213.3h-5.42c0.03,0.5,0.26,0.91,0.69,1.22c0.42,0.31,0.91,0.46,1.46,0.46
					c0.87,0,1.53-0.27,1.98-0.82l0.83,0.91c-0.75,0.77-1.72,1.16-2.91,1.16c-0.97,0-1.8-0.32-2.48-0.97
					c-0.68-0.65-1.02-1.51-1.02-2.6c0-1.09,0.35-1.95,1.04-2.59c0.69-0.64,1.51-0.96,2.45-0.96c0.94,0,1.74,0.28,2.4,0.85
					s0.99,1.35,0.99,2.35V213.3z M234.33,212.16h3.97c0-0.58-0.18-1.03-0.55-1.34c-0.36-0.31-0.81-0.47-1.35-0.47
					c-0.53,0-1.01,0.16-1.44,0.49C234.54,211.16,234.33,211.6,234.33,212.16z"/>
			</g>
			<g>
				<path class="st3" d="M242.81,212.38v3.74h-1.46v-6.92h1.46v1.26c0.23-0.42,0.56-0.76,0.97-1c0.41-0.24,0.86-0.36,1.33-0.36
					c0.78,0,1.41,0.24,1.89,0.71c0.48,0.48,0.72,1.17,0.72,2.07v4.24h-1.46v-3.8c0-1.27-0.53-1.91-1.59-1.91
					c-0.5,0-0.94,0.17-1.31,0.5C242.99,211.25,242.81,211.74,242.81,212.38z"/>
			</g>
			<g>
				<path class="st3" d="M251.45,210.37v3.51c0,0.33,0.09,0.59,0.26,0.79c0.17,0.2,0.42,0.29,0.73,0.29s0.61-0.15,0.9-0.46l0.6,1.03
					c-0.51,0.46-1.08,0.69-1.7,0.69s-1.15-0.21-1.59-0.64c-0.44-0.43-0.66-1.01-0.66-1.74v-3.47h-0.87v-1.17H250v-2.17h1.46v2.17
					h1.82v1.17H251.45z"/>
			</g>
			<g>
				<path class="st3" d="M260.02,214.05c0,0.66-0.24,1.19-0.71,1.58c-0.48,0.39-1.09,0.59-1.83,0.59c-0.5,0-1.02-0.09-1.57-0.27
					c-0.54-0.18-1.02-0.44-1.44-0.77l0.7-1.13c0.81,0.61,1.59,0.91,2.34,0.91c0.33,0,0.59-0.08,0.78-0.23
					c0.19-0.15,0.29-0.34,0.29-0.58c0-0.35-0.46-0.66-1.38-0.94c-0.07-0.03-0.12-0.04-0.16-0.05c-1.44-0.39-2.16-1.04-2.16-1.95
					c0-0.64,0.25-1.15,0.75-1.54c0.5-0.39,1.15-0.58,1.94-0.58s1.55,0.23,2.26,0.7l-0.55,1.08c-0.56-0.37-1.17-0.56-1.83-0.56
					c-0.35,0-0.63,0.06-0.85,0.19c-0.22,0.13-0.33,0.31-0.33,0.57c0,0.23,0.11,0.39,0.34,0.49c0.16,0.08,0.37,0.15,0.66,0.22
					c0.28,0.07,0.53,0.14,0.75,0.21c0.22,0.07,0.43,0.15,0.63,0.23c0.2,0.09,0.42,0.21,0.66,0.36
					C259.79,212.91,260.02,213.4,260.02,214.05z"/>
			</g>
		</g>
		<g>
			<g>
				<path class="st3" d="M184.92,235.28c0.53,0,0.98-0.09,1.36-0.27c0.38-0.18,0.78-0.46,1.2-0.85l0.99,1.01
					c-0.96,1.07-2.13,1.6-3.5,1.6c-1.37,0-2.51-0.44-3.42-1.33c-0.91-0.88-1.36-2-1.36-3.35c0-1.35,0.46-2.48,1.38-3.38
					c0.92-0.9,2.09-1.35,3.5-1.35c1.41,0,2.58,0.52,3.53,1.56l-0.98,1.07c-0.43-0.42-0.84-0.71-1.23-0.87
					c-0.39-0.16-0.84-0.25-1.36-0.25c-0.92,0-1.69,0.3-2.31,0.89s-0.94,1.35-0.94,2.28c0,0.92,0.31,1.69,0.93,2.31
					C183.34,234.97,184.07,235.28,184.92,235.28z"/>
			</g>
			<g>
				<path class="st3" d="M191.59,236.67h-1.46v-9.65h1.46V236.67z"/>
			</g>
			<g>
				<path class="st3" d="M199.3,236.67h-1.33v-0.92c-0.57,0.68-1.34,1.03-2.3,1.03c-0.72,0-1.32-0.2-1.79-0.61
					c-0.47-0.41-0.71-0.95-0.71-1.63c0-0.68,0.25-1.19,0.75-1.53c0.5-0.34,1.18-0.51,2.04-0.51h1.89v-0.26
					c0-0.92-0.51-1.38-1.53-1.38c-0.64,0-1.31,0.23-2,0.7l-0.65-0.91c0.84-0.67,1.79-1,2.86-1c0.81,0,1.48,0.21,2,0.62
					s0.77,1.06,0.77,1.94V236.67z M197.84,234.09v-0.58h-1.64c-1.05,0-1.57,0.33-1.57,0.99c0,0.34,0.13,0.6,0.39,0.77
					c0.26,0.18,0.62,0.27,1.09,0.27c0.46,0,0.87-0.13,1.22-0.39C197.67,234.89,197.84,234.53,197.84,234.09z"/>
			</g>
			<g>
				<path class="st3" d="M201.42,228.37c-0.18-0.18-0.27-0.4-0.27-0.65s0.09-0.47,0.27-0.65s0.4-0.27,0.65-0.27s0.47,0.09,0.65,0.27
					s0.27,0.4,0.27,0.65s-0.09,0.47-0.27,0.65c-0.18,0.18-0.4,0.27-0.65,0.27S201.6,228.55,201.42,228.37z M202.78,236.67h-1.46
					v-6.92h1.46V236.67z"/>
			</g>
			<g>
				<path class="st3" d="M206.35,232.92v3.74h-1.46v-6.92h1.46v1.26c0.21-0.42,0.52-0.76,0.94-1c0.42-0.24,0.87-0.36,1.36-0.36
					c1.09,0,1.83,0.45,2.22,1.35c0.68-0.9,1.54-1.35,2.56-1.35c0.78,0,1.41,0.24,1.89,0.71c0.48,0.48,0.72,1.17,0.72,2.07v4.24
					h-1.46v-3.8c0-1.27-0.53-1.91-1.59-1.91c-0.49,0-0.93,0.16-1.29,0.47s-0.56,0.78-0.58,1.38v3.85h-1.46v-3.8
					c0-0.66-0.12-1.14-0.35-1.45c-0.23-0.31-0.6-0.46-1.1-0.46c-0.5,0-0.94,0.17-1.31,0.5
					C206.53,231.79,206.35,232.28,206.35,232.92z"/>
			</g>
			<g>
				<path class="st3" d="M223,234.6c0,0.66-0.24,1.19-0.71,1.58c-0.48,0.39-1.09,0.59-1.83,0.59c-0.5,0-1.02-0.09-1.57-0.27
					c-0.54-0.18-1.02-0.44-1.44-0.77l0.7-1.13c0.81,0.61,1.59,0.91,2.34,0.91c0.33,0,0.59-0.08,0.78-0.23
					c0.19-0.15,0.29-0.34,0.29-0.58c0-0.35-0.46-0.66-1.38-0.94c-0.07-0.03-0.12-0.04-0.16-0.05c-1.44-0.39-2.16-1.04-2.16-1.95
					c0-0.64,0.25-1.15,0.75-1.54c0.5-0.39,1.15-0.58,1.94-0.58s1.55,0.23,2.26,0.7l-0.55,1.08c-0.56-0.37-1.17-0.56-1.83-0.56
					c-0.35,0-0.63,0.06-0.85,0.19c-0.22,0.13-0.33,0.31-0.33,0.57c0,0.23,0.11,0.39,0.34,0.49c0.16,0.08,0.37,0.15,0.66,0.22
					c0.28,0.07,0.53,0.14,0.75,0.21c0.22,0.07,0.43,0.15,0.63,0.23c0.2,0.09,0.42,0.21,0.66,0.36
					C222.77,233.46,223,233.94,223,234.6z"/>
			</g>
		</g>
	</g>
</g>
</svg>
